<?xml version="1.0" encoding="utf-8"?>
<!-- Generator: Adobe Illustrator 19.0.0, SVG Export Plug-In . SVG Version: 6.00 Build 0)  -->
<svg version="1.1" id="Layer_1" xmlns="http://www.w3.org/2000/svg" xmlns:xlink="http://www.w3.org/1999/xlink" x="0px" y="0px"
	 width="520px" height="792.6px" viewBox="5.1 1693.8 520 792.6" enable-background="new 5.1 1693.8 520 792.6"
	 xml:space="preserve">
<path fill="#455A64" d="M221.5,2486.1l2.5-1.2l-2.5-4.4h37.9l-13.9-4.3c0,3.6,2.4,6.8,6,7.7c1.7,0.4,3.4,0.7,5.2,0.7l19.6-2.3
	l55.5-5.5l36.8-2.7l27.3-1.9l47.1-1.7l30.2-1.9l3.5-0.5c4.7-0.7,9.5-1.1,14.3-1.2c5.2-0.1,10.4-0.4,15.6-0.7c9.4-0.6,17-7.7,18.3-17
	l-9.4-177.3l-1.3-31.7l1.6-81.7l1-29.2c-2.1-8-7.3-14.5-13.9-18.6v-14l2.7,1.5c2.4,0,4.7-0.1,7.1-0.2c3.4-0.2,6.2-2.7,6.9-6.1
	c1-5.5,1.7-11,1.9-16.6l0.9-26.8l-0.7-60.3l-7.1-94.4l-4.7-51.7l-2.2-74.4c-0.2-2.7-1.9-5-4.4-6l-10.1,0.3v-18.3l0.3,0.1l1.6,0.5
	l1.2,0.3l0.9,0.2l0.7,0.1l0.5,0.1h0.5h0.5h0.4h0.4h0.4h0.4h0.4h0.4l0.4-0.1l0.4-0.1l0.4-0.1l0.4-0.2l0.4-0.2l0.4-0.2l0.4-0.3
	l0.3-0.3l0.3-0.3l0.3-0.3l0.3-0.4l0.2-0.4l0.2-0.5l0.1-0.5l0.1-0.5l0.1-0.6l0.1-0.7v-0.7v-0.8v-0.9v-1v-1.1v-1.2v-1.3v-1.5v-1.6
	v-1.8v-1.8v-1.9v-2v-2v-2v-2v-1.9v-1.8v-1.8v-1.7v-1.6v-1.4l-0.1-1.3l-0.1-1.1l-0.1-1l-0.1-0.8l-0.1-0.7l-0.2-0.5l-0.2-0.5l-0.2-0.4
	l-0.3-0.3l-0.3-0.3l-0.3-0.3l-0.3-0.3l-0.4-0.3l-0.6-0.2l-0.4-0.3l-0.4-0.3l-0.5-0.3l-0.5-0.3l-0.5-0.3l-0.6-0.3l-0.9-0.2l-1.3-0.2
	l-1.9-0.2l-2.6-0.2l-3.5-0.1l-4.4-0.1l-5.5-0.1l-6.3-0.1h-6.9H460l-7.1,0.1l-6.8,0.2l-6.2,0.3l-5.3,0.4l-4.2,0.5l-3.3,0.6l-2.6,0.7
	l-2.2,0.7l-2.1,0.6l-2.1,0.6l-2.5,0.5l-3.1,0.4l-4,0.3l-4.6,0.1l-5.1,0.1l-5.3,0.1l-5.2,0.1l-5,0.3l-4.5,0.4l-3.8,0.6l-2.9,0.8
	l-2.1,1l-1.5,1.2l-0.9,1.3l-0.5,1.3l-0.3,1.3l-0.1,1.3l-0.1,1.1l-0.2,1l-0.3,0.8l-0.3,0.7l-0.4,0.6l-0.5,0.6l-0.5,0.5l-0.6,0.5
	l-0.7,0.5l-0.7,0.5l-0.7,0.6l-0.8,0.6l-0.8,0.6l-0.8,0.6l-0.8,0.6l-0.8,0.7l-0.8,0.7l-0.8,0.7l-0.7,0.7l-0.7,0.7l-0.7,0.7l-0.7,0.7
	l-0.7,0.7l-0.7,0.7l-0.7,0.7l-0.7,0.7l-0.7,0.7l-0.7,0.7l-0.7,0.7l-0.6,0.7l-0.6,0.7l-0.6,0.7l-0.6,0.7l-0.5,0.7l-0.5,0.7l-0.5,0.7
	l-0.5,0.7l-0.5,0.7l-0.5,0.7l-0.5,0.8l-0.5,0.8l-0.5,0.8l-0.5,0.9l-0.5,0.9l-0.5,0.9l-0.5,1l-0.5,1l-0.5,1l-0.5,1l-0.5,1l-0.5,1
	l-0.5,1l-0.2,0.5l-1.4,1.2l-1.4,1l-2.5,0.8l-3.6,0.6l-5.9,0.4l-6.8,0.4l-8,0.4l-38.5,0.4v-3.9h-8.1l-25.5-37.9l-2.1-3.3l-2.7-2.1
	l-5-0.5l-7.2,0.3l-17.2-0.6l-17.7-1.8l-33.4-0.3l-60.4-0.3l-52.9,0.3l-14.4,0.2c-9.2,0.1-16.5,7.6-16.5,16.8v341l0.3,0.2l3,3.6
	l2.4,10.5l6.6,15.9l12.6,32.5l14.4,34.3l11.4,29.2l8.7,28.3l8.4,36.7l14.2,48.2l8.1,26.2l3,17.4v19.5l-1.8,17.2l0.6,15.9l9.6,20.8
	l19.2,26.2l18.3,24.1l8.1,6l16.5,5.4l10.5,1.8l11.4,1.2l14.1,1.2l11.4,1.5L221.5,2486.1z"/>
<polygon fill="#455A64" points="7.8,1866.8 11.8,1857.7 13.5,1853.4 13.5,1868.9 "/>
<path fill="#37474F" d="M90.4,2004.4l-1.5-6c-0.1-1.6,0.9-3.1,2.4-3.7l22.7-4.7c-11.3-49.7,7.7-118.3,94.7-130.2
	c0.2-2.9-1.6-13.6-1.6-13.6l-1,0.2l-0.7-4.2l-2.6,0.5l-0.8-4.6l6.3-1.3l-10-47c-20.8-3.1-42-2.3-62.5,2.5c-10,2.3-19.8,5.5-29.3,9.4
	c-8.5,3.5-16.7,7.6-24.7,12.4c-19.5,11.4-35.4,28-45.9,48c-9.7,22.8-13.5,47.6-11.2,72.2c0.5,24.4,6.3,48.5,17,70.5l4.3-2.1l4.6,8.6
	L90.4,2004.4z"/>
<g>
	<path fill="#37474F" d="M221.5,2486.1l2.5-1.2l-4.6-24.3c-0.5-2.8-1-5.6-1.5-8.4c-1.3-7.8-1.7-15.8-1.2-23.7
		c0.5-7.3,0.8-14.6,0.8-21.9c0-9.1-0.8-18.1-2.6-27c-0.1-0.6-0.4-1.1-0.8-1.6l-3.7-8.3l-5.6-16.2l-5.8-21.8l-13.1-46.4l-18.5-65.8
		l-19-68c-0.5-2-1-4.1-1.1-6.1l-0.8-1.3l-1.2-1.7l-1.6-2.4l-2.2-1.4l-4.9-3.1l1.1-4.4l-2.1-6.9l-4.2-1.8l1.2-3.1l-12.2-6.1l-1.3-0.6
		l-4.1,5.5l-29.7-23.2l2.6-3.9l-18.2-14.6l-11.2-14.3l-12-27.5l-4.4-21.6c-13.8-24.7-21.2-52.4-21.8-80.7c-1.8-18.8,0-37.7,5.1-55.9
		l0.2-0.2c1.8-6.2,3.9-12.2,6.4-18.1c10.8-20.5,27-37.5,47-49.1c8.1-4.8,16.5-9.1,25.2-12.7c9.7-4,19.8-7.3,30-9.7
		c18.2-4.3,37-5.5,55.6-3.6c7.8-11.2,20.1-18.3,33.6-19.6c13.6-1.3,27.3,1.9,39,9.2l15.6,9.8l10.2,7.4l9.8-0.1v-21.6h36v2l-0.1,4.3
		v5.1v5.7v6.1v6.2v6.2l0.1,5.8l0.1,5.3l0.2,4.5l0.2,3.6l0.3,2.7l0.3,1.9l0.4,1.3l0.4,0.7l0.5,0.3h0.5l0.5-0.2l0.5-0.2l0.6-0.3
		l0.6-0.3l0.6-0.3l0.5-0.3l0.5-0.3l0.5-0.3l0.4-0.3l0.3-0.2l0.3-0.2l0.2-0.3l0.1-0.4l0.1-0.5v-0.8v-1v-1.3v-1.7v-2.1v-2.4v-2.8v-3.1
		v-3.5v-3.8v-4.2v-4.4l0.1-4.7l0.3-5l0.5-5.2l0.8-5.4l1.1-5.5l1.5-5.6l2-5.7l2.5-5.7l3.1-5.5l3.5-5.4l4-5.1l4.4-4.7l4.8-4.4l5.2-3.6
		l5.6-3l5.9-2.2l6.2-1.6l6.2-1l6.2-0.4h6.2l5.9,0.4l5.6,0.7l5.2,0.9l4.6,1l4.2,1.2l3.8,1.3l3.6,1.4l3.4,1.5l3.4,1.6l3.4,1.7l3.6,1.8
		l3.9,1.8l4,1.8l4.1,1.8l4.1,1.8l3.9,1.7l3.7,1.6l3.4,1.4l2.9,1.2l2.4,0.9l2,0.7l1.6,0.5l1.2,0.3l0.9,0.2l0.7,0.1l0.5,0.1h0.5h0.5
		h0.4h0.4h0.4h0.4h0.4h0.4l0.4-0.1l0.4-0.1l0.4-0.1l0.4-0.2l0.4-0.2l0.4-0.2l0.4-0.3l0.3-0.3l0.3-0.3l0.3-0.3l0.3-0.4l0.2-0.4
		l0.2-0.5l0.1-0.5l0.1-0.5l0.1-0.6l0.1-0.7v-0.7v-0.8v-0.9v-1v-1.1v-1.2v-1.3v-1.5v-1.6v-1.8v-1.8v-1.9v-2v-2v-2v-2v-1.9v-1.8v-1.8
		v-1.7v-1.6v-1.4l-0.1-1.3l-0.1-1.1l-0.1-1l-0.1-0.8l-0.1-0.7l-0.2-0.5l-0.2-0.5l-0.2-0.4l-0.3-0.3l-0.3-0.3l-0.3-0.3l-0.3-0.3
		l-0.4-0.3l-0.7-0.2l-0.4-0.3l-0.4-0.3l-0.5-0.3l-0.5-0.3l-0.5-0.3l-0.6-0.3l-0.9-0.2l-1.3-0.2l-1.9-0.2l-2.6-0.2l-3.5-0.1l-4.4-0.1
		l-5.5-0.1l-6.3-0.1h-6.9h-7.1l-7.1,0.1l-6.8,0.2l-6.2,0.3l-5.3,0.4l-4.2,0.5l-3.3,0.6l-2.6,0.7l-2.2,0.7l-2.1,0.6l-2.1,0.6
		l-2.5,0.5l-3.1,0.4l-4,0.3l-4.6,0.1l-5.1,0.1l-5.3,0.1l-5.2,0.1l-5,0.3l-4.5,0.4l-3.8,0.6l-2.9,0.8l-2.1,1l-1.5,1.2l-0.9,1.3
		l-0.5,1.3l-0.3,1.3l-0.1,1.3l-0.1,1.1l-0.2,1l-0.3,0.8l-0.3,0.7l-0.4,0.6l-0.5,0.6l-0.5,0.5l-0.6,0.5l-0.7,0.5l-0.7,0.5l-0.7,0.6
		l-0.8,0.6l-0.8,0.6l-0.8,0.6l-0.8,0.6l-0.8,0.7l-0.8,0.7l-0.8,0.7l-0.7,0.7l-0.7,0.7l-0.7,0.7l-0.7,0.7l-0.7,0.7l-0.7,0.7l-0.7,0.7
		l-0.7,0.7l-0.7,0.7l-0.7,0.7l-0.7,0.7l-0.6,0.7l-0.6,0.7l-0.6,0.7l-0.6,0.7l-0.5,0.7l-0.5,0.7l-0.5,0.7l-0.5,0.7l-0.5,0.7l-0.5,0.7
		l-0.5,0.8l-0.5,0.8l-0.5,0.8l-0.5,0.9l-0.5,0.9l-0.5,0.9l-0.5,1l-0.5,1l-0.5,1l-0.5,1l-0.5,1l-0.5,1l-0.5,1l-0.2,0.5l-1.4,1.2
		l-1.4,1l-2.5,0.8l-3.6,0.6l-5.9,0.4l-6.8,0.4l-8,0.4l-38.5,0.4v-3.9h-8.1l-25.5-37.9l-2.1-3.3l-2.7-2.1l-5-0.5l-7.2,0.3l-17.2-0.6
		l-17.7-1.8l-33.4-0.3l-60.4-0.3l-52.9,0.3l-18.5,0.3c-6.9,0.1-12.4,5.7-12.4,12.6v345.1l0.3,0.2l3,3.6l2.4,10.5l6.6,15.9l12.6,32.5
		l14.4,34.3l11.4,29.2l8.7,28.3l8.4,36.7l14.2,48.2l8.1,26.2l3,17.4v19.5l-1.8,17.2l0.6,15.9l9.6,20.8l19.2,26.2l18.3,24.1l8.1,6
		l16.5,5.4l10.5,1.8l11.4,1.2l14.1,1.2l11.4,1.5L221.5,2486.1z"/>
	<path fill="#37474F" d="M343.8,1904.7v-27.5l-0.5-20.7c0-0.2-0.2-0.3-0.4-0.3c-0.1,0-0.2,0-0.2,0.1l-19.4,15.3l-27.3,24.1
		c0.4,0.4,0.7,0.9,1.1,1.3l6.2,9.5l2.5,4.2l4.5,4.9l4.8,3.3l6.6,3.9l7,3.3l6.2,1.6l5.7,0.3l3.7-0.2l1.8-0.3
		C344.7,1920.1,343.8,1912.3,343.8,1904.7z"/>
	<path fill="#37474F" d="M377.1,2095.5l3.1,2.3l5.1,3.1l6.5,3l9.9,4.6l11.6,4.9l32.2,14.9l5.6,2.3l0.7,0.4l8.9,4.5
		c1.8,0.9,3.1,2.6,3.5,4.6l0.3,26l0.5,30.5l0.4,30.3l0.4,20.3l0.3,9.6c0,0.8-0.2,1.7-0.6,2.4l-5.4,0.4c-0.5,0-0.8,0.4-0.8,0.9
		l2.9,26.3l2.7,22.5l2.1,19.8l1.7,16.1l1.6,14.6l2.6,20.5l4.3,35.4l1.5,14c0,0.1,0,0.3,0,0.4c0,1.5-1.3,2.7-2.8,2.7l-33.4,1.3
		l-42.2,1.6l-19.3,0.7c-6.5,0.3-13,0.7-19.5,1.3l-25.7,3.7l-25.1,2.7l-35.1,4.7c-0.9,0.1-1.8-0.5-2.1-1.3l-1-18.2l-8.9-67.9
		l-3.5-31.7l-5.2-44.9c-0.1-0.9-0.4-1.7-0.9-2.4c-0.7-1-1.7-1.6-2.8-1.8c-1.9-0.3-3.8-0.4-5.7-0.5l-3.9,1.7l-5.4,4.5l-1.8,2
		c-3.3,3.7-4.7,8.7-3.7,13.5l5.2,28.9l2.9,20.4l2.9,29.7l2.2,25.2l1,18c0.8,13.7,1,27.4,0.8,41.1v10.9c0,3.6,2.5,6.8,6,7.7
		c1.7,0.4,3.4,0.7,5.2,0.7l19.6-2.3l55.5-5.5l36.8-2.7l27.3-1.9l47.1-1.7l30.2-1.9l3.5-0.5c4.6-0.7,9.3-1.1,14-1.2
		c5.3-0.1,10.7-0.4,15.9-0.7c9.4-0.6,17-7.7,18.3-17l-9.5-177.3l-1.3-31.7l1.6-81.7l1-29.2c-4-14.8-18-24.6-33.3-23.2l-52.9-3.2
		c-13.4-0.8-26.3-4.9-37.7-11.9l-10.4-6.2c-2.9-1.7-6.7-0.8-8.4,2.1c-1.7,2.9-0.8,6.7,2.1,8.4
		C376.6,2095.4,376.9,2095.5,377.1,2095.5z"/>
	<path fill="#37474F" d="M367.8,2106.5l0.1,11.6l0.5,35.9v24.3l1.2,53.5l0.1,26.3c0,1-0.4,2-1,2.8h-6l-21.9,0.9c-0.1,0-0.2,0-0.3,0
		c-0.9-0.1-1.6-0.9-1.4-1.8c0.1-0.9,0.9-1.6,1.8-1.4h6v-14.3l-1.2-60.2l-1.1-71.2l-5.9-0.3c-0.6,0-1.1-0.5-1.2-1.1s0.1-1.3,0.5-1.8
		l15.5-8.6c0.5-0.3,1-0.4,1.6-0.3l3.1,1.8c2,1.2,4.1,2,6.3,2.5l2.1,0.3C367.1,2105.6,367.6,2106,367.8,2106.5z"/>
	<path fill="#37474F" d="M216.1,2114l1.8-0.1l4.5-0.3c0.1,0,0.1,0,0.2,0c0.5,0.1,0.9,0.6,0.8,1.2c-0.1,0.5-0.6,0.9-1.2,0.8l-4.4,1
		c-0.5,0.1-0.8,0.5-0.8,1.1v2.6l-0.6,4v14l0.7,22.7l-0.1,24.6h1.4v2l0.7,49.6v26.4l5.2,0.1c1.2,0.4,2,1.5,2.1,2.7
		c0,1.6-1.2,3-2.9,3.1c-0.8-0.2-1.6-0.4-2.3-0.7c-2.6-0.8-4.9-2.7-6.1-5.2c-0.4-0.8-0.7-1.8-0.7-2.7l-4.1-19.1l-1.7-7.3
		c-1.8-7.7-4.4-15.2-8-22.3c-2.8-5.6-5.7-11.2-8.6-16.9c-3.1-5.9-6-11.8-8.9-17.9c-5.1-10.7-5.6-23-1.4-34.1
		c2.3-7.8,7-14.7,13.3-19.8C200.8,2118.4,208.2,2114.9,216.1,2114z"/>
	<path fill="#37474F" d="M366.5,2273l-21.8,0.8c-1,0-1.9,0.9-1.8,2c0,1,0.8,1.8,1.8,1.8l6.8-0.7l8.5,72.5l1,9.3l5.1,45.8l1.9,14.3
		c0.1,1-0.1,2-0.7,2.7l-5.5,0.5H361l0.8,7.2l23.3-2.7c1.1-0.1,1.9-1.1,1.8-2.3c0-0.1,0-0.2,0-0.3l-9.6-79l-5.7-49.4l-2.1-19.8
		C369.3,2274.3,368.1,2273.1,366.5,2273z"/>
	<path fill="#37474F" d="M448.6,2094.3l-15.1-1.3c-5.4-0.5-10.8-1.5-16-3.1c-9.1-2.7-17.9-6.6-26.1-11.6c-1.9-1.2-3.5-2.8-4.7-4.7
		c-0.7-1-0.8-2.3-0.3-3.5c1.1-2.7,3.8-4.4,6.7-4.4c1.8,0,3.6,0.8,5,1.9c2.1,1.8,4.4,3.2,6.8,4.4c3,1.4,6.1,2.6,9.4,3.4
		c4.7,1.2,9.5,1.6,14.3,1.4c7-0.4,13.9-2.1,20.3-4.9c6.1-2.8,12.5-5.1,18.9-7.1c1.3-0.4,2.1-1.7,1.9-3.1l-0.3-29.5l-0.2-22
		l-0.5-24.1l-0.5-26.4l-0.1-27.5l-0.7-48.2l-0.7-51.4l-0.7-43.2c0-3.1-1.3-6-3.4-8.3l-17.7-10.5l-37.6-24.2
		c-3.3-2.1-7.3-2.9-11.2-2.1c-4.4,0.9-8.6,2.2-12.8,3.9c-1.1,0.5-2.2,1-3.1,1.8c-2.6,2-5,4.2-7.1,6.8c-2.6,3.2-4.8,6.7-6.5,10.5
		c-1.2,2.6-2,5.2-2.5,8c-0.7,4.1-1,8.2-1,12.3l-1,31.5l-0.1,66.8l-0.5,40.8c0,1.1-0.9,2-2,2.1c-1.1,0-2.1-0.8-2.2-2l-1.5-17.6
		l-0.3-21.4l-0.2-32.7l-0.4-29l-0.4-27l-0.2-12.8c-0.2-10.2,1.8-20.3,5.8-29.6c4.9-11.5,14.4-20.4,26.3-24.4
		c14-4.8,29.2-5.1,43.4-0.8l27.5,11.2l46.3,18.5c2.5,1,4.2,3.3,4.4,6l2.2,74.4l4.7,51.7l7.1,94.4l0.6,60.3l-1,26.8
		c-0.2,5.6-0.8,11.1-1.9,16.6c-0.6,3.4-3.5,5.8-6.9,6.1c-2.3,0.2-4.7,0.2-7.1,0.2L448.6,2094.3z"/>
	<path fill="#37474F" d="M153,2128.2l1.7,0.7c1.3,0.9,2.4,2.1,3.1,3.6l8.5,17.4c0.5,0.8,0.9,1.7,0.9,2.7v2.1c-0.4,5.5,0,11,1.2,16.4
		l11.3,28.5l6.3,12.7c9.5,19.2,15.8,39.8,18.8,61l10.2,48.1c2.6,12.4,4.4,25,5.2,37.6l3.5,38.2l2.1,29.4c1.2,17.4,1.5,34.8,0.8,52.2
		c0,1.3-0.1,2.6-0.5,3.9l-4.3-22.6c-0.5-2.8-1-5.7-1.5-8.5c-1.3-7.6-1.6-15.3-1.1-22.9c0.5-7.4,0.8-14.7,0.8-22.1
		c0-9.2-0.8-18.5-2.7-27.5c-0.2-0.8-0.5-1.7-1-2.4l-3.5-7.9l-5.5-16l-5.7-21.7l-13.1-46.4l-18.5-65.8l-19-68
		c-1.3-4.7-1.6-9.7-0.7-14.6C150.7,2133.5,151.7,2130.7,153,2128.2z"/>
	<path fill="#37474F" d="M321.7,1859l21.2-17.9c0.1-0.1,0.1-0.2,0.1-0.3l-0.1-6.2c0-0.2-0.2-0.3-0.4-0.3c0,0-0.1,0-0.2,0l-53.5,31.6
		l-7.9,3.6l-1.7,2.7l1.6,7.4c2.4,2.4,5,4.8,7.6,7.1L321.7,1859z"/>
	<path fill="#37474F" d="M256.1,1776.4l-8-3.4l-9.8-2.6l-9.1-0.9l-9.1,0.9l-6.3,2.1l-5.4,3.1l-3.1,2.7l-3.1,3.3l-1.8,3l59.9,7
		c1.8,0.3,3.1,2,2.9,3.8l-1.7,15.8l4.2,2.5l4.8,2.9c-2-1.2-3.2-3.3-3.2-5.6l1.3-17.5c0-0.3,0-0.5,0.1-0.8c0.7-3.4,4.1-5.6,7.5-4.9
		l-10.6-6.2L256.1,1776.4z"/>
	<path fill="#37474F" d="M397.6,2050.1l1.6-2.4c0.7-1.1,1.1-2.3,1.2-3.6c0.3-5.1,0.4-10.1,0.1-15.2c-0.1-2.6-0.5-5.3-1-7.9v-21.5
		h-5.4l-3.4-53.5h5.9c0.7,0,1.3-0.5,1.3-1.3v-1.9c0-0.7-0.5-1.3-1.3-1.3h-28c-1.4,0.3-2.3,1.7-2,3.1l0,0l12.5,31.5l10.2,26.2v0.1
		c0,0.6,0.2,1.2,0.5,1.7l0.7,1.8c2.1,5.5,3.4,11.2,3.9,17.1c0.6,7.9,0.2,15.9-1.3,23.7c-0.3,1.7,0.8,3.3,2.5,3.6
		C396.4,2050.5,397,2050.4,397.6,2050.1z"/>
	<path fill="#37474F" d="M220.2,2047.1c5.2-0.8,10.2-2.2,15-4c6.6-2.5,13-5.4,19.3-8.5l19.8-16.1l2.2-3l10.4-16.8l0.1-0.3
		c4-7.6,5.9-17.7,7.3-26.8l4-24.8l1.1-15.2c0.2-2.1-0.4-4.1-1.6-5.9l-9-14.8l-4.2-5.2l-4.4,3.9l-2.1,2.3c-1.8,2.1-3,4.7-3.2,7.4
		l-0.5,2.5l-0.8,2.9l-0.6,3.4l-1,3.1l-0.8,2.6l-0.3,5.2l0.4,20.5c1.5,8.3,0.4,16.8-3.1,24.5l-1.4,3.7l0,0l-0.6,0.9
		c-11.9,18.3-31.3,30.3-53,32.7l-3.6,0.3l-42.3-29.5l-3.1,0.2l1,4.1l1.2,4.1l1.3,4.2l1.7,3.8l0.1,0.2l1.7,4.4
		c2.3,6,5.6,11.5,9.8,16.4c3.1,3.6,6.8,6.8,10.8,9.3c4.3,2.7,8.6,5.2,13.1,7.6c1.9,1,4.1,1.5,6.2,1.5
		C213.9,2047.8,217.1,2047.6,220.2,2047.1z"/>
	<path fill="#37474F" d="M277.7,1897.5l-1.2-1.5l-16.2-14.4l-11.1,1.8l-18.4-13.8c-1-0.7-2.2-0.8-3.3-0.2l-6.3,6.7
		c3.1,5.7,9.6,15.3,13.4,20.6c2.1,2.7,4.2,5.3,6.4,7.9c5.2,4.7,10.7,9,16.6,12.9L277.7,1897.5z"/>
	<path fill="#37474F" d="M250.7,1859.2l12.6-20.1l5.6,3.8l3.3-4.9l20.9,13.9l-3.2,3.1l-12.4,6.9l-13.4,8.5l-13.2-8.5
		c-0.1-0.1-0.3-0.2-0.4-0.3C249.9,1860.8,250,1859.8,250.7,1859.2"/>
	<path fill="#37474F" d="M212.7,2073.3l0.3,18v4.7c-1,0.2-2.1,0.4-3.1,0.6c-4.3,1-8.6,2-12.9,3c-12.9,3.1-24.9,9.2-34.9,17.9
		l-12.4-25.3c-1.4-2.8-1.2-6.2,0.5-8.8l26.5-44.8c0-0.1,0.1-0.2,0.2-0.3c0.7-0.8,1.8-0.9,2.6-0.3l1,0.8c8.3,7,18,12.3,28.5,15.3
		c2.1,0.6,3.6,2.6,3.5,4.8L212.7,2073.3L212.7,2073.3z"/>
	<path fill="#37474F" d="M157,2013l15.2,20.1l-12.5,21.6l-12.3,19c-1.3,2-3.5,3.2-5.9,3.3c-1.6,0-3.1-0.3-4.5-0.9l-5.2-4.3l1.8-3.1
		l-1.1-0.8c-4.4-3.4-7.6-8.2-9.1-13.6c-0.5-1.7-0.5-3.5,0-5.2L143,2024L157,2013z"/>
	<path fill="#37474F" d="M152.1,2003.5c-7.5-1.8-15.1-2.9-22.7-3.3l4.8,13.5l2.9,2.9L152.1,2003.5z"/>
</g>
<path fill="#26C6DA" d="M150.8,1965.4c0-35.3,27.2-64.2,61.8-66.9l-2.8-26.7c-48.1,4.1-85.9,44.4-85.9,93.6c0,9.3,1.3,18.3,3.9,26.8
	l25.9-7C151.9,1979,150.8,1972.3,150.8,1965.4z"/>
<path fill="#26C6DA" d="M216.1,1934.8l-2.3-25.3c-29,2.1-51.9,26.4-51.9,56c0,5.9,0.9,11.6,2.6,17l22.4-6.4L216.1,1934.8z"/>
<polygon fill="#607D8B" points="265.6,2036.6 279.6,2046.1 288.9,2032.6 292.2,2034.8 294.5,2033.2 312.7,2035.3 317.1,2029.1 
	308.1,2011.7 309.3,2010 305.5,2007.3 315,1993.8 301,1984.4 "/>
<polygon fill="#607D8B" points="237,2009.8 268.2,1964.8 228.7,1936.5 242.6,1916.6 234.4,1909.8 222.5,1910.9 223.6,1925.1 
	226.3,1926.9 201.9,1960.6 185,1984 183,1982.6 173.5,1984.3 174.2,1993.1 189.8,2004.4 202.4,1986.1 "/>
<polygon fill="#FFFFFF" fill-opacity="0.35" stroke="#FFFFFF" stroke-miterlimit="10" points="206.1,1851.6 205.9,1853.7 
	205.8,1856 205.6,1858.3 205.4,1860.8 205.2,1863.2 204.9,1865.7 204.6,1868.2 204.3,1870.7 204,1873.1 203.7,1875.6 203.3,1878 
	202.9,1880.4 202.5,1882.8 202,1885.1 201.5,1887.4 200.9,1889.7 200.4,1892 199.7,1894.4 199.1,1896.6 198.4,1898.8 197.6,1901.1 
	196.9,1903.3 196.1,1905.5 195.2,1907.6 194.4,1909.8 193.5,1911.9 192.6,1913.9 191.7,1916 190.7,1918 189.8,1919.8 188.9,1921.7 
	187.9,1923.5 187.1,1925.1 186.2,1926.7 185.3,1928.2 184.5,1929.7 183.6,1931 182.8,1932.4 182,1933.7 181.2,1935 180.4,1936.2 
	179.6,1937.4 178.8,1938.7 178,1939.8 177.2,1941.1 176.4,1942.2 175.5,1943.4 174.7,1944.5 173.8,1945.7 172.9,1946.9 
	171.9,1948.1 171,1949.4 170,1950.5 169,1951.8 168,1953 167,1954.2 166,1955.4 165,1956.6 163.9,1957.8 162.8,1959 161.7,1960.2 
	160.5,1961.4 159.3,1962.6 158.1,1963.8 156.8,1965.1 155.4,1966.3 154,1967.5 152.5,1968.7 151,1970 149.4,1971.3 147.8,1972.5 
	146.1,1973.8 144.4,1975 142.6,1976.3 140.8,1977.6 139,1978.8 137.1,1980.1 135.2,1981.3 133.4,1982.5 131.5,1983.7 129.7,1984.8 
	127.9,1985.9 126.2,1986.9 124.4,1988 122.7,1989 120.9,1990 119.3,1990.9 117.6,1991.8 115.9,1992.7 114.3,1993.5 112.6,1994.4 
	111.1,1995.2 109.5,1995.9 108,1996.6 106.6,1997.3 105.2,1997.8 103.8,1998.4 102.6,1998.9 101.5,1999.4 100.5,1999.7 99.8,2000 
	99.3,2000.3 99.1,2000.5 99.3,2000.7 99.8,2000.7 100.6,2000.8 101.6,2000.8 103,2000.7 104.5,2000.7 106.2,2000.6 108,2000.5 
	109.9,2000.4 111.8,2000.3 113.7,2000.3 115.7,2000.2 117.7,2000.2 119.7,2000.2 121.7,2000.2 123.6,2000.2 125.6,2000.3 
	127.6,2000.4 129.5,2000.5 131.4,2000.7 133.3,2000.9 135.2,2001.1 137,2001.3 138.9,2001.6 140.7,2001.8 142.5,2002 144.3,2002.3 
	146.1,2002.6 147.9,2003 149.7,2003.3 151.4,2003.7 153.2,2004.1 155,2004.5 156.8,2004.9 158.7,2005.4 160.5,2006 162.3,2006.6 
	164.2,2007.2 166,2007.9 167.8,2008.6 169.6,2009.3 171.4,2010.1 173.1,2010.9 174.9,2011.9 176.5,2012.8 178.2,2013.7 
	179.8,2014.6 181.4,2015.5 182.8,2016.5 184.3,2017.4 185.6,2018.4 186.9,2019.3 188.2,2020.3 189.4,2021.3 190.7,2022.2 
	191.9,2023.3 193.1,2024.3 194.4,2025.5 195.6,2026.6 196.9,2027.8 198.2,2028.9 199.4,2030.1 200.7,2031.2 201.9,2032.4 
	203.1,2033.4 204.2,2034.5 205.4,2035.5 206.4,2036.4 207.4,2037.3 208.5,2038.2 209.5,2039 210.4,2039.8 211.3,2040.6 
	212.1,2041.3 213,2042 213.7,2042.6 214.4,2043.1 215,2043.5 215.5,2043.8 215.8,2044 216,2044 216.1,2043.8 216.1,2043.6 
	216,2043.1 215.7,2042.5 215.5,2041.9 215.1,2041.2 214.8,2040.4 214.5,2039.5 214.2,2038.7 213.9,2037.8 213.7,2036.9 213.5,2036 
	213.3,2035 213.2,2033.9 213,2032.7 212.9,2031.5 212.9,2030.1 212.8,2028.7 212.8,2027.3 212.8,2025.8 212.9,2024.2 212.9,2022.6 
	213,2021 213.1,2019.4 213.3,2017.8 213.4,2016.3 213.7,2014.6 213.9,2013.1 214.2,2011.5 214.5,2010 214.8,2008.3 215.2,2006.8 
	215.7,2005.2 216.2,2003.6 216.8,2002 217.3,2000.4 218,1998.8 218.7,1997.2 219.4,1995.5 220.2,1993.9 221,1992.2 221.9,1990.5 
	222.8,1988.8 223.7,1987.1 224.7,1985.4 225.7,1983.8 226.7,1982.1 227.7,1980.4 228.8,1978.7 229.9,1977.1 230.9,1975.5 
	232,1973.9 233.1,1972.4 234.2,1970.9 235.2,1969.4 236.2,1968 237.2,1966.7 238.1,1965.4 239,1964.3 239.9,1963 240.8,1961.9 
	241.7,1960.8 242.6,1959.7 243.5,1958.7 244.4,1957.8 245.3,1956.7 246.2,1955.8 247.1,1954.9 248,1954 249,1953.1 250,1952.2 
	251,1951.4 252.1,1950.6 253.1,1949.9 254.2,1949 255.4,1948.3 256.6,1947.6 257.7,1946.9 259,1946.1 260.2,1945.4 261.5,1944.7 
	262.8,1944 264.2,1943.3 265.5,1942.6 266.9,1941.9 268.2,1941.2 269.5,1940.6 270.8,1939.9 272.1,1939.3 273.3,1938.7 
	274.5,1938.1 275.7,1937.5 276.9,1937 278,1936.6 279.2,1936.1 280.3,1935.7 281.5,1935.2 282.6,1934.9 283.7,1934.6 284.8,1934.3 
	285.9,1934 286.9,1933.7 287.9,1933.5 288.9,1933.3 289.8,1933 290.7,1932.8 291.6,1932.6 292.4,1932.4 293.2,1932.3 293.9,1932.1 
	294.6,1932 295.2,1931.8 295.8,1931.7 296.4,1931.5 296.9,1931.5 297.1,1931.3 297.3,1931.3 297.3,1931.2 297.1,1931.1 
	296.7,1931.1 296,1931 295,1931 294,1930.9 292.7,1930.8 291.4,1930.8 290.1,1930.7 288.7,1930.6 287.4,1930.5 286.2,1930.4 
	285,1930.3 283.9,1930.1 282.8,1929.9 281.8,1929.7 280.7,1929.5 279.7,1929.2 278.6,1928.8 277.4,1928.5 276.3,1928.1 
	275.1,1927.6 273.9,1927.1 272.7,1926.5 271.5,1926 270.3,1925.5 269.1,1924.8 268,1924.3 266.8,1923.6 265.7,1923 264.5,1922.4 
	263.4,1921.7 262.2,1921.1 261,1920.3 259.8,1919.5 258.5,1918.7 257.2,1917.8 255.8,1916.9 254.4,1916 253,1915 251.5,1913.9 
	250.1,1912.8 248.5,1911.5 247,1910.3 245.4,1909 243.9,1907.6 242.4,1906.3 240.9,1904.8 239.4,1903.5 238.1,1902.1 236.7,1900.8 
	235.5,1899.5 234.4,1898.2 233.3,1897 232.3,1895.8 231.3,1894.6 230.3,1893.4 229.4,1892.1 228.5,1890.9 227.6,1889.5 
	226.7,1888.2 225.8,1886.8 224.9,1885.5 224,1884.1 223.1,1882.7 222.3,1881.2 221.5,1879.8 220.7,1878.4 219.9,1876.9 
	219.1,1875.6 218.4,1874.2 217.7,1872.9 217,1871.6 216.4,1870.3 215.8,1869.1 215.3,1868 214.8,1866.9 214.4,1865.8 213.9,1864.7 
	213.5,1863.7 213.1,1862.7 212.7,1861.6 212.3,1860.6 211.9,1859.4 211.5,1858.2 211.1,1857 210.6,1855.7 210.2,1854.4 209.8,1853 
	209.4,1851.6 209,1850.2 208.7,1848.7 208.3,1847.1 208,1845.7 207.7,1844.2 207.5,1842.8 207.2,1841.6 207.1,1840.5 206.9,1839.5 
	206.8,1838.8 206.7,1838.2 206.6,1838 206.6,1837.8 206.5,1838 206.5,1838.2 206.5,1838.7 206.5,1839.5 206.5,1840.4 206.4,1841.5 
	206.4,1842.8 206.4,1844.2 206.3,1845.9 206.3,1847.6 206.2,1849.5 "/>
<circle fill="#F5426E" cx="328.8" cy="2132.7" r="15.2"/>
<circle fill="#F5426E" cx="299" cy="2308.8" r="15.2"/>
<circle fill="#F5426E" cx="436.3" cy="2161.1" r="15.2"/>
<circle fill="#F5426E" cx="426.9" cy="2386.7" r="15.2"/>
<path fill="#26C6DA" d="M324.4,2368.7v-36.1c0-0.7,0.5-1.3,1.3-1.3h27.6c0.7,0,1.3,0.5,1.3,1.3v36.1c0,0.7-0.5,1.3-1.3,1.3h-27.6
	C324.9,2370,324.4,2369.3,324.4,2368.7z"/>
<path fill="#26C6DA" d="M229.8,2256.3v-65.1c0-0.7,0.5-1.3,1.3-1.3h50.4c0.7,0,1.3,0.5,1.3,1.3v65.1c0,0.7-0.5,1.3-1.3,1.3h-50.4
	C230.4,2257.6,229.8,2257,229.8,2256.3z"/>
<path fill="#26C6DA" d="M426.8,2331v-36.4c0-0.7,0.5-1.3,1.3-1.3h21.7c0.7,0,1.3,0.5,1.3,1.3v36.4c0,0.7-0.5,1.3-1.3,1.3H428
	C427.3,2332.3,426.8,2331.7,426.8,2331z"/>
<rect x="318.9" y="1982.2" fill="#2A8EA2" width="5.9" height="5.5"/>
<rect x="274.3" y="2054.5" fill="#2A8EA2" width="5.9" height="5.5"/>
<path fill="#2A8EA2" d="M405.9,2302.9V2288c0-0.7,0.5-1.3,1.3-1.3h5.7c0.7,0,1.3,0.5,1.3,1.3v14.9c0,0.7-0.5,1.3-1.3,1.3h-5.7
	C406.4,2304.1,405.9,2303.5,405.9,2302.9z"/>
<path fill="#B0BEC5" d="M285.5,2417.8l-4.2-4.2c-0.2-0.2-0.2-0.5,0-0.7l1.6-1.6c0.2-0.2,0.5-0.2,0.7,0l4.2,4.2
	c0.2,0.2,0.2,0.5,0,0.7l-1.6,1.6C286,2418,285.7,2418,285.5,2417.8z"/>
<path fill="#B0BEC5" d="M219.1,2121.3l4.2-4.2c0.2-0.2,0.5-0.2,0.7,0l1.6,1.6c0.2,0.2,0.2,0.5,0,0.7l-4.2,4.2
	c-0.2,0.2-0.5,0.2-0.7,0l-1.6-1.6C218.9,2121.8,218.9,2121.5,219.1,2121.3z"/>
<path fill="#2A8EA2" d="M411.8,2235.6v-14.9c0-0.7,0.5-1.3,1.3-1.3h5.7c0.7,0,1.3,0.5,1.3,1.3v14.9c0,0.7-0.5,1.3-1.3,1.3h-5.7
	C412.4,2236.8,411.8,2236.2,411.8,2235.6z"/>
<g>
	<path fill="#7CB342" d="M313.7,2226L313.7,2226c-2.4-0.3-4.6,1.5-4.9,3.9c-2.4-0.3-4.6,1.5-4.9,3.9c0.4-1.6,0.1-3.3-0.9-4.6
		s-2.6-2.1-4.2-2c0.4-1.6,0.1-3.3-0.9-4.6s-2.6-2.1-4.2-2c2.4,0.3,4.6-1.5,4.9-3.9c2.4,0.3,4.6-1.5,4.9-3.9
		c-0.4,1.6-0.1,3.3,0.9,4.6s2.6,2.1,4.2,2c-0.4,1.6-0.1,3.3,0.9,4.6C310.5,2225.4,312,2226.1,313.7,2226"/>
	<path fill="#7CB342" d="M407.2,2170.1L407.2,2170.1c-0.3-2.4-2.4-4.2-4.8-4c-0.3-2.4-2.4-4.2-4.8-4c1.6,0.1,3.2-0.6,4.3-1.9
		c1-1.3,1.4-3,1-4.6c1.6,0.1,3.2-0.6,4.3-1.9s1.4-3,1-4.6c0.3,2.4,2.4,4.2,4.8,4c0.3,2.4,2.4,4.2,4.8,4c-1.6-0.1-3.2,0.6-4.3,1.9
		c-1,1.3-1.4,3-1,4.6c-1.6-0.1-3.2,0.6-4.3,1.9C407.2,2166.9,406.8,2168.6,407.2,2170.1"/>
	<path fill="#7CB342" d="M397,2296.8L397,2296.8c-2.4-0.5-4.7,1-5.3,3.4c-2.4-0.5-4.7,1-5.3,3.4c0.6-1.6,0.4-3.3-0.5-4.7
		s-2.3-2.3-4-2.4c0.6-1.6,0.4-3.3-0.5-4.7s-2.3-2.3-4-2.4c2.4,0.5,4.7-1,5.3-3.4c2.4,0.5,4.7-1,5.3-3.4c-0.6,1.6-0.4,3.3,0.5,4.7
		s2.3,2.3,4,2.4c-0.6,1.6-0.4,3.3,0.5,4.7S395.4,2296.7,397,2296.8"/>
</g>
<g>
	<path fill="#B0BEC5" d="M152.4,2006.7l4.7,4.7c0.5,0.5,0.5,1.3,0,1.8l-31.1,30.7c-0.5,0.5-1.3,0.5-1.8,0l-4.7-4.7
		c-0.5-0.5-0.5-1.3,0-1.8l31.1-30.7C151.1,2006.2,151.9,2006.2,152.4,2006.7z"/>
	<path fill="#B0BEC5" d="M147.2,2069.1l-7,6.8c-0.5,0.5-1.3,0.5-1.8,0l-19.2-19.8c-0.5-0.5-0.5-1.3,0-1.8l7-6.8
		c0.5-0.5,1.3-0.5,1.8,0l19.2,19.8C147.7,2067.7,147.7,2068.5,147.2,2069.1z"/>
	<path fill="#5C6BC0" d="M235.3,2170.6V2148c0-0.7,0.5-1.3,1.3-1.3h22.6c0.7,0,1.3,0.5,1.3,1.3v22.6c0,0.7-0.5,1.3-1.3,1.3h-22.6
		C235.9,2171.8,235.3,2171.3,235.3,2170.6z"/>
	<rect x="320" y="2159.2" fill="#5C6BC0" width="25.1" height="25.1"/>
	<path fill="#5C6BC0" d="M379.9,2204.7v-22.6c0-0.7,0.5-1.3,1.3-1.3h22.6c0.7,0,1.3,0.5,1.3,1.3v22.6c0,0.7-0.5,1.3-1.3,1.3h-22.6
		C380.4,2206,379.9,2205.4,379.9,2204.7z"/>
	<path fill="#5C6BC0" d="M426.1,2255.7v-22.6c0-0.7,0.5-1.3,1.3-1.3H450c0.7,0,1.3,0.5,1.3,1.3v22.6c0,0.7-0.5,1.3-1.3,1.3h-22.6
		C426.7,2257,426.1,2256.4,426.1,2255.7z"/>
	<path fill="#5C6BC0" d="M381.3,2368.9v-22.6c0-0.7,0.5-1.3,1.3-1.3h22.6c0.7,0,1.3,0.5,1.3,1.3v22.6c0,0.7-0.5,1.3-1.3,1.3h-22.6
		C381.8,2370.2,381.3,2369.6,381.3,2368.9z"/>
	<rect x="329.4" y="2203.6" fill="#5C6BC0" width="16.4" height="12.6"/>
	<path fill="#5C6BC0" d="M371.7,2228h10.1c0.7,0,1.3,0.5,1.3,1.3v13.8c0,0.7-0.5,1.3-1.3,1.3h-10.1c-0.7,0-1.3-0.5-1.3-1.3v-13.8
		C370.5,2228.5,371,2228,371.7,2228z"/>
</g>
<g>
	<path fill="#B0BEC5" d="M52,1830.2l-12-13.4c0,0-25,22.5-32.1,50l13,5L20,1875l4.9,1.4C24.9,1876.4,30.1,1852.4,52,1830.2z"/>
	<g id="LWPOLYLINE_53_">
		<polygon fill="#B0BEC5" points="326.8,2063.2 335.4,2063 344.4,2070.2 357,2054.6 348.3,2032.6 340.2,2035 331.8,2029.5 
			327.6,2035.4 325.9,2034.2 322.9,2034.2 319.7,2038.4 320.7,2041.3 322.2,2042.6 317.3,2049.3 326.7,2055.9 		"/>
	</g>
	<path fill="#B0BEC5" d="M292.5,2069.3l2,7.8c0.2,0.7-0.3,1.3-0.9,1.5l-45.5,11.6c-0.7,0.2-1.3-0.3-1.5-0.9l-2-7.8
		c-0.2-0.7,0.3-1.3,0.9-1.5l45.5-11.6C291.7,2068.2,292.4,2068.6,292.5,2069.3z"/>
	<path fill="#B0BEC5" d="M349.4,1996.2l-8.8,1.4c-0.7,0.1-1.3-0.4-1.4-1l-8.4-53.6c-0.1-0.7,0.4-1.3,1-1.4l8.8-1.4
		c0.7-0.1,1.3,0.4,1.4,1l8.4,53.6C350.6,1995.4,350.1,1996.1,349.4,1996.2z"/>
	<path fill="#B0BEC5" d="M301.8,1980.8l3.1,0.2c0.7,0,1.3-0.7,1.3-1.6l3.3-8.6l-0.4-32.8c0.1-0.9-0.4-1.7-1.1-1.8l-3.1-0.2
		c-0.7,0-1.3,0.7-1.3,1.6l-2.9,41.4C300.7,1980,301.2,1980.8,301.8,1980.8z"/>
	<path fill="#B0BEC5" d="M264,2039.8l1,2.9c0.2,0.6-0.3,1.4-1.2,1.7l-7.5,5.2l-31.9,7.5c-0.9,0.3-1.8,0-2-0.6l-1-2.9
		c-0.2-0.6,0.3-1.4,1.2-1.7l39.5-12.8C262.9,2038.9,263.8,2039.2,264,2039.8z"/>
	<polygon fill="#CFD8DC" points="463.2,2418.4 463.2,2375.1 463.2,2375.1 463.2,2372.3 446.3,2372.3 446.3,2381.4 454.1,2381.4 
		454.1,2418.4 	"/>
	<path fill="#B0BEC5" d="M291.3,2415.8v-6.6c0-0.7,0.5-1.3,1.3-1.3h54.5c0.7,0,1.3,0.5,1.3,1.3v6.6c0,0.7-0.5,1.3-1.3,1.3h-54.5
		C291.9,2417,291.3,2416.4,291.3,2415.8z"/>
	<path fill="#5C6BC0" d="M376.7,2317l5.3-0.6c0.7-0.1,1.3,0.4,1.4,1.1l1.8,16.3c0.1,0.7-0.4,1.3-1.1,1.4l-5.3,0.6
		c-0.7,0.1-1.3-0.4-1.4-1.1l-1.8-16.3C375.6,2317.7,376.1,2317.1,376.7,2317z"/>
	<path fill="#B0BEC5" d="M344.6,2197.9v-4.2c0-0.7,0.5-1.3,1.3-1.3h23c0.7,0,1.3,0.5,1.3,1.3v4.2c0,0.7-0.5,1.3-1.3,1.3h-23
		C345.2,2199.1,344.6,2198.6,344.6,2197.9z"/>
	<path fill="#B0BEC5" d="M353,2299.5v-4.2c0-0.7,0.5-1.3,1.3-1.3h17.5c0.7,0,1.3,0.5,1.3,1.3v4.2c0,0.7-0.5,1.3-1.3,1.3h-17.5
		C353.5,2300.8,353,2300.2,353,2299.5z"/>
	<path fill="#B0BEC5" d="M372.7,2123.2l2.1-4.8c0.3-0.6,1-0.9,1.6-0.7l50.2,21.3c0.6,0.3,0.9,1,0.7,1.6l-2.1,4.8
		c-0.3,0.6-1,0.9-1.6,0.7l-50.2-21.3C372.8,2124.7,372.5,2123.9,372.7,2123.2z"/>
	<path fill="#B0BEC5" d="M219.1,2125.1h6.6c0.7,0,1.3,0.5,1.3,1.3v54c0,0.7-0.5,1.3-1.3,1.3h-6.6c-0.7,0-1.3-0.5-1.3-1.3v-54
		C217.8,2125.6,218.4,2125.1,219.1,2125.1z"/>
</g>
<g>
	<polygon fill="#FFCA28" points="327.6,2302.7 327.6,2298.5 331.9,2298.5 331.9,2295.5 327.6,2295.5 327.6,2291.3 324.7,2291.3 
		324.7,2295.5 320.4,2295.5 320.4,2298.5 324.7,2298.5 324.7,2302.7 	"/>
	<polygon fill="#FFCA28" points="299.5,2195.8 301.9,2194.2 299.7,2190.6 303.2,2188.3 301.7,2185.9 298.1,2188.1 295.8,2184.5 
		293.3,2186.1 295.6,2189.6 292,2192 293.5,2194.4 297.1,2192.2 	"/>
	<polygon fill="#FFCA28" points="387.8,2151.1 387.8,2146.9 392,2146.9 392,2143.9 387.8,2143.9 387.8,2139.7 384.8,2139.7 
		384.8,2143.9 380.6,2143.9 380.6,2146.9 384.8,2146.9 384.8,2151.1 	"/>
	<polygon fill="#FFCA28" points="406.2,2338.3 406.2,2334.1 410.5,2334.1 410.5,2331.2 406.2,2331.2 406.2,2326.9 403.3,2326.9 
		403.3,2331.2 399,2331.2 399,2334.1 403.3,2334.1 403.3,2338.3 	"/>
</g>
<g>
	<path fill="#FFCA28" d="M307.8,2341.3v4.8c0,0.9,0.8,1.7,1.7,1.7s1.7-0.8,1.7-1.7v-4.8c0-0.9-0.8-1.7-1.7-1.7
		S307.8,2340.4,307.8,2341.3z"/>
	<path fill="#FFCA28" d="M303.5,2346.1v-4.8c0-0.9-0.8-1.7-1.7-1.7c-0.9,0-1.7,0.8-1.7,1.7v4.8c0,0.9,0.8,1.7,1.7,1.7
		S303.5,2347.1,303.5,2346.1z"/>
	<path fill="#FFCA28" d="M295.9,2346.1v-4.8c0-0.9-0.8-1.7-1.7-1.7s-1.7,0.8-1.7,1.7v4.8c0,0.9,0.8,1.7,1.7,1.7
		S295.9,2347.1,295.9,2346.1z"/>
	<path fill="#FFCA28" d="M288.2,2346.1v-4.8c0-0.9-0.8-1.7-1.7-1.7s-1.7,0.8-1.7,1.7v4.8c0,0.9,0.8,1.7,1.7,1.7
		S288.2,2347.1,288.2,2346.1z"/>
</g>
<path fill="#5C6BC0" d="M158.9,2079.7H169c0.7,0,1.3,0.5,1.3,1.3v13.8c0,0.7-0.5,1.3-1.3,1.3h-10.1c-0.7,0-1.3-0.5-1.3-1.3V2081
	C157.7,2080.2,158.2,2079.7,158.9,2079.7z"/>
<g>
	<path fill="#FFFFFF" d="M273.5,2328.8c-4.2,0-7.6,3.4-7.6,7.6s3.4,7.6,7.6,7.6c4.2,0,7.6-3.4,7.6-7.6S277.6,2328.8,273.5,2328.8z"
		/>
	<path fill="#FFFFFF" d="M273.5,2342.9c-3.6,0-6.5-2.9-6.5-6.5s2.9-6.5,6.5-6.5c3.6,0,6.5,2.9,6.5,6.5
		C280,2340,277.1,2342.9,273.5,2342.9z"/>
	<path fill="#E53935" d="M273.5,2330.5c-3.2,0-5.9,2.6-5.9,5.9s2.6,5.9,5.9,5.9c3.2,0,5.9-2.6,5.9-5.9S276.7,2330.5,273.5,2330.5z"
		/>
	<polygon fill="#E53935" points="277.5,2337.4 274.6,2337.4 274.6,2340.5 272.4,2340.5 272.4,2340.4 272.4,2337.4 269.5,2337.4 
		269.3,2337.4 269.3,2335.2 272.4,2335.2 272.4,2332.3 272.4,2332.2 274.6,2332.2 274.6,2335.2 277.7,2335.2 277.7,2337.4 	"/>
	<polygon fill="#FFFFFF" points="274.6,2335.2 274.6,2332.2 272.4,2332.2 272.4,2332.3 272.4,2335.2 269.3,2335.2 269.3,2337.4 
		269.5,2337.4 272.4,2337.4 272.4,2340.4 272.4,2340.5 274.6,2340.5 274.6,2337.4 277.5,2337.4 277.7,2337.4 277.7,2335.2 	"/>
</g>
<rect x="272.6" y="2146.9" fill="#26C6DA" width="15.4" height="6"/>
</svg>
