<svg id="Layer_1" data-name="Layer 1" xmlns="http://www.w3.org/2000/svg" viewBox="0 0 1238.8 1888.6"><title>floor0-2017-2</title><path d="M517.8,1886.5l5.9-2.9-6-10.6h90.4L575,1862.7a19,19,0,0,0,14.2,18.4,57.84,57.84,0,0,0,12.4,1.7l46.8-5.4,132.4-13.1,87.8-6.4,65.2-4.6,112.3-4,72.1-4.6,8.3-1.2a276.8,276.8,0,0,1,34-2.9c12.4-.3,24.9-0.9,37.3-1.7a47.12,47.12,0,0,0,43.7-40.6l-22.4-422.9-3.1-75.7,3.9-194.9,2.4-69.6a75.25,75.25,0,0,0-33.1-44.4V957.3l6.5,3.6c5.7,0,11.3-.2,17-0.5a18,18,0,0,0,16.4-14.5,262.51,262.51,0,0,0,4.5-39.5l2.2-63.8-1.6-143.8-16.9-225-11.1-123.4-5.3-177.5a16.68,16.68,0,0,0-10.6-14.3l-24.2.6V115.6l0.7,0.3,3.7,1.2,2.9,0.8,2.2,0.5,1.7,0.3,1.3,0.2,1.1,0.1,1.1,0.1,1,0.1h3l1-.1,1-.1,1-.2,1-.2,1-.3,1-.4,1-.4,0.9-.5,0.9-.6,0.8-.6,0.7-.7,0.7-.8,0.6-.9,0.5-.9,0.4-1.1,0.3-1.2,0.3-1.3,0.2-1.4,0.2-1.6,0.1-1.7,0.1-1.9V40.7l-0.1-4.2-0.1-4-0.1-3.7-0.1-3.4-0.2-3-0.2-2.7-0.2-2.3-0.3-1.9-0.3-1.6-0.4-1.3-0.5-1.1-0.5-.9-0.6-.8-0.7-.7-0.7-.7-0.8-.7-0.9-.7-1.5-.4-1-.7-1-.7-1.1-.6-1.1-.6-1.2-.6-1.5-.6-2.2-.5-3.2-.5-4.6-.4-6.3-.4-8.3-.3-10.6-.3-13.1-.2-15-.2h-16.4l-17,.1-16.9.3-16.1.5-14.7.7-12.6,1-10,1.2-7.8,1.4-6.2,1.6-5.2,1.6-4.9,1.5-5.1,1.4-6,1.2-7.5.9-9.5.6-11,.3-12.1.2-12.6.2L916,15l-11.9.6-10.8.9-9.1,1.4-7,2-5.1,2.5-3.5,2.8-2.2,3-1.2,3.1-0.6,3.1-0.2,3-0.2,2.7-0.4,2.4-0.6,2-0.8,1.7-1,1.5-1.2,1.4-1.3,1.3-1.5,1.2-1.6,1.2-1.7,1.3-1.7,1.4-1.8,1.4-1.8,1.5L847,59.9l-1.8,1.5L843.4,63l-1.8,1.6-1.8,1.6-1.7,1.6-1.7,1.6L834.7,71l-1.6,1.6-1.6,1.6-1.6,1.6-1.6,1.6-1.6,1.7-1.6,1.7-1.6,1.7-1.6,1.7-1.5,1.7-1.5,1.7-1.4,1.7L816.1,91l-1.3,1.6-1.2,1.6-1.2,1.6-1.1,1.6-1.1,1.7-1.1,1.7-1.1,1.8-1.1,1.9-1.2,2-1.2,2.1-1.2,2.2-1.2,2.2-1.2,2.3-1.2,2.3-1.2,2.4-1.2,2.4-1.2,2.4-1.1,2.5-1.1,2.5-0.5,1.1-3.3,2.9-3.4,2.4-6,2-8.7,1.4-14.1,1-16.3,1-19.1,1-91.7,1v-9.2H611.4L550.5,44l-5-7.9-6.5-5L527.1,30l-17.2.7L469,29.3,426.7,25l-79.6-.8L203,23.5l-126.2.7-34.4.5A39.93,39.93,0,0,0,3,64.7V877.9l0.6,0.5,7.2,8.6,5.7,25.1,15.8,38,30.1,77.5,34.4,81.8L124,1179l20.8,67.4,20.1,87.5,33.8,115,19.4,62.4,7.2,41.6v46.6l-4.3,40.9,1.4,38,22.9,49.5,45.9,62.4,43.7,57.4,19.4,14.3,39.4,12.9,25.1,4.3,27.2,2.9,33.7,2.9,27.2,3.6ZM8.2,409.7l9.5-21.6,4-10.2v37Z" transform="translate(-3 0)" style="fill:#b0bec5"/><path d="M205.1,737.8l-3.6-14.4a8.66,8.66,0,0,1,5.8-8.8l54.1-11.1c-27-118.5,18.4-282.1,225.8-310.4,0.4-7-3.8-32.5-3.8-32.5l-2.5.4-1.6-10.1L473,352l-2-11,15.1-3.2L462.2,225.6a394,394,0,0,0-149.1,6,453.65,453.65,0,0,0-128.7,52A286.32,286.32,0,0,0,74.9,398,354.05,354.05,0,0,0,48.2,570.2,403.6,403.6,0,0,0,88.7,738.3l10.3-5,11,20.6Z" transform="translate(-3 0)" style="fill:#418d46"/><g id="LWPOLYLINE"><path d="M352.3,735.7a319.41,319.41,0,0,0-54.1-7.9l11.5,32.1,6.8,7Z" transform="translate(-3 0)" style="fill:#5ab27e"/></g><path d="M517.8,1886.5l5.9-2.9-11-57.9q-2-10-3.6-20.1a242.16,242.16,0,0,1-2.8-56.4c1.2-17.4,1.9-34.9,1.9-52.3a323.9,323.9,0,0,0-6.2-64.4,8,8,0,0,0-1.8-3.7l-8.8-19.7-13.3-38.6-13.8-51.9-31.2-110.7-44.2-157-45.4-162.1a81.53,81.53,0,0,1-2.7-14.6l-2-3-2.9-4.1-3.9-5.7-5.2-3.4-11.7-7.5,2.7-10.5-5.1-16.5-10.1-4.3,2.8-7.3-29-14.5-3.2-1.4-9.8,13-70.8-55.3,6.1-9.3-43.5-34.7-26.8-34.1L99.9,810.1,89.3,758.6a413.13,413.13,0,0,1-52-192.4A363.06,363.06,0,0,1,49.5,433l0.4-.4a368.86,368.86,0,0,1,15.2-43.2A294.22,294.22,0,0,1,177.3,272.2,463.76,463.76,0,0,1,237.5,242a474.22,474.22,0,0,1,71.6-23.1,401.79,401.79,0,0,1,132.5-8.6,110.76,110.76,0,0,1,80.2-46.8,147.53,147.53,0,0,1,92.9,21.9l37.1,23.3,24.3,17.6,23.4-.3V174.5h86.6l-0.1,4.7-0.2,10.3-0.1,12.2-0.1,13.6v29.4l0.1,14.7,0.2,13.9,0.3,12.6,0.4,10.8,0.5,8.5,0.7,6.4,0.8,4.5,0.9,3,1,1.7,1.1,0.7h1.2l1.3-.4,1.3-.5,1.4-.6,1.4-.7,1.4-.7,1.3-.7,1.2-.7,1.1-.7,0.9-.6,0.7-.5,0.6-.5,0.4-.6,0.3-.9,0.2-1.3,0.1-1.8V248.7l0.1-10.6,0.3-11.3,0.6-11.9,1.1-12.4,1.8-12.8,2.6-13.1,3.6-13.3,4.7-13.5,6-13.5,7.3-13.2,8.4-12.8,9.5-12.1L863,87l11.5-10.4L887,67.9l13.4-7.1,14.1-5.3,14.7-3.7,14.9-2.3,14.9-1,14.7,0.1,14.1,1,13.3,1.7,12.3,2.2,11,2.5,9.9,2.8,9.1,3.1,8.5,3.4,8.2,3.6,8.1,3.8,8.2,4,8.6,4.2,9.2,4.3,9.6,4.4,9.8,4.4,9.7,4.2,9.4,4,8.8,3.7,8,3.3,7,2.8,5.8,2.2,4.7,1.7,3.7,1.2,2.9,0.8,2.2,0.5,1.7,0.3,1.3,0.2,1.1,0.1,1.1,0.1,1,0.1h3l1-.1,1-.1,1-.2,1-.2,1-.3,1-.4,1-.4,0.9-.5,0.9-.6,0.8-.6,0.7-.7,0.7-.8,0.6-.9,0.5-.9,0.4-1.1,0.3-1.2,0.3-1.3,0.2-1.4,0.2-1.6,0.1-1.7,0.1-1.9V40.7l-0.1-4.2-0.1-4-0.1-3.7-0.1-3.4-0.2-3-0.2-2.7-0.2-2.3-0.3-1.9-0.3-1.6-0.4-1.3-0.5-1.1-0.5-.9-0.6-.8-0.7-.7-0.7-.7-0.8-.7L1192,7l-1.7-.4-1-.7-1-.7-1.1-.6-1.1-.6-1.2-.6-1.5-.6-2.2-.5-3.2-.5-4.6-.4-6.3-.4-8.3-.3-10.6-.3-13.1-.2-15-.2h-16.4l-17,.1-16.9.3-16.1.5-14.7.7-12.6,1-10,1.2-7.8,1.4-6.2,1.6-5.2,1.6-4.9,1.5-5.1,1.4-6,1.2-7.5.9-9.5.6-11,.3-12.1.2-12.6.2L916,15l-11.9.6-10.8.9-9.1,1.4-7,2-5.1,2.5-3.5,2.8-2.2,3-1.2,3.1-0.6,3.1-0.2,3-0.2,2.7-0.4,2.4-0.6,2-0.8,1.7-1,1.5-1.2,1.4-1.3,1.3-1.5,1.2-1.6,1.2-1.7,1.3-1.7,1.4-1.8,1.4-1.8,1.5L847,59.9l-1.8,1.5L843.4,63l-1.8,1.6-1.8,1.6-1.7,1.6-1.7,1.6L834.7,71l-1.6,1.6-1.6,1.6-1.6,1.6-1.6,1.6-1.6,1.7-1.6,1.7-1.6,1.7-1.6,1.7-1.5,1.7-1.5,1.7-1.4,1.7L816.1,91l-1.3,1.6-1.2,1.6-1.2,1.6-1.1,1.6-1.1,1.7-1.1,1.7-1.1,1.8-1.1,1.9-1.2,2-1.2,2.1-1.2,2.2-1.2,2.2-1.2,2.3-1.2,2.3-1.2,2.4-1.2,2.4-1.2,2.4-1.1,2.5-1.1,2.5-0.5,1.1-3.3,2.9-3.4,2.4-6,2-8.7,1.4-14.1,1-16.3,1-19.1,1-91.7,1v-9.2H611.4L550.5,44l-5-7.9-6.5-5L527.1,30l-17.2.7L469,29.3,426.7,25l-79.6-.8L203,23.5l-126.2.7-44.2.7a29.92,29.92,0,0,0-29.5,30v823l0.6,0.5,7.2,8.6,5.7,25.1,15.8,38,30.1,77.5,34.4,81.8,27.2,69.6,20.8,67.4,20.1,87.5,33.8,115,19.4,62.4,7.2,41.6v46.6l-4.3,40.9,1.4,38,22.9,49.5,45.9,62.4,43.7,57.4,19.4,14.3,39.4,12.9,25.1,4.3,27.2,2.9,33.7,2.9,27.2,3.6Z" transform="translate(-3 0)" style="fill:#6fbb91"/><path d="M888.8,955.1l7.4,5.4,12.2,7.4,15.5,7.1,23.7,10.9,27.6,11.8,76.7,35.6,13.3,5.5,1.7,0.9,21.2,10.7a16,16,0,0,1,8.4,11l0.8,62.1,1.2,72.7,0.9,72.3,1,48.5,0.7,23a10.29,10.29,0,0,1-1.4,5.7l-12.9,1a2.08,2.08,0,0,0-1.9,2.1l6.9,62.8,6.4,53.6,5.1,47.1,4.1,38.3,3.9,34.8,6.1,49,10.2,84.4,3.6,33.5v0.9a6.57,6.57,0,0,1-6.7,6.4l-79.7,3.2-100.6,3.8-46,1.7c-15.5.6-31.1,1.7-46.6,3.2l-61.3,8.8-59.9,6.4-83.7,11.1a4.5,4.5,0,0,1-4.9-3.2l-2.3-43.3-21.3-162-8.4-75.5-12.5-107a12.11,12.11,0,0,0-2.2-5.8,9.91,9.91,0,0,0-6.7-4.2c-4.5-.6-9-1-13.5-1.3l-9.3,4-12.8,10.7-4.3,4.7a37.67,37.67,0,0,0-8.9,32.3l12.3,68.9,6.9,48.7,6.8,70.8,5.3,60.1,2.4,42.9q2.7,48.9,1.8,98l0.1,26a18.93,18.93,0,0,0,14.4,18.4,56.09,56.09,0,0,0,12.3,1.7l46.8-5.4,132.4-13.1,87.8-6.4,65.2-4.6,112.3-4,72.1-4.6,8.3-1.3a264,264,0,0,1,33.3-2.9c12.7-.3,25.4-0.9,38-1.7a47.12,47.12,0,0,0,43.7-40.6l-22.7-422.8-3.1-75.7,3.9-194.9,2.4-69.6a75.15,75.15,0,0,0-79.4-55.3l-126.2-7.7a193.71,193.71,0,0,1-89.9-28.4L902,929a14.59,14.59,0,1,0-14.9,25.1A2.77,2.77,0,0,0,888.8,955.1Z" transform="translate(-3 0)" style="fill:#5bb27e"/><path d="M866.5,981.1l0.3,27.7,1.2,85.7v58l2.8,127.6,0.3,62.8a10,10,0,0,1-2.5,6.6l-14.3.1-52.2,2.2h-0.7a3.93,3.93,0,1,1,1-7.8h14.2v-34.1l-2.9-143.6-2.6-169.8-14.1-.6a3.1,3.1,0,0,1-2.9-2.7,5.33,5.33,0,0,1,1.3-4.2l37-20.4a7.26,7.26,0,0,1,3.8-.8l7.3,4.4a51.83,51.83,0,0,0,15.1,6l4.9,0.8A3.46,3.46,0,0,1,866.5,981.1Z" transform="translate(-3 0)" style="fill:#5ab27e"/><path d="M504.8,999l4.4-.3,10.7-.6h0.5a2.43,2.43,0,0,1-.8,4.8l-10.5,2.3a2.59,2.59,0,0,0-2,2.6v6.3l-1.4,9.5v33.5l1.7,54.1-0.3,58.7h3.4v4.8l1.7,118.2v63l12.3,0.3a7.22,7.22,0,0,1,4.9,6.4,7.11,7.11,0,0,1-6.8,7.3c-1.9-.5-3.7-1-5.6-1.6a24.9,24.9,0,0,1-14.6-12.4,16,16,0,0,1-1.7-6.4L491,1304l-4-17.4a233.94,233.94,0,0,0-19.1-53.1q-10-20.1-20.6-40.2c-7.3-14.1-14.4-28.2-21.3-42.6a103.26,103.26,0,0,1-3.4-81.2,95.56,95.56,0,0,1,31.7-47.2A91.47,91.47,0,0,1,504.8,999Z" transform="translate(-3 0)" style="fill:#5bb27e"/><path d="M863.6,1378.2l-52,1.4c-2.5.1-4.5,1.6-4.4,3.6,0.1,1.8,2,3.2,4.4,3.3l16.2-1.2,20.3,128.9,2.5,16.5,12.2,81.4,4.5,25.3a5.3,5.3,0,0,1-1.7,4.8l-13.1.8h-2l1.9,12.7,55.6-4.8c2.7-.2,4.6-2,4.3-4,0-.1-0.1-0.3-0.1-0.4l-23-140.4-13.6-87.9-4.9-35.2C870.2,1380.5,867.3,1378.4,863.6,1378.2Z" transform="translate(-3 0)" style="fill:#5ab27e"/><path d="M1059.2,952.1l-36.1-3.2a197.23,197.23,0,0,1-38.1-7.3,264.43,264.43,0,0,1-62.2-27.7,35.24,35.24,0,0,1-11.3-11.1,9.23,9.23,0,0,1-.7-8.4,16.74,16.74,0,0,1,16-10.4,19.66,19.66,0,0,1,12,4.6A75,75,0,0,0,955,899.1a115.49,115.49,0,0,0,56.5,11.4,138,138,0,0,0,48.5-11.7,380.78,380.78,0,0,1,45-16.9,6.39,6.39,0,0,0,4.5-7.3l-0.7-70.4-0.5-52.4-1.1-57.5-1.3-63-0.2-65.5L1104,450.9l-1.7-122.5-1.7-103a28.9,28.9,0,0,0-8.1-19.7l-42.1-25L960.8,123a35.38,35.38,0,0,0-26.7-4.9,181.82,181.82,0,0,0-30.5,9.3,34.39,34.39,0,0,0-7.5,4.2,96.58,96.58,0,0,0-17,16.2,111.49,111.49,0,0,0-15.6,25,80.43,80.43,0,0,0-5.9,19,161.28,161.28,0,0,0-2.4,29.4l-2.4,75.2-0.2,159.3-1.2,97.4a4.94,4.94,0,0,1-4.7,4.9,5,5,0,0,1-5.2-4.7L838,511.4l-0.7-51.1-0.5-78-0.9-69.2L835,248.8l-0.5-30.5a173.15,173.15,0,0,1,13.8-70.7,104.89,104.89,0,0,1,62.6-58.2,168.65,168.65,0,0,1,103.5-1.8l65.5,26.8,110.4,44.1a16.81,16.81,0,0,1,10.6,14.3l5.3,177.5,11.2,123.4,16.9,225,1.5,143.8-2.4,63.9a261,261,0,0,1-4.5,39.5,18,18,0,0,1-16.4,14.5c-5.6.4-11.3,0.5-16.9,0.5Z" transform="translate(-3 0)" style="fill:#5bb27e"/><path d="M354.3,1033l4,1.6a22.24,22.24,0,0,1,7.5,8.6l20.2,41.5a11.38,11.38,0,0,1,2.1,6.4l0.1,4.9a139.65,139.65,0,0,0,2.8,39.2l26.9,68,15,30.4A481.56,481.56,0,0,1,477.8,1379l24.3,114.7a630.36,630.36,0,0,1,12.4,89.7l8.4,91.1,4.9,70.1a1151.3,1151.3,0,0,1,2,124.6,28.67,28.67,0,0,1-1.1,9.2l-10.2-53.8c-1.3-6.7-2.5-13.5-3.6-20.2a238.56,238.56,0,0,1-2.7-54.7c1.2-17.6,1.9-35.1,1.9-52.7a321.4,321.4,0,0,0-6.4-65.6,15.3,15.3,0,0,0-2.5-5.7l-8.4-18.8-13.1-38.1L470,1517l-31.3-110.7-44.2-157-45.4-162.1A73.1,73.1,0,0,1,354.3,1033Z" transform="translate(-3 0)" style="fill:#5bb27e"/><path d="M756.6,391l50.5-42.6a0.91,0.91,0,0,0,.3-0.7l-0.3-14.8a0.82,0.82,0,0,0-.9-0.8,0.6,0.6,0,0,0-.4.1L678.2,407.6l-18.9,8.7-4,6.4,3.8,17.6c5.8,5.8,11.9,11.5,18.1,17Z" transform="translate(-3 0)" style="fill:#5ab27e"/><path d="M600.2,194.1l-19-8.2-23.3-6.1-21.8-2.1-21.8,2.1-15,5-12.9,7.5-7.5,6.4-7.5,7.9-4.2,7.2,142.9,16.8a8,8,0,0,1,6.8,9.1l-4,37.6,9.9,6,11.4,6.8a15.76,15.76,0,0,1-7.7-13.3l3-41.8a6.93,6.93,0,0,1,.3-2,15.09,15.09,0,0,1,17.9-11.7l-25.3-14.7Z" transform="translate(-3 0)" style="fill:#5ab27e"/><path d="M937.7,846.8l3.7-5.7a18,18,0,0,0,2.9-8.7,314,314,0,0,0,.3-36.3,135.41,135.41,0,0,0-2.3-18.9V726H929.4l-8-127.5h14.1a3,3,0,0,0,3-3V591a3,3,0,0,0-3-3l-66.8-.1a6.2,6.2,0,0,0-4.8,7.4v0.1l29.8,75L918,732.9v0.3a7.39,7.39,0,0,0,1.3,4.1l1.6,4.2a139.7,139.7,0,0,1,9.2,40.8,222,222,0,0,1-3,56.4,7.48,7.48,0,0,0,6,8.7A7.15,7.15,0,0,0,937.7,846.8Z" transform="translate(-3 0)" style="fill:#5ab27e"/><g id="LWPOLYLINE-2" data-name="LWPOLYLINE"><path d="M363.9,758.3l36.2,48-29.7,51.6L341,903.3a17.12,17.12,0,0,1-14.1,7.8,25.18,25.18,0,0,1-10.8-2.2l-12.4-10.2,4.4-7.3-2.7-2A60,60,0,0,1,283.8,857a23.34,23.34,0,0,1,0-12.3l46.6-60.3Z" transform="translate(-3 0)" style="fill:#5ab27e"/></g><g id="LWPOLYLINE-3" data-name="LWPOLYLINE"><path d="M587.3,391.4l30-47.9,13.3,9,7.9-11.6,49.9,33.2-7.7,7.4-29.5,16.4-32,20.2-31.5-20.3a6.47,6.47,0,0,1-.9-0.8,4,4,0,0,1,.5-5.6" transform="translate(-3 0)" style="fill:#5ab27e"/></g><g id="LWPOLYLINE-4" data-name="LWPOLYLINE"><path d="M496.8,902l0.8,42.9V956c-2.5.5-5,1-7.4,1.5-10.3,2.3-20.5,4.7-30.8,7.1a197.37,197.37,0,0,0-83.2,42.7l-29.6-60.4a21.29,21.29,0,0,1,1.2-21L411,819c0.1-.2.3-0.4,0.4-0.6a4.46,4.46,0,0,1,6.3-.6l2.3,1.9a186.38,186.38,0,0,0,68,36.6,11.5,11.5,0,0,1,8.3,11.5l0.5,34.2h0Z" transform="translate(-3 0)" style="fill:#5ab27e"/></g><path d="M514.5,839.5a175.15,175.15,0,0,0,35.8-9.6c15.7-6,31-12.8,46.1-20.2l47.1-38.3,5.2-7.1,24.7-40.1,0.2-.7c9.5-18.2,14-42.1,17.3-63.9l9.5-59.2,2.7-36.2a22,22,0,0,0-3.7-14L678,515l-10.1-12.5-10.6,9.3-5.1,5.6a30,30,0,0,0-7.7,17.7l-1.2,6-1.8,6.8-1.4,8.2-2.5,7.5-1.8,6.1L635,582l1,49a99.34,99.34,0,0,1-7.4,58.4l-3.3,8.9-0.1-.1-1.4,2.1a173.93,173.93,0,0,1-126.4,78l-8.6.7L387.9,708.7l-7.5.4,2.5,9.7,2.9,9.7,3.2,10,4.1,9,0.2,0.5,4,10.6a130.47,130.47,0,0,0,23.3,39.1,113.09,113.09,0,0,0,25.7,22.1c10.2,6.4,20.6,12.4,31.2,18.1a30.85,30.85,0,0,0,14.9,3.5A151,151,0,0,0,514.5,839.5Z" transform="translate(-3 0)" style="fill:#5ab27e"/><path d="M651.7,482.7l-2.9-3.6-38.7-34.3-26.5,4.4-43.9-32.9a7.14,7.14,0,0,0-7.8-.5l-15,15.9c7.4,13.6,22.9,36.6,31.9,49.2,4.9,6.4,10,12.7,15.3,18.8a327.27,327.27,0,0,0,39.6,30.7Z" transform="translate(-3 0)" style="fill:#5ab27e"/><path d="M349.2,644.8A160.15,160.15,0,0,1,496.6,485.2L490,421.5c-114.7,9.8-204.8,106-204.8,223.2a221.42,221.42,0,0,0,9.3,63.9L356.3,692A159.51,159.51,0,0,1,349.2,644.8Z" transform="translate(-3 0)" style="fill:#895a36;fill-opacity:0.3499999940395355"/><path d="M504.9,571.7l-5.6-60.3A133.83,133.83,0,0,0,375.5,644.9a135.57,135.57,0,0,0,6.2,40.5L435,670.1Z" transform="translate(-3 0)" style="fill:#895a36"/><g id="LWPOLYLINE-5" data-name="LWPOLYLINE"><polygon points="619.9 814.5 653.2 837.2 675.5 805.1 683.4 810.2 688.8 806.5 732.3 811.5 742.8 796.7 721.3 755.2 724.1 751 715 744.7 737.8 712.5 704.3 690.1 619.9 814.5" style="fill:#607d8b"/></g><polygon points="551.6 750.7 626.1 643.2 531.9 575.8 565.1 528.3 545.4 512.2 517.1 514.7 519.6 548.7 526.1 553 468 633.3 427.6 689.2 422.9 685.7 400.3 689.7 401.8 710.7 439 737.7 469.1 694.2 551.6 750.7" style="fill:#607d8b"/><polygon points="477.9 373.3 477.6 378.4 477.2 383.8 476.8 389.4 476.3 395.2 475.8 401 475.2 407 474.5 412.9 473.8 418.8 473 424.7 472.2 430.5 471.3 436.3 470.3 442 469.3 447.7 468.2 453.2 467 458.8 465.7 464.3 464.3 469.8 462.8 475.3 461.2 480.7 459.6 486 457.8 491.3 456 496.7 454.1 501.8 452.1 507 450.1 512.1 447.9 517.1 445.8 522 443.6 527 441.3 531.7 439.1 536.1 436.9 540.5 434.7 544.7 432.6 548.7 430.5 552.5 428.4 556 426.4 559.5 424.4 562.8 422.4 566 420.5 569.1 418.5 572.2 416.6 575.1 414.7 578 412.8 581 410.9 583.7 409 586.7 407.1 589.5 405.1 592.2 403 595 400.9 597.8 398.7 600.7 396.5 603.5 394.2 606.5 391.9 609.3 389.6 612.2 387.2 615.1 384.8 618 382.3 620.8 379.9 623.7 377.3 626.7 374.8 629.5 372.1 632.3 369.3 635.2 366.5 638.1 363.5 641 360.4 644 357.1 646.8 353.7 649.8 350.2 652.7 346.6 655.7 342.8 658.7 338.9 661.7 334.9 664.7 330.8 667.7 326.5 670.8 322.2 673.8 317.9 676.8 313.5 679.7 309 682.7 304.6 685.5 300.2 688.3 295.9 691 291.6 693.7 287.4 696.1 283.2 698.7 279 701 274.9 703.3 270.9 705.5 266.9 707.7 262.9 709.8 259 711.8 255.1 713.8 251.4 715.7 247.7 717.5 244.1 719.1 240.6 720.7 237.3 722.1 234.1 723.5 231.1 724.5 228.5 725.7 226.2 726.5 224.5 727.3 223.4 728 222.9 728.5 223.2 728.8 224.4 729 226.3 729.1 228.9 729.1 232.1 729 235.7 728.8 239.8 728.7 244.1 728.5 248.5 728.2 253.1 728 257.7 728 262.4 727.7 267.1 727.7 271.9 727.7 276.6 727.7 281.3 727.8 286 728 290.7 728.2 295.3 728.5 299.9 728.8 304.4 729.3 308.9 729.8 313.3 730.3 317.7 731 322.1 731.5 326.4 732.1 330.7 732.8 334.9 733.5 339.2 734.3 343.4 735.1 347.6 736 351.9 737 356.2 738 360.5 739 364.9 740.2 369.2 741.5 373.6 743 378 744.3 382.3 746 386.6 747.7 390.9 749.5 395.2 751.3 399.4 753.3 403.5 755.5 407.5 757.7 411.5 759.8 415.3 762 419 764.3 422.5 766.5 425.9 768.8 429.1 771 432.2 773.3 435.2 775.7 438.2 778 441.2 780.3 444.1 782.7 447 785.3 450 788 453 790.7 456.1 793.5 459.1 796.2 462.1 799 465 801.7 467.9 804.5 470.8 807 473.5 809.5 476.2 811.8 478.8 814.1 481.2 816.3 483.7 818.3 486 820.3 488.2 822.2 490.4 824 492.4 825.7 494.4 827.3 496.2 828.8 497.8 830 499.2 831 500.3 831.8 501.2 832.2 501.7 832.2 501.9 831.8 501.8 831.1 501.5 830 500.9 828.7 500.3 827.1 499.5 825.5 498.7 823.5 498 821.5 497.3 819.5 496.6 817.5 496.1 815.3 495.6 813 495.1 810.7 494.8 808 494.5 805.2 494.2 802.3 494.1 799.1 494 795.8 493.9 792.3 494 788.7 494.1 785 494.2 781.1 494.4 777.3 494.7 773.5 495.1 769.7 495.5 766 496 762.1 496.5 758.5 497.2 754.7 498 751 498.8 747.1 499.8 743.5 500.9 739.7 502.1 735.8 503.4 732 504.8 728.2 506.3 724.3 508 720.5 509.7 716.5 511.6 712.7 513.5 708.7 515.6 704.7 517.8 700.5 520 696.5 522.3 692.5 524.7 688.5 527.1 684.5 529.6 680.5 532.1 676.5 534.7 672.7 537.2 668.8 539.8 665 542.4 661.5 544.9 657.8 547.3 654.3 549.7 651 552.1 647.8 554.3 644.8 556.5 642 558.7 639.1 560.8 636.3 562.9 633.7 565 631.2 567.2 628.7 569.3 626.5 571.4 624 573.6 621.8 575.8 619.7 578 617.5 580.3 615.3 582.7 613.3 585.1 611.3 587.6 609.5 590.1 607.7 592.8 605.7 595.5 604 598.3 602.2 601.1 600.5 604.1 598.7 607.1 597 610.2 595.3 613.3 593.7 616.5 592 619.7 590.3 622.9 588.7 626.1 587 629.2 585.5 632.3 584 635.3 582.5 638.3 581 641.1 579.7 644 578.3 646.8 577 649.5 576 652.2 574.8 655 573.8 657.7 572.8 660.3 572 663 571.2 665.6 570.5 668.2 569.8 670.7 569.2 673.1 568.7 675.4 568.1 677.6 567.5 679.8 567 681.8 566.5 683.7 566.1 685.6 565.7 687.3 565.3 689 565 690.5 564.7 692 564.3 693.3 564 694.4 563.8 695.1 563.5 695.5 563.5 695.5 563.2 695 563 694 563 692.3 562.7 690.1 562.7 687.5 562.5 684.6 562.3 681.4 562.1 678.2 562 675 561.8 671.8 561.5 668.9 561.2 666.1 561 663.4 560.5 660.9 560.1 658.4 559.7 655.9 559 653.4 558.3 650.8 557.5 648.1 556.7 645.4 555.7 642.5 554.5 639.7 553.3 636.8 552 633.9 550.7 631.1 549.5 628.3 548 625.5 546.7 622.8 545.1 620.1 543.7 617.3 542.1 614.6 540.5 611.8 539 608.9 537.1 606 535.3 603 533.3 599.8 531.3 596.6 529.1 593.2 527 589.8 524.5 586.3 522 582.8 519.2 579.2 516.3 575.5 513.3 571.8 510.2 568.1 507 564.5 503.7 560.9 500.3 557.5 497 554.2 493.7 551 490.7 548.1 487.5 545.4 484.5 542.8 481.5 540.4 478.7 538 475.8 535.8 473 533.6 470 531.4 467 529.3 463.8 527.1 460.7 525 457.4 522.8 454.1 520.7 450.8 518.6 447.4 516.6 444 514.6 440.7 512.7 437.2 510.8 433.8 509 430.5 507.2 427.3 505.6 424.1 504 421 502.5 418 501.2 415.1 499.9 412.4 498.7 409.8 497.7 407.2 496.6 404.7 495.7 402.3 494.7 399.8 493.8 397.3 492.8 394.7 491.8 392 490.8 389.1 489.8 386.2 488.8 383.2 487.8 380 486.8 376.8 485.9 373.4 485 369.9 484.1 366.4 483.3 362.7 482.6 359.2 481.9 355.7 481.3 352.4 480.7 349.4 480.3 346.8 479.9 344.5 479.6 342.8 479.4 341.5 479.2 340.8 479.1 340.5 479 340.8 479 341.5 478.9 342.7 478.9 344.4 478.9 346.6 478.8 349.2 478.7 352.3 478.7 355.8 478.5 359.7 478.4 363.9 478.2 368.4 477.9 373.3" style="fill:#fff;fill-opacity:0.3499999940395355;stroke:#fff;stroke-miterlimit:10"/><path d="M768.5,1628.5V1515.9c0-2.2,1.3-3.9,3-3.9h65.8c1.7,0,3,1.7,3,3.9v112.6c0,2.2-1.3,3.9-3,3.9H771.5C769.8,1632.4,768.5,1630.5,768.5,1628.5Z" transform="translate(-3 0)" style="fill:#26c6da"/><path d="M978.2,1480.2V1364.7c0-2.3,2-4,4.7-4h81.6c2.7,0,4.7,1.7,4.7,4v115.5c0,2.3-2,4-4.7,4H982.9C980.3,1484.2,978.2,1482.3,978.2,1480.2Z" transform="translate(-3 0)" style="fill:#26c6da"/><path d="M670.3,1723.6l-9.9-9.9a1.15,1.15,0,0,1,0-1.7l3.8-3.8a1.15,1.15,0,0,1,1.7,0l9.9,9.9a1.15,1.15,0,0,1,0,1.7l-3.8,3.8A1.24,1.24,0,0,1,670.3,1723.6Z" transform="translate(-3 0)" style="fill:#b0bec5"/><path d="M872.7,1015.1l9.9-9.9a1.15,1.15,0,0,1,1.7,0l3.8,3.8a1.15,1.15,0,0,1,0,1.7l-9.9,9.9a1.15,1.15,0,0,1-1.7,0l-3.8-3.8A1.35,1.35,0,0,1,872.7,1015.1Z" transform="translate(-3 0)" style="fill:#b0bec5"/><path d="M807,728.6l13.9-1.9a1.15,1.15,0,0,1,1.3,1l0.7,5.3a1.15,1.15,0,0,1-1,1.3L808,736.2a1.15,1.15,0,0,1-1.3-1l-0.7-5.3A1.13,1.13,0,0,1,807,728.6Z" transform="translate(-3 0)" style="fill:#b0bec5"/><path d="M696.8,905.3l-3.5-13.6a1.09,1.09,0,0,1,.9-1.4l5.2-1.3a1.09,1.09,0,0,1,1.4.9l3.5,13.6a1.09,1.09,0,0,1-.9,1.4l-5.2,1.3A1.18,1.18,0,0,1,696.8,905.3Z" transform="translate(-3 0)" style="fill:#b0bec5"/><path d="M352.9,743.1L364,754.3a3,3,0,0,1,0,4.2l-74.1,73.1a3,3,0,0,1-4.2,0l-11.1-11.2a3,3,0,0,1,0-4.2l74.1-73.1A3.08,3.08,0,0,1,352.9,743.1Z" transform="translate(-3 0)" style="fill:#b0bec5"/><path d="M340.5,892l-16.8,16.2a2.9,2.9,0,0,1-4.2-.1l-45.7-47.2a2.9,2.9,0,0,1,.1-4.2l16.8-16.2a2.9,2.9,0,0,1,4.2.1l45.7,47.2A3,3,0,0,1,340.5,892Z" transform="translate(-3 0)" style="fill:#b0bec5"/><path d="M553.4,408.6l11.2,11.1a3,3,0,0,0,4.2,0l73.1-74.1a3,3,0,0,0,0-4.2l-11.2-11.1a3,3,0,0,0-4.2,0l-73.1,74.1A2.9,2.9,0,0,0,553.4,408.6Z" transform="translate(-3 0)" style="fill:#b0bec5"/><path d="M702.2,396.2l16.2-16.8a2.9,2.9,0,0,0-.1-4.2l-47.2-45.7a2.9,2.9,0,0,0-4.2.1l-16.2,16.8a2.9,2.9,0,0,0,.1,4.2L698,396.3A3,3,0,0,0,702.2,396.2Z" transform="translate(-3 0)" style="fill:#b0bec5"/><rect x="527.6" y="1013.5" width="114.9" height="151.9" style="fill:#4fc3f7"/><path d="M661.9,1459v-66.9c0-2.1,2.6-3.7,6-3.7H776.4c3.4,0,6,1.6,6,3.7V1459c0,2.1-2.6,3.7-6,3.7H667.9C664.6,1462.7,661.9,1461.1,661.9,1459Z" transform="translate(-3 0)" style="fill:#1ce8b5"/><path d="M899.2,1016.7l36.8,19.2c2.6,1.4,4.1,3.4,3.4,4.7l-13.5,25.8c-0.7,1.3-3.2,1.3-5.8,0l-36.8-19.2c-2.6-1.4-4.1-3.4-3.4-4.7l13.5-25.8C894.1,1015.3,896.6,1015.4,899.2,1016.7Z" transform="translate(-3 0)" style="fill:#5c6bc0"/><path d="M113.6,322.4l-28.7-32S25.3,344,8.3,409.7l31,12-2.2,7.5,11.8,3.3C48.8,432.4,61.2,375.3,113.6,322.4Z" transform="translate(-3 0)" style="fill:#b0bec5"/><path d="M687.1,892.5l4.7,18.5a3,3,0,0,1-2.2,3.6L581.1,942.3a3,3,0,0,1-3.6-2.2l-4.7-18.5A3,3,0,0,1,575,918l108.6-27.7A2.78,2.78,0,0,1,687.1,892.5Z" transform="translate(-3 0)" style="fill:#b0bec5"/><path d="M822.8,718.1l-21,3.3a3,3,0,0,1-3.4-2.5l-20-127.8a3,3,0,0,1,2.5-3.4l21-3.3a3,3,0,0,1,3.4,2.5l20,127.8A2.84,2.84,0,0,1,822.8,718.1Z" transform="translate(-3 0)" style="fill:#b0bec5"/><path d="M709.3,681.5l7.3,0.5c1.6,0.1,3-1.6,3.2-3.8l7.8-20.5-0.9-78.2c0.2-2.2-1-4.1-2.6-4.2l-7.3-.5c-1.6-.1-3,1.6-3.2,3.8l-6.9,98.7C706.5,679.5,707.7,681.5,709.3,681.5Z" transform="translate(-3 0)" style="fill:#b0bec5"/><path d="M619.1,822.1l2.3,7c0.5,1.5-.8,3.3-2.9,4l-18,12.5-76.1,18c-2.1.7-4.2,0-4.7-1.5l-2.3-7c-0.5-1.5.8-3.3,2.9-4l94.1-30.5C616.5,820,618.6,820.7,619.1,822.1Z" transform="translate(-3 0)" style="fill:#b0bec5"/><path d="M684.2,1718.7v-15.8a3,3,0,0,1,3-3h130a3,3,0,0,1,3,3v15.8a3,3,0,0,1-3,3h-130A3.08,3.08,0,0,1,684.2,1718.7Z" transform="translate(-3 0)" style="fill:#b0bec5"/><path d="M811.2,1199.1v-10a3,3,0,0,1,3-3H869a3,3,0,0,1,3,3v10a3,3,0,0,1-3,3H814.2A3,3,0,0,1,811.2,1199.1Z" transform="translate(-3 0)" style="fill:#b0bec5"/><path d="M831.2,1441.5v-10a3,3,0,0,1,3-3H876a3,3,0,0,1,3,3v10a3,3,0,0,1-3,3H834.2A3.08,3.08,0,0,1,831.2,1441.5Z" transform="translate(-3 0)" style="fill:#b0bec5"/><path d="M430.5,888.2h24a3,3,0,0,1,3,3v33a3,3,0,0,1-3,3h-24a3,3,0,0,1-3-3v-33A3,3,0,0,1,430.5,888.2Z" transform="translate(-3 0)" style="fill:#5c6bc0"/><line x1="608.4" y1="1060.3" x2="548.3" y2="1107.9" style="fill:none"/><line x1="668.5" y1="1107.9" x2="608.4" y2="1060.3" style="fill:none"/><line x1="608.4" y1="1060.3" x2="548.3" y2="1107.9" style="fill:none"/><line x1="857.4" y1="1073.3" x2="797.3" y2="1120.9" style="fill:none"/><line x1="857.4" y1="1073.3" x2="797.3" y2="1120.9" style="fill:none"/><line x1="608.4" y1="1060.3" x2="548.3" y2="1107.9" style="fill:none"/><path d="M762.5,1021.8a37,37,0,0,0-37,37h74A37,37,0,0,0,762.5,1021.8Z" transform="translate(-3 0)" style="fill:#ffca28"/><rect x="527.6" y="1179.4" width="114.9" height="151.9" style="fill:#4fc3f7"/><rect x="724.6" y="1206.4" width="76.8" height="115.8" style="fill:#4fc3f7"/><path d="M710.2,979.6a27.27,27.27,0,0,0-27.3,27.3h54.7A27.36,27.36,0,0,0,710.2,979.6Z" transform="translate(-3 0)" style="fill:#ffca28"/><path d="M775,947.2a22.64,22.64,0,0,0-22.5,22.7h45A22.58,22.58,0,0,0,775,947.2Z" transform="translate(-3 0)" style="fill:#ffca28"/><rect x="1021.4" y="1076.1" width="61.1" height="94.2" style="fill:#4fc3f7"/><path d="M668.9,1596.5a37,37,0,0,0-37,37h74A37,37,0,0,0,668.9,1596.5Z" transform="translate(-3 0)" style="fill:#ffca28"/><path d="M651.9,1517.8a27.27,27.27,0,0,0-27.3,27.3h54.7A27.42,27.42,0,0,0,651.9,1517.8Z" transform="translate(-3 0)" style="fill:#ffca28"/><path d="M721.9,1675.1v-17.8c0-.9,4-1.5,9.3-1.5h42c5.3,0,9.3.6,9.3,1.5v17.8c0,0.8-4,1.5-9.3,1.5h-42C725.9,1676.6,721.9,1675.8,721.9,1675.1Z" transform="translate(-3 0)" style="fill:#cfd8dc"/><path d="M1037.6,1276.8v-58.1a4.78,4.78,0,0,1,4.9-4.9h22a4.84,4.84,0,0,1,4.9,4.9v58.1a4.78,4.78,0,0,1-4.9,4.9h-22A5,5,0,0,1,1037.6,1276.8Z" transform="translate(-3 0)" style="fill:#cfd8dc"/><path d="M921,1245.8a37,37,0,0,0-37,37h74A37,37,0,0,0,921,1245.8Z" transform="translate(-3 0)" style="fill:#ffca28"/><path d="M967.2,1190.7a22.64,22.64,0,0,0-22.5,22.7h45A22.64,22.64,0,0,0,967.2,1190.7Z" transform="translate(-3 0)" style="fill:#ffca28"/><path d="M888,1680.8V1743c0,3,1.4,5.2,3.3,5.2h14.8c1.8,0,3.3-2.3,3.3-5.2v-62.2c0-3-1.4-5.2-3.3-5.2H891.3C889.5,1675.5,888,1678.2,888,1680.8Z" transform="translate(-3 0)" style="fill:#cfd8dc"/><path d="M953,1599.4a27.27,27.27,0,0,0-27.3,27.3h54.7A27.42,27.42,0,0,0,953,1599.4Z" transform="translate(-3 0)" style="fill:#ffca28"/><path d="M998.1,1694.9v-33.5c0-.7,1.8-1.2,4.1-1.2h88.9c2.3,0,4.1.5,4.1,1.2v33.5c0,0.7-1.8,1.2-4.1,1.2h-88.9C999.8,1696.1,998.1,1695.5,998.1,1694.9Z" transform="translate(-3 0)" style="fill:#26c6da"/></svg>