<svg id="Layer_1" data-name="Layer 1" xmlns="http://www.w3.org/2000/svg" viewBox="0 0 1245.25 1888.6"><title>floor0-2017-4</title><path d="M521.65,1886.5l5.9-2.9-6-10.6h90.4l-33.1-10.3a19,19,0,0,0,14.2,18.4,57.84,57.84,0,0,0,12.4,1.7l46.8-5.4,132.4-13.1,87.8-6.4,65.2-4.6,112.3-4,72.1-4.6,8.3-1.2a276.79,276.79,0,0,1,34-2.9c12.4-.3,24.9-0.9,37.3-1.7a47.12,47.12,0,0,0,43.7-40.6L1223,1375.4l-3.1-75.7,3.9-194.9,2.4-69.6a75.25,75.25,0,0,0-33.1-44.4V957.3l6.5,3.6c5.7,0,11.3-.2,17-0.5a18,18,0,0,0,16.4-14.5,262.5,262.5,0,0,0,4.5-39.5l2.2-63.8-1.6-143.8-16.9-225-11.1-123.4-5.3-177.5a16.68,16.68,0,0,0-10.6-14.3l-24.2.6V115.6l0.7,0.3,3.7,1.2,2.9,0.8,2.2,0.5,1.7,0.3,1.3,0.2,1.1,0.1,1.1,0.1,1,0.1h3l1-.1,1-.1,1-.2,1-.2,1-.3,1-.4,1-.4,0.9-.5,0.9-.6,0.8-.6,0.7-.7,0.7-.8,0.6-.9,0.5-.9,0.4-1.1,0.3-1.2,0.3-1.3,0.2-1.4,0.2-1.6,0.1-1.7,0.1-1.9V40.7l-0.1-4.2-0.1-4-0.1-3.7-0.1-3.4-0.2-3-0.2-2.7-0.2-2.3-0.3-1.9-0.3-1.6-0.4-1.3-0.5-1.1-0.5-.9-0.6-.8-0.7-.7-0.7-.7-0.8-.7-0.9-.7-1.5-.4-1-.7-1-.7-1.1-.6L1190,4l-1.2-.6-1.5-.6-2.2-.5-3.2-.5-4.6-.4L1171,1l-8.3-.3-10.6-.3L1139,0.2,1124,0h-16.4l-17,.1-16.9.3-16.1.5-14.7.7-12.6,1-10,1.2-7.8,1.4-6.2,1.6-5.2,1.6-4.9,1.5-5.1,1.4-6,1.2-7.5.9-9.5.6-11,.3-12.1.2-12.6.2-12.5.3-11.9.6-10.8.9L888,17.9l-7,2-5.1,2.5-3.5,2.8-2.2,3L869,31.3l-0.6,3.1-0.2,3L868,40.1l-0.4,2.4-0.6,2-0.8,1.7-1,1.5L864,49.1l-1.3,1.3-1.5,1.2-1.6,1.2-1.7,1.3-1.7,1.4-1.8,1.4-1.8,1.5-1.8,1.5L849,61.4l-1.8,1.6-1.8,1.6-1.8,1.6-1.7,1.6-1.7,1.6-1.7,1.6-1.6,1.6-1.6,1.6-1.6,1.6-1.6,1.6-1.6,1.7L829,80.8l-1.6,1.7-1.6,1.7-1.5,1.7-1.5,1.7-1.4,1.7-1.4,1.7-1.3,1.6-1.2,1.6-1.2,1.6-1.1,1.6L814,99.1l-1.1,1.7-1.1,1.8-1.1,1.9-1.2,2-1.2,2.1-1.2,2.2-1.2,2.2-1.2,2.3-1.2,2.3-1.2,2.4-1.2,2.4-1.2,2.4-1.1,2.5-1.1,2.5-0.5,1.1-3.3,2.9-3.4,2.4-6,2-8.7,1.4-14.1,1-16.3,1-19.1,1-91.7,1v-9.2h-19.4L554.35,44l-5-7.9-6.5-5L530.95,30l-17.2.7-40.9-1.4L430.55,25l-79.6-.8-144.1-.7-126.2.7-34.4.5a39.93,39.93,0,0,0-39.4,40V877.9l0.6,0.5,7.2,8.6,5.7,25.1,15.8,38,30.1,77.5,34.4,81.8,27.2,69.6,20.8,67.4,20.1,87.5,33.8,115,19.4,62.4,7.2,41.6v46.6l-4.3,40.9,1.4,38,22.9,49.5,45.9,62.4,43.7,57.4,19.4,14.3,39.4,12.9,25.1,4.3,27.2,2.9,33.7,2.9,27.2,3.6ZM12,409.7l9.5-21.6,4-10.2v37Z" transform="translate(-0.1 0)" style="fill:#b0bec5"/><path d="M202.1,737.8l-3.6-14.4a8.66,8.66,0,0,1,5.8-8.8l54.1-11.1c-27-118.5,18.4-282.1,225.8-310.4,0.4-7-3.8-32.5-3.8-32.5l-2.5.4-1.6-10.1L470,352l-2-11,15.1-3.2L459.2,225.6a394,394,0,0,0-149.1,6,453.65,453.65,0,0,0-128.7,52A286.32,286.32,0,0,0,71.9,398,354,354,0,0,0,45.2,570.2,403.6,403.6,0,0,0,85.7,738.3l10.3-5,11,20.6Z" transform="translate(-0.1 0)" style="fill:#418d46"/><g id="LWPOLYLINE"><path d="M349.3,735.7a319.41,319.41,0,0,0-54.1-7.9l11.5,32.1,6.8,7Z" transform="translate(-0.1 0)" style="fill:#5ab27e"/></g><path d="M514.8,1886.5l5.9-2.9-11-57.9q-2-10-3.6-20.1a242.16,242.16,0,0,1-2.8-56.4c1.2-17.4,1.9-34.9,1.9-52.3a323.9,323.9,0,0,0-6.2-64.4,8,8,0,0,0-1.8-3.7l-8.8-19.7-13.3-38.6-13.8-51.9-31.2-110.7-44.2-157-45.4-162.1a81.53,81.53,0,0,1-2.7-14.6l-2-3-2.9-4.1-3.9-5.7-5.2-3.4-11.7-7.5,2.7-10.5-5.1-16.5-10.1-4.3,2.8-7.3-29-14.5-3.2-1.4-9.8,13-70.8-55.3,6.1-9.3-43.5-34.7-26.8-34.1L96.9,810.1,86.3,758.6a413.13,413.13,0,0,1-52-192.4A363.06,363.06,0,0,1,46.5,433l0.4-.4a368.86,368.86,0,0,1,15.2-43.2A294.22,294.22,0,0,1,174.3,272.2,463.76,463.76,0,0,1,234.5,242a474.22,474.22,0,0,1,71.6-23.1,401.79,401.79,0,0,1,132.5-8.6,110.76,110.76,0,0,1,80.2-46.8,147.53,147.53,0,0,1,92.9,21.9l37.1,23.3,24.3,17.6,23.4-.3V174.5h86.6l-0.1,4.7-0.2,10.3-0.1,12.2-0.1,13.6v29.4l0.1,14.7,0.2,13.9,0.3,12.6,0.4,10.8,0.5,8.5,0.7,6.4,0.8,4.5,0.9,3,1,1.7,1.1,0.7h1.2l1.3-.4,1.3-.5,1.4-.6,1.4-.7,1.4-.7,1.3-.7,1.2-.7,1.1-.7,0.9-.6,0.7-.5,0.6-.5,0.4-.6,0.3-.9,0.2-1.3,0.1-1.8V248.7l0.1-10.6,0.3-11.3,0.6-11.9,1.1-12.4,1.8-12.8,2.6-13.1,3.6-13.3,4.7-13.5,6-13.5,7.3-13.2,8.4-12.8,9.5-12.1L860,87l11.5-10.4L884,67.9l13.4-7.1,14.1-5.3,14.7-3.7,14.9-2.3,14.9-1,14.7,0.1,14.1,1,13.3,1.7,12.3,2.2,11,2.5,9.9,2.8,9.1,3.1,8.5,3.4,8.2,3.6,8.1,3.8,8.2,4,8.6,4.2,9.2,4.3,9.6,4.4,9.8,4.4,9.7,4.2,9.4,4,8.8,3.7,8,3.3,7,2.8,5.8,2.2,4.7,1.7,3.7,1.2,2.9,0.8,2.2,0.5,1.7,0.3,1.3,0.2,1.1,0.1,1.1,0.1,1,0.1h3l1-.1,1-.1,1-.2,1-.2,1-.3,1-.4,1-.4,0.9-.5,0.9-.6,0.8-.6,0.7-.7,0.7-.8,0.6-.9,0.5-.9,0.4-1.1,0.3-1.2,0.3-1.3,0.2-1.4,0.2-1.6,0.1-1.7,0.1-1.9V40.7l-0.1-4.2-0.1-4-0.1-3.7-0.1-3.4-0.2-3-0.2-2.7-0.2-2.3-0.3-1.9-0.3-1.6-0.4-1.3-0.5-1.1-0.5-.9-0.6-.8-0.7-.7-0.7-.7-0.8-.7L1189,7l-1.7-.4-1-.7-1-.7-1.1-.6-1.1-.6-1.2-.6-1.5-.6-2.2-.5-3.2-.5-4.6-.4-6.3-.4-8.3-.3-10.6-.3-13.1-.2-15-.2h-16.4l-17,.1-16.9.3-16.1.5-14.7.7-12.6,1-10,1.2-7.8,1.4-6.2,1.6-5.2,1.6-4.9,1.5-5.1,1.4-6,1.2-7.5.9-9.5.6-11,.3-12.1.2-12.6.2L913,15l-11.9.6-10.8.9-9.1,1.4-7,2-5.1,2.5-3.5,2.8-2.2,3-1.2,3.1-0.6,3.1-0.2,3-0.2,2.7-0.4,2.4-0.6,2-0.8,1.7-1,1.5-1.2,1.4-1.3,1.3-1.5,1.2-1.6,1.2-1.7,1.3-1.7,1.4-1.8,1.4-1.8,1.5L844,59.9l-1.8,1.5L840.4,63l-1.8,1.6-1.8,1.6-1.7,1.6-1.7,1.6L831.7,71l-1.6,1.6-1.6,1.6-1.6,1.6-1.6,1.6-1.6,1.7-1.6,1.7-1.6,1.7-1.6,1.7-1.5,1.7-1.5,1.7-1.4,1.7L813.1,91l-1.3,1.6-1.2,1.6-1.2,1.6-1.1,1.6-1.1,1.7-1.1,1.7-1.1,1.8-1.1,1.9-1.2,2-1.2,2.1-1.2,2.2-1.2,2.2-1.2,2.3-1.2,2.3-1.2,2.4-1.2,2.4-1.2,2.4-1.1,2.5-1.1,2.5-0.5,1.1-3.3,2.9-3.4,2.4-6,2-8.7,1.4-14.1,1-16.3,1-19.1,1-91.7,1v-9.2H608.4L547.5,44l-5-7.9-6.5-5L524.1,30l-17.2.7L466,29.3,423.7,25l-79.6-.8L200,23.5l-126.2.7-44.2.7A29.92,29.92,0,0,0,.1,54.9v823l0.6,0.5L7.9,887l5.7,25.1,15.8,38,30.1,77.5,34.4,81.8,27.2,69.6,20.8,67.4,20.1,87.5,33.8,115,19.4,62.4,7.2,41.6v46.6l-4.3,40.9,1.4,38,22.9,49.5,45.9,62.4,43.7,57.4,19.4,14.3,39.4,12.9,25.1,4.3,27.2,2.9,33.7,2.9,27.2,3.6Z" transform="translate(-0.1 0)" style="fill:#6fbb91"/><path d="M885.8,955.1l7.4,5.4,12.2,7.4,15.5,7.1,23.7,10.9,27.6,11.8,76.7,35.6,13.3,5.5,1.7,0.9,21.2,10.7a16,16,0,0,1,8.4,11l0.8,62.1,1.2,72.7,0.9,72.3,1,48.5,0.7,23a10.29,10.29,0,0,1-1.4,5.7l-12.9,1a2.08,2.08,0,0,0-1.9,2.1l6.9,62.8,6.4,53.6,5.1,47.1,4.1,38.3,3.9,34.8,6.1,49,10.2,84.4,3.6,33.5v0.9a6.57,6.57,0,0,1-6.7,6.4l-79.7,3.2-100.6,3.8-46,1.7c-15.5.6-31.1,1.7-46.6,3.2l-61.3,8.8-59.9,6.4-83.7,11.1a4.5,4.5,0,0,1-4.9-3.2l-2.3-43.3-21.3-162-8.4-75.5-12.5-107a12.11,12.11,0,0,0-2.2-5.8,9.91,9.91,0,0,0-6.7-4.2c-4.5-.6-9-1-13.5-1.3l-9.3,4-12.8,10.7-4.3,4.7a37.67,37.67,0,0,0-8.9,32.3l12.3,68.9,6.9,48.7,6.8,70.8,5.3,60.1,2.4,42.9q2.7,48.9,1.8,98l0.1,26a18.93,18.93,0,0,0,14.4,18.4,56.09,56.09,0,0,0,12.3,1.7l46.8-5.4,132.4-13.1,87.8-6.4,65.2-4.6,112.3-4,72.1-4.6,8.3-1.3a264,264,0,0,1,33.3-2.9c12.7-.3,25.4-0.9,38-1.7a47.12,47.12,0,0,0,43.7-40.6l-22.7-422.8-3.1-75.7,3.9-194.9,2.4-69.6a75.15,75.15,0,0,0-79.4-55.3l-126.2-7.7a193.71,193.71,0,0,1-89.9-28.4L899,929a14.59,14.59,0,1,0-14.9,25.1A2.77,2.77,0,0,0,885.8,955.1Z" transform="translate(-0.1 0)" style="fill:#5bb27e"/><path d="M863.5,981.1l0.3,27.7,1.2,85.7v58l2.8,127.6,0.3,62.8a10,10,0,0,1-2.5,6.6l-14.3.1-52.2,2.2h-0.7a3.93,3.93,0,0,1,1-7.8h14.2v-34.1l-2.9-143.6-2.6-169.8-14.1-.6a3.1,3.1,0,0,1-2.9-2.7,5.33,5.33,0,0,1,1.3-4.2l37-20.4a7.26,7.26,0,0,1,3.8-.8l7.3,4.4a51.83,51.83,0,0,0,15.1,6l4.9,0.8A3.46,3.46,0,0,1,863.5,981.1Z" transform="translate(-0.1 0)" style="fill:#5ab27e"/><path d="M501.8,999l4.4-.3,10.7-.6h0.5a2.43,2.43,0,1,1-.8,4.8l-10.5,2.3a2.59,2.59,0,0,0-2,2.6v6.3l-1.4,9.5v33.5l1.7,54.1-0.3,58.7h3.4v4.8l1.7,118.2v63l12.3,0.3a7.22,7.22,0,0,1,4.9,6.4,7.11,7.11,0,0,1-6.8,7.3c-1.9-.5-3.7-1-5.6-1.6a24.9,24.9,0,0,1-14.6-12.4,16,16,0,0,1-1.7-6.4L488,1304l-4-17.4a233.94,233.94,0,0,0-19.1-53.1q-10-20.1-20.6-40.2c-7.3-14.1-14.4-28.2-21.3-42.6a103.26,103.26,0,0,1-3.4-81.2,95.56,95.56,0,0,1,31.7-47.2A91.47,91.47,0,0,1,501.8,999Z" transform="translate(-0.1 0)" style="fill:#5bb27e"/><path d="M860.6,1378.2l-52,1.4c-2.5.1-4.5,1.6-4.4,3.6,0.1,1.8,2,3.2,4.4,3.3l16.2-1.2,20.3,128.9,2.5,16.5,12.2,81.4,4.5,25.3a5.3,5.3,0,0,1-1.7,4.8l-13.1.8h-2l1.9,12.7,55.6-4.8c2.7-.2,4.6-2,4.3-4,0-.1-0.1-0.3-0.1-0.4l-23-140.4-13.6-87.9-4.9-35.2C867.2,1380.5,864.3,1378.4,860.6,1378.2Z" transform="translate(-0.1 0)" style="fill:#5ab27e"/><path d="M1056.2,952.1l-36.1-3.2a197.23,197.23,0,0,1-38.1-7.3,264.43,264.43,0,0,1-62.2-27.7,35.24,35.24,0,0,1-11.3-11.1,9.23,9.23,0,0,1-.7-8.4,16.74,16.74,0,0,1,16-10.4,19.66,19.66,0,0,1,12,4.6A75,75,0,0,0,952,899.1a115.49,115.49,0,0,0,56.5,11.4,138,138,0,0,0,48.5-11.7,380.79,380.79,0,0,1,45-16.9,6.39,6.39,0,0,0,4.5-7.3l-0.7-70.4-0.5-52.4-1.1-57.5-1.3-63-0.2-65.5L1101,450.9l-1.7-122.5-1.7-103a28.9,28.9,0,0,0-8.1-19.7l-42.1-25L957.8,123a35.38,35.38,0,0,0-26.7-4.9,181.82,181.82,0,0,0-30.5,9.3,34.39,34.39,0,0,0-7.5,4.2,96.58,96.58,0,0,0-17,16.2,111.49,111.49,0,0,0-15.6,25,80.43,80.43,0,0,0-5.9,19,161.28,161.28,0,0,0-2.4,29.4l-2.4,75.2-0.2,159.3-1.2,97.4a4.94,4.94,0,0,1-4.7,4.9,5,5,0,0,1-5.2-4.7L835,511.4l-0.7-51.1-0.5-78-0.9-69.2L832,248.8l-0.5-30.5a173.15,173.15,0,0,1,13.8-70.7,104.89,104.89,0,0,1,62.6-58.2,168.65,168.65,0,0,1,103.5-1.8l65.5,26.8,110.4,44.1a16.81,16.81,0,0,1,10.6,14.3l5.3,177.5,11.2,123.4,16.9,225,1.5,143.8-2.4,63.9a261,261,0,0,1-4.5,39.5,18,18,0,0,1-16.4,14.5c-5.6.4-11.3,0.5-16.9,0.5Z" transform="translate(-0.1 0)" style="fill:#5bb27e"/><path d="M351.3,1033l4,1.6a22.24,22.24,0,0,1,7.5,8.6l20.2,41.5a11.38,11.38,0,0,1,2.1,6.4l0.1,4.9a139.65,139.65,0,0,0,2.8,39.2l26.9,68,15,30.4A481.56,481.56,0,0,1,474.8,1379l24.3,114.7a630.36,630.36,0,0,1,12.4,89.7l8.4,91.1,4.9,70.1a1151.3,1151.3,0,0,1,2,124.6,28.67,28.67,0,0,1-1.1,9.2l-10.2-53.8c-1.3-6.7-2.5-13.5-3.6-20.2a238.56,238.56,0,0,1-2.7-54.7c1.2-17.6,1.9-35.1,1.9-52.7a321.4,321.4,0,0,0-6.4-65.6,15.3,15.3,0,0,0-2.5-5.7l-8.4-18.8-13.1-38.1L467,1517l-31.3-110.7-44.2-157-45.4-162.1A73.1,73.1,0,0,1,351.3,1033Z" transform="translate(-0.1 0)" style="fill:#5bb27e"/><path d="M753.6,391l50.5-42.6a0.91,0.91,0,0,0,.3-0.7l-0.3-14.8a0.82,0.82,0,0,0-.84-0.8H803.2a0.6,0.6,0,0,0-.4.1L675.2,407.6l-18.9,8.7-4,6.4,3.8,17.6c5.8,5.8,11.9,11.5,18.1,17Z" transform="translate(-0.1 0)" style="fill:#5ab27e"/><path d="M597.2,194.1l-19-8.2-23.3-6.1-21.8-2.1-21.8,2.1-15,5-12.9,7.5-7.5,6.4-7.5,7.9-4.2,7.2,142.9,16.8a8,8,0,0,1,6.81,9v0.06l-4,37.6,9.9,6,11.4,6.8a15.76,15.76,0,0,1-7.7-13.3l3-41.8a6.93,6.93,0,0,1,.3-2,15.09,15.09,0,0,1,17.84-11.71h0.06l-25.3-14.7Z" transform="translate(-0.1 0)" style="fill:#5ab27e"/><path d="M934.7,846.8l3.7-5.7a18,18,0,0,0,2.9-8.7,314,314,0,0,0,.3-36.3,135.41,135.41,0,0,0-2.3-18.9V726H926.4l-8-127.5h14.1a3,3,0,0,0,3-3V591a3,3,0,0,0-3-3l-66.8-.1a6.2,6.2,0,0,0-4.82,7.32h0v0.17l29.8,75L915,732.9v0.3a7.39,7.39,0,0,0,1.3,4.1l1.6,4.2a139.7,139.7,0,0,1,9.2,40.8,222,222,0,0,1-3,56.4,7.48,7.48,0,0,0,6,8.7A7.15,7.15,0,0,0,934.7,846.8Z" transform="translate(-0.1 0)" style="fill:#5ab27e"/><g id="LWPOLYLINE-2"><path d="M360.9,758.3l36.2,48-29.7,51.6L338,903.3a17.12,17.12,0,0,1-14.1,7.8,25.18,25.18,0,0,1-10.8-2.2l-12.4-10.2,4.4-7.3-2.7-2A60,60,0,0,1,280.8,857a23.34,23.34,0,0,1,0-12.3l46.6-60.3Z" transform="translate(-0.1 0)" style="fill:#5ab27e"/></g><g id="LWPOLYLINE-3"><path d="M584.3,391.4l30-47.9,13.3,9,7.9-11.6,49.9,33.2-7.7,7.4-29.5,16.4-32,20.2-31.5-20.3a6.47,6.47,0,0,1-.9-0.8,4,4,0,0,1,.5-5.6" transform="translate(-0.1 0)" style="fill:#5ab27e"/></g><g id="LWPOLYLINE-4"><path d="M493.8,902l0.8,42.9V956c-2.5.5-5,1-7.4,1.5-10.3,2.3-20.5,4.7-30.8,7.1a197.37,197.37,0,0,0-83.2,42.7l-29.6-60.4a21.29,21.29,0,0,1,1.2-21L408,819c0.1-.2.3-0.4,0.4-0.6a4.46,4.46,0,0,1,6.28-.62h0l2.3,1.9a186.38,186.38,0,0,0,68,36.6,11.5,11.5,0,0,1,8.3,11.5l0.5,34.2h0Z" transform="translate(-0.1 0)" style="fill:#5ab27e"/></g><path d="M511.5,839.5a175.15,175.15,0,0,0,35.8-9.6c15.7-6,31-12.8,46.1-20.2l47.1-38.3,5.2-7.1,24.7-40.1,0.2-.7c9.5-18.2,14-42.1,17.3-63.9l9.5-59.2,2.7-36.2a22,22,0,0,0-3.7-14L675,515l-10.1-12.5-10.6,9.3-5.1,5.6a30,30,0,0,0-7.7,17.7l-1.2,6-1.8,6.8-1.4,8.2-2.5,7.5-1.8,6.1L632,582l1,49a99.34,99.34,0,0,1-7.4,58.4l-3.3,8.9-0.1-.1-1.4,2.1a173.93,173.93,0,0,1-126.4,78l-8.6.7L384.9,708.7l-7.5.4,2.5,9.7,2.9,9.7,3.2,10,4.1,9,0.2,0.5,4,10.6a130.47,130.47,0,0,0,23.3,39.1,113.09,113.09,0,0,0,25.7,22.1c10.2,6.4,20.6,12.4,31.2,18.1a30.85,30.85,0,0,0,14.9,3.5A151,151,0,0,0,511.5,839.5Z" transform="translate(-0.1 0)" style="fill:#5ab27e"/><path d="M648.7,482.7l-2.9-3.6-38.7-34.3-26.5,4.4-43.9-32.9a7.14,7.14,0,0,0-7.8-.5l-15,15.9c7.4,13.6,22.9,36.6,31.9,49.2,4.9,6.4,10,12.7,15.3,18.8a327.27,327.27,0,0,0,39.6,30.7Z" transform="translate(-0.1 0)" style="fill:#5ab27e"/><path d="M346.2,644.8A160.15,160.15,0,0,1,493.6,485.2L487,421.5c-114.7,9.8-204.8,106-204.8,223.2a221.42,221.42,0,0,0,9.3,63.9L353.3,692A159.51,159.51,0,0,1,346.2,644.8Z" transform="translate(-0.1 0)" style="fill:#895a36;fill-opacity:0.3499999940395355"/><path d="M501.9,571.7l-5.6-60.3A133.83,133.83,0,0,0,372.5,644.9a135.57,135.57,0,0,0,6.2,40.5L432,670.1Z" transform="translate(-0.1 0)" style="fill:#895a36"/><g id="LWPOLYLINE-5"><polygon points="619.8 814.5 653.1 837.2 675.4 805.1 683.3 810.2 688.7 806.5 732.2 811.5 742.7 796.7 721.2 755.2 724 751 714.9 744.7 737.7 712.5 704.2 690.1 619.8 814.5" style="fill:#607d8b"/></g><polygon points="551.5 750.7 626 643.2 531.8 575.8 565 528.3 545.3 512.2 517 514.7 519.5 548.7 526 553 467.9 633.3 427.5 689.2 422.8 685.7 400.2 689.7 401.7 710.7 438.9 737.7 469 694.2 551.5 750.7" style="fill:#607d8b"/><polygon points="477.8 373.3 477.5 378.4 477.1 383.8 476.7 389.4 476.2 395.2 475.7 401 475.1 407 474.4 412.9 473.7 418.8 472.9 424.7 472.1 430.5 471.2 436.3 470.2 442 469.2 447.7 468.1 453.2 466.9 458.8 465.6 464.3 464.2 469.8 462.7 475.3 461.1 480.7 459.5 486 457.7 491.3 455.9 496.7 454 501.8 452 507 450 512.1 447.8 517.1 445.7 522 443.5 527 441.2 531.7 439 536.1 436.8 540.5 434.6 544.7 432.5 548.7 430.4 552.5 428.3 556 426.3 559.5 424.3 562.8 422.3 566 420.4 569.1 418.4 572.2 416.5 575.1 414.6 578 412.7 581 410.8 583.7 408.9 586.7 407 589.5 405 592.2 402.9 595 400.8 597.8 398.6 600.7 396.4 603.5 394.1 606.5 391.8 609.3 389.5 612.2 387.1 615.1 384.7 618 382.2 620.8 379.8 623.7 377.2 626.7 374.7 629.5 372 632.3 369.2 635.2 366.4 638.1 363.4 641 360.3 644 357 646.8 353.6 649.8 350.1 652.7 346.5 655.7 342.7 658.7 338.8 661.7 334.8 664.7 330.7 667.7 326.4 670.8 322.1 673.8 317.8 676.8 313.4 679.7 308.9 682.7 304.5 685.5 300.1 688.3 295.8 691 291.5 693.7 287.3 696.1 283.1 698.7 278.9 701 274.8 703.3 270.8 705.5 266.8 707.7 262.8 709.8 258.9 711.8 255 713.8 251.3 715.7 247.6 717.5 244 719.1 240.5 720.7 237.2 722.1 234 723.5 231 724.5 228.4 725.7 226.1 726.5 224.4 727.3 223.3 728 222.8 728.5 223.1 728.8 224.3 729 226.2 729.1 228.8 729.1 232 729 235.6 728.8 239.7 728.7 244 728.5 248.4 728.2 253 728 257.6 728 262.3 727.7 267 727.7 271.8 727.7 276.5 727.7 281.2 727.8 285.9 728 290.6 728.2 295.2 728.5 299.8 728.8 304.3 729.3 308.8 729.8 313.2 730.3 317.6 731 322 731.5 326.3 732.1 330.6 732.8 334.8 733.5 339.1 734.3 343.3 735.1 347.5 736 351.8 737 356.1 738 360.4 739 364.8 740.2 369.1 741.5 373.5 743 377.9 744.3 382.2 746 386.5 747.7 390.8 749.5 395.1 751.3 399.3 753.3 403.4 755.5 407.4 757.7 411.4 759.8 415.2 762 418.9 764.3 422.4 766.5 425.8 768.8 429 771 432.1 773.3 435.1 775.7 438.1 778 441.1 780.3 444 782.7 446.9 785.3 449.9 788 452.9 790.7 456 793.5 459 796.2 462 799 464.9 801.7 467.8 804.5 470.7 807 473.4 809.5 476.1 811.8 478.7 814.1 481.1 816.3 483.6 818.3 485.9 820.3 488.1 822.2 490.3 824 492.3 825.7 494.3 827.3 496.1 828.8 497.7 830 499.1 831 500.2 831.8 501.1 832.2 501.6 832.2 501.8 831.8 501.7 831.1 501.4 830 500.8 828.7 500.2 827.1 499.4 825.5 498.6 823.5 497.9 821.5 497.2 819.5 496.5 817.5 496 815.3 495.5 813 495 810.7 494.7 808 494.4 805.2 494.1 802.3 494 799.1 493.9 795.8 493.8 792.3 493.9 788.7 494 785 494.1 781.1 494.3 777.3 494.6 773.5 495 769.7 495.4 766 495.9 762.1 496.4 758.5 497.1 754.7 497.9 751 498.7 747.1 499.7 743.5 500.8 739.7 502 735.8 503.3 732 504.7 728.2 506.2 724.3 507.9 720.5 509.6 716.5 511.5 712.7 513.4 708.7 515.5 704.7 517.7 700.5 519.9 696.5 522.2 692.5 524.6 688.5 527 684.5 529.5 680.5 532 676.5 534.6 672.7 537.1 668.8 539.7 665 542.3 661.5 544.8 657.8 547.2 654.3 549.6 651 552 647.8 554.2 644.8 556.4 642 558.6 639.1 560.7 636.3 562.8 633.7 564.9 631.2 567.1 628.7 569.2 626.5 571.3 624 573.5 621.8 575.7 619.7 577.9 617.5 580.2 615.3 582.6 613.3 585 611.3 587.5 609.5 590 607.7 592.7 605.7 595.4 604 598.2 602.2 601 600.5 604 598.7 607 597 610.1 595.3 613.2 593.7 616.4 592 619.6 590.3 622.8 588.7 626 587 629.1 585.5 632.2 584 635.2 582.5 638.2 581 641 579.7 643.9 578.3 646.7 577 649.4 576 652.1 574.8 654.9 573.8 657.6 572.8 660.2 572 662.9 571.2 665.5 570.5 668.1 569.8 670.6 569.2 673 568.7 675.3 568.1 677.5 567.5 679.7 567 681.7 566.5 683.6 566.1 685.5 565.7 687.2 565.3 688.9 565 690.4 564.7 691.9 564.3 693.2 564 694.3 563.8 695 563.5 695.4 563.5 695.4 563.2 694.9 563 693.9 563 692.2 562.7 690 562.7 687.4 562.5 684.5 562.3 681.3 562.1 678.1 562 674.9 561.8 671.7 561.5 668.8 561.2 666 561 663.3 560.5 660.8 560.1 658.3 559.7 655.8 559 653.3 558.3 650.7 557.5 648 556.7 645.3 555.7 642.4 554.5 639.6 553.3 636.7 552 633.8 550.7 631 549.5 628.2 548 625.4 546.7 622.7 545.1 620 543.7 617.2 542.1 614.5 540.5 611.7 539 608.8 537.1 605.9 535.3 602.9 533.3 599.7 531.3 596.5 529.1 593.1 527 589.7 524.5 586.2 522 582.7 519.2 579.1 516.3 575.4 513.3 571.7 510.2 568 507 564.4 503.7 560.8 500.3 557.4 497 554.1 493.7 550.9 490.7 548 487.5 545.3 484.5 542.7 481.5 540.3 478.7 537.9 475.8 535.7 473 533.5 470 531.3 467 529.2 463.8 527 460.7 524.9 457.4 522.7 454.1 520.6 450.8 518.5 447.4 516.5 444 514.5 440.7 512.6 437.2 510.7 433.8 508.9 430.5 507.1 427.3 505.5 424.1 503.9 421 502.4 418 501.1 415.1 499.8 412.4 498.6 409.8 497.6 407.2 496.5 404.7 495.6 402.3 494.6 399.8 493.7 397.3 492.7 394.7 491.7 392 490.7 389.1 489.7 386.2 488.7 383.2 487.7 380 486.7 376.8 485.8 373.4 484.9 369.9 484 366.4 483.2 362.7 482.5 359.2 481.8 355.7 481.2 352.4 480.6 349.4 480.2 346.8 479.8 344.5 479.5 342.8 479.3 341.5 479.1 340.8 479 340.5 478.9 340.8 478.9 341.5 478.8 342.7 478.8 344.4 478.8 346.6 478.7 349.2 478.6 352.3 478.6 355.8 478.4 359.7 478.3 363.9 478.1 368.4 477.8 373.3" style="fill:#fff;fill-opacity:0.3499999940395355;stroke:#fff;stroke-miterlimit:10"/><path d="M765.5,1628.5V1515.9c0-2.2,1.3-3.9,3-3.9h65.8c1.7,0,3,1.7,3,3.9v112.6c0,2.2-1.3,3.9-3,3.9H768.5C766.8,1632.4,765.5,1630.5,765.5,1628.5Z" transform="translate(-0.1 0)" style="fill:#26c6da"/><path d="M986.2,1528.2V1412.7c0-2.3,2-4,4.7-4h81.6c2.7,0,4.7,1.7,4.7,4v115.5c0,2.3-2,4-4.7,4H990.9C988.3,1532.2,986.2,1530.3,986.2,1528.2Z" transform="translate(-0.1 0)" style="fill:#26c6da"/><path d="M869.7,1015.1l9.9-9.9a1.15,1.15,0,0,1,1.62-.08l0.08,0.08,3.8,3.8a1.15,1.15,0,0,1,.08,1.62l-0.08.08-9.9,9.9a1.15,1.15,0,0,1-1.62.08l-0.08-.08-3.8-3.8A1.35,1.35,0,0,1,869.7,1015.1Z" transform="translate(-0.1 0)" style="fill:#b0bec5"/><path d="M349.9,743.1L361,754.3a3,3,0,0,1,0,4.2l-74.1,73.1a3,3,0,0,1-4.2,0l-11.1-11.2a3,3,0,0,1,0-4.2l74.1-73.1A3.08,3.08,0,0,1,349.9,743.1Z" transform="translate(-0.1 0)" style="fill:#b0bec5"/><path d="M550.4,408.6l11.2,11.1a3,3,0,0,0,4.2,0l73.1-74.1a3,3,0,0,0,0-4.2l-11.2-11.1a3,3,0,0,0-4.2,0l-73.1,74.1a2.9,2.9,0,0,0-.1,4.1h0Z" transform="translate(-0.1 0)" style="fill:#cfd8dc"/><path d="M699.2,396.2l16.2-16.8a2.9,2.9,0,0,0,0-4.1l-0.1-.1-47.2-45.7a2.9,2.9,0,0,0-4.1,0l-0.1.1-16.2,16.8a2.9,2.9,0,0,0,0,4.1l0.1,0.1L695,396.3A3,3,0,0,0,699.2,396.2Z" transform="translate(-0.1 0)" style="fill:#cfd8dc"/><rect x="527.5" y="1013.5" width="114.9" height="151.9" style="fill:#4fc3f7"/><path d="M658.9,1459v-66.9c0-2.1,2.6-3.7,6-3.7H773.4c3.4,0,6,1.6,6,3.7V1459c0,2.1-2.6,3.7-6,3.7H664.9C661.6,1462.7,658.9,1461.1,658.9,1459Z" transform="translate(-0.1 0)" style="fill:#1ce8b5"/><path d="M896.2,1016.7l36.8,19.2c2.6,1.4,4.1,3.4,3.4,4.7l-13.5,25.8c-0.7,1.3-3.2,1.3-5.8,0l-36.8-19.2c-2.6-1.4-4.1-3.4-3.4-4.7l13.5-25.8C891.1,1015.3,893.6,1015.4,896.2,1016.7Z" transform="translate(-0.1 0)" style="fill:#5c6bc0"/><path d="M815.12,716.08l-21.24.85a3,3,0,0,1-3.09-2.88L785.7,584.8a3,3,0,0,1,2.88-3.09l21.24-.85a3,3,0,0,1,3.09,2.88L818,713a2.84,2.84,0,0,1-2.58,3.08h-0.3Z" transform="translate(-0.1 0)" style="fill:#cfd8dc"/><path d="M706.3,681.5l7.3,0.5c1.6,0.1,3-1.6,3.2-3.8l7.8-20.5-0.9-78.2c0.2-2.2-1-4.1-2.6-4.2l-7.3-.5c-1.6-.1-3,1.6-3.2,3.8l-6.9,98.7C703.5,679.5,704.7,681.5,706.3,681.5Z" transform="translate(-0.1 0)" style="fill:#cfd8dc"/><path d="M616.1,822.1l2.3,7c0.5,1.5-.8,3.3-2.9,4l-18,12.5-76.1,18c-2.1.7-4.2,0-4.7-1.5l-2.3-7c-0.5-1.5.8-3.3,2.9-4l94.1-30.5C613.5,820,615.6,820.7,616.1,822.1Z" transform="translate(-0.1 0)" style="fill:#cfd8dc"/><line x1="608.3" y1="1060.3" x2="548.2" y2="1107.9" style="fill:none"/><line x1="668.4" y1="1107.9" x2="608.3" y2="1060.3" style="fill:none"/><line x1="608.3" y1="1060.3" x2="548.2" y2="1107.9" style="fill:none"/><line x1="857.3" y1="1073.3" x2="797.2" y2="1120.9" style="fill:none"/><line x1="857.3" y1="1073.3" x2="797.2" y2="1120.9" style="fill:none"/><line x1="608.3" y1="1060.3" x2="548.2" y2="1107.9" style="fill:none"/><path d="M759.5,1059.8a37,37,0,0,0-37,37h74a37,37,0,0,0-37-37h0Z" transform="translate(-0.1 0)" style="fill:#ffca28"/><rect x="527.5" y="1179.4" width="114.9" height="151.9" style="fill:#4fc3f7"/><rect x="724.5" y="1206.4" width="76.8" height="115.8" style="fill:#4fc3f7"/><path d="M707.2,1017.6a27.27,27.27,0,0,0-27.3,27.24h0v0.06h54.7A27.36,27.36,0,0,0,707.2,1017.6Z" transform="translate(-0.1 0)" style="fill:#ffca28"/><path d="M772,985.2a22.64,22.64,0,0,0-22.5,22.7h45A22.58,22.58,0,0,0,772,985.2h0Z" transform="translate(-0.1 0)" style="fill:#ffca28"/><rect x="1021.3" y="1076.1" width="61.1" height="94.2" style="fill:#4fc3f7"/><path d="M665.9,1596.5a37,37,0,0,0-37,37h74a37,37,0,0,0-37-37h0Z" transform="translate(-0.1 0)" style="fill:#ffca28"/><path d="M648.9,1517.8a27.27,27.27,0,0,0-27.3,27.2v0.06h54.7A27.42,27.42,0,0,0,648.9,1517.8Z" transform="translate(-0.1 0)" style="fill:#ffca28"/><path d="M718.9,1675.1v-17.8c0-.9,4-1.5,9.3-1.5h42c5.3,0,9.3.6,9.3,1.5v17.8c0,0.8-4,1.5-9.3,1.5h-42C722.9,1676.6,718.9,1675.8,718.9,1675.1Z" transform="translate(-0.1 0)" style="fill:#cfd8dc"/><path d="M1034.6,1276.8v-58.1a4.78,4.78,0,0,1,4.66-4.9h22.24a4.84,4.84,0,0,1,4.9,4.78h0v58.22a4.78,4.78,0,0,1-4.66,4.9H1039.5A5,5,0,0,1,1034.6,1276.8Z" transform="translate(-0.1 0)" style="fill:#cfd8dc"/><path d="M918,1245.8a37,37,0,0,0-37,37h74A37,37,0,0,0,918,1245.8Z" transform="translate(-0.1 0)" style="fill:#ffca28"/><path d="M964.2,1190.7a22.64,22.64,0,0,0-22.5,22.7h45A22.64,22.64,0,0,0,964.2,1190.7Z" transform="translate(-0.1 0)" style="fill:#ffca28"/><path d="M885,1680.8V1743c0,3,1.4,5.2,3.3,5.2h14.8c1.8,0,3.3-2.3,3.3-5.2v-62.2c0-3-1.4-5.2-3.3-5.2H888.3C886.5,1675.5,885,1678.2,885,1680.8Z" transform="translate(-0.1 0)" style="fill:#cfd8dc"/><path d="M950,1599.4a27.27,27.27,0,0,0-27.3,27.24h0v0.06h54.7A27.42,27.42,0,0,0,950,1599.4Z" transform="translate(-0.1 0)" style="fill:#ffca28"/><path d="M995.1,1694.9v-33.5c0-.7,1.8-1.2,4.1-1.2h88.9c2.3,0,4.1.5,4.1,1.2v33.5c0,0.7-1.8,1.2-4.1,1.2H999.2C996.8,1696.1,995.1,1695.5,995.1,1694.9Z" transform="translate(-0.1 0)" style="fill:#26c6da"/><g id="LWPOLYLINE-5-2"><polygon points="777.7 879 777.7 879 777.7 879 787.61 885.4 791 880.4 834.5 885.4 845 870.6 823.5 829.1 826.3 824.9 817.2 818.6 817.2 818.6 817.2 818.6 777.7 879" style="fill:#607d8b"/></g><path d="M554.07,946.8l-3.68-18.05a2.67,2.67,0,0,1,2.45-3L680.7,905.89a3,3,0,0,1,3.45,2.09L687.84,926a2.67,2.67,0,0,1-2.45,3L557.53,948.88a2.87,2.87,0,0,1-3.41-1.83h0Z" transform="translate(-0.1 0)" style="fill:#cfd8dc"/><path d="M249.74,995.7L196.92,955c-2.46-1.77-2.45-5.91,0-9.25h0l21.42-27.77c2.54-3.36,6.6-4.6,9.06-2.77h0l0.11,0.08L280.36,956c2.46,1.77,2.45,5.91,0,9.25h0L258.91,993C256.28,996.33,252.23,997.52,249.74,995.7Z" transform="translate(-0.1 0)" style="fill:#cfd8dc"/></svg>