<?xml version="1.0" encoding="utf-8"?>
<!-- Generator: Adobe Illustrator 19.0.0, SVG Export Plug-In . SVG Version: 6.00 Build 0)  -->
<svg version="1.1" id="Layer_1" xmlns="http://www.w3.org/2000/svg" xmlns:xlink="http://www.w3.org/1999/xlink" x="0px" y="0px"
	 width="1238.8px" height="1888.6px" viewBox="317.4 1146.4 1238.8 1888.6" enable-background="new 317.4 1146.4 1238.8 1888.6"
	 xml:space="preserve">
<path fill="#455A64" d="M832.2,3032.9l5.9-2.9l-6-10.6h90.4l-33.1-10.3c0,8.6,5.8,16.2,14.2,18.4c4.1,1,8.2,1.6,12.4,1.7l46.8-5.4
	l132.4-13.1l87.8-6.4l65.2-4.6l112.3-4l72.1-4.6l8.3-1.2c11.3-1.7,22.6-2.6,34-2.9c12.4-0.3,24.9-0.9,37.3-1.7
	c22.4-1.4,40.6-18.4,43.7-40.6l-22.4-422.9l-3.1-75.7l3.9-194.9l2.4-69.6c-5.1-19-17.3-34.6-33.1-44.4v-33.5l6.5,3.6
	c5.7,0,11.3-0.2,17-0.5c8.1-0.5,14.8-6.5,16.4-14.5c2.5-13,4-26.3,4.5-39.5l2.2-63.8l-1.6-143.8l-16.9-225l-11.1-123.4l-5.3-177.5
	c-0.5-6.4-4.6-12-10.6-14.3l-24.2,0.6V1262l0.7,0.3l3.7,1.2l2.9,0.8l2.2,0.5l1.7,0.3l1.3,0.2l1.1,0.1l1.1,0.1l1,0.1h1h1h1l1-0.1
	l1-0.1l1-0.2l1-0.2l1-0.3l1-0.4l1-0.4l0.9-0.5l0.9-0.6l0.8-0.6l0.7-0.7l0.7-0.8l0.6-0.9l0.5-0.9l0.4-1.1l0.3-1.2l0.3-1.3l0.2-1.4
	l0.2-1.6l0.1-1.7l0.1-1.9v-2.1v-2.4v-2.6v-2.9v-3.2v-3.5v-3.9v-4.2v-4.4v-4.6v-4.7v-4.7v-4.7v-4.7v-4.6v-4.4l-0.1-4.2l-0.1-4
	l-0.1-3.7l-0.1-3.4l-0.2-3l-0.2-2.7l-0.2-2.3l-0.3-1.9l-0.3-1.6l-0.4-1.3l-0.5-1.1l-0.5-0.9l-0.6-0.8l-0.7-0.7l-0.7-0.7l-0.8-0.7
	l-0.9-0.7l-1.5-0.4l-1-0.7l-1-0.7l-1.1-0.6l-1.1-0.6l-1.2-0.6l-1.5-0.6l-2.2-0.5l-3.2-0.5l-4.6-0.4l-6.3-0.4l-8.3-0.3l-10.6-0.3
	l-13.1-0.2l-15-0.2h-16.4l-17,0.1l-16.9,0.3l-16.1,0.5l-14.7,0.7l-12.6,1l-10,1.2l-7.8,1.4l-6.2,1.6l-5.2,1.6l-4.9,1.5l-5.1,1.4
	l-6,1.2l-7.5,0.9l-9.5,0.6l-11,0.3l-12.1,0.2l-12.6,0.2l-12.5,0.3l-11.9,0.6l-10.8,0.9l-9.1,1.4l-7,2l-5.1,2.5l-3.5,2.8l-2.2,3
	l-1.2,3.1l-0.6,3.1l-0.2,3l-0.2,2.7l-0.4,2.4l-0.6,2l-0.8,1.7l-1,1.5l-1.2,1.4l-1.3,1.3l-1.5,1.2l-1.6,1.2l-1.7,1.3l-1.7,1.4
	l-1.8,1.4l-1.8,1.5l-1.8,1.5l-1.8,1.5l-1.8,1.6l-1.8,1.6l-1.8,1.6l-1.7,1.6l-1.7,1.6l-1.7,1.6l-1.6,1.6l-1.6,1.6l-1.6,1.6l-1.6,1.6
	l-1.6,1.7l-1.6,1.7l-1.6,1.7l-1.6,1.7l-1.5,1.7l-1.5,1.7l-1.4,1.7l-1.4,1.7l-1.3,1.6l-1.2,1.6l-1.2,1.6l-1.1,1.6l-1.1,1.7l-1.1,1.7
	l-1.1,1.8l-1.1,1.9l-1.2,2l-1.2,2.1l-1.2,2.2l-1.2,2.2l-1.2,2.3l-1.2,2.3l-1.2,2.4l-1.2,2.4l-1.2,2.4l-1.1,2.5l-1.1,2.5l-0.5,1.1
	l-3.3,2.9l-3.4,2.4l-6,2l-8.7,1.4l-14.1,1l-16.3,1l-19.1,1l-91.7,1v-9.2h-19.4l-60.9-90.4l-5-7.9l-6.5-5l-11.9-1.1l-17.2,0.7
	l-40.9-1.4l-42.3-4.3l-79.6-0.8l-144.1-0.7l-126.2,0.7l-34.4,0.5c-21.9,0.3-39.4,18.1-39.4,40v813.2l0.6,0.5l7.2,8.6l5.7,25.1
	l15.8,38l30.1,77.5l34.4,81.8l27.2,69.6l20.8,67.4l20.1,87.5l33.8,115l19.4,62.4l7.2,41.6v46.6l-4.3,40.9l1.4,38l22.9,49.5
	l45.9,62.4l43.7,57.4l19.4,14.3l39.4,12.9l25.1,4.3l27.2,2.9l33.7,2.9l27.2,3.6L832.2,3032.9z M322.6,1556.1l9.5-21.6l4-10.2v37
	L322.6,1556.1z"/>
<path fill="#37474F" d="M519.5,1884.2l-3.6-14.4c-0.3-3.9,2.1-7.5,5.8-8.8l54.1-11.1c-27-118.5,18.4-282.1,225.8-310.4
	c0.4-7-3.8-32.5-3.8-32.5l-2.5,0.4l-1.6-10.1l-6.3,1.1l-2-11l15.1-3.2L776.6,1372c-49.6-7.5-100.2-5.5-149.1,6
	c-23.9,5.6-47.3,13.1-69.9,22.5c-20.3,8.4-39.9,18.2-58.8,29.5c-46.5,27.1-84.5,66.7-109.5,114.4c-23.1,54.3-32.3,113.5-26.7,172.2
	c1.2,58.3,15,115.6,40.5,168.1l10.3-5l11,20.6L519.5,1884.2z"/>
<g>
	<g id="LWPOLYLINE_58_">
		<path fill="#37474F" d="M666.7,1882.1c-17.8-4.2-35.9-6.8-54.1-7.9l11.5,32.1l6.8,7L666.7,1882.1z"/>
	</g>
	<path fill="#37474F" d="M832.2,3032.9l5.9-2.9l-11-57.9c-1.3-6.7-2.5-13.4-3.6-20.1c-3.1-18.6-4.1-37.6-2.8-56.4
		c1.2-17.4,1.9-34.9,1.9-52.3c0.1-21.6-2-43.2-6.2-64.4c-0.3-1.4-0.9-2.7-1.8-3.7l-8.8-19.7l-13.3-38.6l-13.8-51.9l-31.2-110.7
		l-44.2-157l-45.4-162.1c-1.3-4.8-2.3-9.7-2.7-14.6l-2-3l-2.9-4.1l-3.9-5.7l-5.2-3.4l-11.7-7.5l2.7-10.5l-5.1-16.5l-10.1-4.3
		l2.8-7.3l-29-14.5l-3.2-1.4l-9.8,13l-70.8-55.3l6.1-9.3l-43.5-34.7l-26.8-34.1l-28.5-65.5l-10.6-51.5c-32.8-58.9-50.6-125-52-192.4
		c-4.2-44.8-0.1-89.9,12.2-133.2l0.4-0.4c4.2-14.7,9.2-29.1,15.2-43.2c25.7-48.8,64.5-89.4,112.2-117.2
		c19.3-11.5,39.4-21.6,60.2-30.2c23.2-9.6,47.2-17.3,71.6-23.1c43.4-10.2,88.2-13.1,132.5-8.6c18.6-26.6,47.9-43.7,80.2-46.8
		c32.5-3.2,65.2,4.5,92.9,21.9l37.1,23.3l24.3,17.6l23.4-0.3v-51.5h86.6l-0.1,4.7l-0.2,10.3l-0.1,12.2l-0.1,13.6v14.5v14.9l0.1,14.7
		l0.2,13.9l0.3,12.6l0.4,10.8l0.5,8.5l0.7,6.4l0.8,4.5l0.9,3l1,1.7l1.1,0.7h1.2l1.3-0.4l1.3-0.5l1.4-0.6l1.4-0.7l1.4-0.7l1.3-0.7
		l1.2-0.7l1.1-0.7l0.9-0.6l0.7-0.5l0.6-0.5l0.4-0.6l0.3-0.9l0.2-1.3l0.1-1.8v-2.4v-3.2v-4v-4.9v-5.8v-6.6v-7.4v-8.3v-9.1v-9.9
		l0.1-10.6l0.3-11.3l0.6-11.9l1.1-12.4l1.8-12.8l2.6-13.1l3.6-13.3l4.7-13.5l6-13.5l7.3-13.2l8.4-12.8l9.5-12.1l10.6-11.2l11.5-10.4
		l12.5-8.7l13.4-7.1l14.1-5.3l14.7-3.7l14.9-2.3l14.9-1l14.7,0.1l14.1,1l13.3,1.7l12.3,2.2l11,2.5l9.9,2.8l9.1,3.1l8.5,3.4l8.2,3.6
		l8.1,3.8l8.2,4l8.6,4.2l9.2,4.3l9.6,4.4l9.8,4.4l9.7,4.2l9.4,4l8.8,3.7l8,3.3l7,2.8l5.8,2.2l4.7,1.7l3.7,1.2l2.9,0.8l2.2,0.5
		l1.7,0.3l1.3,0.2l1.1,0.1l1.1,0.1l1,0.1h1h1h1l1-0.1l1-0.1l1-0.2l1-0.2l1-0.3l1-0.4l1-0.4l0.9-0.5l0.9-0.6l0.8-0.6l0.7-0.7l0.7-0.8
		l0.6-0.9l0.5-0.9l0.4-1.1l0.3-1.2l0.3-1.3l0.2-1.4l0.2-1.6l0.1-1.7l0.1-1.9v-2.1v-2.4v-2.6v-2.9v-3.2v-3.5v-3.9v-4.2v-4.4v-4.6
		v-4.7v-4.7v-4.7v-4.7v-4.6v-4.4l-0.1-4.2l-0.1-4l-0.1-3.7l-0.1-3.4l-0.2-3l-0.2-2.7l-0.2-2.3l-0.3-1.9l-0.3-1.6l-0.4-1.3l-0.5-1.1
		l-0.5-0.9l-0.6-0.8l-0.7-0.7l-0.7-0.7l-0.8-0.7l-0.9-0.7l-1.7-0.4l-1-0.7l-1-0.7l-1.1-0.6l-1.1-0.6l-1.2-0.6l-1.5-0.6l-2.2-0.5
		l-3.2-0.5l-4.6-0.4l-6.3-0.4l-8.3-0.3l-10.6-0.3l-13.1-0.2l-15-0.2h-16.4l-17,0.1l-16.9,0.3l-16.1,0.5l-14.7,0.7l-12.6,1l-10,1.2
		l-7.8,1.4l-6.2,1.6l-5.2,1.6l-4.9,1.5l-5.1,1.4l-6,1.2l-7.5,0.9l-9.5,0.6l-11,0.3l-12.1,0.2l-12.6,0.2l-12.5,0.3l-11.9,0.6
		l-10.8,0.9l-9.1,1.4l-7,2l-5.1,2.5l-3.5,2.8l-2.2,3l-1.2,3.1l-0.6,3.1l-0.2,3l-0.2,2.7l-0.4,2.4l-0.6,2l-0.8,1.7l-1,1.5l-1.2,1.4
		l-1.3,1.3l-1.5,1.2l-1.6,1.2l-1.7,1.3l-1.7,1.4l-1.8,1.4l-1.8,1.5l-1.8,1.5l-1.8,1.5l-1.8,1.6l-1.8,1.6l-1.8,1.6l-1.7,1.6l-1.7,1.6
		l-1.7,1.6l-1.6,1.6l-1.6,1.6l-1.6,1.6l-1.6,1.6l-1.6,1.7l-1.6,1.7l-1.6,1.7l-1.6,1.7l-1.5,1.7l-1.5,1.7l-1.4,1.7l-1.4,1.7l-1.3,1.6
		l-1.2,1.6l-1.2,1.6l-1.1,1.6l-1.1,1.7l-1.1,1.7l-1.1,1.8l-1.1,1.9l-1.2,2l-1.2,2.1l-1.2,2.2l-1.2,2.2l-1.2,2.3l-1.2,2.3l-1.2,2.4
		l-1.2,2.4l-1.2,2.4l-1.1,2.5l-1.1,2.5l-0.5,1.1l-3.3,2.9l-3.4,2.4l-6,2l-8.7,1.4l-14.1,1l-16.3,1l-19.1,1l-91.7,1v-9.2h-19.4
		l-60.9-90.4l-5-7.9l-6.5-5l-11.9-1.1l-17.2,0.7l-40.9-1.4l-42.3-4.3l-79.6-0.8l-144.1-0.7l-126.2,0.7l-44.2,0.7
		c-16.4,0.2-29.5,13.6-29.5,30v823l0.6,0.5l7.2,8.6l5.7,25.1l15.8,38l30.1,77.5l34.4,81.8l27.2,69.6l20.8,67.4l20.1,87.5l33.8,115
		l19.4,62.4l7.2,41.6v46.6l-4.3,40.9l1.4,38l22.9,49.5l45.9,62.4l43.7,57.4l19.4,14.3l39.4,12.9l25.1,4.3l27.2,2.9l33.7,2.9
		l27.2,3.6L832.2,3032.9z"/>
	<path fill="#37474F" d="M1123.8,1646.4v-65.6l-1.1-49.3c0-0.5-0.4-0.8-0.9-0.8c-0.2,0-0.4,0.1-0.5,0.2l-46.2,36.5l-65.2,57.5
		c0.9,1,1.7,2.1,2.6,3.1l14.9,22.7l6,10.1l10.8,11.8l11.4,7.9l15.7,9.3l16.8,7.9l14.7,3.9l13.6,0.7l8.9-0.4l4.3-0.8
		C1125.8,1683.1,1123.8,1664.6,1123.8,1646.4z"/>
	<path fill="#37474F" d="M1203.2,2101.5l7.4,5.4l12.2,7.4l15.5,7.1l23.7,10.9l27.6,11.8l76.7,35.6l13.3,5.5l1.7,0.9l21.2,10.7
		c4.3,2.2,7.4,6.2,8.4,11l0.8,62.1l1.2,72.7l0.9,72.3l1,48.5l0.7,23c0.1,2-0.4,4-1.4,5.7l-12.9,1c-1.1,0.1-1.9,1-1.9,2.1l6.9,62.8
		l6.4,53.6l5.1,47.1l4.1,38.3l3.9,34.8l6.1,49l10.2,84.4l3.6,33.5c0,0.3,0,0.6,0,0.9c-0.1,3.6-3.1,6.5-6.7,6.4l-79.7,3.2l-100.6,3.8
		l-46,1.7c-15.5,0.6-31.1,1.7-46.6,3.2l-61.3,8.8l-59.9,6.4l-83.7,11.1c-2.2,0.3-4.3-1.1-4.9-3.2l-2.3-43.3l-21.3-162l-8.4-75.5
		l-12.5-107c-0.2-2.1-1-4.1-2.2-5.8c-1.6-2.3-4-3.8-6.7-4.2c-4.5-0.6-9-1-13.5-1.3l-9.3,4l-12.8,10.7l-4.3,4.7
		c-7.9,8.8-11.1,20.7-8.9,32.3l12.3,68.9l6.9,48.7l6.8,70.8l5.3,60.1l2.4,42.9c1.8,32.6,2.4,65.3,1.8,98l0.1,26
		c0,8.7,5.9,16.3,14.4,18.4c4,1,8.1,1.6,12.3,1.7l46.8-5.4l132.4-13.1l87.8-6.4l65.2-4.6l112.3-4l72.1-4.6l8.3-1.3
		c11-1.7,22.1-2.6,33.3-2.9c12.7-0.3,25.4-0.9,38-1.7c22.4-1.4,40.6-18.4,43.7-40.6l-22.7-422.8l-3.1-75.7l3.9-194.9l2.4-69.6
		c-9.5-35.3-43-58.6-79.4-55.3l-126.2-7.7c-31.9-1.9-62.7-11.7-89.9-28.4l-24.8-14.7c-6.9-4.1-15.9-1.8-20,5.1
		c-4.1,6.9-1.8,15.9,5.1,20C1202,2101.1,1202.6,2101.4,1203.2,2101.5z"/>
	<path fill="#37474F" d="M1180.9,2127.5l0.3,27.7l1.2,85.7v58l2.8,127.6l0.3,62.8c0,2.4-0.9,4.8-2.5,6.6l-14.3,0.1l-52.2,2.2
		c-0.2,0-0.5,0-0.7,0c-2.1-0.3-3.7-2.2-3.4-4.4c0.3-2.1,2.2-3.7,4.4-3.4h14.2v-34.1l-2.9-143.6l-2.6-169.8l-14.1-0.6
		c-1.5-0.1-2.7-1.2-2.9-2.7s0.3-3.1,1.3-4.2l37-20.4c1.2-0.6,2.5-0.9,3.8-0.8l7.3,4.4c4.7,2.8,9.8,4.8,15.1,6l4.9,0.8
		C1179.4,2125.5,1180.4,2126.4,1180.9,2127.5z"/>
	<path fill="#37474F" d="M819.2,2145.4l4.4-0.3l10.7-0.6c0.2,0,0.3,0,0.5,0c1.3,0.2,2.2,1.4,2,2.8c-0.2,1.3-1.4,2.2-2.8,2l-10.5,2.3
		c-1.2,0.3-2,1.3-2,2.6v6.3l-1.4,9.5v33.5l1.7,54.1l-0.3,58.7h3.4v4.8l1.7,118.2v63l12.3,0.3c2.8,0.9,4.7,3.5,4.9,6.4
		c0.1,3.9-2.9,7.1-6.8,7.3c-1.9-0.5-3.7-1-5.6-1.6c-6.3-2-11.6-6.5-14.6-12.4c-1-2-1.6-4.2-1.7-6.4l-9.7-45.5l-4-17.4
		c-4.2-18.4-10.6-36.2-19.1-53.1c-6.7-13.4-13.6-26.8-20.6-40.2c-7.3-14.1-14.4-28.2-21.3-42.6c-12.2-25.5-13.4-54.8-3.4-81.2
		c5.5-18.6,16.6-35,31.7-47.2C782.7,2155.9,800.4,2147.7,819.2,2145.4z"/>
	<path fill="#37474F" d="M1178,2524.6l-52,1.9c-2.5,0.1-4.5,2.2-4.4,4.8c0.1,2.4,2,4.3,4.4,4.4l16.2-1.6l20.3,173l2.5,22.2
		l12.2,109.3l4.5,34c0.3,2.3-0.3,4.7-1.7,6.5l-13.1,1.1h-2l1.9,17.1l55.6-6.5c2.7-0.3,4.6-2.7,4.3-5.4c0-0.2-0.1-0.4-0.1-0.6
		l-23-188.4l-13.6-117.9l-4.9-47.3C1184.6,2527.7,1181.7,2524.9,1178,2524.6z"/>
	<path fill="#37474F" d="M1373.6,2098.5l-36.1-3.2c-12.9-1.2-25.7-3.6-38.1-7.3c-21.8-6.5-42.7-15.8-62.2-27.7
		c-4.6-2.8-8.4-6.6-11.3-11.1c-1.6-2.5-1.8-5.6-0.7-8.4c2.7-6.5,9-10.6,16-10.4c4.4,0.1,8.6,1.8,12,4.6c4.9,4.2,10.4,7.7,16.2,10.5
		c7.1,3.4,14.6,6.2,22.3,8.1c11.2,2.8,22.7,3.9,34.2,3.3c16.7-0.9,33.2-4.9,48.5-11.7c14.6-6.6,29.7-12.2,45-16.9
		c3.1-0.9,5.1-4,4.5-7.3l-0.7-70.4l-0.5-52.4l-1.1-57.5l-1.3-63l-0.2-65.5l-1.7-114.9l-1.7-122.5l-1.7-103c-0.1-7.4-3-14.4-8.1-19.7
		l-42.1-25l-89.6-57.7c-7.9-5.1-17.5-6.9-26.7-4.9c-10.4,2.2-20.6,5.3-30.5,9.3c-2.7,1.1-5.2,2.5-7.5,4.2c-6.3,4.7-12,10.1-17,16.2
		c-6.3,7.6-11.5,16-15.6,25c-2.8,6.1-4.7,12.5-5.9,19c-1.7,9.7-2.5,19.6-2.4,29.4l-2.4,75.2l-0.2,159.3l-1.2,97.4
		c0,2.6-2.1,4.8-4.7,4.9c-2.7,0.1-5.1-2-5.2-4.7l-3.5-41.9l-0.7-51.1l-0.5-78l-0.9-69.2l-0.9-64.3l-0.5-30.5
		c-0.4-24.3,4.3-48.4,13.8-70.7c11.7-27.4,34.4-48.6,62.6-58.2c33.5-11.4,69.7-12.1,103.5-1.8l65.5,26.8l110.4,44.1
		c6,2.4,10.1,7.9,10.6,14.3l5.3,177.5l11.2,123.4l16.9,225l1.5,143.8l-2.4,63.9c-0.5,13.3-2,26.5-4.5,39.5
		c-1.5,8-8.3,13.9-16.4,14.5c-5.6,0.4-11.3,0.5-16.9,0.5L1373.6,2098.5z"/>
	<path fill="#37474F" d="M668.7,2179.4l4,1.6c3.2,2.2,5.8,5.1,7.5,8.6l20.2,41.5c1.3,1.9,2.1,4.1,2.1,6.4l0.1,4.9
		c-0.9,13.1,0,26.3,2.8,39.2l26.9,68l15,30.4c22.6,45.8,37.7,94.8,44.9,145.4l24.3,114.7c6.3,29.6,10.4,59.5,12.4,89.7l8.4,91.1
		l4.9,70.1c2.9,41.5,3.6,83.1,2,124.6c0.1,3.1-0.2,6.2-1.1,9.2l-10.2-53.8c-1.3-6.7-2.5-13.5-3.6-20.2c-3-18.1-3.9-36.4-2.7-54.7
		c1.2-17.6,1.9-35.1,1.9-52.7c0.1-22-2-44-6.4-65.6c-0.4-2-1.3-4-2.5-5.7l-8.4-18.8l-13.1-38.1l-13.7-51.8l-31.3-110.7l-44.2-157
		l-45.4-162.1c-3.2-11.3-3.7-23.2-1.6-34.7C663.3,2192.1,665.6,2185.4,668.7,2179.4z"/>
	<path fill="#37474F" d="M1071,1537.4l50.5-42.6c0.2-0.2,0.3-0.4,0.3-0.7l-0.3-14.8c0-0.5-0.4-0.8-0.9-0.8c-0.1,0-0.3,0-0.4,0.1
		L992.6,1554l-18.9,8.7l-4,6.4l3.8,17.6c5.8,5.8,11.9,11.5,18.1,17L1071,1537.4z"/>
	<path fill="#37474F" d="M914.6,1340.5l-19-8.2l-23.3-6.1l-21.8-2.1l-21.8,2.1l-15,5l-12.9,7.5l-7.5,6.4l-7.5,7.9l-4.2,7.2
		l142.9,16.8c4.4,0.6,7.5,4.7,6.8,9.1l-4,37.6l9.9,6l11.4,6.8c-4.7-2.8-7.6-7.8-7.7-13.3l3-41.8c0-0.7,0.1-1.3,0.3-2
		c1.7-8.2,9.7-13.4,17.9-11.7l-25.3-14.7L914.6,1340.5z"/>
	<path fill="#37474F" d="M1252.1,1993.2l3.7-5.7c1.7-2.6,2.7-5.6,2.9-8.7c0.8-12.1,0.9-24.2,0.3-36.3c-0.3-6.3-1.1-12.6-2.3-18.9
		v-51.2h-12.9l-8-127.5h14.1c1.7,0,3-1.3,3-3v-4.5c0-1.7-1.3-3-3-3l-66.8-0.1c-3.4,0.7-5.5,4-4.8,7.4v0.1l29.8,75l24.3,62.5
		c0,0.1,0,0.2,0,0.3c0,1.5,0.5,2.9,1.3,4.1l1.6,4.2c5.1,13.1,8.2,26.8,9.2,40.8c1.4,18.9,0.4,37.8-3,56.4c-0.7,4.1,1.9,7.9,6,8.7
		C1249.2,1994.1,1250.7,1993.9,1252.1,1993.2z"/>
	<g id="LWPOLYLINE_57_">
		<path fill="#37474F" d="M678.3,1904.7l36.2,48l-29.7,51.6l-29.4,45.4c-3.1,4.8-8.4,7.7-14.1,7.8c-3.7,0.1-7.4-0.7-10.8-2.2
			l-12.4-10.2l4.4-7.3l-2.7-2c-10.6-8.1-18.2-19.5-21.6-32.4c-1.1-4-1.1-8.3,0-12.3l46.6-60.3L678.3,1904.7z"/>
	</g>
	<g id="LWPOLYLINE_56_">
		<path fill="#37474F" d="M901.7,1537.8l30-47.9l13.3,9l7.9-11.6l49.9,33.2l-7.7,7.4l-29.5,16.4l-32,20.2l-31.5-20.3
			c-0.3-0.2-0.6-0.5-0.9-0.8C899.8,1541.8,900,1539.3,901.7,1537.8"/>
	</g>
	<g id="LWPOLYLINE_55_">
		<path fill="#37474F" d="M811.2,2048.4l0.8,42.9v11.1c-2.5,0.5-5,1-7.4,1.5c-10.3,2.3-20.5,4.7-30.8,7.1
			c-30.8,7.4-59.3,22-83.2,42.7l-29.6-60.4c-3.3-6.7-2.9-14.7,1.2-21l63.2-106.9c0.1-0.2,0.3-0.4,0.4-0.6c1.6-1.9,4.4-2.2,6.3-0.6
			l2.3,1.9c19.9,16.8,43,29.3,68,36.6c5.1,1.5,8.5,6.2,8.3,11.5L811.2,2048.4L811.2,2048.4z"/>
	</g>
	<path fill="#37474F" d="M828.9,1985.9c12.3-1.9,24.3-5.2,35.8-9.6c15.7-6,31-12.8,46.1-20.2l47.1-38.3l5.2-7.1l24.7-40.1l0.2-0.7
		c9.5-18.2,14-42.1,17.3-63.9l9.5-59.2l2.7-36.2c0.4-4.9-0.9-9.8-3.7-14l-21.4-35.2l-10.1-12.5l-10.6,9.3l-5.1,5.6
		c-4.4,4.9-7.2,11.1-7.7,17.7l-1.2,6l-1.8,6.8l-1.4,8.2l-2.5,7.5l-1.8,6.1l-0.8,12.3l1,49c3.5,19.8,0.9,40.1-7.4,58.4l-3.3,8.9
		l-0.1-0.1l-1.4,2.1c-28.4,43.6-74.7,72.2-126.4,78l-8.6,0.7l-100.9-70.3l-7.5,0.4l2.5,9.7l2.9,9.7l3.2,10l4.1,9l0.2,0.5l4,10.6
		c5.4,14.3,13.3,27.5,23.3,39.1c7.4,8.6,16.1,16.1,25.7,22.1c10.2,6.4,20.6,12.4,31.2,18.1c4.6,2.4,9.7,3.6,14.9,3.5
		C814.1,1987.7,821.5,1987.1,828.9,1985.9z"/>
	<path fill="#37474F" d="M966.1,1629.1l-2.9-3.6l-38.7-34.3l-26.5,4.4l-43.9-32.9c-2.3-1.7-5.3-1.9-7.8-0.5l-15,15.9
		c7.4,13.6,22.9,36.6,31.9,49.2c4.9,6.4,10,12.7,15.3,18.8c12.4,11.2,25.6,21.5,39.6,30.7L966.1,1629.1z"/>
</g>
<path fill="#26C6DA" d="M663.6,1791.2c0-84.1,64.9-153.1,147.4-159.6l-6.6-63.7c-114.7,9.8-204.8,106-204.8,223.2
	c0,22.2,3.2,43.6,9.3,63.9l61.8-16.6C666.1,1823.5,663.6,1807.7,663.6,1791.2z"/>
<path fill="#26C6DA" d="M819.3,1718.1l-5.6-60.3c-69.2,5.1-123.8,62.9-123.8,133.5c0,14.1,2.2,27.7,6.2,40.5l53.3-15.3L819.3,1718.1
	z"/>
<g id="LWPOLYLINE_52_">
	<polygon fill="#607D8B" points="937.3,1960.9 970.6,1983.6 992.9,1951.5 1000.8,1956.6 1006.2,1952.9 1049.7,1957.9 1060.2,1943.1 
		1038.7,1901.6 1041.5,1897.4 1032.4,1891.1 1055.2,1858.9 1021.7,1836.5 	"/>
</g>
<polygon fill="#607D8B" points="869,1897.1 943.5,1789.6 849.3,1722.2 882.5,1674.7 862.8,1658.6 834.5,1661.1 837,1695.1 
	843.5,1699.4 785.4,1779.7 745,1835.6 740.3,1832.1 717.7,1836.1 719.2,1857.1 756.4,1884.1 786.5,1840.6 "/>
<polygon fill="#FFFFFF" fill-opacity="0.35" stroke="#FFFFFF" stroke-miterlimit="10" points="795.3,1519.7 795,1524.8 
	794.6,1530.2 794.2,1535.8 793.7,1541.6 793.2,1547.4 792.6,1553.4 791.9,1559.3 791.2,1565.2 790.4,1571.1 789.6,1576.9 
	788.7,1582.7 787.7,1588.4 786.7,1594.1 785.6,1599.6 784.4,1605.2 783.1,1610.7 781.7,1616.2 780.2,1621.7 778.6,1627.1 
	777,1632.4 775.2,1637.7 773.4,1643.1 771.5,1648.2 769.5,1653.4 767.5,1658.5 765.3,1663.5 763.2,1668.4 761,1673.4 758.7,1678.1 
	756.5,1682.5 754.3,1686.9 752.1,1691.1 750,1695.1 747.9,1698.9 745.8,1702.4 743.8,1705.9 741.8,1709.2 739.8,1712.4 
	737.9,1715.5 735.9,1718.6 734,1721.5 732.1,1724.4 730.2,1727.4 728.3,1730.1 726.4,1733.1 724.5,1735.9 722.5,1738.6 
	720.4,1741.4 718.3,1744.2 716.1,1747.1 713.9,1749.9 711.6,1752.9 709.3,1755.7 707,1758.6 704.6,1761.5 702.2,1764.4 
	699.7,1767.2 697.3,1770.1 694.7,1773.1 692.2,1775.9 689.5,1778.7 686.7,1781.6 683.9,1784.5 680.9,1787.4 677.8,1790.4 
	674.5,1793.2 671.1,1796.2 667.6,1799.1 664,1802.1 660.2,1805.1 656.3,1808.1 652.3,1811.1 648.2,1814.1 643.9,1817.2 
	639.6,1820.2 635.3,1823.2 630.9,1826.1 626.4,1829.1 622,1831.9 617.6,1834.7 613.3,1837.4 609,1840.1 604.8,1842.5 600.6,1845.1 
	596.4,1847.4 592.3,1849.7 588.3,1851.9 584.3,1854.1 580.3,1856.2 576.4,1858.2 572.5,1860.2 568.8,1862.1 565.1,1863.9 
	561.5,1865.5 558,1867.1 554.7,1868.5 551.5,1869.9 548.5,1870.9 545.9,1872.1 543.6,1872.9 541.9,1873.7 540.8,1874.4 
	540.3,1874.9 540.6,1875.2 541.8,1875.4 543.7,1875.5 546.3,1875.5 549.5,1875.4 553.1,1875.2 557.2,1875.1 561.5,1874.9 
	565.9,1874.6 570.5,1874.4 575.1,1874.4 579.8,1874.1 584.5,1874.1 589.3,1874.1 594,1874.1 598.7,1874.2 603.4,1874.4 
	608.1,1874.6 612.7,1874.9 617.3,1875.2 621.8,1875.7 626.3,1876.2 630.7,1876.7 635.1,1877.4 639.5,1877.9 643.8,1878.5 
	648.1,1879.2 652.3,1879.9 656.6,1880.7 660.8,1881.5 665,1882.4 669.3,1883.4 673.6,1884.4 677.9,1885.4 682.3,1886.6 
	686.6,1887.9 691,1889.4 695.4,1890.7 699.7,1892.4 704,1894.1 708.3,1895.9 712.6,1897.7 716.8,1899.7 720.9,1901.9 724.9,1904.1 
	728.9,1906.2 732.7,1908.4 736.4,1910.7 739.9,1912.9 743.3,1915.2 746.5,1917.4 749.6,1919.7 752.6,1922.1 755.6,1924.4 
	758.6,1926.7 761.5,1929.1 764.4,1931.7 767.4,1934.4 770.4,1937.1 773.5,1939.9 776.5,1942.6 779.5,1945.4 782.4,1948.1 
	785.3,1950.9 788.2,1953.4 790.9,1955.9 793.6,1958.2 796.2,1960.5 798.6,1962.7 801.1,1964.7 803.4,1966.7 805.6,1968.6 
	807.8,1970.4 809.8,1972.1 811.8,1973.7 813.6,1975.2 815.2,1976.4 816.6,1977.4 817.7,1978.2 818.6,1978.6 819.1,1978.6 
	819.3,1978.2 819.2,1977.5 818.9,1976.4 818.3,1975.1 817.7,1973.5 816.9,1971.9 816.1,1969.9 815.4,1967.9 814.7,1965.9 
	814,1963.9 813.5,1961.7 813,1959.4 812.5,1957.1 812.2,1954.4 811.9,1951.6 811.6,1948.7 811.5,1945.5 811.4,1942.2 811.3,1938.7 
	811.4,1935.1 811.5,1931.4 811.6,1927.5 811.8,1923.7 812.1,1919.9 812.5,1916.1 812.9,1912.4 813.4,1908.5 813.9,1904.9 
	814.6,1901.1 815.4,1897.4 816.2,1893.5 817.2,1889.9 818.3,1886.1 819.5,1882.2 820.8,1878.4 822.2,1874.6 823.7,1870.7 
	825.4,1866.9 827.1,1862.9 829,1859.1 830.9,1855.1 833,1851.1 835.2,1846.9 837.4,1842.9 839.7,1838.9 842.1,1834.9 844.5,1830.9 
	847,1826.9 849.5,1822.9 852.1,1819.1 854.6,1815.2 857.2,1811.4 859.8,1807.9 862.3,1804.2 864.7,1800.7 867.1,1797.4 
	869.5,1794.2 871.7,1791.2 873.9,1788.4 876.1,1785.5 878.2,1782.7 880.3,1780.1 882.4,1777.6 884.6,1775.1 886.7,1772.9 
	888.8,1770.4 891,1768.2 893.2,1766.1 895.4,1763.9 897.7,1761.7 900.1,1759.7 902.5,1757.7 905,1755.9 907.5,1754.1 910.2,1752.1 
	912.9,1750.4 915.7,1748.6 918.5,1746.9 921.5,1745.1 924.5,1743.4 927.6,1741.7 930.7,1740.1 933.9,1738.4 937.1,1736.7 
	940.3,1735.1 943.5,1733.4 946.6,1731.9 949.7,1730.4 952.7,1728.9 955.7,1727.4 958.5,1726.1 961.4,1724.7 964.2,1723.4 
	966.9,1722.4 969.6,1721.2 972.4,1720.2 975.1,1719.2 977.7,1718.4 980.4,1717.6 983,1716.9 985.6,1716.2 988.1,1715.6 
	990.5,1715.1 992.8,1714.5 995,1713.9 997.2,1713.4 999.2,1712.9 1001.1,1712.5 1003,1712.1 1004.7,1711.7 1006.4,1711.4 
	1007.9,1711.1 1009.4,1710.7 1010.7,1710.4 1011.8,1710.2 1012.5,1709.9 1012.9,1709.9 1012.9,1709.6 1012.4,1709.4 1011.4,1709.4 
	1009.7,1709.1 1007.5,1709.1 1004.9,1708.9 1002,1708.7 998.8,1708.5 995.6,1708.4 992.4,1708.2 989.2,1707.9 986.3,1707.6 
	983.5,1707.4 980.8,1706.9 978.3,1706.5 975.8,1706.1 973.3,1705.4 970.8,1704.7 968.2,1703.9 965.5,1703.1 962.8,1702.1 
	959.9,1700.9 957.1,1699.7 954.2,1698.4 951.3,1697.1 948.5,1695.9 945.7,1694.4 942.9,1693.1 940.2,1691.5 937.5,1690.1 
	934.7,1688.5 932,1686.9 929.2,1685.4 926.3,1683.5 923.4,1681.7 920.4,1679.7 917.2,1677.7 914,1675.5 910.6,1673.4 907.2,1670.9 
	903.7,1668.4 900.2,1665.6 896.6,1662.7 892.9,1659.7 889.2,1656.6 885.5,1653.4 881.9,1650.1 878.3,1646.7 874.9,1643.4 
	871.6,1640.1 868.4,1637.1 865.5,1633.9 862.8,1630.9 860.2,1627.9 857.8,1625.1 855.4,1622.2 853.2,1619.4 851,1616.4 
	848.8,1613.4 846.7,1610.2 844.5,1607.1 842.4,1603.8 840.2,1600.5 838.1,1597.2 836,1593.8 834,1590.4 832,1587.1 830.1,1583.6 
	828.2,1580.2 826.4,1576.9 824.6,1573.7 823,1570.5 821.4,1567.4 819.9,1564.4 818.6,1561.5 817.3,1558.8 816.1,1556.2 
	815.1,1553.6 814,1551.1 813.1,1548.7 812.1,1546.2 811.2,1543.7 810.2,1541.1 809.2,1538.4 808.2,1535.5 807.2,1532.6 
	806.2,1529.6 805.2,1526.4 804.2,1523.2 803.3,1519.8 802.4,1516.3 801.5,1512.8 800.7,1509.1 800,1505.6 799.3,1502.1 
	798.7,1498.8 798.1,1495.8 797.7,1493.2 797.3,1490.9 797,1489.2 796.8,1487.9 796.6,1487.2 796.5,1486.9 796.4,1487.2 
	796.4,1487.9 796.3,1489.1 796.3,1490.8 796.3,1493 796.2,1495.6 796.1,1498.7 796.1,1502.2 795.9,1506.1 795.8,1510.3 
	795.6,1514.8 "/>
<g>
	<circle fill="#F5426E" cx="1088" cy="2190.1" r="36.3"/>
	<circle fill="#F5426E" cx="1017" cy="2610.1" r="36.3"/>
	<circle fill="#F5426E" cx="1344.4" cy="2257.9" r="36.3"/>
	<circle fill="#F5426E" cx="1321.9" cy="2795.9" r="36.3"/>
</g>
<g>
	<path fill="#26C6DA" d="M1077.4,2752.9v-86.2c0-1.7,1.3-3,3-3h65.8c1.7,0,3,1.3,3,3v86.2c0,1.7-1.3,3-3,3h-65.8
		C1078.7,2755.9,1077.4,2754.4,1077.4,2752.9z"/>
	<path fill="#26C6DA" d="M851.9,2484.9v-155.3c0-1.7,1.3-3,3-3h120.2c1.7,0,3,1.3,3,3v155.3c0,1.7-1.3,3-3,3H854.9
		C853.3,2487.9,851.9,2486.5,851.9,2484.9z"/>
	<path fill="#26C6DA" d="M1321.6,2663.1v-86.7c0-1.7,1.3-3,3-3h51.8c1.7,0,3,1.3,3,3v86.7c0,1.7-1.3,3-3,3h-51.8
		C1322.9,2666.1,1321.6,2664.7,1321.6,2663.1z"/>
</g>
<g id="LWPOLYLINE_51_">
	<rect x="1064.5" y="1831.1" fill="#2A8EA2" width="14.1" height="13.1"/>
</g>
<g id="LWPOLYLINE_50_">
	<rect x="958" y="2003.6" fill="#2A8EA2" width="14.1" height="13.1"/>
</g>
<path fill="#2A8EA2" d="M1271.8,2595.9v-35.6c0-1.7,1.3-3,3-3h13.6c1.7,0,3,1.3,3,3v35.6c0,1.7-1.3,3-3,3h-13.6
	C1273.1,2598.9,1271.8,2597.4,1271.8,2595.9z"/>
<path fill="#B0BEC5" d="M984.7,2870l-9.9-9.9c-0.5-0.5-0.5-1.2,0-1.7l3.8-3.8c0.5-0.5,1.2-0.5,1.7,0l9.9,9.9c0.5,0.5,0.5,1.2,0,1.7
	l-3.8,3.8C985.9,2870.5,985.2,2870.4,984.7,2870z"/>
<path fill="#B0BEC5" d="M1187.1,2161.5l9.9-9.9c0.5-0.5,1.2-0.5,1.7,0l3.8,3.8c0.5,0.5,0.5,1.2,0,1.7l-9.9,9.9
	c-0.5,0.5-1.2,0.5-1.7,0l-3.8-3.8C1186.7,2162.7,1186.7,2162,1187.1,2161.5z"/>
<path fill="#B0BEC5" d="M1121.4,1875l13.9-1.9c0.7-0.1,1.2,0.4,1.3,1l0.7,5.3c0.1,0.7-0.4,1.2-1,1.3l-13.9,1.9
	c-0.7,0.1-1.2-0.4-1.3-1l-0.7-5.3C1120.3,1875.7,1120.7,1875.1,1121.4,1875z"/>
<path fill="#B0BEC5" d="M1011.2,2051.7l-3.5-13.6c-0.2-0.6,0.2-1.3,0.9-1.4l5.2-1.3c0.6-0.2,1.3,0.2,1.4,0.9l3.5,13.6
	c0.2,0.6-0.2,1.3-0.9,1.4l-5.2,1.3C1011.9,2052.7,1011.3,2052.3,1011.2,2051.7z"/>
<path fill="#2A8EA2" d="M1286,2435.4v-35.6c0-1.7,1.3-3,3-3h13.6c1.7,0,3,1.3,3,3v35.6c0,1.7-1.3,3-3,3H1289
	C1287.3,2438.4,1286,2436.9,1286,2435.4z"/>
<g>
	<path fill="#7CB342" d="M1052,2412.7L1052,2412.7c-5.8-0.6-11,3.5-11.8,9.2c-5.8-0.6-11,3.5-11.8,9.2c1-3.8,0.2-7.8-2.2-10.9
		c-2.4-3.1-6.1-4.9-10.1-4.8c1-3.8,0.2-7.8-2.2-10.9c-2.4-3.1-6.1-4.9-10.1-4.8c5.8,0.6,11-3.5,11.8-9.2c5.8,0.6,11-3.5,11.8-9.2
		c-1,3.8-0.2,7.8,2.2,10.9c2.4,3.1,6.1,4.9,10.1,4.8c-1,3.8-0.2,7.8,2.2,10.9C1044.3,2411.1,1048,2412.9,1052,2412.7"/>
	<path fill="#7CB342" d="M1274.9,2279.4L1274.9,2279.4c-0.7-5.8-5.8-9.9-11.5-9.5c-0.7-5.7-5.8-9.9-11.5-9.5
		c3.9,0.2,7.7-1.5,10.2-4.5s3.4-7.1,2.5-10.9c3.9,0.2,7.7-1.5,10.2-4.5s3.4-7.1,2.5-10.9c0.7,5.7,5.8,9.9,11.5,9.5
		c0.7,5.7,5.8,9.9,11.5,9.5c-3.9-0.2-7.7,1.5-10.2,4.5s-3.4,7.1-2.5,10.9c-3.9-0.2-7.7,1.5-10.2,4.5
		C1274.9,2271.6,1274,2275.6,1274.9,2279.4"/>
	<path fill="#7CB342" d="M1250.7,2581.5L1250.7,2581.5c-5.7-1.1-11.2,2.4-12.6,8c-5.7-1.1-11.2,2.4-12.6,8c1.4-3.7,1-7.8-1.1-11.1
		c-2.1-3.3-5.6-5.5-9.6-5.8c1.4-3.7,1-7.8-1.1-11.1c-2.1-3.3-5.6-5.5-9.6-5.8c5.7,1.1,11.2-2.4,12.6-8c5.7,1.1,11.2-2.4,12.6-8
		c-1.4,3.7-1,7.8,1.1,11.1c2.1,3.3,5.6,5.5,9.6,5.8c-1.4,3.7-1,7.8,1.1,11.1C1243.3,2579.1,1246.8,2581.2,1250.7,2581.5"/>
</g>
<path fill="#B0BEC5" d="M667.3,1889.5l11.1,11.2c1.2,1.2,1.1,3.1,0,4.2l-74.1,73.1c-1.2,1.2-3.1,1.1-4.2,0l-11.1-11.2
	c-1.2-1.2-1.1-3.1,0-4.2l74.1-73.1C664.3,1888.4,666.2,1888.4,667.3,1889.5z"/>
<path fill="#B0BEC5" d="M654.9,2038.4l-16.8,16.2c-1.2,1.2-3.1,1.1-4.2-0.1l-45.7-47.2c-1.2-1.2-1.1-3.1,0.1-4.2l16.8-16.2
	c1.2-1.2,3.1-1.1,4.2,0.1l45.7,47.2C656.1,2035.2,656.1,2037.1,654.9,2038.4z"/>
<path fill="#B0BEC5" d="M867.8,1555l11.2,11.1c1.2,1.2,3.1,1.1,4.2,0l73.1-74.1c1.2-1.2,1.1-3.1,0-4.2l-11.2-11.1
	c-1.2-1.2-3.1-1.1-4.2,0l-73.1,74.1C866.6,1552,866.6,1553.9,867.8,1555z"/>
<path fill="#B0BEC5" d="M1016.6,1542.6l16.2-16.8c1.2-1.2,1.1-3.1-0.1-4.2l-47.2-45.7c-1.2-1.2-3.1-1.1-4.2,0.1l-16.2,16.8
	c-1.2,1.2-1.1,3.1,0.1,4.2l47.2,45.7C1013.5,1543.8,1015.4,1543.8,1016.6,1542.6z"/>
<path fill="#5C6BC0" d="M865.1,2280.4v-53.9c0-1.7,1.3-3,3-3H922c1.7,0,3,1.3,3,3v53.9c0,1.7-1.3,3-3,3h-53.9
	C866.4,2283.4,865.1,2282.1,865.1,2280.4z"/>
<rect x="1067.1" y="2253.2" fill="#5C6BC0" width="59.9" height="59.9"/>
<path fill="#5C6BC0" d="M1209.8,2361.9V2308c0-1.7,1.3-3,3-3h53.9c1.7,0,3,1.3,3,3v53.9c0,1.7-1.3,3-3,3h-53.9
	C1211.1,2364.9,1209.8,2363.4,1209.8,2361.9z"/>
<path fill="#5C6BC0" d="M1320.1,2483.4v-53.9c0-1.7,1.3-3,3-3h53.9c1.7,0,3,1.3,3,3v53.9c0,1.7-1.3,3-3,3h-53.9
	C1321.4,2486.4,1320.1,2485.1,1320.1,2483.4z"/>
<path fill="#5C6BC0" d="M1213.1,2753.4v-53.9c0-1.7,1.3-3,3-3h53.9c1.7,0,3,1.3,3,3v53.9c0,1.7-1.3,3-3,3h-53.9
	C1214.4,2756.4,1213.1,2755.1,1213.1,2753.4z"/>
<rect x="1089.4" y="2359.1" fill="#5C6BC0" width="39" height="30"/>
<path fill="#5C6BC0" d="M1190.4,2417.4h24c1.7,0,3,1.3,3,3v33c0,1.7-1.3,3-3,3h-24c-1.7,0-3-1.3-3-3v-33
	C1187.4,2418.6,1188.7,2417.4,1190.4,2417.4z"/>
<path fill="#B0BEC5" d="M428,1468.8l-28.7-32c0,0-59.6,53.6-76.6,119.3l31,12l-2.2,7.5l11.8,3.3
	C363.2,1578.8,375.6,1521.7,428,1468.8z"/>
<g id="LWPOLYLINE_53_">
	<polygon fill="#B0BEC5" points="1083.2,2024.4 1103.7,2023.9 1125.1,2041.1 1155.3,2003.9 1134.5,1951.5 1115.1,1957.2 
		1095.2,1943.9 1085.2,1958.1 1081,1955.2 1074,1955.2 1066.3,1965.1 1068.7,1972.1 1072.2,1975.2 1060.6,1991.2 1083,2006.9 	"/>
</g>
<path fill="#B0BEC5" d="M1001.5,2038.9l4.7,18.5c0.4,1.6-0.6,3.2-2.2,3.6l-108.5,27.7c-1.6,0.4-3.2-0.6-3.6-2.2l-4.7-18.5
	c-0.4-1.6,0.6-3.2,2.2-3.6l108.6-27.7C999.5,2036.2,1001.1,2037.2,1001.5,2038.9z"/>
<path fill="#B0BEC5" d="M1137.2,1864.5l-21,3.3c-1.6,0.3-3.2-0.9-3.4-2.5l-20-127.8c-0.3-1.6,0.9-3.2,2.5-3.4l21-3.3
	c1.6-0.3,3.2,0.9,3.4,2.5l20,127.8C1140,1862.7,1138.9,1864.4,1137.2,1864.5z"/>
<path fill="#B0BEC5" d="M1023.7,1827.9l7.3,0.5c1.6,0.1,3-1.6,3.2-3.8l7.8-20.5l-0.9-78.2c0.2-2.2-1-4.1-2.6-4.2l-7.3-0.5
	c-1.6-0.1-3,1.6-3.2,3.8l-6.9,98.7C1020.9,1825.9,1022.1,1827.9,1023.7,1827.9z"/>
<path fill="#B0BEC5" d="M933.5,1968.5l2.3,7c0.5,1.5-0.8,3.3-2.9,4l-18,12.5l-76.1,18c-2.1,0.7-4.2,0-4.7-1.5l-2.3-7
	c-0.5-1.5,0.8-3.3,2.9-4l94.1-30.5C930.9,1966.4,933,1967.1,933.5,1968.5z"/>
<polygon fill="#CFD8DC" points="1408.5,2871.3 1408.5,2768.2 1408.5,2768.2 1408.5,2761.4 1368.2,2761.4 1368.2,2783.2 
	1386.7,2783.2 1386.7,2871.3 "/>
<path fill="#B0BEC5" d="M998.6,2865.1v-15.8c0-1.7,1.3-3,3-3h130c1.7,0,3,1.3,3,3v15.8c0,1.7-1.3,3-3,3h-130
	C1000,2868.1,998.6,2866.7,998.6,2865.1z"/>
<path fill="#5C6BC0" d="M1202.3,2629.6l12.6-1.4c1.6-0.2,3.1,1,3.3,2.7l4.2,38.9c0.2,1.6-1,3.1-2.7,3.3l-12.6,1.4
	c-1.6,0.2-3.1-1-3.3-2.7l-4.2-38.9C1199.5,2631.2,1200.7,2629.9,1202.3,2629.6z"/>
<path fill="#B0BEC5" d="M1125.6,2345.5v-10c0-1.7,1.3-3,3-3h54.8c1.7,0,3,1.3,3,3v10c0,1.7-1.3,3-3,3h-54.8
	C1127,2348.5,1125.6,2347.2,1125.6,2345.5z"/>
<path fill="#B0BEC5" d="M1145.6,2587.9v-10c0-1.7,1.3-3,3-3h41.8c1.7,0,3,1.3,3,3v10c0,1.7-1.3,3-3,3h-41.8
	C1147,2590.9,1145.6,2589.5,1145.6,2587.9z"/>
<path fill="#B0BEC5" d="M1200.6,2170.4l4.9-11.5c0.6-1.5,2.4-2.2,3.9-1.6l111.7,48.1c1.5,0.6,2.2,2.4,1.6,3.9l-4.9,11.5
	c-0.6,1.5-2.4,2.2-3.9,1.6l-111.7-48.1C1200.7,2173.7,1200,2172,1200.6,2170.4z"/>
<g>
	<polygon fill="#FFCA28" points="1085.1,2595.5 1085.1,2585.4 1095.3,2585.4 1095.3,2578.4 1085.1,2578.4 1085.1,2568.2 
		1078.1,2568.2 1078.1,2578.4 1068,2578.4 1068,2585.4 1078.1,2585.4 1078.1,2595.5 	"/>
	<polygon fill="#FFCA28" points="1018,2340.5 1023.9,2336.8 1018.5,2328.1 1027,2322.8 1023.3,2316.9 1014.7,2322.2 1009.4,2313.7 
		1003.4,2317.4 1008.8,2325.9 1000.2,2331.4 1003.9,2337.3 1012.5,2331.9 	"/>
	<g>
		<path fill="#FFCA28" d="M1037.9,2687.6v11.5c0,2.2,1.8,4,4,4s4-1.8,4-4v-11.5c0-2.2-1.8-4-4-4S1037.9,2685.4,1037.9,2687.6z"/>
		<path fill="#FFCA28" d="M1027.6,2699.1v-11.5c0-2.2-1.8-4-4-4c-2.2,0-4,1.8-4,4v11.5c0,2.2,1.8,4,4,4
			C1025.8,2703.1,1027.6,2701.3,1027.6,2699.1z"/>
		<path fill="#FFCA28" d="M1009.6,2699.1v-11.5c0-2.2-1.8-4-4-4s-4,1.8-4,4v11.5c0,2.2,1.8,4,4,4S1009.6,2701.3,1009.6,2699.1z"/>
		<path fill="#FFCA28" d="M991.2,2699.1v-11.5c0-2.2-1.8-4-4-4s-4,1.8-4,4v11.5c0,2.2,1.8,4,4,4S991.2,2701.3,991.2,2699.1z"/>
	</g>
	<polygon fill="#FFCA28" points="1228.6,2234 1228.6,2223.9 1238.8,2223.9 1238.8,2216.9 1228.6,2216.9 1228.6,2206.7 
		1221.6,2206.7 1221.6,2216.9 1211.5,2216.9 1211.5,2223.9 1221.6,2223.9 1221.6,2234 	"/>
	<polygon fill="#FFCA28" points="1272.6,2680.5 1272.6,2670.4 1282.8,2670.4 1282.8,2663.4 1272.6,2663.4 1272.6,2653.2 
		1265.6,2653.2 1265.6,2663.4 1255.5,2663.4 1255.5,2670.4 1265.6,2670.4 1265.6,2680.5 	"/>
</g>
<path fill="#5C6BC0" d="M744.9,2034.6h24c1.7,0,3,1.3,3,3v33c0,1.7-1.3,3-3,3h-24c-1.7,0-3-1.3-3-3v-33
	C741.9,2035.9,743.2,2034.6,744.9,2034.6z"/>
<circle id="XMLID_18_" fill="#FFFFFF" cx="955.3" cy="2676.6" r="18"/>
<circle id="XMLID_1_" fill="#E53A34" cx="955.3" cy="2676.6" r="14"/>
<g id="XMLID_21_">
	<rect id="XMLID_19_" x="952.5" y="2666.6" fill="#FFFFFF" width="5.8" height="19.9"/>
	<rect id="XMLID_20_" x="945.4" y="2673.7" fill="#FFFFFF" width="19.9" height="5.8"/>
</g>
</svg>
