<?xml version="1.0" encoding="utf-8"?>
<!-- Generator: Adobe Illustrator 17.0.2, SVG Export Plug-In . SVG Version: 6.00 Build 0)  -->
<!DOCTYPE svg PUBLIC "-//W3C//DTD SVG 1.1//EN" "http://www.w3.org/Graphics/SVG/1.1/DTD/svg11.dtd">
<svg version="1.1" id="Layer_1" xmlns="http://www.w3.org/2000/svg" xmlns:xlink="http://www.w3.org/1999/xlink" x="0px" y="0px"
	 width="148.129px" height="96.645px" viewBox="0 0 148.129 96.645" enable-background="new 0 0 148.129 96.645"
	 xml:space="preserve">
<g>
	<path fill="#2f3e9e" d="M11.8,0h109.12v1.32h14.834c0,0,11.463,53.183,12.361,81.277c0,0,0.448,4.832-3.822,6.068l-26.071,7.191
		v-3.933h-11.237l-13.71,4.72v-4.72h-10.9l-13.822,4.72v-4.72h-10.9l-13.599,4.72v-4.72H33.151l-14.047,4.72v-4.72H0V22.026h11.8V0z
		"/>
	<path fill="#5b6abf" d="M20.004,0H120.92v1.32h14.834c0,0,11.463,53.183,12.361,81.277c0,0,0.449,4.832-3.821,6.068l-26.071,7.191
		v-3.933h-11.238l-13.71,4.72v-4.72h-10.9l-13.822,4.72v-4.72h-10.9l-13.599,4.72v-4.72H33.151l-14.047,4.72l-0.899-4.72V63.877
		h1.799V0z"/>
	<path fill="#3f51b5" d="M119.042,1.32h16.711c0,0,11.462,53.184,12.361,81.276c0,0,0.45,4.832-3.82,6.069l-26.072,7.192v-3.934
		h0.82V1.32z"/>
</g>
<polygon fill="#5b6abf" points="119.042,1.32 135.753,1.32 137.697,10.311 145.002,10.311 145.002,88.413 119.042,88.413 "/>
<rect x="128.481" y="2.513" fill="#3f51b5" width="5.056" height="9.983"/>
<rect x="136.011" y="47.284" fill="#3f51b5" width="6.294" height="21.169"/>
<g>
	<path fill="#3f51b5" d="M144.047,19.976c0-0.255-0.208-0.464-0.465-0.464c-0.255,0-0.463,0.209-0.463,0.464
		c0,0.256,0.208,0.464,0.463,0.464C143.839,20.439,144.047,20.231,144.047,19.976"/>
	<path fill="#3f51b5" d="M144.047,28.356c0-0.256-0.208-0.464-0.465-0.464c-0.255,0-0.463,0.208-0.463,0.464
		c0,0.256,0.208,0.464,0.463,0.464C143.839,28.82,144.047,28.612,144.047,28.356"/>
	<path fill="#3f51b5" d="M144.047,36.738c0-0.256-0.208-0.464-0.465-0.464c-0.255,0-0.463,0.208-0.463,0.464
		c0,0.256,0.208,0.463,0.463,0.463C143.839,37.201,144.047,36.994,144.047,36.738"/>
	<path fill="#3f51b5" d="M144.047,45.119c0-0.256-0.208-0.465-0.465-0.465c-0.255,0-0.463,0.209-0.463,0.465
		c0,0.255,0.208,0.464,0.463,0.464C143.839,45.583,144.047,45.374,144.047,45.119"/>
	<path fill="#3f51b5" d="M144.047,53.499c0-0.254-0.208-0.463-0.465-0.463c-0.255,0-0.463,0.209-0.463,0.463
		c0,0.257,0.208,0.465,0.463,0.465C143.839,53.964,144.047,53.756,144.047,53.499"/>
	<path fill="#3f51b5" d="M144.047,61.881c0-0.257-0.208-0.464-0.465-0.464c-0.255,0-0.463,0.207-0.463,0.464
		c0,0.256,0.208,0.464,0.463,0.464C143.839,62.345,144.047,62.137,144.047,61.881"/>
	<path fill="#3f51b5" d="M144.047,70.262c0-0.255-0.208-0.463-0.465-0.463c-0.255,0-0.463,0.208-0.463,0.463
		c0,0.257,0.208,0.464,0.463,0.464C143.839,70.726,144.047,70.519,144.047,70.262"/>
	<path fill="#3f51b5" d="M144.047,78.644c0-0.257-0.208-0.465-0.465-0.465c-0.255,0-0.463,0.208-0.463,0.465
		c0,0.255,0.208,0.464,0.463,0.464C143.839,79.107,144.047,78.898,144.047,78.644"/>
	<path fill="#3f51b5" d="M144.047,87.023c0-0.254-0.208-0.463-0.465-0.463c-0.255,0-0.463,0.209-0.463,0.463
		c0,0.257,0.208,0.465,0.463,0.465C143.839,87.488,144.047,87.28,144.047,87.023"/>
	<path fill="#3f51b5" d="M135.755,87.023c0-0.254-0.207-0.463-0.464-0.463c-0.256,0-0.463,0.209-0.463,0.463
		c0,0.257,0.207,0.465,0.463,0.465C135.548,87.488,135.755,87.28,135.755,87.023"/>
	<path fill="#3f51b5" d="M144.047,11.568c0-0.256-0.208-0.464-0.465-0.464c-0.255,0-0.463,0.208-0.463,0.464
		c0,0.256,0.208,0.464,0.463,0.464C143.839,12.032,144.047,11.824,144.047,11.568"/>
	<path fill="#3f51b5" d="M137.549,11.568c0-0.256-0.207-0.464-0.464-0.464c-0.255,0-0.463,0.208-0.463,0.464
		c0,0.256,0.208,0.464,0.463,0.464C137.342,12.032,137.549,11.824,137.549,11.568"/>
	<path fill="#2f3e9e" d="M138.716,48.271h-1.973c-0.139,0-0.252-0.113-0.252-0.253c0-0.14,0.113-0.253,0.252-0.253h1.973
		c0.139,0,0.252,0.113,0.252,0.253C138.968,48.158,138.854,48.271,138.716,48.271"/>
	<path fill="#2f3e9e" d="M138.716,49.204h-1.973c-0.139,0-0.252-0.112-0.252-0.253c0-0.14,0.113-0.254,0.252-0.254h1.973
		c0.139,0,0.252,0.114,0.252,0.254C138.968,49.092,138.854,49.204,138.716,49.204"/>
	<path fill="#2f3e9e" d="M138.716,50.137h-1.973c-0.139,0-0.252-0.113-0.252-0.252c0-0.141,0.113-0.254,0.252-0.254h1.973
		c0.139,0,0.252,0.113,0.252,0.254C138.968,50.023,138.854,50.137,138.716,50.137"/>
	<path fill="#2f3e9e" d="M138.716,51.069h-1.973c-0.139,0-0.252-0.112-0.252-0.253c0-0.139,0.113-0.252,0.252-0.252h1.973
		c0.139,0,0.252,0.113,0.252,0.252C138.968,50.957,138.854,51.069,138.716,51.069"/>
	<path fill="#2f3e9e" d="M138.716,52.003h-1.973c-0.139,0-0.252-0.113-0.252-0.253c0-0.14,0.113-0.254,0.252-0.254h1.973
		c0.139,0,0.252,0.114,0.252,0.254C138.968,51.89,138.854,52.003,138.716,52.003"/>
	<path fill="#2f3e9e" d="M138.716,52.936h-1.973c-0.139,0-0.252-0.113-0.252-0.252c0-0.141,0.113-0.254,0.252-0.254h1.973
		c0.139,0,0.252,0.113,0.252,0.254C138.968,52.822,138.854,52.936,138.716,52.936"/>
	<path fill="#2f3e9e" d="M138.716,53.868h-1.973c-0.139,0-0.252-0.113-0.252-0.253c0-0.139,0.113-0.253,0.252-0.253h1.973
		c0.139,0,0.252,0.114,0.252,0.253C138.968,53.755,138.854,53.868,138.716,53.868"/>
	<path fill="#2f3e9e" d="M138.716,54.802h-1.973c-0.139,0-0.252-0.113-0.252-0.253c0-0.14,0.113-0.254,0.252-0.254h1.973
		c0.139,0,0.252,0.114,0.252,0.254C138.968,54.688,138.854,54.802,138.716,54.802"/>
	<path fill="#2f3e9e" d="M138.716,55.733h-1.973c-0.139,0-0.252-0.111-0.252-0.252c0-0.14,0.113-0.254,0.252-0.254h1.973
		c0.139,0,0.252,0.114,0.252,0.254C138.968,55.622,138.854,55.733,138.716,55.733"/>
	<path fill="#2f3e9e" d="M138.716,56.667h-1.973c-0.139,0-0.252-0.113-0.252-0.253c0-0.139,0.113-0.253,0.252-0.253h1.973
		c0.139,0,0.252,0.114,0.252,0.253C138.968,56.554,138.854,56.667,138.716,56.667"/>
	<path fill="#2f3e9e" d="M138.716,57.6h-1.973c-0.139,0-0.252-0.112-0.252-0.253c0-0.14,0.113-0.253,0.252-0.253h1.973
		c0.139,0,0.252,0.113,0.252,0.253C138.968,57.487,138.854,57.6,138.716,57.6"/>
	<path fill="#2f3e9e" d="M138.716,58.533h-1.973c-0.139,0-0.252-0.113-0.252-0.253c0-0.14,0.113-0.254,0.252-0.254h1.973
		c0.139,0,0.252,0.114,0.252,0.254C138.968,58.42,138.854,58.533,138.716,58.533"/>
	<path fill="#2f3e9e" d="M138.716,59.466h-1.973c-0.139,0-0.252-0.113-0.252-0.252c0-0.141,0.113-0.254,0.252-0.254h1.973
		c0.139,0,0.252,0.113,0.252,0.254C138.968,59.353,138.854,59.466,138.716,59.466"/>
	<path fill="#2f3e9e" d="M138.716,60.398h-1.973c-0.139,0-0.252-0.112-0.252-0.253c0-0.139,0.113-0.253,0.252-0.253h1.973
		c0.139,0,0.252,0.114,0.252,0.253C138.968,60.286,138.854,60.398,138.716,60.398"/>
	<path fill="#2f3e9e" d="M138.716,61.332h-1.973c-0.139,0-0.252-0.113-0.252-0.253c0-0.14,0.113-0.254,0.252-0.254h1.973
		c0.139,0,0.252,0.114,0.252,0.254C138.968,61.219,138.854,61.332,138.716,61.332"/>
	<path fill="#2f3e9e" d="M130.534,3.569h-1.33c-0.14,0-0.254-0.112-0.254-0.251c0-0.141,0.114-0.254,0.254-0.254h1.33
		c0.14,0,0.253,0.113,0.253,0.254C130.787,3.457,130.674,3.569,130.534,3.569"/>
	<path fill="#2f3e9e" d="M130.534,4.503h-1.33c-0.14,0-0.254-0.113-0.254-0.253c0-0.139,0.114-0.254,0.254-0.254h1.33
		c0.14,0,0.253,0.115,0.253,0.254C130.787,4.39,130.674,4.503,130.534,4.503"/>
	<path fill="#2f3e9e" d="M130.534,5.437h-1.33c-0.14,0-0.254-0.113-0.254-0.253c0-0.141,0.114-0.254,0.254-0.254h1.33
		c0.14,0,0.253,0.113,0.253,0.254C130.787,5.323,130.674,5.437,130.534,5.437"/>
	<path fill="#2f3e9e" d="M130.534,6.368h-1.33c-0.14,0-0.254-0.112-0.254-0.252c0-0.14,0.114-0.254,0.254-0.254h1.33
		c0.14,0,0.253,0.114,0.253,0.254C130.787,6.256,130.674,6.368,130.534,6.368"/>
	<path fill="#2f3e9e" d="M130.534,7.302h-1.33c-0.14,0-0.254-0.113-0.254-0.253c0-0.139,0.114-0.253,0.254-0.253h1.33
		c0.14,0,0.253,0.114,0.253,0.253C130.787,7.188,130.674,7.302,130.534,7.302"/>
	<path fill="#2f3e9e" d="M130.534,8.234h-1.33c-0.14,0-0.254-0.112-0.254-0.253c0-0.14,0.114-0.253,0.254-0.253h1.33
		c0.14,0,0.253,0.113,0.253,0.253C130.787,8.122,130.674,8.234,130.534,8.234"/>
	<path fill="#2f3e9e" d="M130.534,9.167h-1.33c-0.14,0-0.254-0.113-0.254-0.252c0-0.14,0.114-0.254,0.254-0.254h1.33
		c0.14,0,0.253,0.114,0.253,0.254C130.787,9.054,130.674,9.167,130.534,9.167"/>
	<path fill="#2f3e9e" d="M130.534,10.101h-1.33c-0.14,0-0.254-0.113-0.254-0.253c0-0.14,0.114-0.253,0.254-0.253h1.33
		c0.14,0,0.253,0.113,0.253,0.253C130.787,9.987,130.674,10.101,130.534,10.101"/>
	<path fill="#2f3e9e" d="M130.534,11.033h-1.33c-0.14,0-0.254-0.113-0.254-0.253c0-0.14,0.114-0.254,0.254-0.254h1.33
		c0.14,0,0.253,0.114,0.253,0.254C130.787,10.92,130.674,11.033,130.534,11.033"/>
	<path fill="#2f3e9e" d="M130.534,11.966h-1.33c-0.14,0-0.254-0.113-0.254-0.252c0-0.14,0.114-0.254,0.254-0.254h1.33
		c0.14,0,0.253,0.114,0.253,0.254C130.787,11.853,130.674,11.966,130.534,11.966"/>
	<path fill="#2f3e9e" d="M132.808,3.569h-1.33c-0.14,0-0.254-0.112-0.254-0.251c0-0.141,0.114-0.254,0.254-0.254h1.33
		c0.141,0,0.253,0.113,0.253,0.254C133.061,3.457,132.948,3.569,132.808,3.569"/>
	<path fill="#2f3e9e" d="M132.808,4.503h-1.33c-0.14,0-0.254-0.113-0.254-0.253c0-0.139,0.114-0.254,0.254-0.254h1.33
		c0.141,0,0.253,0.115,0.253,0.254C133.061,4.39,132.948,4.503,132.808,4.503"/>
	<path fill="#2f3e9e" d="M132.808,5.437h-1.33c-0.14,0-0.254-0.113-0.254-0.253c0-0.141,0.114-0.254,0.254-0.254h1.33
		c0.141,0,0.253,0.113,0.253,0.254C133.061,5.323,132.948,5.437,132.808,5.437"/>
	<path fill="#2f3e9e" d="M132.808,6.368h-1.33c-0.14,0-0.254-0.112-0.254-0.252c0-0.14,0.114-0.254,0.254-0.254h1.33
		c0.141,0,0.253,0.114,0.253,0.254C133.061,6.256,132.948,6.368,132.808,6.368"/>
	<path fill="#2f3e9e" d="M132.808,7.302h-1.33c-0.14,0-0.254-0.113-0.254-0.253c0-0.139,0.114-0.253,0.254-0.253h1.33
		c0.141,0,0.253,0.114,0.253,0.253C133.061,7.188,132.948,7.302,132.808,7.302"/>
	<path fill="#2f3e9e" d="M132.808,8.234h-1.33c-0.14,0-0.254-0.112-0.254-0.253c0-0.14,0.114-0.253,0.254-0.253h1.33
		c0.141,0,0.253,0.113,0.253,0.253C133.061,8.122,132.948,8.234,132.808,8.234"/>
	<path fill="#2f3e9e" d="M132.808,9.167h-1.33c-0.14,0-0.254-0.113-0.254-0.252c0-0.14,0.114-0.254,0.254-0.254h1.33
		c0.141,0,0.253,0.114,0.253,0.254C133.061,9.054,132.948,9.167,132.808,9.167"/>
	<path fill="#2f3e9e" d="M132.808,10.101h-1.33c-0.14,0-0.254-0.113-0.254-0.253c0-0.14,0.114-0.253,0.254-0.253h1.33
		c0.141,0,0.253,0.113,0.253,0.253C133.061,9.987,132.948,10.101,132.808,10.101"/>
	<path fill="#2f3e9e" d="M132.808,11.033h-1.33c-0.14,0-0.254-0.113-0.254-0.253c0-0.14,0.114-0.254,0.254-0.254h1.33
		c0.141,0,0.253,0.114,0.253,0.254C133.061,10.92,132.948,11.033,132.808,11.033"/>
	<path fill="#2f3e9e" d="M132.808,11.966h-1.33c-0.14,0-0.254-0.113-0.254-0.252c0-0.14,0.114-0.254,0.254-0.254h1.33
		c0.141,0,0.253,0.114,0.253,0.254C133.061,11.853,132.948,11.966,132.808,11.966"/>
	<path fill="#2f3e9e" d="M138.716,62.264h-1.973c-0.139,0-0.252-0.112-0.252-0.252c0-0.14,0.113-0.253,0.252-0.253h1.973
		c0.139,0,0.252,0.113,0.252,0.253C138.968,62.151,138.854,62.264,138.716,62.264"/>
	<path fill="#2f3e9e" d="M138.716,63.197h-1.973c-0.139,0-0.252-0.113-0.252-0.253c0-0.139,0.113-0.253,0.252-0.253h1.973
		c0.139,0,0.252,0.114,0.252,0.253C138.968,63.084,138.854,63.197,138.716,63.197"/>
	<path fill="#2f3e9e" d="M138.716,64.131h-1.973c-0.139,0-0.252-0.113-0.252-0.253c0-0.141,0.113-0.254,0.252-0.254h1.973
		c0.139,0,0.252,0.113,0.252,0.254C138.968,64.018,138.854,64.131,138.716,64.131"/>
	<path fill="#2f3e9e" d="M138.716,65.062h-1.973c-0.139,0-0.252-0.113-0.252-0.252c0-0.14,0.113-0.254,0.252-0.254h1.973
		c0.139,0,0.252,0.114,0.252,0.254C138.968,64.949,138.854,65.062,138.716,65.062"/>
	<path fill="#2f3e9e" d="M138.716,65.996h-1.973c-0.139,0-0.252-0.113-0.252-0.253c0-0.139,0.113-0.253,0.252-0.253h1.973
		c0.139,0,0.252,0.114,0.252,0.253C138.968,65.883,138.854,65.996,138.716,65.996"/>
	<path fill="#2f3e9e" d="M138.716,66.929h-1.973c-0.139,0-0.252-0.112-0.252-0.253c0-0.14,0.113-0.254,0.252-0.254h1.973
		c0.139,0,0.252,0.114,0.252,0.254C138.968,66.816,138.854,66.929,138.716,66.929"/>
	<path fill="#2f3e9e" d="M138.716,67.861h-1.973c-0.139,0-0.252-0.113-0.252-0.252c0-0.14,0.113-0.254,0.252-0.254h1.973
		c0.139,0,0.252,0.114,0.252,0.254C138.968,67.748,138.854,67.861,138.716,67.861"/>
	<path fill="#2f3e9e" d="M141.528,48.271h-1.972c-0.14,0-0.253-0.113-0.253-0.253c0-0.14,0.113-0.253,0.253-0.253h1.972
		c0.14,0,0.253,0.113,0.253,0.253C141.781,48.158,141.668,48.271,141.528,48.271"/>
	<path fill="#2f3e9e" d="M141.528,49.204h-1.972c-0.14,0-0.253-0.112-0.253-0.253c0-0.14,0.113-0.254,0.253-0.254h1.972
		c0.14,0,0.253,0.114,0.253,0.254C141.781,49.092,141.668,49.204,141.528,49.204"/>
	<path fill="#2f3e9e" d="M141.528,50.137h-1.972c-0.14,0-0.253-0.113-0.253-0.252c0-0.141,0.113-0.254,0.253-0.254h1.972
		c0.14,0,0.253,0.113,0.253,0.254C141.781,50.023,141.668,50.137,141.528,50.137"/>
	<path fill="#2f3e9e" d="M141.528,51.069h-1.972c-0.14,0-0.253-0.112-0.253-0.253c0-0.139,0.113-0.252,0.253-0.252h1.972
		c0.14,0,0.253,0.113,0.253,0.252C141.781,50.957,141.668,51.069,141.528,51.069"/>
	<path fill="#2f3e9e" d="M141.528,52.003h-1.972c-0.14,0-0.253-0.113-0.253-0.253c0-0.14,0.113-0.254,0.253-0.254h1.972
		c0.14,0,0.253,0.114,0.253,0.254C141.781,51.89,141.668,52.003,141.528,52.003"/>
	<path fill="#2f3e9e" d="M141.528,52.936h-1.972c-0.14,0-0.253-0.113-0.253-0.252c0-0.141,0.113-0.254,0.253-0.254h1.972
		c0.14,0,0.253,0.113,0.253,0.254C141.781,52.822,141.668,52.936,141.528,52.936"/>
	<path fill="#2f3e9e" d="M141.528,53.868h-1.972c-0.14,0-0.253-0.113-0.253-0.253c0-0.139,0.113-0.253,0.253-0.253h1.972
		c0.14,0,0.253,0.114,0.253,0.253C141.781,53.755,141.668,53.868,141.528,53.868"/>
	<path fill="#2f3e9e" d="M141.528,54.802h-1.972c-0.14,0-0.253-0.113-0.253-0.253c0-0.14,0.113-0.254,0.253-0.254h1.972
		c0.14,0,0.253,0.114,0.253,0.254C141.781,54.688,141.668,54.802,141.528,54.802"/>
	<path fill="#2f3e9e" d="M141.528,55.733h-1.972c-0.14,0-0.253-0.111-0.253-0.252c0-0.14,0.113-0.254,0.253-0.254h1.972
		c0.14,0,0.253,0.114,0.253,0.254C141.781,55.622,141.668,55.733,141.528,55.733"/>
	<path fill="#2f3e9e" d="M141.528,56.667h-1.972c-0.14,0-0.253-0.113-0.253-0.253c0-0.139,0.113-0.253,0.253-0.253h1.972
		c0.14,0,0.253,0.114,0.253,0.253C141.781,56.554,141.668,56.667,141.528,56.667"/>
	<path fill="#2f3e9e" d="M141.528,57.6h-1.972c-0.14,0-0.253-0.112-0.253-0.253c0-0.14,0.113-0.253,0.253-0.253h1.972
		c0.14,0,0.253,0.113,0.253,0.253C141.781,57.487,141.668,57.6,141.528,57.6"/>
	<path fill="#2f3e9e" d="M141.528,58.533h-1.972c-0.14,0-0.253-0.113-0.253-0.253c0-0.14,0.113-0.254,0.253-0.254h1.972
		c0.14,0,0.253,0.114,0.253,0.254C141.781,58.42,141.668,58.533,141.528,58.533"/>
	<path fill="#2f3e9e" d="M141.528,59.466h-1.972c-0.14,0-0.253-0.113-0.253-0.252c0-0.141,0.113-0.254,0.253-0.254h1.972
		c0.14,0,0.253,0.113,0.253,0.254C141.781,59.353,141.668,59.466,141.528,59.466"/>
	<path fill="#2f3e9e" d="M141.528,60.398h-1.972c-0.14,0-0.253-0.112-0.253-0.253c0-0.139,0.113-0.253,0.253-0.253h1.972
		c0.14,0,0.253,0.114,0.253,0.253C141.781,60.286,141.668,60.398,141.528,60.398"/>
	<path fill="#2f3e9e" d="M141.528,61.332h-1.972c-0.14,0-0.253-0.113-0.253-0.253c0-0.14,0.113-0.254,0.253-0.254h1.972
		c0.14,0,0.253,0.114,0.253,0.254C141.781,61.219,141.668,61.332,141.528,61.332"/>
	<path fill="#2f3e9e" d="M141.528,62.264h-1.972c-0.14,0-0.253-0.112-0.253-0.252c0-0.14,0.113-0.253,0.253-0.253h1.972
		c0.14,0,0.253,0.113,0.253,0.253C141.781,62.151,141.668,62.264,141.528,62.264"/>
	<path fill="#2f3e9e" d="M141.528,63.197h-1.972c-0.14,0-0.253-0.113-0.253-0.253c0-0.139,0.113-0.253,0.253-0.253h1.972
		c0.14,0,0.253,0.114,0.253,0.253C141.781,63.084,141.668,63.197,141.528,63.197"/>
	<path fill="#2f3e9e" d="M141.528,64.131h-1.972c-0.14,0-0.253-0.113-0.253-0.253c0-0.141,0.113-0.254,0.253-0.254h1.972
		c0.14,0,0.253,0.113,0.253,0.254C141.781,64.018,141.668,64.131,141.528,64.131"/>
	<path fill="#2f3e9e" d="M141.528,65.062h-1.972c-0.14,0-0.253-0.113-0.253-0.252c0-0.14,0.113-0.254,0.253-0.254h1.972
		c0.14,0,0.253,0.114,0.253,0.254C141.781,64.949,141.668,65.062,141.528,65.062"/>
	<path fill="#2f3e9e" d="M141.528,65.996h-1.972c-0.14,0-0.253-0.113-0.253-0.253c0-0.139,0.113-0.253,0.253-0.253h1.972
		c0.14,0,0.253,0.114,0.253,0.253C141.781,65.883,141.668,65.996,141.528,65.996"/>
	<path fill="#2f3e9e" d="M141.528,66.929h-1.972c-0.14,0-0.253-0.112-0.253-0.253c0-0.14,0.113-0.254,0.253-0.254h1.972
		c0.14,0,0.253,0.114,0.253,0.254C141.781,66.816,141.668,66.929,141.528,66.929"/>
	<path fill="#2f3e9e" d="M141.528,67.861h-1.972c-0.14,0-0.253-0.113-0.253-0.252c0-0.14,0.113-0.254,0.253-0.254h1.972
		c0.14,0,0.253,0.114,0.253,0.254C141.781,67.748,141.668,67.861,141.528,67.861"/>
</g>
<polygon fill="#3f51b5" points="18.206,91.925 18.206,63.877 20.004,63.877 20.004,0 120.92,0 120.92,1.32 119.041,1.32 
	119.041,88.413 119.041,91.925 106.984,91.925 106.984,83.608 116.649,83.608 116.649,76.417 105.523,76.417 105.523,59.214 
	116.537,59.214 116.537,27.894 105.636,27.894 105.636,9.847 116.537,9.847 116.537,6.116 22.813,6.116 22.813,76.642 20.79,76.642 
	20.79,91.925 "/>
<rect x="81.024" y="83.722" fill="#3f51b5" width="13.486" height="8.202"/>
<rect x="56.751" y="83.722" fill="#3f51b5" width="13.485" height="8.202"/>
<rect x="32.046" y="83.722" fill="#3f51b5" width="13.486" height="8.202"/>
<polygon fill="#3f51b5" points="105.523,75.798 31.072,75.798 31.072,55.311 108.052,55.311 108.052,59.214 107.714,59.214 
	107.714,55.649 31.409,55.649 31.409,75.463 105.523,75.463 "/>
<rect x="80.613" y="55.482" fill="#3f51b5" width="0.337" height="20.148"/>
<polygon fill="#3f51b5" points="120.044,2.513 127.029,2.513 127.029,13.572 142.305,13.572 142.305,45.322 137.291,45.322 
	135.022,21.976 120.92,17.572 "/>
<polyline fill="#3f51b5" points="119.042,24.893 125.996,27.405 127.481,40.191 119.042,37.552 "/>
<polygon fill="#3f51b5" points="121.262,45.654 130.787,49.284 130.787,58.825 121.262,62.743 "/>
<polygon fill="#3f51b5" points="130.787,65.062 121.262,68.799 121.262,77.643 130.787,73.238 "/>
<polygon fill="#3f51b5" points="142.305,71.853 142.305,85.572 121.262,85.572 133.628,79.572 140.667,85.442 142.206,84.105 
	138.461,75.798 "/>
</svg>
