<?xml version="1.0" encoding="utf-8"?>
<!-- Generator: Adobe Illustrator 18.1.1, SVG Export Plug-In . SVG Version: 6.00 Build 0)  -->
<svg version="1.1" id="Layer_1" xmlns="http://www.w3.org/2000/svg" xmlns:xlink="http://www.w3.org/1999/xlink" x="0px" y="0px"
	 viewBox="2121.1 632.6 612 399.9" enable-background="new 2121.1 632.6 612 399.9" xml:space="preserve">
<g>
	<g>
		<path fill="#00838F" d="M2169.5,632.6h451.1v5.4h61.2c0,0,47.5,219.9,51.3,336.2c0,0,1.7,19.9-15.7,25.3l-107.9,29.8V1013h-46.4
			l-56.7,19.4V1013h-45l-57.1,19.4V1013h-45l-56.3,19.4V1013h-45l-57.9,19.4V1013h-79.1V724h48.8v-91.5H2169.5z"/>
		<path fill="#00ACC1" d="M2203.4,632.6h417.2v5.4h61.2c0,0,47.5,219.9,51.3,336.2c0,0,1.7,19.9-15.7,25.3l-107.9,29.7v-16.2H2563
			l-56.7,19.4v-19.4h-45l-57.1,19.4v-19.4h-45.1l-56.3,19.4v-19.4h-45l-57.9,19.4l-3.7-19.4V897.2h7.5V632.6H2203.4z"/>
		<path fill="#0097A7" d="M2612.7,637.9h69.1c0,0,47.5,219.9,51.3,336.2c0,0,1.7,19.9-15.7,25.3l-107.9,29.8V1013h3.3
			C2612.7,1012.6,2612.7,637.9,2612.7,637.9z"/>
	</g>
	<polygon fill="#00ACC1" points="2612.7,637.9 2682.2,637.9 2690,675.2 2720.2,675.2 2720.2,998.1 2612.7,998.1 	"/>
	<rect x="2652" y="642.9" fill="#0097A7" width="21.1" height="41.3"/>
	<rect x="2683" y="827.8" fill="#0097A7" width="26.1" height="87.6"/>
	<g>
		<path fill="#0097A7" d="M2716,714.8c0-1.2-0.9-2.1-2.1-2.1c-1.2,0-2.1,0.9-2.1,2.1c0,1.2,0.9,2.1,2.1,2.1
			C2715.2,716.9,2716,716.1,2716,714.8"/>
		<path fill="#0097A7" d="M2716,749.5c0-1.2-0.9-2.1-2.1-2.1c-1.2,0-2.1,0.9-2.1,2.1s0.9,2.1,2.1,2.1
			C2715.2,751.7,2716,750.8,2716,749.5"/>
		<path fill="#0097A7" d="M2716,784.2c0-1.2-0.9-2.1-2.1-2.1c-1.2,0-2.1,0.8-2.1,2.1s0.9,2.1,2.1,2.1
			C2715.2,786.4,2716,785.1,2716,784.2"/>
		<path fill="#0097A7" d="M2716,819c0-1.2-0.9-2.1-2.1-2.1c-1.2,0-2.1,0.8-2.1,2.1s0.9,2.1,2.1,2.1
			C2715.2,820.7,2716,819.8,2716,819"/>
		<path fill="#0097A7" d="M2716,853.8c0-1.2-0.9-2.1-2.1-2.1c-1.2,0-2.1,0.8-2.1,2.1s0.9,2.1,2.1,2.1
			C2715.2,855.4,2716,854.5,2716,853.8"/>
		<path fill="#0097A7" d="M2716,888.1c0-1.2-0.9-2.1-2.1-2.1c-1.2,0-2.1,0.9-2.1,2.1s0.9,2.1,2.1,2.1
			C2715.2,890.1,2716,889.3,2716,888.1"/>
		<path fill="#0097A7" d="M2716,922.8c0-1.2-0.9-2.1-2.1-2.1c-1.2,0-2.1,0.8-2.1,2.1s0.9,2.1,2.1,2.1
			C2715.2,924.9,2716,924.1,2716,922.8"/>
		<path fill="#0097A7" d="M2716,957.6c0-1.2-0.9-2.1-2.1-2.1c-1.2,0-2.1,0.8-2.1,2.1c0,1.2,0.9,2.1,2.1,2.1
			C2715.2,959.6,2716,958.8,2716,957.6"/>
		<path fill="#0097A7" d="M2716,992.3c0-1.2-0.9-2.1-2.1-2.1c-1.2,0-2.1,0.9-2.1,2.1s0.9,2.1,2.1,2.1
			C2715.2,993.9,2716,993.1,2716,992.3"/>
		<path fill="#0097A7" d="M2682.2,992.3c0-1.2-0.8-2.1-2.1-2.1c-1.2,0-2.1,0.9-2.1,2.1s0.9,2.1,2.1,2.1
			C2680.9,993.9,2682.2,993.1,2682.2,992.3"/>
		<path fill="#0097A7" d="M2716,680.1c0-1.2-0.9-2.1-2.1-2.1c-1.2,0-2.1,0.9-2.1,2.1c0,1.2,0.9,2.1,2.1,2.1
			C2715.2,682.2,2716,681.4,2716,680.1"/>
		<path fill="#0097A7" d="M2689.3,680.1c0-1.2-0.9-2.1-2.1-2.1c-1.2,0-2.1,0.9-2.1,2.1c0,1.2,0.8,2.1,2.1,2.1
			C2688.4,682.2,2689.3,681.4,2689.3,680.1"/>
		<path fill="#00838F" d="M2694.2,831.9h-8.2c-0.4,0-1.2-0.4-1.2-1.2c0-0.4,0.4-1.2,1.2-1.2h8.2c0.4,0,1.2,0.4,1.2,1.2
			C2695.3,831.5,2694.9,831.9,2694.2,831.9"/>
		<path fill="#00838F" d="M2694.2,836h-8.2c-0.4,0-1.2-0.4-1.2-1.2c0-0.4,0.4-1.2,1.2-1.2h8.2c0.4,0,1.2,0.4,1.2,1.2
			C2695.4,835.1,2694.9,836,2694.2,836"/>
		<path fill="#00838F" d="M2694.2,839.7h-8.2c-0.4,0-1.2-0.4-1.2-1.2c0-0.4,0.4-1.2,1.2-1.2h8.2c0.4,0,1.2,0.4,1.2,1.2
			C2695.3,839.3,2694.9,839.7,2694.2,839.7"/>
		<path fill="#00838F" d="M2694.2,843.4h-8.2c-0.4,0-1.2-0.4-1.2-1.2c0-0.4,0.4-1.2,1.2-1.2h8.2c0.4,0,1.2,0.4,1.2,1.2
			C2695.3,843,2694.9,843.4,2694.2,843.4"/>
		<path fill="#00838F" d="M2694.2,847.6h-8.2c-0.4,0-1.2-0.4-1.2-1.2c0-0.9,0.4-1.2,1.2-1.2h8.2c0.4,0,1.2,0.4,1.2,1.2
			C2695.4,847.2,2694.9,847.6,2694.2,847.6"/>
		<path fill="#00838F" d="M2694.2,851.3h-8.2c-0.4,0-1.2-0.4-1.2-1.2c0-0.4,0.4-1.2,1.2-1.2h8.2c0.4,0,1.2,0.4,1.2,1.2
			C2695.4,850.8,2694.9,851.3,2694.2,851.3"/>
		<path fill="#00838F" d="M2694.2,855h-8.2c-0.4,0-1.2-0.4-1.2-1.2c0-0.4,0.4-1.2,1.2-1.2h8.2c0.4,0,1.2,0.4,1.2,1.2
			S2694.9,855,2694.2,855"/>
		<path fill="#00838F" d="M2694.2,859.1h-8.2c-0.4,0-1.2-0.4-1.2-1.2c0-0.4,0.4-1.2,1.2-1.2h8.2c0.4,0,1.2,0.4,1.2,1.2
			C2695.4,858.3,2694.9,859.1,2694.2,859.1"/>
		<path fill="#00838F" d="M2694.2,862.9h-8.2c-0.4,0-1.2-0.4-1.2-1.2c0-0.4,0.4-1.2,1.2-1.2h8.2c0.4,0,1.2,0.4,1.2,1.2
			C2695.4,862.5,2694.9,862.9,2694.2,862.9"/>
		<path fill="#00838F" d="M2694.2,866.6h-8.2c-0.4,0-1.2-0.4-1.2-1.2c0-0.4,0.4-1.2,1.2-1.2h8.2c0.4,0,1.2,0.4,1.2,1.2
			C2695.3,866.2,2694.9,866.6,2694.2,866.6"/>
		<path fill="#00838F" d="M2694.2,870.7h-8.2c-0.4,0-1.2-0.4-1.2-1.2c0-0.4,0.4-1.2,1.2-1.2h8.2c0.4,0,1.2,0.4,1.2,1.2
			C2695.4,869.9,2694.9,870.7,2694.2,870.7"/>
		<path fill="#00838F" d="M2694.2,874.4h-8.2c-0.4,0-1.2-0.4-1.2-1.2c0-0.4,0.4-1.2,1.2-1.2h8.2c0.4,0,1.2,0.4,1.2,1.2
			C2695.4,874,2694.9,874.4,2694.2,874.4"/>
		<path fill="#00838F" d="M2694.2,878.2h-8.2c-0.4,0-1.2-0.4-1.2-1.2c0-0.4,0.4-1.2,1.2-1.2h8.2c0.4,0,1.2,0.4,1.2,1.2
			C2695.4,877.8,2694.9,878.2,2694.2,878.2"/>
		<path fill="#00838F" d="M2694.2,882.3h-8.2c-0.4,0-1.2-0.4-1.2-1.2c0-0.4,0.4-1.2,1.2-1.2h8.2c0.4,0,1.2,0.4,1.2,1.2
			C2695.4,881.5,2694.9,882.3,2694.2,882.3"/>
		<path fill="#00838F" d="M2694.2,886h-8.2c-0.4,0-1.2-0.4-1.2-1.2c0-0.4,0.4-1.2,1.2-1.2h8.2c0.4,0,1.2,0.4,1.2,1.2
			C2695.3,885.6,2694.9,886,2694.2,886"/>
		<path fill="#00838F" d="M2660.2,647.1h-5.4c-0.4,0-1.2-0.4-1.2-1.2c0-0.4,0.4-1.2,1.2-1.2h5.4c0.4,0,1.2,0.4,1.2,1.2
			C2661.5,646.7,2661.1,647.1,2660.2,647.1"/>
		<path fill="#00838F" d="M2660.2,651.1h-5.4c-0.4,0-1.2-0.4-1.2-1.2c0-0.4,0.4-1.2,1.2-1.2h5.4c0.4,0,1.2,0.4,1.2,1.2
			C2661.5,650.3,2661.1,651.1,2660.2,651.1"/>
		<path fill="#00838F" d="M2660.2,654.8h-5.4c-0.4,0-1.2-0.4-1.2-1.2c0-0.4,0.4-1.2,1.2-1.2h5.4c0.4,0,1.2,0.4,1.2,1.2
			C2661.5,654.4,2661.1,654.8,2660.2,654.8"/>
		<path fill="#00838F" d="M2660.2,658.6h-5.4c-0.4,0-1.2-0.4-1.2-1.2c0-0.4,0.4-1.2,1.2-1.2h5.4c0.4,0,1.2,0.4,1.2,1.2
			C2661.4,658.2,2661.1,658.6,2660.2,658.6"/>
		<path fill="#00838F" d="M2660.2,662.7h-5.4c-0.4,0-1.2-0.4-1.2-1.2c0-0.4,0.4-1.2,1.2-1.2h5.4c0.4,0,1.2,0.4,1.2,1.2
			C2661.5,661.9,2661.1,662.7,2660.2,662.7"/>
		<path fill="#00838F" d="M2660.2,666.5h-5.4c-0.4,0-1.2-0.4-1.2-1.2c0-0.4,0.4-1.2,1.2-1.2h5.4c0.4,0,1.2,0.4,1.2,1.2
			S2661.1,666.5,2660.2,666.5"/>
		<path fill="#00838F" d="M2660.2,670.2h-5.4c-0.4,0-1.2-0.4-1.2-1.2c0-0.4,0.4-1.2,1.2-1.2h5.4c0.4,0,1.2,0.4,1.2,1.2
			C2661.5,669.8,2661.1,670.2,2660.2,670.2"/>
		<path fill="#00838F" d="M2660.2,674.3h-5.4c-0.4,0-1.2-0.4-1.2-1.2c0-0.4,0.4-1.2,1.2-1.2h5.4c0.4,0,1.2,0.4,1.2,1.2
			C2661.5,673.5,2661.1,674.3,2660.2,674.3"/>
		<path fill="#00838F" d="M2660.2,678.1h-5.4c-0.4,0-1.2-0.4-1.2-1.2c0-0.4,0.4-1.2,1.2-1.2h5.4c0.4,0,1.2,0.4,1.2,1.2
			S2661.1,678.1,2660.2,678.1"/>
		<path fill="#00838F" d="M2660.2,681.8h-5.4c-0.4,0-1.2-0.4-1.2-1.2c0-0.4,0.4-1.2,1.2-1.2h5.4c0.4,0,1.2,0.4,1.2,1.2
			C2661.5,681.4,2661.1,681.8,2660.2,681.8"/>
		<path fill="#00838F" d="M2669.8,647.1h-5.4c-0.4,0-1.2-0.4-1.2-1.2c0-0.4,0.4-1.2,1.2-1.2h5.4c0.4,0,1.2,0.4,1.2,1.2
			C2671,646.6,2670.2,647.1,2669.8,647.1"/>
		<path fill="#00838F" d="M2669.8,651.1h-5.4c-0.4,0-1.2-0.4-1.2-1.2c0-0.4,0.4-1.2,1.2-1.2h5.4c0.4,0,1.2,0.4,1.2,1.2
			C2671,650.3,2670.2,651.1,2669.8,651.1"/>
		<path fill="#00838F" d="M2669.8,654.8h-5.4c-0.4,0-1.2-0.4-1.2-1.2c0-0.4,0.4-1.2,1.2-1.2h5.4c0.4,0,1.2,0.4,1.2,1.2
			C2671,654.4,2670.2,654.8,2669.8,654.8"/>
		<path fill="#00838F" d="M2669.8,658.6h-5.4c-0.4,0-1.2-0.4-1.2-1.2c0-0.4,0.4-1.2,1.2-1.2h5.4c0.4,0,1.2,0.4,1.2,1.2
			C2671,658.2,2670.2,658.6,2669.8,658.6"/>
		<path fill="#00838F" d="M2669.8,662.7h-5.4c-0.4,0-1.2-0.4-1.2-1.2c0-0.4,0.4-1.2,1.2-1.2h5.4c0.4,0,1.2,0.4,1.2,1.2
			C2671,661.9,2670.2,662.7,2669.8,662.7"/>
		<path fill="#00838F" d="M2669.8,666.5h-5.4c-0.4,0-1.2-0.4-1.2-1.2c0-0.4,0.4-1.2,1.2-1.2h5.4c0.4,0,1.2,0.4,1.2,1.2
			S2670.2,666.5,2669.8,666.5"/>
		<path fill="#00838F" d="M2669.8,670.2h-5.4c-0.4,0-1.2-0.4-1.2-1.2c0-0.4,0.4-1.2,1.2-1.2h5.4c0.4,0,1.2,0.4,1.2,1.2
			C2671,669.8,2670.2,670.2,2669.8,670.2"/>
		<path fill="#00838F" d="M2669.8,674.3h-5.4c-0.4,0-1.2-0.4-1.2-1.2c0-0.4,0.4-1.2,1.2-1.2h5.4c0.4,0,1.2,0.4,1.2,1.2
			C2671,673.5,2670.2,674.3,2669.8,674.3"/>
		<path fill="#00838F" d="M2669.8,678.1h-5.4c-0.4,0-1.2-0.4-1.2-1.2c0-0.4,0.4-1.2,1.2-1.2h5.4c0.4,0,1.2,0.4,1.2,1.2
			C2671,677.6,2670.2,678.1,2669.8,678.1"/>
		<path fill="#00838F" d="M2669.8,681.8h-5.4c-0.4,0-1.2-0.4-1.2-1.2c0-0.4,0.4-1.2,1.2-1.2h5.4c0.4,0,1.2,0.4,1.2,1.2
			C2670.9,681.4,2670.2,681.8,2669.8,681.8"/>
		<path fill="#00838F" d="M2694.2,889.7h-8.2c-0.4,0-1.2-0.4-1.2-1.2c0-0.4,0.4-1.2,1.2-1.2h8.2c0.4,0,1.2,0.4,1.2,1.2
			C2695.4,889.3,2694.9,889.7,2694.2,889.7"/>
		<path fill="#00838F" d="M2694.2,893.9h-8.2c-0.4,0-1.2-0.4-1.2-1.2c0-0.4,0.4-1.2,1.2-1.2h8.2c0.4,0,1.2,0.4,1.2,1.2
			C2695.4,893.1,2694.9,893.9,2694.2,893.9"/>
		<path fill="#00838F" d="M2694.2,897.7h-8.2c-0.4,0-1.2-0.4-1.2-1.2c0-0.4,0.4-1.2,1.2-1.2h8.2c0.4,0,1.2,0.4,1.2,1.2
			C2695.3,897.3,2694.9,897.7,2694.2,897.7"/>
		<path fill="#00838F" d="M2694.2,901.3h-8.2c-0.4,0-1.2-0.4-1.2-1.2c0-0.4,0.4-1.2,1.2-1.2h8.2c0.4,0,1.2,0.4,1.2,1.2
			C2695.4,900.9,2694.9,901.3,2694.2,901.3"/>
		<path fill="#00838F" d="M2694.2,905.4h-8.2c-0.4,0-1.2-0.4-1.2-1.2c0-0.4,0.4-1.2,1.2-1.2h8.2c0.4,0,1.2,0.4,1.2,1.2
			C2695.4,904.6,2694.9,905.4,2694.2,905.4"/>
		<path fill="#00838F" d="M2694.2,909.1h-8.2c-0.4,0-1.2-0.4-1.2-1.2c0-0.4,0.4-1.2,1.2-1.2h8.2c0.4,0,1.2,0.4,1.2,1.2
			C2695.4,908.7,2694.9,909.1,2694.2,909.1"/>
		<path fill="#00838F" d="M2694.2,912.9h-8.2c-0.4,0-1.2-0.4-1.2-1.2c0-0.4,0.4-1.2,1.2-1.2h8.2c0.4,0,1.2,0.4,1.2,1.2
			C2695.3,912.5,2694.9,912.9,2694.2,912.9"/>
		<path fill="#00838F" d="M2705.7,831.9h-8.2c-0.4,0-1.2-0.4-1.2-1.2c0-0.4,0.4-1.2,1.2-1.2h8.2c0.4,0,1.2,0.4,1.2,1.2
			C2707,831.5,2706.6,831.9,2705.7,831.9"/>
		<path fill="#00838F" d="M2705.7,836h-8.2c-0.4,0-1.2-0.4-1.2-1.2c0-0.4,0.4-1.2,1.2-1.2h8.2c0.4,0,1.2,0.4,1.2,1.2
			C2707,835.1,2706.6,836,2705.7,836"/>
		<path fill="#00838F" d="M2705.7,839.7h-8.2c-0.4,0-1.2-0.4-1.2-1.2c0-0.4,0.4-1.2,1.2-1.2h8.2c0.4,0,1.2,0.4,1.2,1.2
			C2707,839.3,2706.6,839.7,2705.7,839.7"/>
		<path fill="#00838F" d="M2705.7,843.4h-8.2c-0.4,0-1.2-0.4-1.2-1.2c0-0.4,0.4-1.2,1.2-1.2h8.2c0.4,0,1.2,0.4,1.2,1.2
			C2707,843,2706.6,843.4,2705.7,843.4"/>
		<path fill="#00838F" d="M2705.7,847.6h-8.2c-0.4,0-1.2-0.4-1.2-1.2c0-0.9,0.4-1.2,1.2-1.2h8.2c0.4,0,1.2,0.4,1.2,1.2
			C2707,847.2,2706.6,847.6,2705.7,847.6"/>
		<path fill="#00838F" d="M2705.7,851.3h-8.2c-0.4,0-1.2-0.4-1.2-1.2c0-0.4,0.4-1.2,1.2-1.2h8.2c0.4,0,1.2,0.4,1.2,1.2
			C2707,850.8,2706.6,851.3,2705.7,851.3"/>
		<path fill="#00838F" d="M2705.7,855h-8.2c-0.4,0-1.2-0.4-1.2-1.2c0-0.4,0.4-1.2,1.2-1.2h8.2c0.4,0,1.2,0.4,1.2,1.2
			C2707,854.6,2706.6,855,2705.7,855"/>
		<path fill="#00838F" d="M2705.7,859.1h-8.2c-0.4,0-1.2-0.4-1.2-1.2c0-0.4,0.4-1.2,1.2-1.2h8.2c0.4,0,1.2,0.4,1.2,1.2
			C2707,858.3,2706.6,859.1,2705.7,859.1"/>
		<path fill="#00838F" d="M2705.7,862.9h-8.2c-0.4,0-1.2-0.4-1.2-1.2c0-0.4,0.4-1.2,1.2-1.2h8.2c0.4,0,1.2,0.4,1.2,1.2
			C2707,862.5,2706.6,862.9,2705.7,862.9"/>
		<path fill="#00838F" d="M2705.7,866.6h-8.2c-0.4,0-1.2-0.4-1.2-1.2c0-0.4,0.4-1.2,1.2-1.2h8.2c0.4,0,1.2,0.4,1.2,1.2
			C2707,866.2,2706.6,866.6,2705.7,866.6"/>
		<path fill="#00838F" d="M2705.7,870.7h-8.2c-0.4,0-1.2-0.4-1.2-1.2c0-0.4,0.4-1.2,1.2-1.2h8.2c0.4,0,1.2,0.4,1.2,1.2
			C2707,869.9,2706.6,870.7,2705.7,870.7"/>
		<path fill="#00838F" d="M2705.7,874.4h-8.2c-0.4,0-1.2-0.4-1.2-1.2c0-0.4,0.4-1.2,1.2-1.2h8.2c0.4,0,1.2,0.4,1.2,1.2
			C2707,874,2706.6,874.4,2705.7,874.4"/>
		<path fill="#00838F" d="M2705.7,878.2h-8.2c-0.4,0-1.2-0.4-1.2-1.2c0-0.4,0.4-1.2,1.2-1.2h8.2c0.4,0,1.2,0.4,1.2,1.2
			C2707,877.8,2706.6,878.2,2705.7,878.2"/>
		<path fill="#00838F" d="M2705.7,882.3h-8.2c-0.4,0-1.2-0.4-1.2-1.2c0-0.4,0.4-1.2,1.2-1.2h8.2c0.4,0,1.2,0.4,1.2,1.2
			C2707,881.5,2706.6,882.3,2705.7,882.3"/>
		<path fill="#00838F" d="M2705.7,886h-8.2c-0.4,0-1.2-0.4-1.2-1.2c0-0.4,0.4-1.2,1.2-1.2h8.2c0.4,0,1.2,0.4,1.2,1.2
			C2707,885.6,2706.6,886,2705.7,886"/>
		<path fill="#00838F" d="M2705.7,889.7h-8.2c-0.4,0-1.2-0.4-1.2-1.2c0-0.4,0.4-1.2,1.2-1.2h8.2c0.4,0,1.2,0.4,1.2,1.2
			C2707,889.3,2706.6,889.7,2705.7,889.7"/>
		<path fill="#00838F" d="M2705.7,893.9h-8.2c-0.4,0-1.2-0.4-1.2-1.2c0-0.4,0.4-1.2,1.2-1.2h8.2c0.4,0,1.2,0.4,1.2,1.2
			C2707,893.1,2706.6,893.9,2705.7,893.9"/>
		<path fill="#00838F" d="M2705.7,897.7h-8.2c-0.4,0-1.2-0.4-1.2-1.2c0-0.4,0.4-1.2,1.2-1.2h8.2c0.4,0,1.2,0.4,1.2,1.2
			C2707,897.3,2706.6,897.7,2705.7,897.7"/>
		<path fill="#00838F" d="M2705.7,901.3h-8.2c-0.4,0-1.2-0.4-1.2-1.2c0-0.4,0.4-1.2,1.2-1.2h8.2c0.4,0,1.2,0.4,1.2,1.2
			C2707,900.9,2706.6,901.3,2705.7,901.3"/>
		<path fill="#00838F" d="M2705.7,905.4h-8.2c-0.4,0-1.2-0.4-1.2-1.2c0-0.4,0.4-1.2,1.2-1.2h8.2c0.4,0,1.2,0.4,1.2,1.2
			C2707,904.6,2706.6,905.4,2705.7,905.4"/>
		<path fill="#00838F" d="M2705.7,909.1h-8.2c-0.4,0-1.2-0.4-1.2-1.2c0-0.4,0.4-1.2,1.2-1.2h8.2c0.4,0,1.2,0.4,1.2,1.2
			C2707,908.7,2706.6,909.1,2705.7,909.1"/>
		<path fill="#00838F" d="M2705.7,912.9h-8.2c-0.4,0-1.2-0.4-1.2-1.2c0-0.4,0.4-1.2,1.2-1.2h8.2c0.4,0,1.2,0.4,1.2,1.2
			C2707,912.5,2706.6,912.9,2705.7,912.9"/>
	</g>
	<polygon fill="#0097A7" points="2195.9,1012.6 2195.9,896.4 2203.4,896.4 2203.4,632.6 2620.6,632.6 2620.6,637.9 2612.7,637.9 
		2612.7,998.1 2612.7,1012.6 2563.1,1012.6 2563.1,978.3 2602.8,978.3 2602.8,948.4 2556.9,948.4 2556.9,877.3 2602.4,877.3 
		2602.4,747.5 2557.3,747.5 2557.3,673.1 2602.4,673.1 2602.4,657.8 2214.9,657.8 2214.9,949.2 2206.7,949.2 2206.7,1012.6 	"/>
	<rect x="2455.6" y="978.7" fill="#0097A7" width="55.8" height="33.9"/>
	<rect x="2355.5" y="978.7" fill="#0097A7" width="55.8" height="33.9"/>
	<rect x="2253" y="978.7" fill="#0097A7" width="55.8" height="33.9"/>
</g>
<circle fill="#0097A7" cx="2649.2" cy="723.8" r="32.8"/>
<circle fill="#0097A7" cx="2682.9" cy="960.6" r="27.7"/>
<circle fill="#0097A7" cx="2638.3" cy="916.8" r="20"/>
<circle fill="#0097A7" cx="2634" cy="875.4" r="15.6"/>
<circle fill="#0097A7" cx="2597.8" cy="824.9" r="41.1"/>
<path fill="#0097A7" d="M2312.3,995.6c0-10.3,8.7-19,19-19c10.3,0,19,8.7,19,19c0,10.3-8.7,19-19,19
	C2320.6,1014.6,2312.3,1005.9,2312.3,995.6"/>
<path fill="#0097A7" d="M2413.1,995.6c0-10.3,8.7-19,19-19c10.3,0,19,8.7,19,19c0,10.3-8.7,19-19,19
	C2421.9,1014.6,2413.1,1005.9,2413.1,995.6"/>
<path fill="#0097A7" d="M2518,995.6c0-10.3,8.7-19,19-19c10.3,0,19,8.7,19,19c0,10.3-8.7,19-19,19
	C2526.7,1014.6,2518,1005.9,2518,995.6"/>
<path fill="#0097A7" d="M2616.3,975.6c0-10.3,8.7-19,19-19c10.3,0,19,8.7,19,19c0,10.3-8.7,19-19,19
	C2625.1,994.7,2616.3,986,2616.3,975.6"/>
<circle fill="#0097A7" cx="2632.7" cy="664" r="17.8"/>
</svg>
