<?xml version="1.0" encoding="utf-8"?>
<!-- Generator: Adobe Illustrator 17.1.0, SVG Export Plug-In . SVG Version: 6.00 Build 0)  -->
<!DOCTYPE svg PUBLIC "-//W3C//DTD SVG 1.0//EN" "http://www.w3.org/TR/2001/REC-SVG-20010904/DTD/svg10.dtd">
<svg version="1.0" id="Layer_1" xmlns="http://www.w3.org/2000/svg" xmlns:xlink="http://www.w3.org/1999/xlink" x="0px" y="0px"
	 width="519.5px" height="792px" viewBox="50.7 1695 519.5 792" enable-background="new 50.7 1695 519.5 792" xml:space="preserve">
<path fill="#455A64" d="M266.5,2486.1l2.5-1.2l-2.5-4.4h37.9l-13.9-4.3c0,3.6,2.4,6.8,6,7.7c1.7,0.4,3.4,0.7,5.2,0.7l19.6-2.3
	l55.5-5.5l36.8-2.7l27.3-1.9l47.1-1.7l30.2-1.9l3.5-0.5c4.7-0.7,9.5-1.1,14.3-1.2c5.2-0.1,10.4-0.4,15.6-0.7c9.4-0.6,17-7.7,18.3-17
	l-9.4-177.3l-1.3-31.7l1.6-81.7l1-29.2c-2.1-8-7.3-14.5-13.9-18.6v-14l2.7,1.5c2.4,0,4.7-0.1,7.1-0.2c3.4-0.2,6.2-2.7,6.9-6.1
	c1-5.5,1.7-11,1.9-16.6l0.9-26.8l-0.7-60.3l-7.1-94.4l-4.7-51.7l-2.2-74.4c-0.2-2.7-1.9-5-4.4-6l-10.1,0.3v-18.3l0.3,0.1l1.6,0.5
	l1.2,0.3l0.9,0.2l0.7,0.1l0.5,0.1l0.5,0l0.5,0l0.4,0h0.4h0.4h0.4l0.4,0l0.4,0l0.4-0.1l0.4-0.1l0.4-0.1l0.4-0.2l0.4-0.2l0.4-0.2
	l0.4-0.3l0.3-0.3l0.3-0.3l0.3-0.3l0.3-0.4l0.2-0.4l0.2-0.5l0.1-0.5l0.1-0.5l0.1-0.6l0.1-0.7l0-0.7l0-0.8v-0.9v-1v-1.1v-1.2v-1.3
	v-1.5v-1.6v-1.8v-1.8v-1.9v-2v-2v-2v-2v-1.9v-1.8l0-1.8l0-1.7l0-1.6l0-1.4l-0.1-1.3l-0.1-1.1l-0.1-1l-0.1-0.8l-0.1-0.7l-0.2-0.5
	l-0.2-0.5l-0.2-0.4l-0.3-0.3l-0.3-0.3l-0.3-0.3l-0.3-0.3l-0.4-0.3l-0.6-0.2l-0.4-0.3l-0.4-0.3l-0.5-0.3l-0.5-0.3l-0.5-0.3l-0.6-0.3
	l-0.9-0.2l-1.3-0.2l-1.9-0.2l-2.6-0.2l-3.5-0.1l-4.4-0.1l-5.5-0.1l-6.3-0.1h-6.9l-7.1,0l-7.1,0.1l-6.8,0.2l-6.2,0.3l-5.3,0.4
	l-4.2,0.5l-3.3,0.6l-2.6,0.7l-2.2,0.7l-2.1,0.6l-2.1,0.6l-2.5,0.5l-3.1,0.4l-4,0.3l-4.6,0.1l-5.1,0.1l-5.3,0.1l-5.2,0.1l-5,0.3
	l-4.5,0.4l-3.8,0.6l-2.9,0.8l-2.1,1l-1.5,1.2l-0.9,1.3l-0.5,1.3l-0.3,1.3l-0.1,1.3l-0.1,1.1l-0.2,1l-0.3,0.8l-0.3,0.7l-0.4,0.6
	l-0.5,0.6l-0.5,0.5l-0.6,0.5l-0.7,0.5l-0.7,0.5l-0.7,0.6l-0.8,0.6l-0.8,0.6l-0.8,0.6l-0.8,0.6l-0.8,0.7l-0.8,0.7l-0.8,0.7l-0.7,0.7
	l-0.7,0.7l-0.7,0.7l-0.7,0.7l-0.7,0.7l-0.7,0.7l-0.7,0.7l-0.7,0.7l-0.7,0.7l-0.7,0.7l-0.7,0.7l-0.6,0.7l-0.6,0.7l-0.6,0.7l-0.6,0.7
	l-0.5,0.7l-0.5,0.7l-0.5,0.7l-0.5,0.7l-0.5,0.7l-0.5,0.7l-0.5,0.8l-0.5,0.8l-0.5,0.8l-0.5,0.9l-0.5,0.9l-0.5,0.9l-0.5,1l-0.5,1
	l-0.5,1l-0.5,1l-0.5,1l-0.5,1l-0.5,1l-0.2,0.5l-1.4,1.2l-1.4,1l-2.5,0.8l-3.6,0.6l-5.9,0.4l-6.8,0.4l-8,0.4l-38.5,0.4v-3.9h-8.1
	l-25.5-37.9l-2.1-3.3l-2.7-2.1l-5-0.5l-7.2,0.3l-17.2-0.6l-17.7-1.8l-33.4-0.3l-60.4-0.3l-52.9,0.3l-14.4,0.2
	c-9.2,0.1-16.5,7.6-16.5,16.8v341l0.3,0.2l3,3.6l2.4,10.5l6.6,15.9l12.6,32.5l14.4,34.3l11.4,29.2l8.7,28.3l8.4,36.7l14.2,48.2
	l8.1,26.2l3,17.4v19.5l-1.8,17.2l0.6,15.9l9.6,20.8l19.2,26.2l18.3,24.1l8.1,6l16.5,5.4l10.5,1.8l11.4,1.2l14.1,1.2l11.4,1.5
	L266.5,2486.1z M52.8,1866.8l4-9.1l1.7-4.3v15.5L52.8,1866.8z"/>
<path fill="#37474F" d="M135.4,2004.4l-1.5-6c-0.1-1.6,0.9-3.1,2.4-3.7l22.7-4.7c-11.3-49.7,7.7-118.3,94.7-130.2
	c0.2-2.9-1.6-13.6-1.6-13.6l-1,0.2l-0.7-4.2l-2.6,0.5l-0.8-4.6l6.3-1.3l-10-47c-20.8-3.1-42-2.3-62.5,2.5c-10,2.3-19.8,5.5-29.3,9.4
	c-8.5,3.5-16.7,7.6-24.7,12.4c-19.5,11.4-35.4,28-45.9,48c-9.7,22.8-13.5,47.6-11.2,72.2c0.5,24.4,6.3,48.5,17,70.5l4.3-2.1l4.6,8.6
	L135.4,2004.4z"/>
<g>
	<g id="LWPOLYLINE_58_">
		<path fill="#37474F" d="M197.1,2003.5c-7.5-1.8-15.1-2.9-22.7-3.3l4.8,13.5l2.9,2.9L197.1,2003.5z"/>
	</g>
	<path fill="#37474F" d="M266.5,2486.1l2.5-1.2l-4.6-24.3c-0.5-2.8-1-5.6-1.5-8.4c-1.3-7.8-1.7-15.8-1.2-23.7
		c0.5-7.3,0.8-14.6,0.8-21.9c0-9.1-0.8-18.1-2.6-27c-0.1-0.6-0.4-1.1-0.8-1.6l-3.7-8.3l-5.6-16.2l-5.8-21.8l-13.1-46.4l-18.5-65.8
		l-19-68c-0.5-2-1-4.1-1.1-6.1l-0.8-1.3l-1.2-1.7l-1.6-2.4l-2.2-1.4l-4.9-3.1l1.1-4.4l-2.1-6.9l-4.2-1.8l1.2-3.1l-12.2-6.1l-1.3-0.6
		l-4.1,5.5l-29.7-23.2l2.6-3.9l-18.2-14.6l-11.2-14.3l-12-27.5l-4.4-21.6c-13.8-24.7-21.2-52.4-21.8-80.7c-1.8-18.8,0-37.7,5.1-55.9
		l0.2-0.2c1.8-6.2,3.9-12.2,6.4-18.1c10.8-20.5,27-37.5,47-49.1c8.1-4.8,16.5-9.1,25.2-12.7c9.7-4,19.8-7.3,30-9.7
		c18.2-4.3,37-5.5,55.6-3.6c7.8-11.2,20.1-18.3,33.6-19.6c13.6-1.3,27.3,1.9,39,9.2l15.6,9.8l10.2,7.4l9.8-0.1v-21.6H379l0,2
		l-0.1,4.3l0,5.1l0,5.7v6.1v6.2l0,6.2l0.1,5.8l0.1,5.3l0.2,4.5l0.2,3.6l0.3,2.7l0.3,1.9l0.4,1.3l0.4,0.7l0.5,0.3h0.5l0.5-0.2
		l0.5-0.2l0.6-0.3l0.6-0.3l0.6-0.3l0.5-0.3l0.5-0.3l0.5-0.3l0.4-0.3l0.3-0.2l0.3-0.2l0.2-0.3l0.1-0.4l0.1-0.5l0-0.8v-1v-1.3v-1.7
		v-2.1v-2.4v-2.8v-3.1v-3.5v-3.8v-4.2l0-4.4l0.1-4.7l0.3-5l0.5-5.2l0.8-5.4l1.1-5.5l1.5-5.6l2-5.7l2.5-5.7l3.1-5.5l3.5-5.4l4-5.1
		l4.4-4.7l4.8-4.4l5.2-3.6l5.6-3l5.9-2.2l6.2-1.6l6.2-1l6.2-0.4l6.2,0l5.9,0.4l5.6,0.7l5.2,0.9l4.6,1l4.2,1.2l3.8,1.3l3.6,1.4
		l3.4,1.5l3.4,1.6l3.4,1.7l3.6,1.8l3.9,1.8l4,1.8l4.1,1.8l4.1,1.8l3.9,1.7l3.7,1.6l3.4,1.4l2.9,1.2l2.4,0.9l2,0.7l1.6,0.5l1.2,0.3
		l0.9,0.2l0.7,0.1l0.5,0.1l0.5,0l0.5,0l0.4,0h0.4h0.4h0.4l0.4,0l0.4,0l0.4-0.1l0.4-0.1l0.4-0.1l0.4-0.2l0.4-0.2l0.4-0.2l0.4-0.3
		l0.3-0.3l0.3-0.3l0.3-0.3l0.3-0.4l0.2-0.4l0.2-0.5l0.1-0.5l0.1-0.5l0.1-0.6l0.1-0.7l0-0.7l0-0.8v-0.9v-1v-1.1v-1.2v-1.3v-1.5v-1.6
		v-1.8v-1.8v-1.9v-2v-2v-2v-2v-1.9v-1.8l0-1.8l0-1.7l0-1.6l0-1.4l-0.1-1.3l-0.1-1.1l-0.1-1l-0.1-0.8l-0.1-0.7l-0.2-0.5l-0.2-0.5
		l-0.2-0.4l-0.3-0.3l-0.3-0.3l-0.3-0.3l-0.3-0.3l-0.4-0.3l-0.7-0.2l-0.4-0.3l-0.4-0.3l-0.5-0.3l-0.5-0.3l-0.5-0.3l-0.6-0.3l-0.9-0.2
		l-1.3-0.2l-1.9-0.2l-2.6-0.2l-3.5-0.1l-4.4-0.1l-5.5-0.1l-6.3-0.1h-6.9l-7.1,0l-7.1,0.1l-6.8,0.2l-6.2,0.3l-5.3,0.4l-4.2,0.5
		l-3.3,0.6l-2.6,0.7l-2.2,0.7l-2.1,0.6l-2.1,0.6l-2.5,0.5l-3.1,0.4l-4,0.3l-4.6,0.1l-5.1,0.1l-5.3,0.1l-5.2,0.1l-5,0.3l-4.5,0.4
		l-3.8,0.6l-2.9,0.8l-2.1,1l-1.5,1.2l-0.9,1.3l-0.5,1.3l-0.3,1.3l-0.1,1.3l-0.1,1.1l-0.2,1l-0.3,0.8l-0.3,0.7l-0.4,0.6l-0.5,0.6
		l-0.5,0.5l-0.6,0.5l-0.7,0.5l-0.7,0.5l-0.7,0.6l-0.8,0.6l-0.8,0.6l-0.8,0.6l-0.8,0.6l-0.8,0.7l-0.8,0.7l-0.8,0.7l-0.7,0.7l-0.7,0.7
		l-0.7,0.7l-0.7,0.7l-0.7,0.7l-0.7,0.7l-0.7,0.7l-0.7,0.7l-0.7,0.7l-0.7,0.7l-0.7,0.7l-0.6,0.7l-0.6,0.7l-0.6,0.7l-0.6,0.7l-0.5,0.7
		l-0.5,0.7l-0.5,0.7l-0.5,0.7l-0.5,0.7l-0.5,0.7l-0.5,0.8l-0.5,0.8l-0.5,0.8l-0.5,0.9l-0.5,0.9l-0.5,0.9l-0.5,1l-0.5,1l-0.5,1
		l-0.5,1l-0.5,1l-0.5,1l-0.5,1l-0.2,0.5l-1.4,1.2l-1.4,1l-2.5,0.8l-3.6,0.6l-5.9,0.4l-6.8,0.4l-8,0.4l-38.5,0.4v-3.9h-8.1
		l-25.5-37.9l-2.1-3.3l-2.7-2.1l-5-0.5l-7.2,0.3l-17.2-0.6l-17.7-1.8l-33.4-0.3l-60.4-0.3l-52.9,0.3l-18.5,0.3
		c-6.9,0.1-12.4,5.7-12.4,12.6v345.1l0.3,0.2l3,3.6l2.4,10.5l6.6,15.9l12.6,32.5l14.4,34.3l11.4,29.2l8.7,28.3l8.4,36.7l14.2,48.2
		l8.1,26.2l3,17.4v19.5l-1.8,17.2l0.6,15.9l9.6,20.8l19.2,26.2l18.3,24.1l8.1,6l16.5,5.4l10.5,1.8l11.4,1.2l14.1,1.2l11.4,1.5
		L266.5,2486.1z"/>
	<path fill="#37474F" d="M388.8,1904.7v-27.5l-0.5-20.7c0-0.2-0.2-0.3-0.4-0.3c-0.1,0-0.2,0-0.2,0.1l-19.4,15.3l-27.3,24.1
		c0.4,0.4,0.7,0.9,1.1,1.3l6.2,9.5l2.5,4.2l4.5,4.9l4.8,3.3l6.6,3.9l7,3.3l6.2,1.6l5.7,0.3l3.7-0.2l1.8-0.3
		C389.7,1920.1,388.8,1912.3,388.8,1904.7z"/>
	<path fill="#37474F" d="M422.1,2095.5l3.1,2.3l5.1,3.1l6.5,3l9.9,4.6l11.6,4.9l32.2,14.9l5.6,2.3l0.7,0.4l8.9,4.5
		c1.8,0.9,3.1,2.6,3.5,4.6l0.3,26l0.5,30.5l0.4,30.3l0.4,20.3l0.3,9.6c0,0.8-0.2,1.7-0.6,2.4l-5.4,0.4c-0.5,0-0.8,0.4-0.8,0.9
		l2.9,26.3l2.7,22.5l2.1,19.8l1.7,16.1l1.6,14.6l2.6,20.5l4.3,35.4l1.5,14c0,0.1,0,0.3,0,0.4c0,1.5-1.3,2.7-2.8,2.7l-33.4,1.3
		l-42.2,1.6l-19.3,0.7c-6.5,0.3-13,0.7-19.5,1.3l-25.7,3.7l-25.1,2.7l-35.1,4.7c-0.9,0.1-1.8-0.5-2.1-1.3l-1-18.2l-8.9-67.9
		l-3.5-31.7l-5.2-44.9c-0.1-0.9-0.4-1.7-0.9-2.4c-0.7-1-1.7-1.6-2.8-1.8c-1.9-0.3-3.8-0.4-5.7-0.5l-3.9,1.7l-5.4,4.5l-1.8,2
		c-3.3,3.7-4.7,8.7-3.7,13.5l5.2,28.9l2.9,20.4l2.9,29.7l2.2,25.2l1,18c0.8,13.7,1,27.4,0.8,41.1l0,10.9c0,3.6,2.5,6.8,6,7.7
		c1.7,0.4,3.4,0.7,5.2,0.7l19.6-2.3l55.5-5.5l36.8-2.7l27.3-1.9l47.1-1.7l30.2-1.9l3.5-0.5c4.6-0.7,9.3-1.1,14-1.2
		c5.3-0.1,10.7-0.4,15.9-0.7c9.4-0.6,17-7.7,18.3-17l-9.5-177.3l-1.3-31.7l1.6-81.7l1-29.2c-4-14.8-18-24.6-33.3-23.2l-52.9-3.2
		c-13.4-0.8-26.3-4.9-37.7-11.9l-10.4-6.2c-2.9-1.7-6.7-0.8-8.4,2.1c-1.7,2.9-0.8,6.7,2.1,8.4
		C421.6,2095.4,421.9,2095.5,422.1,2095.5z"/>
	<path fill="#37474F" d="M412.8,2106.5l0.1,11.6l0.5,35.9v24.3l1.2,53.5l0.1,26.3c0,1-0.4,2-1,2.8l-6,0l-21.9,0.9
		c-0.1,0-0.2,0-0.3,0c-0.9-0.1-1.6-0.9-1.4-1.8c0.1-0.9,0.9-1.6,1.8-1.4h6v-14.3l-1.2-60.2l-1.1-71.2l-5.9-0.3
		c-0.6,0-1.1-0.5-1.2-1.1c-0.1-0.6,0.1-1.3,0.5-1.8l15.5-8.6c0.5-0.3,1-0.4,1.6-0.3l3.1,1.8c2,1.2,4.1,2,6.3,2.5l2.1,0.3
		C412.1,2105.6,412.6,2106,412.8,2106.5z"/>
	<path fill="#37474F" d="M261.1,2114l1.8-0.1l4.5-0.3c0.1,0,0.1,0,0.2,0c0.5,0.1,0.9,0.6,0.8,1.2c-0.1,0.5-0.6,0.9-1.2,0.8l-4.4,1
		c-0.5,0.1-0.8,0.5-0.8,1.1v2.6l-0.6,4v14l0.7,22.7l-0.1,24.6h1.4v2l0.7,49.6v26.4l5.2,0.1c1.2,0.4,2,1.5,2.1,2.7
		c0,1.6-1.2,3-2.9,3.1c-0.8-0.2-1.6-0.4-2.3-0.7c-2.6-0.8-4.9-2.7-6.1-5.2c-0.4-0.8-0.7-1.8-0.7-2.7l-4.1-19.1l-1.7-7.3
		c-1.8-7.7-4.4-15.2-8-22.3c-2.8-5.6-5.7-11.2-8.6-16.9c-3.1-5.9-6-11.8-8.9-17.9c-5.1-10.7-5.6-23-1.4-34.1
		c2.3-7.8,7-14.7,13.3-19.8C245.8,2118.4,253.2,2114.9,261.1,2114z"/>
	<path fill="#37474F" d="M411.5,2273l-21.8,0.8c-1,0-1.9,0.9-1.8,2c0,1,0.8,1.8,1.8,1.8l6.8-0.7l8.5,72.5l1,9.3l5.1,45.8l1.9,14.3
		c0.1,1-0.1,2-0.7,2.7l-5.5,0.5h-0.8l0.8,7.2l23.3-2.7c1.1-0.1,1.9-1.1,1.8-2.3c0-0.1,0-0.2,0-0.3l-9.6-79l-5.7-49.4l-2.1-19.8
		C414.3,2274.3,413.1,2273.1,411.5,2273z"/>
	<path fill="#37474F" d="M493.6,2094.3l-15.1-1.3c-5.4-0.5-10.8-1.5-16-3.1c-9.1-2.7-17.9-6.6-26.1-11.6c-1.9-1.2-3.5-2.8-4.7-4.7
		c-0.7-1-0.8-2.3-0.3-3.5c1.1-2.7,3.8-4.4,6.7-4.4c1.8,0,3.6,0.8,5,1.9c2.1,1.8,4.4,3.2,6.8,4.4c3,1.4,6.1,2.6,9.4,3.4
		c4.7,1.2,9.5,1.6,14.3,1.4c7-0.4,13.9-2.1,20.3-4.9c6.1-2.8,12.5-5.1,18.9-7.1c1.3-0.4,2.1-1.7,1.9-3.1l-0.3-29.5l-0.2-22
		l-0.5-24.1l-0.5-26.4l-0.1-27.5l-0.7-48.2l-0.7-51.4l-0.7-43.2c0-3.1-1.3-6-3.4-8.3l-17.7-10.5l-37.6-24.2
		c-3.3-2.1-7.3-2.9-11.2-2.1c-4.4,0.9-8.6,2.2-12.8,3.9c-1.1,0.5-2.2,1-3.1,1.8c-2.6,2-5,4.2-7.1,6.8c-2.6,3.2-4.8,6.7-6.5,10.5
		c-1.2,2.6-2,5.2-2.5,8c-0.7,4.1-1,8.2-1,12.3l-1,31.5l-0.1,66.8l-0.5,40.8c0,1.1-0.9,2-2,2.1c-1.1,0-2.1-0.8-2.2-2l-1.5-17.6
		l-0.3-21.4l-0.2-32.7l-0.4-29l-0.4-27l-0.2-12.8c-0.2-10.2,1.8-20.3,5.8-29.6c4.9-11.5,14.4-20.4,26.3-24.4
		c14-4.8,29.2-5.1,43.4-0.8l27.5,11.2l46.3,18.5c2.5,1,4.2,3.3,4.4,6l2.2,74.4l4.7,51.7l7.1,94.4l0.6,60.3l-1,26.8
		c-0.2,5.6-0.8,11.1-1.9,16.6c-0.6,3.4-3.5,5.8-6.9,6.1c-2.3,0.2-4.7,0.2-7.1,0.2L493.6,2094.3z"/>
	<path fill="#37474F" d="M198,2128.2l1.7,0.7c1.3,0.9,2.4,2.1,3.1,3.6l8.5,17.4c0.5,0.8,0.9,1.7,0.9,2.7l0,2.1
		c-0.4,5.5,0,11,1.2,16.4l11.3,28.5l6.3,12.7c9.5,19.2,15.8,39.8,18.8,61l10.2,48.1c2.6,12.4,4.4,25,5.2,37.6l3.5,38.2l2.1,29.4
		c1.2,17.4,1.5,34.8,0.8,52.2c0,1.3-0.1,2.6-0.5,3.9l-4.3-22.6c-0.5-2.8-1-5.7-1.5-8.5c-1.3-7.6-1.6-15.3-1.1-22.9
		c0.5-7.4,0.8-14.7,0.8-22.1c0-9.2-0.8-18.5-2.7-27.5c-0.2-0.8-0.5-1.7-1-2.4l-3.5-7.9l-5.5-16l-5.7-21.7l-13.1-46.4l-18.5-65.8
		l-19-68c-1.3-4.7-1.6-9.7-0.7-14.6C195.7,2133.5,196.7,2130.7,198,2128.2z"/>
	<path fill="#37474F" d="M366.7,1859l21.2-17.9c0.1-0.1,0.1-0.2,0.1-0.3l-0.1-6.2c0-0.2-0.2-0.3-0.4-0.3c0,0-0.1,0-0.2,0l-53.5,31.6
		l-7.9,3.6l-1.7,2.7l1.6,7.4c2.4,2.4,5,4.8,7.6,7.1L366.7,1859z"/>
	<path fill="#37474F" d="M301.1,1776.4l-8-3.4l-9.8-2.6l-9.1-0.9l-9.1,0.9l-6.3,2.1l-5.4,3.1l-3.1,2.7l-3.1,3.3l-1.8,3l59.9,7
		c1.8,0.3,3.1,2,2.9,3.8l-1.7,15.8l4.2,2.5l4.8,2.9c-2-1.2-3.2-3.3-3.2-5.6l1.3-17.5c0-0.3,0-0.5,0.1-0.8c0.7-3.4,4.1-5.6,7.5-4.9
		l-10.6-6.2L301.1,1776.4z"/>
	<path fill="#37474F" d="M442.6,2050.1l1.6-2.4c0.7-1.1,1.1-2.3,1.2-3.6c0.3-5.1,0.4-10.1,0.1-15.2c-0.1-2.6-0.5-5.3-1-7.9v-21.5
		h-5.4l-3.4-53.5h5.9c0.7,0,1.3-0.5,1.3-1.3v-1.9c0-0.7-0.5-1.3-1.3-1.3l-28,0c-1.4,0.3-2.3,1.7-2,3.1v0l12.5,31.5l10.2,26.2
		c0,0,0,0.1,0,0.1c0,0.6,0.2,1.2,0.5,1.7l0.7,1.8c2.1,5.5,3.4,11.2,3.9,17.1c0.6,7.9,0.2,15.9-1.3,23.7c-0.3,1.7,0.8,3.3,2.5,3.6
		C441.4,2050.5,442,2050.4,442.6,2050.1z"/>
	<g id="LWPOLYLINE_57_">
		<path fill="#37474F" d="M202,2013l15.2,20.1l-12.5,21.6l-12.3,19c-1.3,2-3.5,3.2-5.9,3.3c-1.6,0-3.1-0.3-4.5-0.9l-5.2-4.3l1.8-3.1
			l-1.1-0.8c-4.4-3.4-7.6-8.2-9.1-13.6c-0.5-1.7-0.5-3.5,0-5.2L188,2024L202,2013z"/>
	</g>
	<g id="LWPOLYLINE_56_">
		<path fill="#37474F" d="M295.7,1859.2l12.6-20.1l5.6,3.8l3.3-4.9l20.9,13.9l-3.2,3.1l-12.4,6.9l-13.4,8.5l-13.2-8.5
			c-0.1-0.1-0.3-0.2-0.4-0.3C294.9,1860.8,295,1859.8,295.7,1859.2"/>
	</g>
	<g id="LWPOLYLINE_55_">
		<path fill="#37474F" d="M257.7,2073.3l0.3,18v4.7c-1,0.2-2.1,0.4-3.1,0.6c-4.3,1-8.6,2-12.9,3c-12.9,3.1-24.9,9.2-34.9,17.9
			l-12.4-25.3c-1.4-2.8-1.2-6.2,0.5-8.8l26.5-44.8c0-0.1,0.1-0.2,0.2-0.3c0.7-0.8,1.8-0.9,2.6-0.3l1,0.8c8.3,7,18,12.3,28.5,15.3
			c2.1,0.6,3.6,2.6,3.5,4.8L257.7,2073.3L257.7,2073.3z"/>
	</g>
	<path fill="#37474F" d="M265.2,2047.1c5.2-0.8,10.2-2.2,15-4c6.6-2.5,13-5.4,19.3-8.5l19.8-16.1l2.2-3l10.4-16.8l0.1-0.3
		c4-7.6,5.9-17.7,7.3-26.8l4-24.8l1.1-15.2c0.2-2.1-0.4-4.1-1.6-5.9l-9-14.8l-4.2-5.2l-4.4,3.9l-2.1,2.3c-1.8,2.1-3,4.7-3.2,7.4
		l-0.5,2.5l-0.8,2.9l-0.6,3.4l-1,3.1l-0.8,2.6l-0.3,5.2l0.4,20.5c1.5,8.3,0.4,16.8-3.1,24.5l-1.4,3.7l0,0l-0.6,0.9
		c-11.9,18.3-31.3,30.3-53,32.7l-3.6,0.3l-42.3-29.5l-3.1,0.2l1,4.1l1.2,4.1l1.3,4.2l1.7,3.8l0.1,0.2l1.7,4.4
		c2.3,6,5.6,11.5,9.8,16.4c3.1,3.6,6.8,6.8,10.8,9.3c4.3,2.7,8.6,5.2,13.1,7.6c1.9,1,4.1,1.5,6.2,1.5
		C258.9,2047.8,262.1,2047.6,265.2,2047.1z"/>
	<path fill="#37474F" d="M322.7,1897.5l-1.2-1.5l-16.2-14.4l-11.1,1.8l-18.4-13.8c-1-0.7-2.2-0.8-3.3-0.2l-6.3,6.7
		c3.1,5.7,9.6,15.3,13.4,20.6c2.1,2.7,4.2,5.3,6.4,7.9c5.2,4.7,10.7,9,16.6,12.9L322.7,1897.5z"/>
</g>
<g id="LWPOLYLINE_54_">
	<path fill="#2A8EA2" d="M209.3,1878.6"/>
</g>
<path fill="#26C6DA" d="M195.8,1965.4c0-35.3,27.2-64.2,61.8-66.9l-2.8-26.7c-48.1,4.1-85.9,44.4-85.9,93.6c0,9.3,1.3,18.3,3.9,26.8
	l25.9-7C196.9,1979,195.8,1972.3,195.8,1965.4z"/>
<path fill="#26C6DA" d="M261.1,1934.8l-2.3-25.3c-29,2.1-51.9,26.4-51.9,56c0,5.9,0.9,11.6,2.6,17l22.4-6.4L261.1,1934.8z"/>
<g id="LWPOLYLINE_52_">
	<polygon fill="#607D8B" points="310.6,2036.6 324.6,2046.1 333.9,2032.6 337.2,2034.8 339.5,2033.2 357.7,2035.3 362.1,2029.1 
		353.1,2011.7 354.3,2010 350.5,2007.3 360,1993.8 346,1984.4 	"/>
</g>
<polygon fill="#607D8B" points="282,2009.8 313.2,1964.8 273.7,1936.5 287.6,1916.6 279.4,1909.8 267.5,1910.9 268.6,1925.1 
	271.3,1926.9 246.9,1960.6 230,1984 228,1982.6 218.5,1984.3 219.2,1993.1 234.8,2004.4 247.4,1986.1 "/>
<polygon fill="#FFFFFF" fill-opacity="0.35" stroke="#FFFFFF" stroke-miterlimit="10" points="251.1,1851.6 250.9,1853.7 
	250.8,1856 250.6,1858.3 250.4,1860.8 250.2,1863.2 249.9,1865.7 249.6,1868.2 249.3,1870.7 249,1873.1 248.7,1875.6 248.3,1878 
	247.9,1880.4 247.5,1882.8 247,1885.1 246.5,1887.4 245.9,1889.7 245.4,1892 244.7,1894.4 244.1,1896.6 243.4,1898.8 242.6,1901.1 
	241.9,1903.3 241.1,1905.5 240.2,1907.6 239.4,1909.8 238.5,1911.9 237.6,1913.9 236.7,1916 235.7,1918 234.8,1919.8 233.9,1921.7 
	232.9,1923.5 232.1,1925.1 231.2,1926.7 230.3,1928.2 229.5,1929.7 228.6,1931 227.8,1932.4 227,1933.7 226.2,1935 225.4,1936.2 
	224.6,1937.4 223.8,1938.7 223,1939.8 222.2,1941.1 221.4,1942.2 220.5,1943.4 219.7,1944.5 218.8,1945.7 217.9,1946.9 
	216.9,1948.1 216,1949.4 215,1950.5 214,1951.8 213,1953 212,1954.2 211,1955.4 210,1956.6 208.9,1957.8 207.8,1959 206.7,1960.2 
	205.5,1961.4 204.3,1962.6 203.1,1963.8 201.8,1965.1 200.4,1966.3 199,1967.5 197.5,1968.7 196,1970 194.4,1971.3 192.8,1972.5 
	191.1,1973.8 189.4,1975 187.6,1976.3 185.8,1977.6 184,1978.8 182.1,1980.1 180.2,1981.3 178.4,1982.5 176.5,1983.7 174.7,1984.8 
	172.9,1985.9 171.2,1986.9 169.4,1988 167.7,1989 165.9,1990 164.3,1990.9 162.6,1991.8 160.9,1992.7 159.3,1993.5 157.6,1994.4 
	156.1,1995.2 154.5,1995.9 153,1996.6 151.6,1997.3 150.2,1997.8 148.8,1998.4 147.6,1998.9 146.5,1999.4 145.5,1999.7 144.8,2000 
	144.3,2000.3 144.1,2000.5 144.3,2000.7 144.8,2000.7 145.6,2000.8 146.6,2000.8 148,2000.7 149.5,2000.7 151.2,2000.6 153,2000.5 
	154.9,2000.4 156.8,2000.3 158.7,2000.3 160.7,2000.2 162.7,2000.2 164.7,2000.2 166.7,2000.2 168.6,2000.2 170.6,2000.3 
	172.6,2000.4 174.5,2000.5 176.4,2000.7 178.3,2000.9 180.2,2001.1 182,2001.3 183.9,2001.6 185.7,2001.8 187.5,2002 189.3,2002.3 
	191.1,2002.6 192.9,2003 194.7,2003.3 196.4,2003.7 198.2,2004.1 200,2004.5 201.8,2004.9 203.7,2005.4 205.5,2006 207.3,2006.6 
	209.2,2007.2 211,2007.9 212.8,2008.6 214.6,2009.3 216.4,2010.1 218.1,2010.9 219.9,2011.9 221.5,2012.8 223.2,2013.7 
	224.8,2014.6 226.4,2015.5 227.8,2016.5 229.3,2017.4 230.6,2018.4 231.9,2019.3 233.2,2020.3 234.4,2021.3 235.7,2022.2 
	236.9,2023.3 238.1,2024.3 239.4,2025.5 240.6,2026.6 241.9,2027.8 243.2,2028.9 244.4,2030.1 245.7,2031.2 246.9,2032.4 
	248.1,2033.4 249.2,2034.5 250.4,2035.5 251.4,2036.4 252.4,2037.3 253.5,2038.2 254.5,2039 255.4,2039.8 256.3,2040.6 
	257.1,2041.3 258,2042 258.7,2042.6 259.4,2043.1 260,2043.5 260.5,2043.8 260.8,2044 261,2044 261.1,2043.8 261.1,2043.6 
	261,2043.1 260.7,2042.5 260.5,2041.9 260.1,2041.2 259.8,2040.4 259.5,2039.5 259.2,2038.7 258.9,2037.8 258.7,2036.9 258.5,2036 
	258.3,2035 258.2,2033.9 258,2032.7 257.9,2031.5 257.9,2030.1 257.8,2028.7 257.8,2027.3 257.8,2025.8 257.9,2024.2 257.9,2022.6 
	258,2021 258.1,2019.4 258.3,2017.8 258.4,2016.3 258.7,2014.6 258.9,2013.1 259.2,2011.5 259.5,2010 259.8,2008.3 260.2,2006.8 
	260.7,2005.2 261.2,2003.6 261.8,2002 262.3,2000.4 263,1998.8 263.7,1997.2 264.4,1995.5 265.2,1993.9 266,1992.2 266.9,1990.5 
	267.8,1988.8 268.7,1987.1 269.7,1985.4 270.7,1983.8 271.7,1982.1 272.7,1980.4 273.8,1978.7 274.9,1977.1 275.9,1975.5 
	277,1973.9 278.1,1972.4 279.2,1970.9 280.2,1969.4 281.2,1968 282.2,1966.7 283.1,1965.4 284,1964.3 284.9,1963 285.8,1961.9 
	286.7,1960.8 287.6,1959.7 288.5,1958.7 289.4,1957.8 290.3,1956.7 291.2,1955.8 292.1,1954.9 293,1954 294,1953.1 295,1952.2 
	296,1951.4 297.1,1950.6 298.1,1949.9 299.2,1949 300.4,1948.3 301.6,1947.6 302.7,1946.9 304,1946.1 305.2,1945.4 306.5,1944.7 
	307.8,1944 309.2,1943.3 310.5,1942.6 311.9,1941.9 313.2,1941.2 314.5,1940.6 315.8,1939.9 317.1,1939.3 318.3,1938.7 
	319.5,1938.1 320.7,1937.5 321.9,1937 323,1936.6 324.2,1936.1 325.3,1935.7 326.5,1935.2 327.6,1934.9 328.7,1934.6 329.8,1934.3 
	330.9,1934 331.9,1933.7 332.9,1933.5 333.9,1933.3 334.8,1933 335.7,1932.8 336.6,1932.6 337.4,1932.4 338.2,1932.3 338.9,1932.1 
	339.6,1932 340.2,1931.8 340.8,1931.7 341.4,1931.5 341.9,1931.5 342.1,1931.3 342.3,1931.3 342.3,1931.2 342.1,1931.1 
	341.7,1931.1 341,1931 340,1931 339,1930.9 337.7,1930.8 336.4,1930.8 335.1,1930.7 333.7,1930.6 332.4,1930.5 331.2,1930.4 
	330,1930.3 328.9,1930.1 327.8,1929.9 326.8,1929.7 325.7,1929.5 324.7,1929.2 323.6,1928.8 322.4,1928.5 321.3,1928.1 
	320.1,1927.6 318.9,1927.1 317.7,1926.5 316.5,1926 315.3,1925.5 314.1,1924.8 313,1924.3 311.8,1923.6 310.7,1923 309.5,1922.4 
	308.4,1921.7 307.2,1921.1 306,1920.3 304.8,1919.5 303.5,1918.7 302.2,1917.8 300.8,1916.9 299.4,1916 298,1915 296.5,1913.9 
	295.1,1912.8 293.5,1911.5 292,1910.3 290.4,1909 288.9,1907.6 287.4,1906.3 285.9,1904.8 284.4,1903.5 283.1,1902.1 281.7,1900.8 
	280.5,1899.5 279.4,1898.2 278.3,1897 277.3,1895.8 276.3,1894.6 275.3,1893.4 274.4,1892.1 273.5,1890.9 272.6,1889.5 
	271.7,1888.2 270.8,1886.8 269.9,1885.5 269,1884.1 268.1,1882.7 267.3,1881.2 266.5,1879.8 265.7,1878.4 264.9,1876.9 
	264.1,1875.6 263.4,1874.2 262.7,1872.9 262,1871.6 261.4,1870.3 260.8,1869.1 260.3,1868 259.8,1866.9 259.4,1865.8 258.9,1864.7 
	258.5,1863.7 258.1,1862.7 257.7,1861.6 257.3,1860.6 256.9,1859.4 256.5,1858.2 256.1,1857 255.6,1855.7 255.2,1854.4 254.8,1853 
	254.4,1851.6 254,1850.2 253.7,1848.7 253.3,1847.1 253,1845.7 252.7,1844.2 252.5,1842.8 252.2,1841.6 252.1,1840.5 251.9,1839.5 
	251.8,1838.8 251.7,1838.2 251.6,1838 251.6,1837.8 251.5,1838 251.5,1838.2 251.5,1838.7 251.5,1839.5 251.5,1840.4 251.4,1841.5 
	251.4,1842.8 251.4,1844.2 251.3,1845.9 251.3,1847.6 251.2,1849.5 "/>
<g>
	<circle fill="#F5426E" cx="373.8" cy="2132.7" r="15.2"/>
	<circle fill="#F5426E" cx="344" cy="2308.8" r="15.2"/>
	<circle fill="#F5426E" cx="481.3" cy="2161.1" r="15.2"/>
	<circle fill="#F5426E" cx="471.9" cy="2386.7" r="15.2"/>
</g>
<g>
	<path fill="#26C6DA" d="M369.4,2368.7v-36.1c0-0.7,0.5-1.3,1.3-1.3h27.6c0.7,0,1.3,0.5,1.3,1.3v36.1c0,0.7-0.5,1.3-1.3,1.3h-27.6
		C369.9,2370,369.4,2369.3,369.4,2368.7z"/>
	<path fill="#26C6DA" d="M274.8,2256.3v-65.1c0-0.7,0.5-1.3,1.3-1.3h50.4c0.7,0,1.3,0.5,1.3,1.3v65.1c0,0.7-0.5,1.3-1.3,1.3h-50.4
		C275.4,2257.6,274.8,2257,274.8,2256.3z"/>
	<path fill="#26C6DA" d="M471.8,2331v-36.4c0-0.7,0.5-1.3,1.3-1.3h21.7c0.7,0,1.3,0.5,1.3,1.3v36.4c0,0.7-0.5,1.3-1.3,1.3H473
		C472.3,2332.3,471.8,2331.7,471.8,2331z"/>
</g>
<g id="LWPOLYLINE_51_">
	<rect x="363.9" y="1982.2" fill="#2A8EA2" width="5.9" height="5.5"/>
</g>
<g id="LWPOLYLINE_50_">
	<rect x="319.3" y="2054.5" fill="#2A8EA2" width="5.9" height="5.5"/>
</g>
<path fill="#2A8EA2" d="M450.9,2302.9v-14.9c0-0.7,0.5-1.3,1.3-1.3h5.7c0.7,0,1.3,0.5,1.3,1.3v14.9c0,0.7-0.5,1.3-1.3,1.3h-5.7
	C451.4,2304.1,450.9,2303.5,450.9,2302.9z"/>
<path fill="#B0BEC5" d="M330.5,2417.8l-4.2-4.2c-0.2-0.2-0.2-0.5,0-0.7l1.6-1.6c0.2-0.2,0.5-0.2,0.7,0l4.2,4.2
	c0.2,0.2,0.2,0.5,0,0.7l-1.6,1.6C331,2418,330.7,2418,330.5,2417.8z"/>
<path fill="#B0BEC5" d="M264.1,2121.3l4.2-4.2c0.2-0.2,0.5-0.2,0.7,0l1.6,1.6c0.2,0.2,0.2,0.5,0,0.7l-4.2,4.2
	c-0.2,0.2-0.5,0.2-0.7,0l-1.6-1.6C263.9,2121.8,263.9,2121.5,264.1,2121.3z"/>
<path fill="#2A8EA2" d="M456.8,2235.6v-14.9c0-0.7,0.5-1.3,1.3-1.3h5.7c0.7,0,1.3,0.5,1.3,1.3v14.9c0,0.7-0.5,1.3-1.3,1.3h-5.7
	C457.4,2236.8,456.8,2236.2,456.8,2235.6z"/>
<g>
	<path fill="#7CB342" d="M358.7,2226L358.7,2226c-2.4-0.3-4.6,1.5-4.9,3.9c-2.4-0.3-4.6,1.5-4.9,3.9c0.4-1.6,0.1-3.3-0.9-4.6
		c-1-1.3-2.6-2.1-4.2-2c0.4-1.6,0.1-3.3-0.9-4.6c-1-1.3-2.6-2.1-4.2-2c2.4,0.3,4.6-1.5,4.9-3.9c2.4,0.3,4.6-1.5,4.9-3.9
		c-0.4,1.6-0.1,3.3,0.9,4.6c1,1.3,2.6,2.1,4.2,2c-0.4,1.6-0.1,3.3,0.9,4.6C355.5,2225.4,357,2226.1,358.7,2226"/>
	<path fill="#7CB342" d="M452.2,2170.1L452.2,2170.1c-0.3-2.4-2.4-4.2-4.8-4c-0.3-2.4-2.4-4.2-4.8-4c1.6,0.1,3.2-0.6,4.3-1.9
		c1-1.3,1.4-3,1-4.6c1.6,0.1,3.2-0.6,4.3-1.9s1.4-3,1-4.6c0.3,2.4,2.4,4.2,4.8,4c0.3,2.4,2.4,4.2,4.8,4c-1.6-0.1-3.2,0.6-4.3,1.9
		c-1,1.3-1.4,3-1,4.6c-1.6-0.1-3.2,0.6-4.3,1.9C452.2,2166.9,451.8,2168.6,452.2,2170.1"/>
	<path fill="#7CB342" d="M442,2296.8L442,2296.8c-2.4-0.5-4.7,1-5.3,3.4c-2.4-0.5-4.7,1-5.3,3.4c0.6-1.6,0.4-3.3-0.5-4.7
		c-0.9-1.4-2.3-2.3-4-2.4c0.6-1.6,0.4-3.3-0.5-4.7c-0.9-1.4-2.3-2.3-4-2.4c2.4,0.5,4.7-1,5.3-3.4c2.4,0.5,4.7-1,5.3-3.4
		c-0.6,1.6-0.4,3.3,0.5,4.7c0.9,1.4,2.3,2.3,4,2.4c-0.6,1.6-0.4,3.3,0.5,4.7C438.9,2295.8,440.4,2296.7,442,2296.8"/>
</g>
<g>
	<path fill="#B0BEC5" d="M197.4,2006.7l4.7,4.7c0.5,0.5,0.5,1.3,0,1.8l-31.1,30.7c-0.5,0.5-1.3,0.5-1.8,0l-4.7-4.7
		c-0.5-0.5-0.5-1.3,0-1.8l31.1-30.7C196.1,2006.2,196.9,2006.2,197.4,2006.7z"/>
	<path fill="#B0BEC5" d="M192.2,2069.1l-7,6.8c-0.5,0.5-1.3,0.5-1.8,0l-19.2-19.8c-0.5-0.5-0.5-1.3,0-1.8l7-6.8
		c0.5-0.5,1.3-0.5,1.8,0l19.2,19.8C192.7,2067.7,192.7,2068.5,192.2,2069.1z"/>
	<path fill="#5C6BC0" d="M280.3,2170.6V2148c0-0.7,0.5-1.3,1.3-1.3h22.6c0.7,0,1.3,0.5,1.3,1.3v22.6c0,0.7-0.5,1.3-1.3,1.3h-22.6
		C280.9,2171.8,280.3,2171.3,280.3,2170.6z"/>
	<rect x="365" y="2159.2" fill="#5C6BC0" width="25.1" height="25.1"/>
	<path fill="#5C6BC0" d="M424.9,2204.7v-22.6c0-0.7,0.5-1.3,1.3-1.3h22.6c0.7,0,1.3,0.5,1.3,1.3v22.6c0,0.7-0.5,1.3-1.3,1.3h-22.6
		C425.4,2206,424.9,2205.4,424.9,2204.7z"/>
	<path fill="#5C6BC0" d="M471.1,2255.7v-22.6c0-0.7,0.5-1.3,1.3-1.3H495c0.7,0,1.3,0.5,1.3,1.3v22.6c0,0.7-0.5,1.3-1.3,1.3h-22.6
		C471.7,2257,471.1,2256.4,471.1,2255.7z"/>
	<path fill="#5C6BC0" d="M426.3,2368.9v-22.6c0-0.7,0.5-1.3,1.3-1.3h22.6c0.7,0,1.3,0.5,1.3,1.3v22.6c0,0.7-0.5,1.3-1.3,1.3h-22.6
		C426.8,2370.2,426.3,2369.6,426.3,2368.9z"/>
	<rect x="374.4" y="2203.6" fill="#5C6BC0" width="16.4" height="12.6"/>
	<path fill="#5C6BC0" d="M416.7,2228h10.1c0.7,0,1.3,0.5,1.3,1.3v13.8c0,0.7-0.5,1.3-1.3,1.3h-10.1c-0.7,0-1.3-0.5-1.3-1.3v-13.8
		C415.5,2228.5,416,2228,416.7,2228z"/>
</g>
<g>
	<path fill="#B0BEC5" d="M97,1830.2l-12-13.4c0,0-25,22.5-32.1,50l13,5L65,1875l4.9,1.4C69.9,1876.4,75.1,1852.4,97,1830.2z"/>
	<g id="LWPOLYLINE_53_">
		<polygon fill="#B0BEC5" points="371.8,2063.2 380.4,2063 389.4,2070.2 402,2054.6 393.3,2032.6 385.2,2035 376.8,2029.5 
			372.6,2035.4 370.9,2034.2 367.9,2034.2 364.7,2038.4 365.7,2041.3 367.2,2042.6 362.3,2049.3 371.7,2055.9 		"/>
	</g>
	<path fill="#B0BEC5" d="M337.5,2069.3l2,7.8c0.2,0.7-0.3,1.3-0.9,1.5l-45.5,11.6c-0.7,0.2-1.3-0.3-1.5-0.9l-2-7.8
		c-0.2-0.7,0.3-1.3,0.9-1.5l45.5-11.6C336.7,2068.2,337.4,2068.6,337.5,2069.3z"/>
	<path fill="#B0BEC5" d="M394.4,1996.2l-8.8,1.4c-0.7,0.1-1.3-0.4-1.4-1l-8.4-53.6c-0.1-0.7,0.4-1.3,1-1.4l8.8-1.4
		c0.7-0.1,1.3,0.4,1.4,1l8.4,53.6C395.6,1995.4,395.1,1996.1,394.4,1996.2z"/>
	<path fill="#B0BEC5" d="M346.8,1980.8l3.1,0.2c0.7,0,1.3-0.7,1.3-1.6l3.3-8.6l-0.4-32.8c0.1-0.9-0.4-1.7-1.1-1.8l-3.1-0.2
		c-0.7,0-1.3,0.7-1.3,1.6l-2.9,41.4C345.7,1980,346.2,1980.8,346.8,1980.8z"/>
	<path fill="#B0BEC5" d="M309,2039.8l1,2.9c0.2,0.6-0.3,1.4-1.2,1.7l-7.5,5.2l-31.9,7.5c-0.9,0.3-1.8,0-2-0.6l-1-2.9
		c-0.2-0.6,0.3-1.4,1.2-1.7l39.5-12.8C307.9,2038.9,308.8,2039.2,309,2039.8z"/>
	<polygon fill="#CFD8DC" points="508.2,2418.4 508.2,2375.1 508.2,2375.1 508.2,2372.3 491.3,2372.3 491.3,2381.4 499.1,2381.4 
		499.1,2418.4 	"/>
	<path fill="#B0BEC5" d="M336.3,2415.8v-6.6c0-0.7,0.5-1.3,1.3-1.3h54.5c0.7,0,1.3,0.5,1.3,1.3v6.6c0,0.7-0.5,1.3-1.3,1.3h-54.5
		C336.9,2417,336.3,2416.4,336.3,2415.8z"/>
	<path fill="#5C6BC0" d="M421.7,2317l5.3-0.6c0.7-0.1,1.3,0.4,1.4,1.1l1.8,16.3c0.1,0.7-0.4,1.3-1.1,1.4l-5.3,0.6
		c-0.7,0.1-1.3-0.4-1.4-1.1l-1.8-16.3C420.6,2317.7,421.1,2317.1,421.7,2317z"/>
	<path fill="#B0BEC5" d="M389.6,2197.9v-4.2c0-0.7,0.5-1.3,1.3-1.3h23c0.7,0,1.3,0.5,1.3,1.3v4.2c0,0.7-0.5,1.3-1.3,1.3h-23
		C390.2,2199.1,389.6,2198.6,389.6,2197.9z"/>
	<path fill="#B0BEC5" d="M398,2299.5v-4.2c0-0.7,0.5-1.3,1.3-1.3h17.5c0.7,0,1.3,0.5,1.3,1.3v4.2c0,0.7-0.5,1.3-1.3,1.3h-17.5
		C398.5,2300.8,398,2300.2,398,2299.5z"/>
	<path fill="#B0BEC5" d="M417.7,2123.2l2.1-4.8c0.3-0.6,1-0.9,1.6-0.7l50.2,21.3c0.6,0.3,0.9,1,0.7,1.6l-2.1,4.8
		c-0.3,0.6-1,0.9-1.6,0.7l-50.2-21.3C417.8,2124.7,417.5,2123.9,417.7,2123.2z"/>
	<path fill="#B0BEC5" d="M264.1,2125.1h6.6c0.7,0,1.3,0.5,1.3,1.3v54c0,0.7-0.5,1.3-1.3,1.3h-6.6c-0.7,0-1.3-0.5-1.3-1.3v-54
		C262.8,2125.6,263.4,2125.1,264.1,2125.1z"/>
</g>
<g>
	<polygon fill="#FFCA28" points="372.6,2302.7 372.6,2298.5 376.9,2298.5 376.9,2295.5 372.6,2295.5 372.6,2291.3 369.7,2291.3 
		369.7,2295.5 365.4,2295.5 365.4,2298.5 369.7,2298.5 369.7,2302.7 	"/>
	<polygon fill="#FFCA28" points="344.5,2195.8 346.9,2194.2 344.7,2190.6 348.2,2188.3 346.7,2185.9 343.1,2188.1 340.8,2184.5 
		338.3,2186.1 340.6,2189.6 337,2192 338.5,2194.4 342.1,2192.2 	"/>
	<g>
		<path fill="#FFCA28" d="M352.8,2341.3v4.8c0,0.9,0.8,1.7,1.7,1.7s1.7-0.8,1.7-1.7v-4.8c0-0.9-0.8-1.7-1.7-1.7
			S352.8,2340.4,352.8,2341.3z"/>
		<path fill="#FFCA28" d="M348.5,2346.1v-4.8c0-0.9-0.8-1.7-1.7-1.7c-0.9,0-1.7,0.8-1.7,1.7v4.8c0,0.9,0.8,1.7,1.7,1.7
			C347.7,2347.8,348.5,2347.1,348.5,2346.1z"/>
		<path fill="#FFCA28" d="M340.9,2346.1v-4.8c0-0.9-0.8-1.7-1.7-1.7s-1.7,0.8-1.7,1.7v4.8c0,0.9,0.8,1.7,1.7,1.7
			S340.9,2347.1,340.9,2346.1z"/>
		<path fill="#FFCA28" d="M333.2,2346.1v-4.8c0-0.9-0.8-1.7-1.7-1.7s-1.7,0.8-1.7,1.7v4.8c0,0.9,0.8,1.7,1.7,1.7
			S333.2,2347.1,333.2,2346.1z"/>
	</g>
	<polygon fill="#FFCA28" points="432.8,2151.1 432.8,2146.9 437,2146.9 437,2143.9 432.8,2143.9 432.8,2139.7 429.8,2139.7 
		429.8,2143.9 425.6,2143.9 425.6,2146.9 429.8,2146.9 429.8,2151.1 	"/>
	<polygon fill="#FFCA28" points="451.2,2338.3 451.2,2334.1 455.5,2334.1 455.5,2331.2 451.2,2331.2 451.2,2326.9 448.3,2326.9 
		448.3,2331.2 444,2331.2 444,2334.1 448.3,2334.1 448.3,2338.3 	"/>
</g>
<path fill="#5C6BC0" d="M203.9,2079.7H214c0.7,0,1.3,0.5,1.3,1.3v13.8c0,0.7-0.5,1.3-1.3,1.3h-10.1c-0.7,0-1.3-0.5-1.3-1.3v-13.8
	C202.7,2080.2,203.2,2079.7,203.9,2079.7z"/>
<g>
	<g>
		<path fill="#FFFFFF" d="M325.7,2336.5c0-4.2-3.4-7.5-7.5-7.5c-4.2,0-7.5,3.4-7.5,7.5s3.4,7.5,7.5,7.5S325.7,2340.7,325.7,2336.5z
			 M311.7,2336.5c0-3.6,2.9-6.5,6.5-6.5c3.6,0,6.5,2.9,6.5,6.5c0,3.6-2.9,6.5-6.5,6.5C314.6,2343,311.7,2340.1,311.7,2336.5z"/>
		<path fill="#E53935" d="M324.1,2336.5c0-3.2-2.6-5.9-5.9-5.9c-3.2,0-5.9,2.6-5.9,5.9c0,3.2,2.6,5.9,5.9,5.9
			S324.1,2339.7,324.1,2336.5z M317.2,2340.5v-2.9h-2.9v-2.1h2.9v-2.9h2.1v2.9h2.9v2.1h-2.9v2.9H317.2z"/>
	</g>
	<g>
		<g>
			<g enable-background="new    ">
				<defs>
					<rect id="SVGID_1_" x="314" y="2332.3" enable-background="new    " width="8.4" height="8.4"/>
				</defs>
				<clipPath id="SVGID_2_">
					<use xlink:href="#SVGID_1_"  overflow="visible"/>
				</clipPath>
				<g clip-path="url(#SVGID_2_)">
					<g>
						<defs>
							<polygon id="SVGID_3_" points="317.2,2340.6 317.2,2337.5 314.1,2337.5 314.1,2335.3 317.2,2335.3 317.2,2332.3 
								319.4,2332.3 319.4,2335.3 322.4,2335.3 322.4,2337.5 319.4,2337.5 319.4,2340.6 							"/>
						</defs>
						<clipPath id="SVGID_4_">
							<use xlink:href="#SVGID_3_"  overflow="visible"/>
						</clipPath>
						<g clip-path="url(#SVGID_4_)">
							<g>
								<defs>
									<rect id="SVGID_5_" x="314" y="2332.3" width="8.4" height="8.4"/>
								</defs>
								<clipPath id="SVGID_6_">
									<use xlink:href="#SVGID_5_"  overflow="visible"/>
								</clipPath>
								<rect x="311.5" y="2329.7" clip-path="url(#SVGID_6_)" fill="#FFFFFF" width="13.5" height="13.5"/>
							</g>
						</g>
					</g>
				</g>
			</g>
		</g>
		<rect x="318" y="2147.4" fill="#26C6DA" width="15.4" height="6"/>
	</g>
</g>
</svg>
