<?xml version="1.0" encoding="utf-8"?>
<!-- Generator: Adobe Illustrator 18.1.1, SVG Export Plug-In . SVG Version: 6.00 Build 0)  -->
<svg version="1.1" id="Layer_1" xmlns="http://www.w3.org/2000/svg" xmlns:xlink="http://www.w3.org/1999/xlink" x="0px" y="0px"
	 viewBox="2121.1 629.1 612 400" enable-background="new 2121.1 629.1 612 400" xml:space="preserve">
<g>
	<path fill="#00838F" d="M2169.5,629.1h451.1v5.4h61.2c0,0,47.5,219.9,51.3,336.2c0,0,1.7,19.9-15.7,25.2l-107.9,29.8v-16.2h-46.4
		l-56.7,19.4v-19.4h-45l-57.1,19.4v-19.4h-45l-56.3,19.4v-19.4h-45l-57.9,19.4v-19.4h-79.1v-289h48.8v-91.5H2169.5z"/>
	<path fill="#00ACC1" d="M2203.4,629.1h417.2v5.4h61.2c0,0,47.5,219.9,51.3,336.2c0,0,1.7,19.9-15.7,25.2l-107.9,29.9v-16.2h-46.4
		l-56.7,19.4v-19.4h-45l-57.1,19.4v-19.4h-45.1l-56.3,19.4v-19.4h-45l-57.9,19.4l-3.7-19.4V893.8h7.5V629.1
		C2203.8,629.1,2203.4,629.1,2203.4,629.1z"/>
</g>
<polygon fill="#00ACC1" points="2612.7,634.5 2682.3,634.5 2690.1,671.8 2720.3,671.8 2720.3,994.7 2612.7,994.7 "/>
<rect x="2652.1" y="639.5" fill="#0097A7" width="21.1" height="41.4"/>
<rect x="2683" y="824.3" fill="#0097A7" width="26.1" height="87.7"/>
<g>
	<path fill="#0097A7" d="M2716.1,711.5c0-1.2-0.9-2.1-2.1-2.1s-2.1,0.9-2.1,2.1c0,1.2,0.9,2.1,2.1,2.1
		C2715.4,713.5,2716.1,712.7,2716.1,711.5"/>
	<path fill="#0097A7" d="M2716.1,746.2c0-1.2-0.9-2.1-2.1-2.1s-2.1,0.9-2.1,2.1c0,1.2,0.9,2.1,2.1,2.1
		C2715.4,748.3,2716.1,747.5,2716.1,746.2"/>
	<path fill="#0097A7" d="M2716.1,780.9c0-1.2-0.9-2.1-2.1-2.1s-2.1,0.9-2.1,2.1c0,1.2,0.9,2.1,2.1,2.1
		C2715.4,783,2716.1,781.8,2716.1,780.9"/>
	<path fill="#0097A7" d="M2716.1,815.7c0-1.2-0.9-2.1-2.1-2.1s-2.1,0.8-2.1,2.1c0,1.3,0.9,2.1,2.1,2.1
		C2715.4,817.4,2716.1,816.5,2716.1,815.7"/>
	<path fill="#0097A7" d="M2716.1,850.4c0-1.2-0.9-2.1-2.1-2.1s-2.1,0.8-2.1,2.1s0.9,2.1,2.1,2.1
		C2715.4,852.1,2716.1,851.2,2716.1,850.4"/>
	<path fill="#0097A7" d="M2716.1,884.7c0-1.2-0.9-2.1-2.1-2.1s-2.1,0.8-2.1,2.1c0,1.3,0.9,2.1,2.1,2.1
		C2715.4,886.8,2716.1,885.9,2716.1,884.7"/>
	<path fill="#0097A7" d="M2716.1,919.4c0-1.2-0.9-2.1-2.1-2.1s-2.1,0.9-2.1,2.1c0,1.2,0.9,2.1,2.1,2.1
		C2715.4,921.5,2716.1,920.7,2716.1,919.4"/>
	<path fill="#0097A7" d="M2716.1,954.2c0-1.2-0.9-2.1-2.1-2.1s-2.1,0.8-2.1,2.1c0,1.2,0.9,2.1,2.1,2.1
		C2715.4,956.2,2716.1,955.4,2716.1,954.2"/>
	<path fill="#0097A7" d="M2716.1,989c0-1.2-0.9-2.1-2.1-2.1s-2.1,0.9-2.1,2.1s0.9,2.1,2.1,2.1C2715.4,990.6,2716.1,989.8,2716.1,989
		"/>
	<path fill="#0097A7" d="M2682.3,989c0-1.2-0.8-2.1-2.1-2.1c-1.2,0-2.1,0.9-2.1,2.1s0.9,2.1,2.1,2.1
		C2681,990.6,2682.3,989.8,2682.3,989"/>
	<path fill="#0097A7" d="M2716.1,676.7c0-1.2-0.9-2.1-2.1-2.1s-2.1,0.9-2.1,2.1c0,1.2,0.9,2.1,2.1,2.1
		C2715.4,678.8,2716.1,678,2716.1,676.7"/>
	<path fill="#0097A7" d="M2689.3,676.7c0-1.2-0.9-2.1-2.1-2.1c-1.2,0-2.1,0.9-2.1,2.1c0,1.2,0.8,2.1,2.1,2.1
		C2688.4,678.7,2689.3,678,2689.3,676.7"/>
	<path fill="#00838F" d="M2694.2,828.5h-8.2c-0.4,0-1.2-0.4-1.2-1.2c0-0.4,0.4-1.2,1.2-1.2h8.2c0.4,0,1.2,0.4,1.2,1.2
		C2695.5,828.1,2695,828.5,2694.2,828.5"/>
	<path fill="#00838F" d="M2694.2,832.6h-8.2c-0.4,0-1.2-0.4-1.2-1.2c0-0.4,0.4-1.2,1.2-1.2h8.2c0.4,0,1.2,0.4,1.2,1.2
		C2695.5,831.8,2695,832.6,2694.2,832.6"/>
	<path fill="#00838F" d="M2694.2,836.3h-8.2c-0.4,0-1.2-0.4-1.2-1.2c0-0.4,0.4-1.2,1.2-1.2h8.2c0.4,0,1.2,0.4,1.2,1.2
		C2695.5,835.9,2695,836.3,2694.2,836.3"/>
	<path fill="#00838F" d="M2694.2,840.1h-8.2c-0.4,0-1.2-0.4-1.2-1.2c0-0.4,0.4-1.2,1.2-1.2h8.2c0.4,0,1.2,0.4,1.2,1.2
		C2695.5,839.7,2695,840.1,2694.2,840.1"/>
	<path fill="#00838F" d="M2694.2,844.2h-8.2c-0.4,0-1.2-0.4-1.2-1.2s0.4-1.2,1.2-1.2h8.2c0.4,0,1.2,0.4,1.2,1.2
		C2695.5,843.4,2695,844.2,2694.2,844.2"/>
	<path fill="#00838F" d="M2694.2,847.9h-8.2c-0.4,0-1.2-0.4-1.2-1.2c0-0.4,0.4-1.2,1.2-1.2h8.2c0.4,0,1.2,0.4,1.2,1.2
		C2695.5,847.5,2695,847.9,2694.2,847.9"/>
	<path fill="#00838F" d="M2694.2,851.6h-8.2c-0.4,0-1.2-0.4-1.2-1.2c0-0.4,0.4-1.2,1.2-1.2h8.2c0.4,0,1.2,0.4,1.2,1.2
		S2695,851.6,2694.2,851.6"/>
	<path fill="#00838F" d="M2694.2,855.8h-8.2c-0.4,0-1.2-0.4-1.2-1.2c0-0.4,0.4-1.2,1.2-1.2h8.2c0.4,0,1.2,0.4,1.2,1.2
		C2695.5,854.9,2695,855.8,2694.2,855.8"/>
	<path fill="#00838F" d="M2694.2,859.5h-8.2c-0.4,0-1.2-0.4-1.2-1.2c0-0.4,0.4-1.2,1.2-1.2h8.2c0.4,0,1.2,0.4,1.2,1.2
		S2695,859.5,2694.2,859.5"/>
	<path fill="#00838F" d="M2694.2,863.3h-8.2c-0.4,0-1.2-0.4-1.2-1.2c0-0.4,0.4-1.2,1.2-1.2h8.2c0.4,0,1.2,0.4,1.2,1.2
		C2695.5,862.8,2695,863.3,2694.2,863.3"/>
	<path fill="#00838F" d="M2694.2,867.3h-8.2c-0.4,0-1.2-0.4-1.2-1.2c0-0.4,0.4-1.2,1.2-1.2h8.2c0.4,0,1.2,0.4,1.2,1.2
		C2695.5,866.5,2695,867.3,2694.2,867.3"/>
	<path fill="#00838F" d="M2694.2,871.1h-8.2c-0.4,0-1.2-0.4-1.2-1.2c0-0.4,0.4-1.2,1.2-1.2h8.2c0.4,0,1.2,0.4,1.2,1.2
		C2695.4,870.7,2695,871.1,2694.2,871.1"/>
	<path fill="#00838F" d="M2694.2,874.8h-8.2c-0.4,0-1.2-0.4-1.2-1.2c0-0.4,0.4-1.2,1.2-1.2h8.2c0.4,0,1.2,0.4,1.2,1.2
		C2695.5,874.4,2695,874.8,2694.2,874.8"/>
	<path fill="#00838F" d="M2694.2,878.9h-8.2c-0.4,0-1.2-0.4-1.2-1.2c0-0.4,0.4-1.2,1.2-1.2h8.2c0.4,0,1.2,0.4,1.2,1.2
		C2695.5,878.1,2695,878.9,2694.2,878.9"/>
	<path fill="#00838F" d="M2694.2,882.7h-8.2c-0.4,0-1.2-0.4-1.2-1.2c0-0.4,0.4-1.2,1.2-1.2h8.2c0.4,0,1.2,0.4,1.2,1.2
		C2695.5,882.3,2695,882.7,2694.2,882.7"/>
	<path fill="#00838F" d="M2660.3,643.6h-5.4c-0.4,0-1.2-0.4-1.2-1.2c0-0.4,0.4-1.2,1.2-1.2h5.4c0.4,0,1.2,0.4,1.2,1.2
		C2661.5,643.2,2661.2,643.6,2660.3,643.6"/>
	<path fill="#00838F" d="M2660.3,647.7h-5.4c-0.4,0-1.2-0.4-1.2-1.2c0-0.4,0.4-1.2,1.2-1.2h5.4c0.4,0,1.2,0.4,1.2,1.2
		C2661.6,647,2661.2,647.7,2660.3,647.7"/>
	<path fill="#00838F" d="M2660.3,651.5h-5.4c-0.4,0-1.2-0.4-1.2-1.2c0-0.4,0.4-1.2,1.2-1.2h5.4c0.4,0,1.2,0.4,1.2,1.2
		C2661.6,651.1,2661.2,651.5,2660.3,651.5"/>
	<path fill="#00838F" d="M2660.3,655.2h-5.4c-0.4,0-1.2-0.4-1.2-1.2c0-0.4,0.4-1.2,1.2-1.2h5.4c0.4,0,1.2,0.4,1.2,1.2
		C2661.6,654.8,2661.2,655.2,2660.3,655.2"/>
	<path fill="#00838F" d="M2660.3,659.3h-5.4c-0.4,0-1.2-0.4-1.2-1.2c0-0.4,0.4-1.2,1.2-1.2h5.4c0.4,0,1.2,0.4,1.2,1.2
		C2661.6,658.5,2661.2,659.3,2660.3,659.3"/>
	<path fill="#00838F" d="M2660.3,663.1h-5.4c-0.4,0-1.2-0.4-1.2-1.2c0-0.4,0.4-1.2,1.2-1.2h5.4c0.4,0,1.2,0.4,1.2,1.2
		S2661.2,663.1,2660.3,663.1"/>
	<path fill="#00838F" d="M2660.3,666.9h-5.4c-0.4,0-1.2-0.4-1.2-1.2c0-0.4,0.4-1.2,1.2-1.2h5.4c0.4,0,1.2,0.4,1.2,1.2
		C2661.6,666.5,2661.2,666.9,2660.3,666.9"/>
	<path fill="#00838F" d="M2660.3,670.9h-5.4c-0.4,0-1.2-0.4-1.2-1.2c0-0.4,0.4-1.2,1.2-1.2h5.4c0.4,0,1.2,0.4,1.2,1.2
		C2661.6,670.1,2661.2,670.9,2660.3,670.9"/>
	<path fill="#00838F" d="M2660.3,674.6h-5.4c-0.4,0-1.2-0.4-1.2-1.2c0-0.9,0.4-1.2,1.2-1.2h5.4c0.4,0,1.2,0.4,1.2,1.2
		C2661.6,674.2,2661.2,674.6,2660.3,674.6"/>
	<path fill="#00838F" d="M2660.3,678.4h-5.4c-0.4,0-1.2-0.4-1.2-1.2c0-0.4,0.4-1.2,1.2-1.2h5.4c0.4,0,1.2,0.4,1.2,1.2
		C2661.6,678,2661.2,678.4,2660.3,678.4"/>
	<path fill="#00838F" d="M2669.8,643.6h-5.4c-0.4,0-1.2-0.4-1.2-1.2c0-0.4,0.4-1.2,1.2-1.2h5.4c0.4,0,1.2,0.4,1.2,1.2
		C2671,643.2,2670.2,643.6,2669.8,643.6"/>
	<path fill="#00838F" d="M2669.8,647.7h-5.4c-0.4,0-1.2-0.4-1.2-1.2c0-0.4,0.4-1.2,1.2-1.2h5.4c0.4,0,1.2,0.4,1.2,1.2
		C2671.1,647,2670.2,647.7,2669.8,647.7"/>
	<path fill="#00838F" d="M2669.8,651.5h-5.4c-0.4,0-1.2-0.4-1.2-1.2c0-0.4,0.4-1.2,1.2-1.2h5.4c0.4,0,1.2,0.4,1.2,1.2
		C2671.1,651.1,2670.2,651.5,2669.8,651.5"/>
	<path fill="#00838F" d="M2669.8,655.2h-5.4c-0.4,0-1.2-0.4-1.2-1.2c0-0.4,0.4-1.2,1.2-1.2h5.4c0.4,0,1.2,0.4,1.2,1.2
		C2671.1,654.8,2670.2,655.2,2669.8,655.2"/>
	<path fill="#00838F" d="M2669.8,659.3h-5.4c-0.4,0-1.2-0.4-1.2-1.2c0-0.4,0.4-1.2,1.2-1.2h5.4c0.4,0,1.2,0.4,1.2,1.2
		C2671.1,658.5,2670.2,659.3,2669.8,659.3"/>
	<path fill="#00838F" d="M2669.8,663.1h-5.4c-0.4,0-1.2-0.4-1.2-1.2c0-0.4,0.4-1.2,1.2-1.2h5.4c0.4,0,1.2,0.4,1.2,1.2
		S2670.2,663.1,2669.8,663.1"/>
	<path fill="#00838F" d="M2669.8,666.9h-5.4c-0.4,0-1.2-0.4-1.2-1.2c0-0.4,0.4-1.2,1.2-1.2h5.4c0.4,0,1.2,0.4,1.2,1.2
		C2671.1,666.4,2670.2,666.9,2669.8,666.9"/>
	<path fill="#00838F" d="M2669.8,670.9h-5.4c-0.4,0-1.2-0.4-1.2-1.2c0-0.4,0.4-1.2,1.2-1.2h5.4c0.4,0,1.2,0.4,1.2,1.2
		C2671.1,670.1,2670.2,670.9,2669.8,670.9"/>
	<path fill="#00838F" d="M2669.8,674.6h-5.4c-0.4,0-1.2-0.4-1.2-1.2c0-0.9,0.4-1.2,1.2-1.2h5.4c0.4,0,1.2,0.4,1.2,1.2
		C2671.1,674.2,2670.2,674.6,2669.8,674.6"/>
	<path fill="#00838F" d="M2669.8,678.4h-5.4c-0.4,0-1.2-0.4-1.2-1.2c0-0.4,0.4-1.2,1.2-1.2h5.4c0.4,0,1.2,0.4,1.2,1.2
		C2671.1,678,2670.2,678.4,2669.8,678.4"/>
	<path fill="#00838F" d="M2694.2,886.3h-8.2c-0.4,0-1.2-0.4-1.2-1.2c0-0.4,0.4-1.2,1.2-1.2h8.2c0.4,0,1.2,0.4,1.2,1.2
		S2695,886.3,2694.2,886.3"/>
	<path fill="#00838F" d="M2694.2,890.5h-8.2c-0.4,0-1.2-0.4-1.2-1.2c0-0.4,0.4-1.2,1.2-1.2h8.2c0.4,0,1.2,0.4,1.2,1.2
		C2695.5,889.7,2695,890.5,2694.2,890.5"/>
	<path fill="#00838F" d="M2694.2,894.3h-8.2c-0.4,0-1.2-0.4-1.2-1.2c0-0.4,0.4-1.2,1.2-1.2h8.2c0.4,0,1.2,0.4,1.2,1.2
		C2695.5,893.8,2695,894.3,2694.2,894.3"/>
	<path fill="#00838F" d="M2694.2,898h-8.2c-0.4,0-1.2-0.4-1.2-1.2c0-0.4,0.4-1.2,1.2-1.2h8.2c0.4,0,1.2,0.4,1.2,1.2
		S2695,898,2694.2,898"/>
	<path fill="#00838F" d="M2694.2,902.1h-8.2c-0.4,0-1.2-0.4-1.2-1.2c0-0.4,0.4-1.2,1.2-1.2h8.2c0.4,0,1.2,0.4,1.2,1.2
		C2695.5,901.3,2695,902.1,2694.2,902.1"/>
	<path fill="#00838F" d="M2694.2,905.8h-8.2c-0.4,0-1.2-0.4-1.2-1.2c0-0.4,0.4-1.2,1.2-1.2h8.2c0.4,0,1.2,0.4,1.2,1.2
		C2695.5,905.3,2695,905.8,2694.2,905.8"/>
	<path fill="#00838F" d="M2694.2,909.6h-8.2c-0.4,0-1.2-0.4-1.2-1.2c0-0.4,0.4-1.2,1.2-1.2h8.2c0.4,0,1.2,0.4,1.2,1.2
		C2695.5,909.1,2695,909.6,2694.2,909.6"/>
	<path fill="#00838F" d="M2705.8,828.5h-8.2c-0.4,0-1.2-0.4-1.2-1.2c0-0.4,0.4-1.2,1.2-1.2h8.2c0.4,0,1.2,0.4,1.2,1.2
		C2707.1,828.1,2706.7,828.5,2705.8,828.5"/>
	<path fill="#00838F" d="M2705.8,832.6h-8.2c-0.4,0-1.2-0.4-1.2-1.2c0-0.4,0.4-1.2,1.2-1.2h8.2c0.4,0,1.2,0.4,1.2,1.2
		C2707.1,831.8,2706.7,832.6,2705.8,832.6"/>
	<path fill="#00838F" d="M2705.8,836.3h-8.2c-0.4,0-1.2-0.4-1.2-1.2c0-0.4,0.4-1.2,1.2-1.2h8.2c0.4,0,1.2,0.4,1.2,1.2
		C2707,835.9,2706.7,836.3,2705.8,836.3"/>
	<path fill="#00838F" d="M2705.8,840.1h-8.2c-0.4,0-1.2-0.4-1.2-1.2c0-0.4,0.4-1.2,1.2-1.2h8.2c0.4,0,1.2,0.4,1.2,1.2
		C2707.1,839.7,2706.7,840.1,2705.8,840.1"/>
	<path fill="#00838F" d="M2705.8,844.2h-8.2c-0.4,0-1.2-0.4-1.2-1.2s0.4-1.2,1.2-1.2h8.2c0.4,0,1.2,0.4,1.2,1.2
		C2707.1,843.4,2706.7,844.2,2705.8,844.2"/>
	<path fill="#00838F" d="M2705.8,847.9h-8.2c-0.4,0-1.2-0.4-1.2-1.2c0-0.4,0.4-1.2,1.2-1.2h8.2c0.4,0,1.2,0.4,1.2,1.2
		C2707,847.5,2706.7,847.9,2705.8,847.9"/>
	<path fill="#00838F" d="M2705.8,851.6h-8.2c-0.4,0-1.2-0.4-1.2-1.2c0-0.4,0.4-1.2,1.2-1.2h8.2c0.4,0,1.2,0.4,1.2,1.2
		C2707,851.2,2706.7,851.6,2705.8,851.6"/>
	<path fill="#00838F" d="M2705.8,855.8h-8.2c-0.4,0-1.2-0.4-1.2-1.2c0-0.4,0.4-1.2,1.2-1.2h8.2c0.4,0,1.2,0.4,1.2,1.2
		C2707.1,854.9,2706.7,855.8,2705.8,855.8"/>
	<path fill="#00838F" d="M2705.8,859.5h-8.2c-0.4,0-1.2-0.4-1.2-1.2c0-0.4,0.4-1.2,1.2-1.2h8.2c0.4,0,1.2,0.4,1.2,1.2
		C2707.1,859.1,2706.7,859.5,2705.8,859.5"/>
	<path fill="#00838F" d="M2705.8,863.3h-8.2c-0.4,0-1.2-0.4-1.2-1.2c0-0.4,0.4-1.2,1.2-1.2h8.2c0.4,0,1.2,0.4,1.2,1.2
		C2707.1,862.8,2706.7,863.3,2705.8,863.3"/>
	<path fill="#00838F" d="M2705.8,867.3h-8.2c-0.4,0-1.2-0.4-1.2-1.2c0-0.4,0.4-1.2,1.2-1.2h8.2c0.4,0,1.2,0.4,1.2,1.2
		C2707.1,866.5,2706.7,867.3,2705.8,867.3"/>
	<path fill="#00838F" d="M2705.8,871.1h-8.2c-0.4,0-1.2-0.4-1.2-1.2c0-0.4,0.4-1.2,1.2-1.2h8.2c0.4,0,1.2,0.4,1.2,1.2
		C2707.1,870.7,2706.7,871.1,2705.8,871.1"/>
	<path fill="#00838F" d="M2705.8,874.8h-8.2c-0.4,0-1.2-0.4-1.2-1.2c0-0.4,0.4-1.2,1.2-1.2h8.2c0.4,0,1.2,0.4,1.2,1.2
		C2707.1,874.4,2706.7,874.8,2705.8,874.8"/>
	<path fill="#00838F" d="M2705.8,878.9h-8.2c-0.4,0-1.2-0.4-1.2-1.2c0-0.4,0.4-1.2,1.2-1.2h8.2c0.4,0,1.2,0.4,1.2,1.2
		C2707.1,878.1,2706.7,878.9,2705.8,878.9"/>
	<path fill="#00838F" d="M2705.8,882.7h-8.2c-0.4,0-1.2-0.4-1.2-1.2c0-0.4,0.4-1.2,1.2-1.2h8.2c0.4,0,1.2,0.4,1.2,1.2
		C2707.1,882.3,2706.7,882.7,2705.8,882.7"/>
	<path fill="#00838F" d="M2705.8,886.3h-8.2c-0.4,0-1.2-0.4-1.2-1.2c0-0.4,0.4-1.2,1.2-1.2h8.2c0.4,0,1.2,0.4,1.2,1.2
		C2707.1,885.9,2706.7,886.3,2705.8,886.3"/>
	<path fill="#00838F" d="M2705.8,890.5h-8.2c-0.4,0-1.2-0.4-1.2-1.2c0-0.4,0.4-1.2,1.2-1.2h8.2c0.4,0,1.2,0.4,1.2,1.2
		C2707.1,889.7,2706.7,890.5,2705.8,890.5"/>
	<path fill="#00838F" d="M2705.8,894.3h-8.2c-0.4,0-1.2-0.4-1.2-1.2c0-0.4,0.4-1.2,1.2-1.2h8.2c0.4,0,1.2,0.4,1.2,1.2
		C2707.1,893.8,2706.7,894.3,2705.8,894.3"/>
	<path fill="#00838F" d="M2705.8,898h-8.2c-0.4,0-1.2-0.4-1.2-1.2c0-0.4,0.4-1.2,1.2-1.2h8.2c0.4,0,1.2,0.4,1.2,1.2
		C2707.1,897.6,2706.7,898,2705.8,898"/>
	<path fill="#00838F" d="M2705.8,902.1h-8.2c-0.4,0-1.2-0.4-1.2-1.2c0-0.4,0.4-1.2,1.2-1.2h8.2c0.4,0,1.2,0.4,1.2,1.2
		C2707.1,901.3,2706.7,902.1,2705.8,902.1"/>
	<path fill="#00838F" d="M2705.8,905.8h-8.2c-0.4,0-1.2-0.4-1.2-1.2c0-0.4,0.4-1.2,1.2-1.2h8.2c0.4,0,1.2,0.4,1.2,1.2
		C2707.1,905.3,2706.7,905.8,2705.8,905.8"/>
	<path fill="#00838F" d="M2705.8,909.6h-8.2c-0.4,0-1.2-0.4-1.2-1.2c0-0.4,0.4-1.2,1.2-1.2h8.2c0.4,0,1.2,0.4,1.2,1.2
		C2707.1,909.1,2706.7,909.6,2705.8,909.6"/>
</g>
<polygon fill="#0097A7" points="2195.9,1009.2 2195.9,893 2203.4,893 2203.4,629.1 2620.7,629.1 2620.7,634.5 2612.7,634.5 
	2612.7,994.7 2612.7,1009.2 2563.1,1009.2 2563.1,974.8 2602.9,974.8 2602.9,945.1 2557,945.1 2557,874 2602.4,874 2602.4,744.1 
	2557.3,744.1 2557.3,669.7 2602.4,669.7 2602.4,654.4 2215,654.4 2215,945.9 2206.7,945.9 2206.7,1009.2 "/>
<rect x="2455.7" y="975.3" fill="#0097A7" width="55.8" height="33.9"/>
<rect x="2355.5" y="975.3" fill="#0097A7" width="53.4" height="33.9"/>
<rect x="2253" y="975.3" fill="#0097A7" width="53.4" height="33.9"/>
<path fill="#0097A7" d="M2629.6,988.2c-6.6,0-11.6-5.4-11.6-11.6l0,0c0-6.6,5.4-11.6,11.6-11.6h35.7c6.6,0,11.6,5.4,11.6,11.6l0,0
	c0,6.6-5.4,11.6-11.6,11.6H2629.6z"/>
<polyline fill="none" stroke="#0097A7" stroke-width="2" stroke-miterlimit="10" points="2215,937.7 2367.5,937.7 2367.5,777.3 
	2215,777.3 "/>
<polyline fill="none" stroke="#0097A7" stroke-width="2" stroke-miterlimit="10" points="2215,728 2543.3,728 2543.3,654.4 "/>
<line fill="none" stroke="#0097A7" stroke-width="2" stroke-miterlimit="10" x1="2379.2" y1="727.6" x2="2379.2" y2="654.4"/>
<path fill="#0097A7" d="M2311.8,990.6c0-10.3,8.7-19,19-19c10.3,0,19,8.7,19,19c0,10.3-8.7,19-19,19
	C2320,1010.1,2311.8,1001.3,2311.8,990.6"/>
<path fill="#0097A7" d="M2412.7,990.6c0-10.3,8.7-19,19-19c10.3,0,19,8.7,19,19c0,10.3-8.7,19-19,19
	C2421.4,1010.1,2412.7,1001.3,2412.7,990.6"/>
<path fill="#0097A7" d="M2518.5,990.6c0-10.3,8.7-19,19-19c10.3,0,19,8.7,19,19c0,10.3-8.7,19-19,19
	C2526.8,1010.1,2518.5,1001.3,2518.5,990.6"/>
<path fill="#0097A7" d="M2617.3,921.5c0-8.3,7-15.4,15.4-15.4c8.3,0,15.4,7,15.4,15.4c0,8.3-7,15.4-15.4,15.4
	C2624.1,937.2,2617.3,930.2,2617.3,921.5"/>
<path fill="#0097A7" d="M2617.3,659.4c0-8.3,7-15.4,15.4-15.4c8.3,0,15.4,7,15.4,15.4c0,8.3-7,15.4-15.4,15.4
	C2624.1,675.1,2617.3,668.1,2617.3,659.4"/>
<path fill="#0097A7" d="M2523.8,888c0-8.3,7-15.4,15.4-15.4c8.3,0,15.4,7,15.4,15.4c0,8.3-7,15.4-15.4,15.4
	C2530.5,903.6,2523.8,896.6,2523.8,888"/>
<path fill="#0097A7" d="M2523.8,779.5c0-8.3,7-15.4,15.4-15.4c8.3,0,15.4,7,15.4,15.4c0,8.3-7,15.4-15.4,15.4
	C2530.5,795.1,2523.8,788.1,2523.8,779.5"/>
<path fill="#0097A7" d="M2376.6,921.5c0-8.3,7-15.4,15.4-15.4c8.3,0,15.4,7,15.4,15.4c0,8.3-7,15.4-15.4,15.4
	C2383.3,937.2,2376.6,930.2,2376.6,921.5"/>
<path fill="#0097A7" d="M2680.7,967.2c0-8.3,7-15.4,15.4-15.4c8.3,0,15.4,7,15.4,15.4c0,8.3-7,15.4-15.4,15.4
	C2687.4,982.8,2680.7,975.8,2680.7,967.2"/>
<circle fill="#0097A7" cx="2664.7" cy="721.2" r="31.9"/>
<circle fill="#0097A7" cx="2648.3" cy="867.3" r="31.9"/>
<circle fill="#0097A7" cx="2408.5" cy="846.7" r="31.9"/>
<circle fill="#0097A7" cx="2556.6" cy="832.6" r="31.9"/>
<polyline fill="none" stroke="#0097A7" stroke-width="0.5" stroke-miterlimit="10" points="2557,943.9 2523.8,943.9 2523.8,906.2 
	2557,906.2 "/>
<path fill="#0097A7" d="M2498.2,878.6c0,13.3-10.9,23.4-23.4,23.4l0,0c-13.3,0-23.4-10.9-23.4-23.4V817c0-13.3,10.9-23.4,23.4-23.4
	l0,0c13.3,0,23.4,10.9,23.4,23.4V878.6z"/>
</svg>
