<?xml version="1.0" encoding="utf-8"?>
<!-- Generator: Adobe Illustrator 19.0.0, SVG Export Plug-In . SVG Version: 6.00 Build 0)  -->
<svg version="1.1" id="Layer_1" xmlns="http://www.w3.org/2000/svg" xmlns:xlink="http://www.w3.org/1999/xlink" x="0px" y="0px"
	 width="1238.8px" height="1888.6px" viewBox="630.4 597.8 1238.8 1888.6" enable-background="new 630.4 597.8 1238.8 1888.6"
	 xml:space="preserve">
<path fill="#455A64" d="M1145.2,2484.3l5.9-2.9l-6-10.6h90.4l-33.1-10.3c0,8.6,5.8,16.2,14.2,18.4c4.1,1,8.2,1.6,12.4,1.7l46.8-5.4
	l132.4-13.1l87.8-6.4l65.2-4.6l112.3-4l72.1-4.6l8.3-1.2c11.3-1.7,22.6-2.6,34-2.9c12.4-0.3,24.9-0.9,37.3-1.7
	c22.4-1.4,40.6-18.4,43.7-40.6l-22.4-422.9l-3.1-75.7l3.9-194.9l2.4-69.6c-5.1-19-17.3-34.6-33.1-44.4v-33.5l6.5,3.6
	c5.7,0,11.3-0.2,17-0.5c8.1-0.5,14.8-6.5,16.4-14.5c2.5-13,4-26.3,4.5-39.5l2.2-63.8l-1.6-143.8l-16.9-225l-11.1-123.4l-5.3-177.5
	c-0.5-6.4-4.6-12-10.6-14.3l-24.2,0.6v-43.6l0.7,0.3l3.7,1.2l2.9,0.8l2.2,0.5l1.7,0.3l1.3,0.2l1.1,0.1l1.1,0.1l1,0.1h1h1h1l1-0.1
	l1-0.1l1-0.2l1-0.2l1-0.3l1-0.4l1-0.4l0.9-0.5l0.9-0.6l0.8-0.6l0.7-0.7l0.7-0.8l0.6-0.9l0.5-0.9l0.4-1.1l0.3-1.2l0.3-1.3l0.2-1.4
	l0.2-1.6l0.1-1.7l0.1-1.9V698v-2.4V693v-2.9v-3.2v-3.5v-3.9v-4.2v-4.4v-4.6v-4.7v-4.7v-4.7v-4.7v-4.6v-4.4l-0.1-4.2l-0.1-4l-0.1-3.7
	l-0.1-3.4l-0.2-3l-0.2-2.7l-0.2-2.3l-0.3-1.9l-0.3-1.6l-0.4-1.3l-0.5-1.1l-0.5-0.9l-0.6-0.8l-0.7-0.7l-0.7-0.7l-0.8-0.7l-0.9-0.7
	l-1.5-0.4l-1-0.7l-1-0.7l-1.1-0.6l-1.1-0.6l-1.2-0.6l-1.5-0.6l-2.2-0.5l-3.2-0.5l-4.6-0.4l-6.3-0.4l-8.3-0.3l-10.6-0.3l-13.1-0.2
	l-15-0.2h-16.4l-17,0.1l-16.9,0.3l-16.1,0.5l-14.7,0.7l-12.6,1l-10,1.2l-7.8,1.4l-6.2,1.6l-5.2,1.6l-4.9,1.5l-5.1,1.4l-6,1.2
	l-7.5,0.9l-9.5,0.6l-11,0.3l-12.1,0.2l-12.6,0.2l-12.5,0.3l-11.9,0.6l-10.8,0.9l-9.1,1.4l-7,2l-5.1,2.5l-3.5,2.8l-2.2,3l-1.2,3.1
	l-0.6,3.1l-0.2,3l-0.2,2.7l-0.4,2.4l-0.6,2l-0.8,1.7l-1,1.5l-1.2,1.4l-1.3,1.3l-1.5,1.2l-1.6,1.2l-1.7,1.3l-1.7,1.4l-1.8,1.4
	l-1.8,1.5l-1.8,1.5l-1.8,1.5l-1.8,1.6l-1.8,1.6l-1.8,1.6l-1.7,1.6l-1.7,1.6l-1.7,1.6l-1.6,1.6l-1.6,1.6l-1.6,1.6l-1.6,1.6l-1.6,1.7
	l-1.6,1.7l-1.6,1.7l-1.6,1.7l-1.5,1.7l-1.5,1.7l-1.4,1.7l-1.4,1.7l-1.3,1.6l-1.2,1.6l-1.2,1.6l-1.1,1.6l-1.1,1.7l-1.1,1.7l-1.1,1.8
	l-1.1,1.9l-1.2,2l-1.2,2.1l-1.2,2.2l-1.2,2.2l-1.2,2.3l-1.2,2.3l-1.2,2.4l-1.2,2.4l-1.2,2.4l-1.1,2.5l-1.1,2.5l-0.5,1.1l-3.3,2.9
	l-3.4,2.4l-6,2l-8.7,1.4l-14.1,1l-16.3,1l-19.1,1l-91.7,1v-9.2h-19.4l-60.9-90.4l-5-7.9l-6.5-5l-11.9-1.1l-17.2,0.7l-40.9-1.4
	l-42.3-4.3l-79.6-0.8l-144.1-0.7L704.2,622l-34.4,0.5c-21.9,0.3-39.4,18.1-39.4,40v813.2l0.6,0.5l7.2,8.6l5.7,25.1l15.8,38
	l30.1,77.5l34.4,81.8l27.2,69.6l20.8,67.4l20.1,87.5l33.8,115l19.4,62.4l7.2,41.6v46.6l-4.3,40.9l1.4,38l22.9,49.5l45.9,62.4
	l43.7,57.4l19.4,14.3l39.4,12.9l25.1,4.3l27.2,2.9l33.7,2.9l27.2,3.6L1145.2,2484.3z M635.6,1007.5l9.5-21.6l4-10.2v37L635.6,1007.5
	z"/>
<path fill="#37474F" d="M832.5,1335.6l-3.6-14.4c-0.3-3.9,2.1-7.5,5.8-8.8l54.1-11.1c-27-118.5,18.4-282.1,225.8-310.4
	c0.4-7-3.8-32.5-3.8-32.5l-2.5,0.4l-1.6-10.1l-6.3,1.1l-2-11l15.1-3.2l-23.9-112.2c-49.6-7.5-100.2-5.5-149.1,6
	c-23.9,5.6-47.3,13.1-69.9,22.5c-20.3,8.4-39.9,18.2-58.8,29.5c-46.5,27.1-84.5,66.7-109.5,114.4c-23.1,54.3-32.3,113.5-26.7,172.2
	c1.2,58.3,15,115.6,40.5,168.1l10.3-5l11,20.6L832.5,1335.6z"/>
<g>
	<g id="LWPOLYLINE_58_">
		<path fill="#37474F" d="M979.7,1333.5c-17.8-4.2-35.9-6.8-54.1-7.9l11.5,32.1l6.8,7L979.7,1333.5z"/>
	</g>
	<path fill="#37474F" d="M1145.2,2484.3l5.9-2.9l-11-57.9c-1.3-6.7-2.5-13.4-3.6-20.1c-3.1-18.6-4.1-37.6-2.8-56.4
		c1.2-17.4,1.9-34.9,1.9-52.3c0.1-21.6-2-43.2-6.2-64.4c-0.3-1.4-0.9-2.7-1.8-3.7l-8.8-19.7l-13.3-38.6l-13.8-51.9l-31.2-110.7
		l-44.2-157l-45.4-162.1c-1.3-4.8-2.3-9.7-2.7-14.6l-2-3l-2.9-4.1l-3.9-5.7l-5.2-3.4l-11.7-7.5l2.7-10.5l-5.1-16.5L930,1617l2.8-7.3
		l-29-14.5l-3.2-1.4l-9.8,13l-70.8-55.3l6.1-9.3l-43.5-34.7l-26.8-34.1l-28.5-65.5l-10.6-51.5c-32.8-58.9-50.6-125-52-192.4
		c-4.2-44.8-0.1-89.9,12.2-133.2l0.4-0.4c4.2-14.7,9.2-29.1,15.2-43.2c25.7-48.8,64.5-89.4,112.2-117.2
		c19.3-11.5,39.4-21.6,60.2-30.2c23.2-9.6,47.2-17.3,71.6-23.1c43.4-10.2,88.2-13.1,132.5-8.6c18.6-26.6,47.9-43.7,80.2-46.8
		c32.5-3.2,65.2,4.5,92.9,21.9l37.1,23.3l24.3,17.6l23.4-0.3v-51.5h86.6l-0.1,4.7l-0.2,10.3l-0.1,12.2l-0.1,13.6v14.5v14.9l0.1,14.7
		l0.2,13.9l0.3,12.6l0.4,10.8l0.5,8.5l0.7,6.4l0.8,4.5l0.9,3l1,1.7l1.1,0.7h1.2l1.3-0.4l1.3-0.5l1.4-0.6l1.4-0.7l1.4-0.7l1.3-0.7
		l1.2-0.7l1.1-0.7l0.9-0.6l0.7-0.5l0.6-0.5l0.4-0.6l0.3-0.9l0.2-1.3l0.1-1.8v-2.4v-3.2v-4v-4.9v-5.8v-6.6v-7.4v-8.3v-9.1v-9.9
		l0.1-10.6l0.3-11.3l0.6-11.9l1.1-12.4l1.8-12.8l2.6-13.1l3.6-13.3l4.7-13.5l6-13.5l7.3-13.2l8.4-12.8l9.5-12.1l10.6-11.2l11.5-10.4
		l12.5-8.7l13.4-7.1l14.1-5.3l14.7-3.7l14.9-2.3l14.9-1l14.7,0.1l14.1,1l13.3,1.7l12.3,2.2l11,2.5l9.9,2.8l9.1,3.1l8.5,3.4l8.2,3.6
		l8.1,3.8l8.2,4l8.6,4.2l9.2,4.3l9.6,4.4l9.8,4.4l9.7,4.2l9.4,4l8.8,3.7l8,3.3l7,2.8l5.8,2.2l4.7,1.7l3.7,1.2l2.9,0.8l2.2,0.5
		l1.7,0.3l1.3,0.2l1.1,0.1l1.1,0.1l1,0.1h1h1h1l1-0.1l1-0.1l1-0.2l1-0.2l1-0.3l1-0.4l1-0.4l0.9-0.5l0.9-0.6l0.8-0.6l0.7-0.7l0.7-0.8
		l0.6-0.9l0.5-0.9l0.4-1.1l0.3-1.2l0.3-1.3l0.2-1.4l0.2-1.6l0.1-1.7l0.1-1.9V698v-2.4V693v-2.9v-3.2v-3.5v-3.9v-4.2v-4.4v-4.6v-4.7
		v-4.7v-4.7v-4.7v-4.6v-4.4l-0.1-4.2l-0.1-4l-0.1-3.7l-0.1-3.4l-0.2-3l-0.2-2.7l-0.2-2.3l-0.3-1.9l-0.3-1.6l-0.4-1.3l-0.5-1.1
		l-0.5-0.9l-0.6-0.8l-0.7-0.7l-0.7-0.7l-0.8-0.7l-0.9-0.7l-1.7-0.4l-1-0.7l-1-0.7l-1.1-0.6l-1.1-0.6l-1.2-0.6l-1.5-0.6l-2.2-0.5
		l-3.2-0.5l-4.6-0.4l-6.3-0.4l-8.3-0.3l-10.6-0.3l-13.1-0.2l-15-0.2h-16.4l-17,0.1l-16.9,0.3l-16.1,0.5l-14.7,0.7l-12.6,1l-10,1.2
		l-7.8,1.4l-6.2,1.6l-5.2,1.6l-4.9,1.5l-5.1,1.4l-6,1.2l-7.5,0.9l-9.5,0.6l-11,0.3l-12.1,0.2l-12.6,0.2l-12.5,0.3l-11.9,0.6
		l-10.8,0.9l-9.1,1.4l-7,2l-5.1,2.5l-3.5,2.8l-2.2,3l-1.2,3.1l-0.6,3.1l-0.2,3l-0.2,2.7l-0.4,2.4l-0.6,2l-0.8,1.7l-1,1.5l-1.2,1.4
		l-1.3,1.3l-1.5,1.2l-1.6,1.2l-1.7,1.3l-1.7,1.4l-1.8,1.4l-1.8,1.5l-1.8,1.5l-1.8,1.5l-1.8,1.6l-1.8,1.6l-1.8,1.6l-1.7,1.6l-1.7,1.6
		l-1.7,1.6l-1.6,1.6l-1.6,1.6l-1.6,1.6l-1.6,1.6l-1.6,1.7l-1.6,1.7l-1.6,1.7l-1.6,1.7l-1.5,1.7l-1.5,1.7l-1.4,1.7l-1.4,1.7l-1.3,1.6
		l-1.2,1.6l-1.2,1.6l-1.1,1.6l-1.1,1.7l-1.1,1.7l-1.1,1.8l-1.1,1.9l-1.2,2l-1.2,2.1l-1.2,2.2l-1.2,2.2l-1.2,2.3l-1.2,2.3l-1.2,2.4
		l-1.2,2.4l-1.2,2.4l-1.1,2.5l-1.1,2.5l-0.5,1.1l-3.3,2.9l-3.4,2.4l-6,2l-8.7,1.4l-14.1,1l-16.3,1l-19.1,1l-91.7,1v-9.2h-19.4
		l-60.9-90.4l-5-7.9l-6.5-5l-11.9-1.1l-17.2,0.7l-40.9-1.4l-42.3-4.3l-79.6-0.8l-144.1-0.7L704.2,622l-44.2,0.7
		c-16.4,0.2-29.5,13.6-29.5,30v823l0.6,0.5l7.2,8.6l5.7,25.1l15.8,38l30.1,77.5l34.4,81.8l27.2,69.6l20.8,67.4l20.1,87.5l33.8,115
		l19.4,62.4l7.2,41.6v46.6l-4.3,40.9l1.4,38l22.9,49.5l45.9,62.4l43.7,57.4l19.4,14.3l39.4,12.9l25.1,4.3l27.2,2.9l33.7,2.9
		l27.2,3.6L1145.2,2484.3z"/>
	<path fill="#37474F" d="M1436.8,1097.8v-65.6l-1.1-49.3c0-0.5-0.4-0.8-0.9-0.8c-0.2,0-0.4,0.1-0.5,0.2l-46.2,36.5l-65.2,57.5
		c0.9,1,1.7,2.1,2.6,3.1l14.9,22.7l6,10.1l10.8,11.8l11.4,7.9l15.7,9.3l16.8,7.9l14.7,3.9l13.6,0.7l8.9-0.4l4.3-0.8
		C1438.8,1134.5,1436.8,1116,1436.8,1097.8z"/>
	<path fill="#37474F" d="M1516.2,1552.9l7.4,5.4l12.2,7.4l15.5,7.1l23.7,10.9l27.6,11.8l76.7,35.6l13.3,5.5l1.7,0.9l21.2,10.7
		c4.3,2.2,7.4,6.2,8.4,11l0.8,62.1l1.2,72.7l0.9,72.3l1,48.5l0.7,23c0.1,2-0.4,4-1.4,5.7l-12.9,1c-1.1,0.1-1.9,1-1.9,2.1l6.9,62.8
		l6.4,53.6l5.1,47.1l4.1,38.3l3.9,34.8l6.1,49l10.2,84.4l3.6,33.5c0,0.3,0,0.6,0,0.9c-0.1,3.6-3.1,6.5-6.7,6.4l-79.7,3.2l-100.6,3.8
		l-46,1.7c-15.5,0.6-31.1,1.7-46.6,3.2l-61.3,8.8l-59.9,6.4l-83.7,11.1c-2.2,0.3-4.3-1.1-4.9-3.2l-2.3-43.3l-21.3-162l-8.4-75.5
		l-12.5-107c-0.2-2.1-1-4.1-2.2-5.8c-1.6-2.3-4-3.8-6.7-4.2c-4.5-0.6-9-1-13.5-1.3l-9.3,4l-12.8,10.7l-4.3,4.7
		c-7.9,8.8-11.1,20.7-8.9,32.3l12.3,68.9l6.9,48.7l6.8,70.8l5.3,60.1l2.4,42.9c1.8,32.6,2.4,65.3,1.8,98l0.1,26
		c0,8.7,5.9,16.3,14.4,18.4c4,1,8.1,1.6,12.3,1.7l46.8-5.4l132.4-13.1l87.8-6.4l65.2-4.6l112.3-4l72.1-4.6l8.3-1.3
		c11-1.7,22.1-2.6,33.3-2.9c12.7-0.3,25.4-0.9,38-1.7c22.4-1.4,40.6-18.4,43.7-40.6l-22.7-422.8l-3.1-75.7l3.9-194.9l2.4-69.6
		c-9.5-35.3-43-58.6-79.4-55.3l-126.2-7.7c-31.9-1.9-62.7-11.7-89.9-28.4l-24.8-14.7c-6.9-4.1-15.9-1.8-20,5.1
		c-4.1,6.9-1.8,15.9,5.1,20C1515,1552.5,1515.6,1552.8,1516.2,1552.9z"/>
	<path fill="#37474F" d="M1493.9,1578.9l0.3,27.7l1.2,85.7v58l2.8,127.6l0.3,62.8c0,2.4-0.9,4.8-2.5,6.6l-14.3,0.1l-52.2,2.2
		c-0.2,0-0.5,0-0.7,0c-2.1-0.3-3.7-2.2-3.4-4.4c0.3-2.1,2.2-3.7,4.4-3.4h14.2v-34.1l-2.9-143.6l-2.6-169.8l-14.1-0.6
		c-1.5-0.1-2.7-1.2-2.9-2.7s0.3-3.1,1.3-4.2l37-20.4c1.2-0.6,2.5-0.9,3.8-0.8l7.3,4.4c4.7,2.8,9.8,4.8,15.1,6l4.9,0.8
		C1492.4,1576.9,1493.4,1577.8,1493.9,1578.9z"/>
	<path fill="#37474F" d="M1132.2,1596.8l4.4-0.3l10.7-0.6c0.2,0,0.3,0,0.5,0c1.3,0.2,2.2,1.4,2,2.8c-0.2,1.3-1.4,2.2-2.8,2
		l-10.5,2.3c-1.2,0.3-2,1.3-2,2.6v6.3l-1.4,9.5v33.5l1.7,54.1l-0.3,58.7h3.4v4.8l1.7,118.2v63l12.3,0.3c2.8,0.9,4.7,3.5,4.9,6.4
		c0.1,3.9-2.9,7.1-6.8,7.3c-1.9-0.5-3.7-1-5.6-1.6c-6.3-2-11.6-6.5-14.6-12.4c-1-2-1.6-4.2-1.7-6.4l-9.7-45.5l-4-17.4
		c-4.2-18.4-10.6-36.2-19.1-53.1c-6.7-13.4-13.6-26.8-20.6-40.2c-7.3-14.1-14.4-28.2-21.3-42.6c-12.2-25.5-13.4-54.8-3.4-81.2
		c5.5-18.6,16.6-35,31.7-47.2C1095.7,1607.3,1113.4,1599.1,1132.2,1596.8z"/>
	<path fill="#37474F" d="M1491,1976l-52,1.9c-2.5,0.1-4.5,2.2-4.4,4.8c0.1,2.4,2,4.3,4.4,4.4l16.2-1.6l20.3,173l2.5,22.2l12.2,109.3
		l4.5,34c0.3,2.3-0.3,4.7-1.7,6.5l-13.1,1.1h-2l1.9,17.1l55.6-6.5c2.7-0.3,4.6-2.7,4.3-5.4c0-0.2-0.1-0.4-0.1-0.6l-23-188.4
		l-13.6-117.9l-4.9-47.3C1497.6,1979.1,1494.7,1976.3,1491,1976z"/>
	<path fill="#37474F" d="M1686.6,1549.9l-36.1-3.2c-12.9-1.2-25.7-3.6-38.1-7.3c-21.8-6.5-42.7-15.8-62.2-27.7
		c-4.6-2.8-8.4-6.6-11.3-11.1c-1.6-2.5-1.8-5.6-0.7-8.4c2.7-6.5,9-10.6,16-10.4c4.4,0.1,8.6,1.8,12,4.6c4.9,4.2,10.4,7.7,16.2,10.5
		c7.1,3.4,14.6,6.2,22.3,8.1c11.2,2.8,22.7,3.9,34.2,3.3c16.7-0.9,33.2-4.9,48.5-11.7c14.6-6.6,29.7-12.2,45-16.9
		c3.1-0.9,5.1-4,4.5-7.3l-0.7-70.4l-0.5-52.4l-1.1-57.5l-1.3-63l-0.2-65.5l-1.7-114.9l-1.7-122.5l-1.7-103c-0.1-7.4-3-14.4-8.1-19.7
		l-42.1-25l-89.6-57.7c-7.9-5.1-17.5-6.9-26.7-4.9c-10.4,2.2-20.6,5.3-30.5,9.3c-2.7,1.1-5.2,2.5-7.5,4.2c-6.3,4.7-12,10.1-17,16.2
		c-6.3,7.6-11.5,16-15.6,25c-2.8,6.1-4.7,12.5-5.9,19c-1.7,9.7-2.5,19.6-2.4,29.4l-2.4,75.2l-0.2,159.3l-1.2,97.4
		c0,2.6-2.1,4.8-4.7,4.9c-2.7,0.1-5.1-2-5.2-4.7l-3.5-41.9l-0.7-51.1l-0.5-78l-0.9-69.2l-0.9-64.3l-0.5-30.5
		c-0.4-24.3,4.3-48.4,13.8-70.7c11.7-27.4,34.4-48.6,62.6-58.2c33.5-11.4,69.7-12.1,103.5-1.8l65.5,26.8l110.4,44.1
		c6,2.4,10.1,7.9,10.6,14.3l5.3,177.5l11.2,123.4l16.9,225l1.5,143.8l-2.4,63.9c-0.5,13.3-2,26.5-4.5,39.5
		c-1.5,8-8.3,13.9-16.4,14.5c-5.6,0.4-11.3,0.5-16.9,0.5L1686.6,1549.9z"/>
	<path fill="#37474F" d="M981.7,1630.8l4,1.6c3.2,2.2,5.8,5.1,7.5,8.6l20.2,41.5c1.3,1.9,2.1,4.1,2.1,6.4l0.1,4.9
		c-0.9,13.1,0,26.3,2.8,39.2l26.9,68l15,30.4c22.6,45.8,37.7,94.8,44.9,145.4l24.3,114.7c6.3,29.6,10.4,59.5,12.4,89.7l8.4,91.1
		l4.9,70.1c2.9,41.5,3.6,83.1,2,124.6c0.1,3.1-0.2,6.2-1.1,9.2l-10.2-53.8c-1.3-6.7-2.5-13.5-3.6-20.2c-3-18.1-3.9-36.4-2.7-54.7
		c1.2-17.6,1.9-35.1,1.9-52.7c0.1-22-2-44-6.4-65.6c-0.4-2-1.3-4-2.5-5.7l-8.4-18.8l-13.1-38.1l-13.7-51.8l-31.3-110.7l-44.2-157
		L976.5,1685c-3.2-11.3-3.7-23.2-1.6-34.7C976.3,1643.5,978.6,1636.8,981.7,1630.8z"/>
	<path fill="#37474F" d="M1384,988.8l50.5-42.6c0.2-0.2,0.3-0.4,0.3-0.7l-0.3-14.8c0-0.5-0.4-0.8-0.9-0.8c-0.1,0-0.3,0-0.4,0.1
		l-127.6,75.4l-18.9,8.7l-4,6.4l3.8,17.6c5.8,5.8,11.9,11.5,18.1,17L1384,988.8z"/>
	<path fill="#37474F" d="M1227.6,791.9l-19-8.2l-23.3-6.1l-21.8-2.1l-21.8,2.1l-15,5l-12.9,7.5l-7.5,6.4l-7.5,7.9l-4.2,7.2
		l142.9,16.8c4.4,0.6,7.5,4.7,6.8,9.1l-4,37.6l9.9,6l11.4,6.8c-4.7-2.8-7.6-7.8-7.7-13.3l3-41.8c0-0.7,0.1-1.3,0.3-2
		c1.7-8.2,9.7-13.4,17.9-11.7l-25.3-14.7L1227.6,791.9z"/>
	<path fill="#37474F" d="M1565.1,1444.6l3.7-5.7c1.7-2.6,2.7-5.6,2.9-8.7c0.8-12.1,0.9-24.2,0.3-36.3c-0.3-6.3-1.1-12.6-2.3-18.9
		v-51.2h-12.9l-8-127.5h14.1c1.7,0,3-1.3,3-3v-4.5c0-1.7-1.3-3-3-3l-66.8-0.1c-3.4,0.7-5.5,4-4.8,7.4v0.1l29.8,75l24.3,62.5
		c0,0.1,0,0.2,0,0.3c0,1.5,0.5,2.9,1.3,4.1l1.6,4.2c5.1,13.1,8.2,26.8,9.2,40.8c1.4,18.9,0.4,37.8-3,56.4c-0.7,4.1,1.9,7.9,6,8.7
		C1562.2,1445.5,1563.7,1445.3,1565.1,1444.6z"/>
	<g id="LWPOLYLINE_57_">
		<path fill="#37474F" d="M991.3,1356.1l36.2,48l-29.7,51.6l-29.4,45.4c-3.1,4.8-8.4,7.7-14.1,7.8c-3.7,0.1-7.4-0.7-10.8-2.2
			l-12.4-10.2l4.4-7.3l-2.7-2c-10.6-8.1-18.2-19.5-21.6-32.4c-1.1-4-1.1-8.3,0-12.3l46.6-60.3L991.3,1356.1z"/>
	</g>
	<g id="LWPOLYLINE_56_">
		<path fill="#37474F" d="M1214.7,989.2l30-47.9l13.3,9l7.9-11.6l49.9,33.2l-7.7,7.4l-29.5,16.4l-32,20.2l-31.5-20.3
			c-0.3-0.2-0.6-0.5-0.9-0.8C1212.8,993.2,1213,990.7,1214.7,989.2"/>
	</g>
	<g id="LWPOLYLINE_55_">
		<path fill="#37474F" d="M1124.2,1499.8l0.8,42.9v11.1c-2.5,0.5-5,1-7.4,1.5c-10.3,2.3-20.5,4.7-30.8,7.1
			c-30.8,7.4-59.3,22-83.2,42.7l-29.6-60.4c-3.3-6.7-2.9-14.7,1.2-21l63.2-106.9c0.1-0.2,0.3-0.4,0.4-0.6c1.6-1.9,4.4-2.2,6.3-0.6
			l2.3,1.9c19.9,16.8,43,29.3,68,36.6c5.1,1.5,8.5,6.2,8.3,11.5L1124.2,1499.8L1124.2,1499.8z"/>
	</g>
	<path fill="#37474F" d="M1141.9,1437.3c12.3-1.9,24.3-5.2,35.8-9.6c15.7-6,31-12.8,46.1-20.2l47.1-38.3l5.2-7.1l24.7-40.1l0.2-0.7
		c9.5-18.2,14-42.1,17.3-63.9l9.5-59.2l2.7-36.2c0.4-4.9-0.9-9.8-3.7-14l-21.4-35.2l-10.1-12.5l-10.6,9.3l-5.1,5.6
		c-4.4,4.9-7.2,11.1-7.7,17.7l-1.2,6l-1.8,6.8l-1.4,8.2l-2.5,7.5l-1.8,6.1l-0.8,12.3l1,49c3.5,19.8,0.9,40.1-7.4,58.4l-3.3,8.9
		l-0.1-0.1l-1.4,2.1c-28.4,43.6-74.7,72.2-126.4,78l-8.6,0.7l-100.9-70.3l-7.5,0.4l2.5,9.7l2.9,9.7l3.2,10l4.1,9l0.2,0.5l4,10.6
		c5.4,14.3,13.3,27.5,23.3,39.1c7.4,8.6,16.1,16.1,25.7,22.1c10.2,6.4,20.6,12.4,31.2,18.1c4.6,2.4,9.7,3.6,14.9,3.5
		C1127.1,1439.1,1134.5,1438.5,1141.9,1437.3z"/>
	<path fill="#37474F" d="M1279.1,1080.5l-2.9-3.6l-38.7-34.3l-26.5,4.4l-43.9-32.9c-2.3-1.7-5.3-1.9-7.8-0.5l-15,15.9
		c7.4,13.6,22.9,36.6,31.9,49.2c4.9,6.4,10,12.7,15.3,18.8c12.4,11.2,25.6,21.5,39.6,30.7L1279.1,1080.5z"/>
</g>
<path fill="#26C6DA" d="M976.6,1242.6c0-84.1,64.9-153.1,147.4-159.6l-6.6-63.7c-114.7,9.8-204.8,106-204.8,223.2
	c0,22.2,3.2,43.6,9.3,63.9l61.8-16.6C979.1,1274.9,976.6,1259.1,976.6,1242.6z"/>
<path fill="#26C6DA" d="M1132.3,1169.5l-5.6-60.3c-69.2,5.1-123.8,62.9-123.8,133.5c0,14.1,2.2,27.7,6.2,40.5l53.3-15.3
	L1132.3,1169.5z"/>
<g id="LWPOLYLINE_52_">
	<polygon fill="#607D8B" points="1250.3,1412.3 1283.6,1435 1305.9,1402.9 1313.8,1408 1319.2,1404.3 1362.7,1409.3 1373.2,1394.5 
		1351.7,1353 1354.5,1348.8 1345.4,1342.5 1368.2,1310.3 1334.7,1287.9 	"/>
</g>
<polygon fill="#607D8B" points="1182,1348.5 1256.5,1241 1162.3,1173.6 1195.5,1126.1 1175.8,1110 1147.5,1112.5 1150,1146.5 
	1156.5,1150.8 1098.4,1231.1 1058,1287 1053.3,1283.5 1030.7,1287.5 1032.2,1308.5 1069.4,1335.5 1099.5,1292 "/>
<polygon fill="#FFFFFF" fill-opacity="0.35" stroke="#FFFFFF" stroke-miterlimit="10" points="1108.3,971.1 1108,976.2 
	1107.6,981.6 1107.2,987.2 1106.7,993 1106.2,998.8 1105.6,1004.8 1104.9,1010.7 1104.2,1016.6 1103.4,1022.5 1102.6,1028.3 
	1101.7,1034.1 1100.7,1039.8 1099.7,1045.5 1098.6,1051 1097.4,1056.6 1096.1,1062.1 1094.7,1067.6 1093.2,1073.1 1091.6,1078.5 
	1090,1083.8 1088.2,1089.1 1086.4,1094.5 1084.5,1099.6 1082.5,1104.8 1080.5,1109.9 1078.3,1114.9 1076.2,1119.8 1074,1124.8 
	1071.7,1129.5 1069.5,1133.9 1067.3,1138.3 1065.1,1142.5 1063,1146.5 1060.9,1150.3 1058.8,1153.8 1056.8,1157.3 1054.8,1160.6 
	1052.8,1163.8 1050.9,1166.9 1048.9,1170 1047,1172.9 1045.1,1175.8 1043.2,1178.8 1041.3,1181.5 1039.4,1184.5 1037.5,1187.3 
	1035.5,1190 1033.4,1192.8 1031.3,1195.6 1029.1,1198.5 1026.9,1201.3 1024.6,1204.3 1022.3,1207.1 1020,1210 1017.6,1212.9 
	1015.2,1215.8 1012.7,1218.6 1010.3,1221.5 1007.7,1224.5 1005.2,1227.3 1002.5,1230.1 999.7,1233 996.9,1235.9 993.9,1238.8 
	990.8,1241.8 987.5,1244.6 984.1,1247.6 980.6,1250.5 977,1253.5 973.2,1256.5 969.3,1259.5 965.3,1262.5 961.2,1265.5 
	956.9,1268.6 952.6,1271.6 948.3,1274.6 943.9,1277.5 939.4,1280.5 935,1283.3 930.6,1286.1 926.3,1288.8 922,1291.5 917.8,1293.9 
	913.6,1296.5 909.4,1298.8 905.3,1301.1 901.3,1303.3 897.3,1305.5 893.3,1307.6 889.4,1309.6 885.5,1311.6 881.8,1313.5 
	878.1,1315.3 874.5,1316.9 871,1318.5 867.7,1319.9 864.5,1321.3 861.5,1322.3 858.9,1323.5 856.6,1324.3 854.9,1325.1 
	853.8,1325.8 853.3,1326.3 853.6,1326.6 854.8,1326.8 856.7,1326.9 859.3,1326.9 862.5,1326.8 866.1,1326.6 870.2,1326.5 
	874.5,1326.3 878.9,1326 883.5,1325.8 888.1,1325.8 892.8,1325.5 897.5,1325.5 902.3,1325.5 907,1325.5 911.7,1325.6 916.4,1325.8 
	921.1,1326 925.7,1326.3 930.3,1326.6 934.8,1327.1 939.3,1327.6 943.7,1328.1 948.1,1328.8 952.5,1329.3 956.8,1329.9 
	961.1,1330.6 965.3,1331.3 969.6,1332.1 973.8,1332.9 978,1333.8 982.3,1334.8 986.6,1335.8 990.9,1336.8 995.3,1338 999.6,1339.3 
	1004,1340.8 1008.4,1342.1 1012.7,1343.8 1017,1345.5 1021.3,1347.3 1025.6,1349.1 1029.8,1351.1 1033.9,1353.3 1037.9,1355.5 
	1041.9,1357.6 1045.7,1359.8 1049.4,1362.1 1052.9,1364.3 1056.3,1366.6 1059.5,1368.8 1062.6,1371.1 1065.6,1373.5 1068.6,1375.8 
	1071.6,1378.1 1074.5,1380.5 1077.4,1383.1 1080.4,1385.8 1083.4,1388.5 1086.5,1391.3 1089.5,1394 1092.5,1396.8 1095.4,1399.5 
	1098.3,1402.3 1101.2,1404.8 1103.9,1407.3 1106.6,1409.6 1109.2,1411.9 1111.6,1414.1 1114.1,1416.1 1116.4,1418.1 1118.6,1420 
	1120.8,1421.8 1122.8,1423.5 1124.8,1425.1 1126.6,1426.6 1128.2,1427.8 1129.6,1428.8 1130.7,1429.6 1131.6,1430 1132.1,1430 
	1132.3,1429.6 1132.2,1428.9 1131.9,1427.8 1131.3,1426.5 1130.7,1424.9 1129.9,1423.3 1129.1,1421.3 1128.4,1419.3 1127.7,1417.3 
	1127,1415.3 1126.5,1413.1 1126,1410.8 1125.5,1408.5 1125.2,1405.8 1124.9,1403 1124.6,1400.1 1124.5,1396.9 1124.4,1393.6 
	1124.3,1390.1 1124.4,1386.5 1124.5,1382.8 1124.6,1378.9 1124.8,1375.1 1125.1,1371.3 1125.5,1367.5 1125.9,1363.8 1126.4,1359.9 
	1126.9,1356.3 1127.6,1352.5 1128.4,1348.8 1129.2,1344.9 1130.2,1341.3 1131.3,1337.5 1132.5,1333.6 1133.8,1329.8 1135.2,1326 
	1136.7,1322.1 1138.4,1318.3 1140.1,1314.3 1142,1310.5 1143.9,1306.5 1146,1302.5 1148.2,1298.3 1150.4,1294.3 1152.7,1290.3 
	1155.1,1286.3 1157.5,1282.3 1160,1278.3 1162.5,1274.3 1165.1,1270.5 1167.6,1266.6 1170.2,1262.8 1172.8,1259.3 1175.3,1255.6 
	1177.7,1252.1 1180.1,1248.8 1182.5,1245.6 1184.7,1242.6 1186.9,1239.8 1189.1,1236.9 1191.2,1234.1 1193.3,1231.5 1195.4,1229 
	1197.6,1226.5 1199.7,1224.3 1201.8,1221.8 1204,1219.6 1206.2,1217.5 1208.4,1215.3 1210.7,1213.1 1213.1,1211.1 1215.5,1209.1 
	1218,1207.3 1220.5,1205.5 1223.2,1203.5 1225.9,1201.8 1228.7,1200 1231.5,1198.3 1234.5,1196.5 1237.5,1194.8 1240.6,1193.1 
	1243.7,1191.5 1246.9,1189.8 1250.1,1188.1 1253.3,1186.5 1256.5,1184.8 1259.6,1183.3 1262.7,1181.8 1265.7,1180.3 1268.7,1178.8 
	1271.5,1177.5 1274.4,1176.1 1277.2,1174.8 1279.9,1173.8 1282.6,1172.6 1285.4,1171.6 1288.1,1170.6 1290.7,1169.8 1293.4,1169 
	1296,1168.3 1298.6,1167.6 1301.1,1167 1303.5,1166.5 1305.8,1165.9 1308,1165.3 1310.2,1164.8 1312.2,1164.3 1314.1,1163.9 
	1316,1163.5 1317.7,1163.1 1319.4,1162.8 1320.9,1162.5 1322.4,1162.1 1323.7,1161.8 1324.8,1161.6 1325.5,1161.3 1325.9,1161.3 
	1325.9,1161 1325.4,1160.8 1324.4,1160.8 1322.7,1160.5 1320.5,1160.5 1317.9,1160.3 1315,1160.1 1311.8,1159.9 1308.6,1159.8 
	1305.4,1159.6 1302.2,1159.3 1299.3,1159 1296.5,1158.8 1293.8,1158.3 1291.3,1157.9 1288.8,1157.5 1286.3,1156.8 1283.8,1156.1 
	1281.2,1155.3 1278.5,1154.5 1275.8,1153.5 1272.9,1152.3 1270.1,1151.1 1267.2,1149.8 1264.3,1148.5 1261.5,1147.3 1258.7,1145.8 
	1255.9,1144.5 1253.2,1142.9 1250.5,1141.5 1247.7,1139.9 1245,1138.3 1242.2,1136.8 1239.3,1134.9 1236.4,1133.1 1233.4,1131.1 
	1230.2,1129.1 1227,1126.9 1223.6,1124.8 1220.2,1122.3 1216.7,1119.8 1213.2,1117 1209.6,1114.1 1205.9,1111.1 1202.2,1108 
	1198.5,1104.8 1194.9,1101.5 1191.3,1098.1 1187.9,1094.8 1184.6,1091.5 1181.4,1088.5 1178.5,1085.3 1175.8,1082.3 1173.2,1079.3 
	1170.8,1076.5 1168.4,1073.6 1166.2,1070.8 1164,1067.8 1161.8,1064.8 1159.7,1061.6 1157.5,1058.5 1155.4,1055.2 1153.2,1051.9 
	1151.1,1048.6 1149,1045.2 1147,1041.8 1145,1038.5 1143.1,1035 1141.2,1031.6 1139.4,1028.3 1137.6,1025.1 1136,1021.9 
	1134.4,1018.8 1132.9,1015.8 1131.6,1012.9 1130.3,1010.2 1129.1,1007.6 1128.1,1005 1127,1002.5 1126.1,1000.1 1125.1,997.6 
	1124.2,995.1 1123.2,992.5 1122.2,989.8 1121.2,986.9 1120.2,984 1119.2,981 1118.2,977.8 1117.2,974.6 1116.3,971.2 1115.4,967.7 
	1114.5,964.2 1113.7,960.5 1113,957 1112.3,953.5 1111.7,950.2 1111.1,947.2 1110.7,944.6 1110.3,942.3 1110,940.6 1109.8,939.3 
	1109.6,938.6 1109.5,938.3 1109.4,938.6 1109.4,939.3 1109.3,940.5 1109.3,942.2 1109.3,944.4 1109.2,947 1109.1,950.1 
	1109.1,953.6 1108.9,957.5 1108.8,961.7 1108.6,966.2 "/>
<g>
	<circle fill="#F5426E" cx="1401" cy="1641.5" r="36.3"/>
	<circle fill="#F5426E" cx="1330" cy="2061.5" r="36.3"/>
	<circle fill="#F5426E" cx="1657.4" cy="1709.3" r="36.3"/>
	<circle fill="#F5426E" cx="1634.9" cy="2247.3" r="36.3"/>
</g>
<g>
	<path fill="#26C6DA" d="M1390.4,2204.3v-86.2c0-1.7,1.3-3,3-3h65.8c1.7,0,3,1.3,3,3v86.2c0,1.7-1.3,3-3,3h-65.8
		C1391.7,2207.3,1390.4,2205.8,1390.4,2204.3z"/>
	<path fill="#26C6DA" d="M1164.9,1936.3V1781c0-1.7,1.3-3,3-3h120.2c1.7,0,3,1.3,3,3v155.3c0,1.7-1.3,3-3,3h-120.2
		C1166.3,1939.3,1164.9,1937.9,1164.9,1936.3z"/>
	<path fill="#26C6DA" d="M1634.6,2114.5v-86.7c0-1.7,1.3-3,3-3h51.8c1.7,0,3,1.3,3,3v86.7c0,1.7-1.3,3-3,3h-51.8
		C1635.9,2117.5,1634.6,2116.1,1634.6,2114.5z"/>
</g>
<g id="LWPOLYLINE_51_">
	<rect x="1377.5" y="1282.5" fill="#2A8EA2" width="14.1" height="13.1"/>
</g>
<g id="LWPOLYLINE_50_">
	<rect x="1271" y="1455" fill="#2A8EA2" width="14.1" height="13.1"/>
</g>
<path fill="#2A8EA2" d="M1584.8,2047.3v-35.6c0-1.7,1.3-3,3-3h13.6c1.7,0,3,1.3,3,3v35.6c0,1.7-1.3,3-3,3h-13.6
	C1586.1,2050.3,1584.8,2048.8,1584.8,2047.3z"/>
<path fill="#B0BEC5" d="M1297.7,2321.4l-9.9-9.9c-0.5-0.5-0.5-1.2,0-1.7l3.8-3.8c0.5-0.5,1.2-0.5,1.7,0l9.9,9.9
	c0.5,0.5,0.5,1.2,0,1.7l-3.8,3.8C1298.9,2321.9,1298.2,2321.8,1297.7,2321.4z"/>
<path fill="#B0BEC5" d="M1500.1,1612.9l9.9-9.9c0.5-0.5,1.2-0.5,1.7,0l3.8,3.8c0.5,0.5,0.5,1.2,0,1.7l-9.9,9.9
	c-0.5,0.5-1.2,0.5-1.7,0l-3.8-3.8C1499.7,1614.1,1499.7,1613.4,1500.1,1612.9z"/>
<path fill="#B0BEC5" d="M1434.4,1326.4l13.9-1.9c0.7-0.1,1.2,0.4,1.3,1l0.7,5.3c0.1,0.7-0.4,1.2-1,1.3l-13.9,1.9
	c-0.7,0.1-1.2-0.4-1.3-1l-0.7-5.3C1433.3,1327.1,1433.7,1326.5,1434.4,1326.4z"/>
<path fill="#B0BEC5" d="M1324.2,1503.1l-3.5-13.6c-0.2-0.6,0.2-1.3,0.9-1.4l5.2-1.3c0.6-0.2,1.3,0.2,1.4,0.9l3.5,13.6
	c0.2,0.6-0.2,1.3-0.9,1.4l-5.2,1.3C1324.9,1504.1,1324.3,1503.7,1324.2,1503.1z"/>
<path fill="#2A8EA2" d="M1599,1886.8v-35.6c0-1.7,1.3-3,3-3h13.6c1.7,0,3,1.3,3,3v35.6c0,1.7-1.3,3-3,3H1602
	C1600.3,1889.8,1599,1888.3,1599,1886.8z"/>
<path fill="#7CB342" d="M1365,1864.1L1365,1864.1c-5.8-0.6-11,3.5-11.8,9.2c-5.8-0.6-11,3.5-11.8,9.2c1-3.8,0.2-7.8-2.2-10.9
	c-2.4-3.1-6.1-4.9-10.1-4.8c1-3.8,0.2-7.8-2.2-10.9c-2.4-3.1-6.1-4.9-10.1-4.8c5.8,0.6,11-3.5,11.8-9.2c5.8,0.6,11-3.5,11.8-9.2
	c-1,3.8-0.2,7.8,2.2,10.9c2.4,3.1,6.1,4.9,10.1,4.8c-1,3.8-0.2,7.8,2.2,10.9C1357.3,1862.5,1361,1864.3,1365,1864.1"/>
<path fill="#7CB342" d="M1664.9,1825.8L1664.9,1825.8c-0.7-5.8-5.8-9.9-11.5-9.5c-0.7-5.7-5.8-9.9-11.5-9.5
	c3.9,0.2,7.7-1.5,10.2-4.5s3.4-7.1,2.5-10.9c3.9,0.2,7.7-1.5,10.2-4.5s3.4-7.1,2.5-10.9c0.7,5.7,5.8,9.9,11.5,9.5
	c0.7,5.7,5.8,9.9,11.5,9.5c-3.9-0.2-7.7,1.5-10.2,4.5s-3.4,7.1-2.5,10.9c-3.9-0.2-7.7,1.5-10.2,4.5
	C1664.9,1818,1664,1822,1664.9,1825.8"/>
<path fill="#7CB342" d="M1563.7,2032.9L1563.7,2032.9c-5.7-1.1-11.2,2.4-12.6,8c-5.7-1.1-11.2,2.4-12.6,8c1.4-3.7,1-7.8-1.1-11.1
	s-5.6-5.5-9.6-5.8c1.4-3.7,1-7.8-1.1-11.1s-5.6-5.5-9.6-5.8c5.7,1.1,11.2-2.4,12.6-8c5.7,1.1,11.2-2.4,12.6-8
	c-1.4,3.7-1,7.8,1.1,11.1s5.6,5.5,9.6,5.8c-1.4,3.7-1,7.8,1.1,11.1C1556.3,2030.5,1559.8,2032.6,1563.7,2032.9"/>
<path fill="#B0BEC5" d="M980.3,1340.9l11.1,11.2c1.2,1.2,1.1,3.1,0,4.2l-74.1,73.1c-1.2,1.2-3.1,1.1-4.2,0l-11.1-11.2
	c-1.2-1.2-1.1-3.1,0-4.2l74.1-73.1C977.3,1339.8,979.2,1339.8,980.3,1340.9z"/>
<path fill="#B0BEC5" d="M967.9,1489.8l-16.8,16.2c-1.2,1.2-3.1,1.1-4.2-0.1l-45.7-47.2c-1.2-1.2-1.1-3.1,0.1-4.2l16.8-16.2
	c1.2-1.2,3.1-1.1,4.2,0.1l45.7,47.2C969.1,1486.6,969.1,1488.5,967.9,1489.8z"/>
<path fill="#B0BEC5" d="M1180.8,1006.4l11.2,11.1c1.2,1.2,3.1,1.1,4.2,0l73.1-74.1c1.2-1.2,1.1-3.1,0-4.2l-11.2-11.1
	c-1.2-1.2-3.1-1.1-4.2,0l-73.1,74.1C1179.6,1003.4,1179.6,1005.3,1180.8,1006.4z"/>
<path fill="#B0BEC5" d="M1329.6,994l16.2-16.8c1.2-1.2,1.1-3.1-0.1-4.2l-47.2-45.7c-1.2-1.2-3.1-1.1-4.2,0.1l-16.2,16.8
	c-1.2,1.2-1.1,3.1,0.1,4.2l47.2,45.7C1326.5,995.2,1328.4,995.2,1329.6,994z"/>
<path fill="#5C6BC0" d="M1178.1,1731.8v-53.9c0-1.7,1.3-3,3-3h53.9c1.7,0,3,1.3,3,3v53.9c0,1.7-1.3,3-3,3h-53.9
	C1179.4,1734.8,1178.1,1733.5,1178.1,1731.8z"/>
<rect x="1380.1" y="1704.6" fill="#5C6BC0" width="59.9" height="59.9"/>
<path fill="#5C6BC0" d="M1522.8,1813.3v-53.9c0-1.7,1.3-3,3-3h53.9c1.7,0,3,1.3,3,3v53.9c0,1.7-1.3,3-3,3h-53.9
	C1524.1,1816.3,1522.8,1814.8,1522.8,1813.3z"/>
<path fill="#5C6BC0" d="M1633.1,1934.8v-53.9c0-1.7,1.3-3,3-3h53.9c1.7,0,3,1.3,3,3v53.9c0,1.7-1.3,3-3,3h-53.9
	C1634.4,1937.8,1633.1,1936.5,1633.1,1934.8z"/>
<path fill="#5C6BC0" d="M1526.1,2204.8v-53.9c0-1.7,1.3-3,3-3h53.9c1.7,0,3,1.3,3,3v53.9c0,1.7-1.3,3-3,3h-53.9
	C1527.4,2207.8,1526.1,2206.5,1526.1,2204.8z"/>
<rect x="1402.4" y="1810.5" fill="#5C6BC0" width="39" height="30"/>
<path fill="#5C6BC0" d="M1503.4,1868.8h24c1.7,0,3,1.3,3,3v33c0,1.7-1.3,3-3,3h-24c-1.7,0-3-1.3-3-3v-33
	C1500.4,1870,1501.7,1868.8,1503.4,1868.8z"/>
<path fill="#B0BEC5" d="M741,920.2l-28.7-32c0,0-59.6,53.6-76.6,119.3l31,12l-2.2,7.5l11.8,3.3C676.2,1030.2,688.6,973.1,741,920.2z
	"/>
<g id="LWPOLYLINE_53_">
	<polygon fill="#B0BEC5" points="1396.2,1475.8 1416.7,1475.3 1438.1,1492.5 1468.3,1455.3 1447.5,1402.9 1428.1,1408.6 
		1408.2,1395.3 1398.2,1409.5 1394,1406.6 1387,1406.6 1379.3,1416.5 1381.7,1423.5 1385.2,1426.6 1373.6,1442.6 1396,1458.3 	"/>
</g>
<path fill="#B0BEC5" d="M1314.5,1490.3l4.7,18.5c0.4,1.6-0.6,3.2-2.2,3.6l-108.5,27.7c-1.6,0.4-3.2-0.6-3.6-2.2l-4.7-18.5
	c-0.4-1.6,0.6-3.2,2.2-3.6l108.6-27.7C1312.5,1487.6,1314.1,1488.6,1314.5,1490.3z"/>
<path fill="#B0BEC5" d="M1450.2,1315.9l-21,3.3c-1.6,0.3-3.2-0.9-3.4-2.5l-20-127.8c-0.3-1.6,0.9-3.2,2.5-3.4l21-3.3
	c1.6-0.3,3.2,0.9,3.4,2.5l20,127.8C1453,1314.1,1451.9,1315.8,1450.2,1315.9z"/>
<path fill="#B0BEC5" d="M1336.7,1279.3l7.3,0.5c1.6,0.1,3-1.6,3.2-3.8l7.8-20.5l-0.9-78.2c0.2-2.2-1-4.1-2.6-4.2l-7.3-0.5
	c-1.6-0.1-3,1.6-3.2,3.8l-6.9,98.7C1333.9,1277.3,1335.1,1279.3,1336.7,1279.3z"/>
<path fill="#B0BEC5" d="M1246.5,1419.9l2.3,7c0.5,1.5-0.8,3.3-2.9,4l-18,12.5l-76.1,18c-2.1,0.7-4.2,0-4.7-1.5l-2.3-7
	c-0.5-1.5,0.8-3.3,2.9-4l94.1-30.5C1243.9,1417.8,1246,1418.5,1246.5,1419.9z"/>
<polygon fill="#CFD8DC" points="1721.5,2322.7 1721.5,2219.6 1721.5,2219.6 1721.5,2212.8 1681.2,2212.8 1681.2,2234.6 
	1699.7,2234.6 1699.7,2322.7 "/>
<path fill="#B0BEC5" d="M1311.6,2316.5v-15.8c0-1.7,1.3-3,3-3h130c1.7,0,3,1.3,3,3v15.8c0,1.7-1.3,3-3,3h-130
	C1313,2319.5,1311.6,2318.1,1311.6,2316.5z"/>
<path fill="#5C6BC0" d="M1515.3,2081l12.6-1.4c1.6-0.2,3.1,1,3.3,2.7l4.2,38.9c0.2,1.6-1,3.1-2.7,3.3l-12.6,1.4
	c-1.6,0.2-3.1-1-3.3-2.7l-4.2-38.9C1512.5,2082.6,1513.7,2081.3,1515.3,2081z"/>
<path fill="#B0BEC5" d="M1438.6,1796.9v-10c0-1.7,1.3-3,3-3h54.8c1.7,0,3,1.3,3,3v10c0,1.7-1.3,3-3,3h-54.8
	C1440,1799.9,1438.6,1798.6,1438.6,1796.9z"/>
<path fill="#B0BEC5" d="M1458.6,2039.3v-10c0-1.7,1.3-3,3-3h41.8c1.7,0,3,1.3,3,3v10c0,1.7-1.3,3-3,3h-41.8
	C1460,2042.3,1458.6,2040.9,1458.6,2039.3z"/>
<path fill="#B0BEC5" d="M1513.6,1621.8l4.9-11.5c0.6-1.5,2.4-2.2,3.9-1.6l111.7,48.1c1.5,0.6,2.2,2.4,1.6,3.9l-4.9,11.5
	c-0.6,1.5-2.4,2.2-3.9,1.6l-111.7-48.1C1513.7,1625.1,1513,1623.4,1513.6,1621.8z"/>
<g>
	<polygon fill="#FFCA28" points="1398.1,2046.9 1398.1,2036.8 1408.3,2036.8 1408.3,2029.8 1398.1,2029.8 1398.1,2019.6 
		1391.1,2019.6 1391.1,2029.8 1381,2029.8 1381,2036.8 1391.1,2036.8 1391.1,2046.9 	"/>
	<polygon fill="#FFCA28" points="1331,1791.9 1336.9,1788.2 1331.5,1779.5 1340,1774.2 1336.3,1768.3 1327.7,1773.6 1322.4,1765.1 
		1316.4,1768.8 1321.8,1777.3 1313.2,1782.8 1316.9,1788.7 1325.5,1783.3 	"/>
	<g>
		<path fill="#FFCA28" d="M1350.9,2139v11.5c0,2.2,1.8,4,4,4s4-1.8,4-4V2139c0-2.2-1.8-4-4-4S1350.9,2136.8,1350.9,2139z"/>
		<path fill="#FFCA28" d="M1340.6,2150.5V2139c0-2.2-1.8-4-4-4c-2.2,0-4,1.8-4,4v11.5c0,2.2,1.8,4,4,4S1340.6,2152.7,1340.6,2150.5z
			"/>
		<path fill="#FFCA28" d="M1322.6,2150.5V2139c0-2.2-1.8-4-4-4s-4,1.8-4,4v11.5c0,2.2,1.8,4,4,4S1322.6,2152.7,1322.6,2150.5z"/>
		<path fill="#FFCA28" d="M1304.2,2150.5V2139c0-2.2-1.8-4-4-4c-2.2,0-4,1.8-4,4v11.5c0,2.2,1.8,4,4,4
			C1302.4,2154.5,1304.2,2152.7,1304.2,2150.5z"/>
	</g>
	<polygon fill="#FFCA28" points="1541.6,1685.4 1541.6,1675.3 1551.8,1675.3 1551.8,1668.3 1541.6,1668.3 1541.6,1658.1 
		1534.6,1658.1 1534.6,1668.3 1524.5,1668.3 1524.5,1675.3 1534.6,1675.3 1534.6,1685.4 	"/>
	<polygon fill="#FFCA28" points="1585.6,2131.9 1585.6,2121.8 1595.8,2121.8 1595.8,2114.8 1585.6,2114.8 1585.6,2104.6 
		1578.6,2104.6 1578.6,2114.8 1568.5,2114.8 1568.5,2121.8 1578.6,2121.8 1578.6,2131.9 	"/>
</g>
<path fill="#5C6BC0" d="M1057.9,1486h24c1.7,0,3,1.3,3,3v33c0,1.7-1.3,3-3,3h-24c-1.7,0-3-1.3-3-3v-33
	C1054.9,1487.3,1056.2,1486,1057.9,1486z"/>
<circle id="XMLID_18_" fill="#FFFFFF" cx="1268.3" cy="2128" r="18"/>
<circle id="XMLID_1_" fill="#E53A34" cx="1268.3" cy="2128" r="14"/>
<g id="XMLID_21_">
	<rect id="XMLID_19_" x="1265.5" y="2118" fill="#FFFFFF" width="5.8" height="19.9"/>
	<rect id="XMLID_20_" x="1258.4" y="2125.1" fill="#FFFFFF" width="19.9" height="5.8"/>
</g>
</svg>
