<?xml version="1.0" encoding="utf-8"?>
<!-- Generator: Adobe Illustrator 18.1.1, SVG Export Plug-In . SVG Version: 6.00 Build 0)  -->
<svg version="1.1" id="Layer_1" xmlns="http://www.w3.org/2000/svg" xmlns:xlink="http://www.w3.org/1999/xlink" x="0px" y="0px"
	 viewBox="1558 65.8 3762.6 2458.1" enable-background="new 188.8 319.2 234.4 153.2" xml:space="preserve">
<g>
	<path fill="#00838F" d="M1855.4,65.8H4629v33.1h376.2c0,0,292.3,1352.3,315.2,2066.9c0,0,10.2,122.1-96.5,155.2l-663.7,182.5v-94.1
		h-284.8l-347.9,114.6v-117h-276.9l-351,117v-114.3h-276.9l-345.8,114.3v-114.3h-276.9l-356.1,114.3v-119.4H1558v-1777h300.1V65.8
		H1855.4z"/>
</g>
<polyline fill="#00ACC1" points="4580.6,2312.7 4580.6,98.5 5007.6,98.5 5056,327.4 5241.6,327.4 5241.6,2312.7 "/>
<rect x="4822.1" y="129.2" fill="#0097A7" width="129.6" height="254.1"/>
<rect x="5012.7" y="1265.6" fill="#0097A7" width="160.3" height="538.9"/>
<g>
	<path fill="#0097A7" d="M5216,571.6c0-7.5-5.1-12.6-12.6-12.6s-12.6,5.1-12.6,12.6c0,7.5,5.1,12.6,12.6,12.6
		C5211.2,584.2,5216,579.1,5216,571.6"/>
	<path fill="#0097A7" d="M5216,785.1c0-7.5-5.1-12.6-12.6-12.6s-12.6,5.1-12.6,12.6c0,7.5,5.1,12.6,12.6,12.6
		C5211.2,797.7,5216,792.6,5216,785.1"/>
	<path fill="#0097A7" d="M5216,998.6c0-7.5-5.1-12.6-12.6-12.6s-12.6,5.1-12.6,12.6c0,7.5,5.1,12.6,12.6,12.6
		C5211.2,1011.2,5216,1003.7,5216,998.6"/>
	<path fill="#0097A7" d="M5216,1212.1c0-7.5-5.1-12.6-12.6-12.6s-12.6,5.1-12.6,12.6c0,7.5,5.1,12.6,12.6,12.6
		C5211.2,1222.3,5216,1217.2,5216,1212.1"/>
	<path fill="#0097A7" d="M5216,1425.6c0-7.5-5.1-12.6-12.6-12.6s-12.6,5.1-12.6,12.6c0,7.5,5.1,12.6,12.6,12.6
		C5211.2,1435.8,5216,1430.7,5216,1425.6"/>
	<path fill="#0097A7" d="M5216,1636.7c0-7.5-5.1-12.6-12.6-12.6s-12.6,5.1-12.6,12.6s5.1,12.6,12.6,12.6
		C5211.2,1649.3,5216,1644.2,5216,1636.7"/>
	<path fill="#0097A7" d="M5216,1850.2c0-7.5-5.1-12.6-12.6-12.6s-12.6,5.1-12.6,12.6s5.1,12.6,12.6,12.6
		C5211.2,1862.9,5216,1857.7,5216,1850.2"/>
	<path fill="#0097A7" d="M5216,2063.8c0-7.5-5.1-12.6-12.6-12.6s-12.6,5.1-12.6,12.6s5.1,12.6,12.6,12.6
		C5211.2,2076.4,5216,2071.3,5216,2063.8"/>
	<path fill="#0097A7" d="M5216,2277.3c0-7.5-5.1-12.6-12.6-12.6s-12.6,5.1-12.6,12.6c0,7.5,5.1,12.6,12.6,12.6
		C5211.2,2287.5,5216,2282.4,5216,2277.3"/>
	<path fill="#0097A7" d="M5007.6,2277.3c0-7.5-5.1-12.6-12.6-12.6s-12.6,5.1-12.6,12.6c0,7.5,5.1,12.6,12.6,12.6
		C5000.1,2287.5,5007.6,2282.4,5007.6,2277.3"/>
	<path fill="#0097A7" d="M5216,358.1c0-7.5-5.1-12.6-12.6-12.6s-12.6,5.1-12.6,12.6c0,7.5,5.1,12.6,12.6,12.6
		C5211.2,370.7,5216,365.6,5216,358.1"/>
	<path fill="#0097A7" d="M5050.9,358.1c0-7.5-5.1-12.6-12.6-12.6s-12.6,5.1-12.6,12.6c0,7.5,5.1,12.6,12.6,12.6
		S5050.9,365.6,5050.9,358.1"/>
	<path fill="#00838F" d="M5081.3,1290.9h-50.8c-2.4,0-7.5-2.4-7.5-7.5c0-2.4,2.4-7.5,7.5-7.5h50.8c2.4,0,7.5,2.4,7.5,7.5
		C5088.8,1288.5,5086.4,1290.9,5081.3,1290.9"/>
	<path fill="#00838F" d="M5081.3,1316.5h-50.8c-2.4,0-7.5-2.4-7.5-7.5c0-2.4,2.4-7.5,7.5-7.5h50.8c2.4,0,7.5,2.4,7.5,7.5
		C5089.1,1311.3,5086.4,1316.5,5081.3,1316.5"/>
	<path fill="#00838F" d="M5081.3,1339.3h-50.8c-2.4,0-7.5-2.4-7.5-7.5s2.4-7.5,7.5-7.5h50.8c2.4,0,7.5,2.4,7.5,7.5
		S5086.4,1339.3,5081.3,1339.3"/>
	<path fill="#00838F" d="M5081.3,1362.2h-50.8c-2.4,0-7.5-2.4-7.5-7.5c0-2.4,2.4-7.5,7.5-7.5h50.8c2.4,0,7.5,2.4,7.5,7.5
		C5088.8,1359.8,5086.4,1362.2,5081.3,1362.2"/>
	<path fill="#00838F" d="M5081.3,1387.4h-50.8c-2.4,0-7.5-2.4-7.5-7.5c0-2.4,2.4-7.5,7.5-7.5h50.8c2.4,0,7.5,2.4,7.5,7.5
		C5089.1,1382.3,5086.4,1387.4,5081.3,1387.4"/>
	<path fill="#00838F" d="M5081.3,1410.3h-50.8c-2.4,0-7.5-2.4-7.5-7.5c0-2.4,2.4-7.5,7.5-7.5h50.8c2.4,0,7.5,2.4,7.5,7.5
		C5089.1,1407.9,5086.4,1410.3,5081.3,1410.3"/>
	<path fill="#00838F" d="M5081.3,1433.1h-50.8c-2.4,0-7.5-2.4-7.5-7.5c0-2.4,2.4-7.5,7.5-7.5h50.8c2.4,0,7.5,2.4,7.5,7.5
		S5086.4,1433.1,5081.3,1433.1"/>
	<path fill="#00838F" d="M5081.3,1458.7h-50.8c-2.4,0-7.5-2.4-7.5-7.5c0-2.4,2.4-7.5,7.5-7.5h50.8c2.4,0,7.5,2.4,7.5,7.5
		C5089.1,1453.6,5086.4,1458.7,5081.3,1458.7"/>
	<path fill="#00838F" d="M5081.3,1481.5h-50.8c-2.4,0-7.5-2.4-7.5-7.5c0-2.4,2.4-7.5,7.5-7.5h50.8c2.4,0,7.5,2.4,7.5,7.5
		C5089.1,1479.2,5086.4,1481.5,5081.3,1481.5"/>
	<path fill="#00838F" d="M5081.3,1504.4h-50.8c-2.4,0-7.5-2.4-7.5-7.5c0-2.4,2.4-7.5,7.5-7.5h50.8c2.4,0,7.5,2.4,7.5,7.5
		C5088.8,1502,5086.4,1504.4,5081.3,1504.4"/>
	<path fill="#00838F" d="M5081.3,1530h-50.8c-2.4,0-7.5-2.4-7.5-7.5c0-2.4,2.4-7.5,7.5-7.5h50.8c2.4,0,7.5,2.4,7.5,7.5
		C5089.1,1524.9,5086.4,1530,5081.3,1530"/>
	<path fill="#00838F" d="M5081.3,1552.8h-50.8c-2.4,0-7.5-2.4-7.5-7.5c0-2.4,2.4-7.5,7.5-7.5h50.8c2.4,0,7.5,2.4,7.5,7.5
		C5089.1,1550.1,5086.4,1552.8,5081.3,1552.8"/>
	<path fill="#00838F" d="M5081.3,1575.7h-50.8c-2.4,0-7.5-2.4-7.5-7.5c0-2.4,2.4-7.5,7.5-7.5h50.8c2.4,0,7.5,2.4,7.5,7.5
		C5089.1,1573,5086.4,1575.7,5081.3,1575.7"/>
	<path fill="#00838F" d="M5081.3,1600.9h-50.8c-2.4,0-7.5-2.4-7.5-7.5c0-2.4,2.4-7.5,7.5-7.5h50.8c2.4,0,7.5,2.4,7.5,7.5
		C5089.1,1596.1,5086.4,1600.9,5081.3,1600.9"/>
	<path fill="#00838F" d="M5081.3,1623.8h-50.8c-2.4,0-7.5-2.4-7.5-7.5c0-2.4,2.4-7.5,7.5-7.5h50.8c2.4,0,7.5,2.4,7.5,7.5
		C5088.8,1621.4,5086.4,1623.8,5081.3,1623.8"/>
	<path fill="#00838F" d="M4872.9,154.4h-33.1c-2.4,0-7.5-2.4-7.5-7.5c0-2.4,2.4-7.5,7.5-7.5h33.1c2.4,0,7.5,2.4,7.5,7.5
		C4880.4,152,4878,154.4,4872.9,154.4"/>
	<path fill="#00838F" d="M4872.9,180h-33.1c-2.4,0-7.5-2.4-7.5-7.5c0-2.4,2.4-7.5,7.5-7.5h33.1c2.4,0,7.5,2.4,7.5,7.5
		C4880.7,174.9,4878,180,4872.9,180"/>
	<path fill="#00838F" d="M4872.9,202.9h-33.1c-2.4,0-7.5-2.4-7.5-7.5c0-2.4,2.4-7.5,7.5-7.5h33.1c2.4,0,7.5,2.4,7.5,7.5
		C4880.7,200.5,4878,202.9,4872.9,202.9"/>
	<path fill="#00838F" d="M4872.9,225.7h-33.1c-2.4,0-7.5-2.4-7.5-7.5c0-2.4,2.4-7.5,7.5-7.5h33.1c2.4,0,7.5,2.4,7.5,7.5
		S4878,225.7,4872.9,225.7"/>
	<path fill="#00838F" d="M4872.9,251.3h-33.1c-2.4,0-7.5-2.4-7.5-7.5c0-2.4,2.4-7.5,7.5-7.5h33.1c2.4,0,7.5,2.4,7.5,7.5
		C4880.7,246.2,4878,251.3,4872.9,251.3"/>
	<path fill="#00838F" d="M4872.9,274.1h-33.1c-2.4,0-7.5-2.4-7.5-7.5c0-2.4,2.4-7.5,7.5-7.5h33.1c2.4,0,7.5,2.4,7.5,7.5
		C4880.4,271.8,4878,274.1,4872.9,274.1"/>
	<path fill="#00838F" d="M4872.9,297h-33.1c-2.4,0-7.5-2.4-7.5-7.5c0-2.4,2.4-7.5,7.5-7.5h33.1c2.4,0,7.5,2.4,7.5,7.5
		C4880.4,294.6,4878,297,4872.9,297"/>
	<path fill="#00838F" d="M4872.9,322.2h-33.1c-2.4,0-7.5-2.4-7.5-7.5c0-2.4,2.4-7.5,7.5-7.5h33.1c2.4,0,7.5,2.4,7.5,7.5
		C4880.7,317.1,4878,322.2,4872.9,322.2"/>
	<path fill="#00838F" d="M4872.9,345.1h-33.1c-2.4,0-7.5-2.4-7.5-7.5c0-2.4,2.4-7.5,7.5-7.5h33.1c2.4,0,7.5,2.4,7.5,7.5
		S4878,345.1,4872.9,345.1"/>
	<path fill="#00838F" d="M4872.9,368.3h-33.1c-2.4,0-7.5-2.4-7.5-7.5c0-2.4,2.4-7.5,7.5-7.5h33.1c2.4,0,7.5,2.4,7.5,7.5
		C4880.7,365.6,4878,368.3,4872.9,368.3"/>
	<path fill="#00838F" d="M4931.6,154.4h-33.1c-2.4,0-7.5-2.4-7.5-7.5c0-2.4,2.4-7.5,7.5-7.5h33.1c2.4,0,7.5,2.4,7.5,7.5
		C4939.1,152,4933.9,154.4,4931.6,154.4"/>
	<path fill="#00838F" d="M4931.6,180h-33.1c-2.4,0-7.5-2.4-7.5-7.5c0-2.4,2.4-7.5,7.5-7.5h33.1c2.4,0,7.5,2.4,7.5,7.5
		C4939.1,174.9,4933.9,180,4931.6,180"/>
	<path fill="#00838F" d="M4931.6,202.9h-33.1c-2.4,0-7.5-2.4-7.5-7.5c0-2.4,2.4-7.5,7.5-7.5h33.1c2.4,0,7.5,2.4,7.5,7.5
		S4933.9,202.9,4931.6,202.9"/>
	<path fill="#00838F" d="M4931.6,225.7h-33.1c-2.4,0-7.5-2.4-7.5-7.5c0-2.4,2.4-7.5,7.5-7.5h33.1c2.4,0,7.5,2.4,7.5,7.5
		S4933.9,225.7,4931.6,225.7"/>
	<path fill="#00838F" d="M4931.6,251.3h-33.1c-2.4,0-7.5-2.4-7.5-7.5c0-2.4,2.4-7.5,7.5-7.5h33.1c2.4,0,7.5,2.4,7.5,7.5
		C4939.1,246.2,4933.9,251.3,4931.6,251.3"/>
	<path fill="#00838F" d="M4931.6,274.1h-33.1c-2.4,0-7.5-2.4-7.5-7.5c0-2.4,2.4-7.5,7.5-7.5h33.1c2.4,0,7.5,2.4,7.5,7.5
		C4939.1,271.4,4933.9,274.1,4931.6,274.1"/>
	<path fill="#00838F" d="M4931.6,297h-33.1c-2.4,0-7.5-2.4-7.5-7.5c0-2.4,2.4-7.5,7.5-7.5h33.1c2.4,0,7.5,2.4,7.5,7.5
		C4939.1,294.3,4933.9,297,4931.6,297"/>
	<path fill="#00838F" d="M4931.6,322.2h-33.1c-2.4,0-7.5-2.4-7.5-7.5c0-2.4,2.4-7.5,7.5-7.5h33.1c2.4,0,7.5,2.4,7.5,7.5
		C4939.1,317.1,4933.9,322.2,4931.6,322.2"/>
	<path fill="#00838F" d="M4931.6,345.1h-33.1c-2.4,0-7.5-2.4-7.5-7.5c0-2.4,2.4-7.5,7.5-7.5h33.1c2.4,0,7.5,2.4,7.5,7.5
		S4933.9,345.1,4931.6,345.1"/>
	<path fill="#00838F" d="M4931.6,368.3h-33.1c-2.4,0-7.5-2.4-7.5-7.5c0-2.4,2.4-7.5,7.5-7.5h33.1c2.4,0,7.5,2.4,7.5,7.5
		C4939.1,365.6,4933.9,368.3,4931.6,368.3"/>
	<path fill="#00838F" d="M5081.3,1647h-50.8c-2.4,0-7.5-2.4-7.5-7.5c0-2.4,2.4-7.5,7.5-7.5h50.8c2.4,0,7.5,2.4,7.5,7.5
		C5089.1,1644.2,5086.4,1647,5081.3,1647"/>
	<path fill="#00838F" d="M5081.3,1672.2h-50.8c-2.4,0-7.5-2.4-7.5-7.5c0-2.4,2.4-7.5,7.5-7.5h50.8c2.4,0,7.5,2.4,7.5,7.5
		S5086.4,1672.2,5081.3,1672.2"/>
	<path fill="#00838F" d="M5081.3,1695.1h-50.8c-2.4,0-7.5-2.4-7.5-7.5c0-2.4,2.4-7.5,7.5-7.5h50.8c2.4,0,7.5,2.4,7.5,7.5
		C5088.8,1692.7,5086.4,1695.1,5081.3,1695.1"/>
	<path fill="#00838F" d="M5081.3,1717.9h-50.8c-2.4,0-7.5-2.4-7.5-7.5c0-2.4,2.4-7.5,7.5-7.5h50.8c2.4,0,7.5,2.4,7.5,7.5
		C5089.1,1715.5,5086.4,1717.9,5081.3,1717.9"/>
	<path fill="#00838F" d="M5081.3,1743.5h-50.8c-2.4,0-7.5-2.4-7.5-7.5c0-2.4,2.4-7.5,7.5-7.5h50.8c2.4,0,7.5,2.4,7.5,7.5
		C5089.1,1738.4,5086.4,1743.5,5081.3,1743.5"/>
	<path fill="#00838F" d="M5081.3,1766.3h-50.8c-2.4,0-7.5-2.4-7.5-7.5c0-2.4,2.4-7.5,7.5-7.5h50.8c2.4,0,7.5,2.4,7.5,7.5
		C5089.1,1763.6,5086.4,1766.3,5081.3,1766.3"/>
	<path fill="#00838F" d="M5081.3,1789.2h-50.8c-2.4,0-7.5-2.4-7.5-7.5c0-2.4,2.4-7.5,7.5-7.5h50.8c2.4,0,7.5,2.4,7.5,7.5
		C5088.8,1786.8,5086.4,1789.2,5081.3,1789.2"/>
	<path fill="#00838F" d="M5152.6,1290.9h-50.8c-2.4,0-7.5-2.4-7.5-7.5c0-2.4,2.4-7.5,7.5-7.5h50.8c2.4,0,7.5,2.4,7.5,7.5
		C5160.1,1288.5,5157.7,1290.9,5152.6,1290.9"/>
	<path fill="#00838F" d="M5152.6,1316.5h-50.8c-2.4,0-7.5-2.4-7.5-7.5c0-2.4,2.4-7.5,7.5-7.5h50.8c2.4,0,7.5,2.4,7.5,7.5
		C5160.1,1311.3,5157.7,1316.5,5152.6,1316.5"/>
	<path fill="#00838F" d="M5152.6,1339.3h-50.8c-2.4,0-7.5-2.4-7.5-7.5s2.4-7.5,7.5-7.5h50.8c2.4,0,7.5,2.4,7.5,7.5
		S5157.7,1339.3,5152.6,1339.3"/>
	<path fill="#00838F" d="M5152.6,1362.2h-50.8c-2.4,0-7.5-2.4-7.5-7.5c0-2.4,2.4-7.5,7.5-7.5h50.8c2.4,0,7.5,2.4,7.5,7.5
		C5160.1,1359.8,5157.7,1362.2,5152.6,1362.2"/>
	<path fill="#00838F" d="M5152.6,1387.4h-50.8c-2.4,0-7.5-2.4-7.5-7.5c0-2.4,2.4-7.5,7.5-7.5h50.8c2.4,0,7.5,2.4,7.5,7.5
		C5160.1,1382.3,5157.7,1387.4,5152.6,1387.4"/>
	<path fill="#00838F" d="M5152.6,1410.3h-50.8c-2.4,0-7.5-2.4-7.5-7.5c0-2.4,2.4-7.5,7.5-7.5h50.8c2.4,0,7.5,2.4,7.5,7.5
		C5160.1,1407.9,5157.7,1410.3,5152.6,1410.3"/>
	<path fill="#00838F" d="M5152.6,1433.1h-50.8c-2.4,0-7.5-2.4-7.5-7.5c0-2.4,2.4-7.5,7.5-7.5h50.8c2.4,0,7.5,2.4,7.5,7.5
		S5157.7,1433.1,5152.6,1433.1"/>
	<path fill="#00838F" d="M5152.6,1458.7h-50.8c-2.4,0-7.5-2.4-7.5-7.5c0-2.4,2.4-7.5,7.5-7.5h50.8c2.4,0,7.5,2.4,7.5,7.5
		C5160.1,1453.6,5157.7,1458.7,5152.6,1458.7"/>
	<path fill="#00838F" d="M5152.6,1481.5h-50.8c-2.4,0-7.5-2.4-7.5-7.5c0-2.4,2.4-7.5,7.5-7.5h50.8c2.4,0,7.5,2.4,7.5,7.5
		C5160.1,1479.2,5157.7,1481.5,5152.6,1481.5"/>
	<path fill="#00838F" d="M5152.6,1504.4h-50.8c-2.4,0-7.5-2.4-7.5-7.5c0-2.4,2.4-7.5,7.5-7.5h50.8c2.4,0,7.5,2.4,7.5,7.5
		C5160.1,1502,5157.7,1504.4,5152.6,1504.4"/>
	<path fill="#00838F" d="M5152.6,1530h-50.8c-2.4,0-7.5-2.4-7.5-7.5c0-2.4,2.4-7.5,7.5-7.5h50.8c2.4,0,7.5,2.4,7.5,7.5
		C5160.1,1524.9,5157.7,1530,5152.6,1530"/>
	<path fill="#00838F" d="M5152.6,1552.8h-50.8c-2.4,0-7.5-2.4-7.5-7.5c0-2.4,2.4-7.5,7.5-7.5h50.8c2.4,0,7.5,2.4,7.5,7.5
		C5160.1,1550.1,5157.7,1552.8,5152.6,1552.8"/>
	<path fill="#00838F" d="M5152.6,1575.7h-50.8c-2.4,0-7.5-2.4-7.5-7.5c0-2.4,2.4-7.5,7.5-7.5h50.8c2.4,0,7.5,2.4,7.5,7.5
		C5160.1,1573,5157.7,1575.7,5152.6,1575.7"/>
	<path fill="#00838F" d="M5152.6,1600.9h-50.8c-2.4,0-7.5-2.4-7.5-7.5c0-2.4,2.4-7.5,7.5-7.5h50.8c2.4,0,7.5,2.4,7.5,7.5
		C5160.1,1596.1,5157.7,1600.9,5152.6,1600.9"/>
	<path fill="#00838F" d="M5152.6,1623.8h-50.8c-2.4,0-7.5-2.4-7.5-7.5c0-2.4,2.4-7.5,7.5-7.5h50.8c2.4,0,7.5,2.4,7.5,7.5
		C5160.1,1621.4,5157.7,1623.8,5152.6,1623.8"/>
	<path fill="#00838F" d="M5152.6,1647h-50.8c-2.4,0-7.5-2.4-7.5-7.5c0-2.4,2.4-7.5,7.5-7.5h50.8c2.4,0,7.5,2.4,7.5,7.5
		C5160.1,1644.2,5157.7,1647,5152.6,1647"/>
	<path fill="#00838F" d="M5152.6,1672.2h-50.8c-2.4,0-7.5-2.4-7.5-7.5c0-2.4,2.4-7.5,7.5-7.5h50.8c2.4,0,7.5,2.4,7.5,7.5
		S5157.7,1672.2,5152.6,1672.2"/>
	<path fill="#00838F" d="M5152.6,1695.1h-50.8c-2.4,0-7.5-2.4-7.5-7.5c0-2.4,2.4-7.5,7.5-7.5h50.8c2.4,0,7.5,2.4,7.5,7.5
		C5160.1,1692.7,5157.7,1695.1,5152.6,1695.1"/>
	<path fill="#00838F" d="M5152.6,1717.9h-50.8c-2.4,0-7.5-2.4-7.5-7.5c0-2.4,2.4-7.5,7.5-7.5h50.8c2.4,0,7.5,2.4,7.5,7.5
		C5160.1,1715.5,5157.7,1717.9,5152.6,1717.9"/>
	<path fill="#00838F" d="M5152.6,1743.5h-50.8c-2.4,0-7.5-2.4-7.5-7.5c0-2.4,2.4-7.5,7.5-7.5h50.8c2.4,0,7.5,2.4,7.5,7.5
		C5160.1,1738.4,5157.7,1743.5,5152.6,1743.5"/>
	<path fill="#00838F" d="M5152.6,1766.3h-50.8c-2.4,0-7.5-2.4-7.5-7.5c0-2.4,2.4-7.5,7.5-7.5h50.8c2.4,0,7.5,2.4,7.5,7.5
		C5160.1,1763.6,5157.7,1766.3,5152.6,1766.3"/>
	<path fill="#00838F" d="M5152.6,1789.2h-50.8c-2.4,0-7.5-2.4-7.5-7.5c0-2.4,2.4-7.5,7.5-7.5h50.8c2.4,0,7.5,2.4,7.5,7.5
		C5160.1,1786.8,5157.7,1789.2,5152.6,1789.2"/>
</g>
<polygon fill="#00ACC1" points="2020.8,228.4 4234.7,228.4 4234.7,589.3 4532.2,589.3 4532.2,1611.2 4234.7,1611.2 4234.7,2023.2 
	4532.2,2023.2 4532.2,2203.6 2020.8,2203.6 "/>
<polygon fill="#0097A7" points="3983.4,228.4 3983.4,398.6 4232.4,619.7 4293.4,619.7 4293.4,1474 3983.4,1474 3983.4,1901.1 
	4196.9,2000.3 4196.9,2094.1 2020.8,2094.1 2020.8,2203.6 4532.2,2203.6 4532.2,2023.2 4234.7,2023.2 4234.7,1611.2 4532.2,1611.2 
	4532.2,589.3 4234.7,589.3 4234.7,228.4 "/>
<g>
	<path fill="#0097A7" d="M2679.1,998.6c0-15.3-12.6-25.6-25.6-25.6c-15.3,0-25.6,12.6-25.6,25.6c0,15.3,12.6,25.6,25.6,25.6
		C2666.5,1024.2,2679.1,1013.9,2679.1,998.6"/>
	<path fill="#0097A7" d="M3317.3,998.6c0-15.3-12.6-25.6-25.6-25.6c-15.3,0-25.6,12.6-25.6,25.6c0,15.3,12.6,25.6,25.6,25.6
		C3307,1023.8,3317.3,1013.9,3317.3,998.6"/>
	<path fill="#0097A7" d="M3960.2,998.6c0-15.3-12.6-25.6-25.6-25.6c-15.3,0-25.6,12.6-25.6,25.6c0,15.3,12.6,25.6,25.6,25.6
		C3947.6,1023.8,3960.2,1013.9,3960.2,998.6"/>
	<path fill="#0097A7" d="M2679.1,1636.7c0-15.3-12.6-25.6-25.6-25.6c-15.3,0-25.6,12.6-25.6,25.6c0,15.3,12.6,25.6,25.6,25.6
		C2666.5,1662.3,2679.1,1651.7,2679.1,1636.7"/>
	<path fill="#0097A7" d="M3317.3,1636.7c0-15.3-12.6-25.6-25.6-25.6c-15.3,0-25.6,12.6-25.6,25.6c0,15.3,12.6,25.6,25.6,25.6
		C3307,1662,3317.3,1651.7,3317.3,1636.7"/>
	<path fill="#0097A7" d="M3960.2,1636.7c0-15.3-12.6-25.6-25.6-25.6c-15.3,0-25.6,12.6-25.6,25.6c0,15.3,12.6,25.6,25.6,25.6
		C3947.6,1662,3960.2,1651.7,3960.2,1636.7"/>
	<path fill="#0097A7" d="M4278.1,998.6c0-15.3-12.6-25.6-25.6-25.6c-15.3,0-25.6,12.6-25.6,25.6c0,15.3,12.6,25.6,25.6,25.6
		C4267.8,1023.8,4278.1,1013.9,4278.1,998.6"/>
	<path fill="#0097A7" d="M4278.1,785.1c0-15.3-12.6-25.6-25.6-25.6c-15.3,0-25.6,12.6-25.6,25.6c0,15.3,12.6,25.6,25.6,25.6
		C4267.8,810.3,4278.1,800.4,4278.1,785.1"/>
	<path fill="#0097A7" d="M4278.1,1212.1c0-15.3-12.6-25.6-25.6-25.6c-15.3,0-25.6,12.6-25.6,25.6c0,15.3,12.6,25.6,25.6,25.6
		C4267.8,1237.7,4278.1,1224.7,4278.1,1212.1"/>
	<path fill="#0097A7" d="M4278.1,1425.6c0-15.3-12.6-25.6-25.6-25.6c-15.3,0-25.6,12.6-25.6,25.6c0,15.3,12.6,25.6,25.6,25.6
		C4267.8,1451.2,4278.1,1438.2,4278.1,1425.6"/>
	<path fill="#0097A7" d="M4599.7,252.3c0-55.9,45.7-104.4,104.4-104.4c58.3,0,104.4,45.7,104.4,104.4c0,55.9-45.7,104.4-104.4,104.4
		S4599.7,311,4599.7,252.3"/>
</g>
<path fill="#0097A7" d="M4957.8,2123.1c0-55.9,45.7-104.4,104.4-104.4c58.3,0,104.4,45.7,104.4,104.4c0,55.9-45.7,104.4-104.4,104.4
	S4957.8,2181.8,4957.8,2123.1"/>
<path fill="#0097A7" d="M4685.6,816.8c0-96.9,79.1-180.8,180.8-180.8c101,0,180.8,79.1,180.8,180.8c0,96.9-79.1,180.8-180.8,180.8
	C4764.8,997.6,4685.6,918.4,4685.6,816.8"/>
<path fill="#0097A7" d="M4897.1,1688.2c0,66.2-46.7,116.3-100.6,116.3l0,0c-57.3,0-100.6-53.9-100.6-116.3V1382
	c0-66.2,46.7-116.3,100.6-116.3l0,0c57.3,0,100.6,53.9,100.6,116.3V1688.2z"/>
<path fill="#0097A7" d="M4897.1,2153.5c0,57.3-46.7,100.6-100.6,100.6l0,0c-57.3,0-100.6-46.7-100.6-100.6v-126.2
	c0-57.3,46.7-100.6,100.6-100.6l0,0c57.3,0,100.6,46.7,100.6,100.6V2153.5z"/>
</svg>
