<?xml version="1.0" encoding="utf-8"?>
<!-- Generator: Adobe Illustrator 17.0.2, SVG Export Plug-In . SVG Version: 6.00 Build 0)  -->
<!DOCTYPE svg PUBLIC "-//W3C//DTD SVG 1.1//EN" "http://www.w3.org/Graphics/SVG/1.1/DTD/svg11.dtd">
<svg version="1.1" id="Layer_1" xmlns="http://www.w3.org/2000/svg" xmlns:xlink="http://www.w3.org/1999/xlink" x="0px" y="0px"
	 width="148.129px" height="96.646px" viewBox="0 0 148.129 96.646" enable-background="new 0 0 148.129 96.646"
	 xml:space="preserve">
<polygon fill="#3f51b5" points="119.042,1.321 135.754,1.321 137.696,10.311 145.001,10.311 145.001,88.414 119.042,88.414 "/>
<g>
	<path fill="#2f3e9e" d="M11.8,0h109.119v1.32h14.835c0,0,11.462,53.184,12.361,81.278c0,0,0.448,4.832-3.82,6.067l-26.073,7.192
		v-3.933h-11.237l-13.71,4.72v-4.72H82.373l-13.821,4.72v-4.72H57.65l-13.599,4.72v-4.72h-10.9l-14.047,4.72v-4.72H0V22.026h11.8V0z
		"/>
	<path fill="#5b6abf" d="M20.003,0h100.916v1.32h14.835c0,0,11.462,53.184,12.361,81.278c0,0,0.449,4.832-3.821,6.067l-26.071,7.192
		v-3.933h-11.238l-13.711,4.72v-4.72h-10.9l-13.822,4.72v-4.72h-10.9l-13.599,4.72v-4.72h-10.9l-14.048,4.72l-0.899-4.72V63.878
		h1.799V0z"/>
</g>
<polygon fill="#3f51b5" points="120.738,4.58 126.908,4.58 126.908,14.251 129.908,14.251 129.908,18.959 120.738,14.807 "/>
<rect x="128.48" y="2.514" fill="#3f51b5" width="5.057" height="9.984"/>
<rect x="136.011" y="47.284" fill="#3f51b5" width="6.292" height="21.169"/>
<g>
	<path fill="#2f3e9e" d="M144.046,19.976c0-0.256-0.207-0.464-0.464-0.464c-0.256,0-0.463,0.208-0.463,0.464
		c0,0.255,0.207,0.464,0.463,0.464C143.839,20.44,144.046,20.231,144.046,19.976"/>
	<path fill="#2f3e9e" d="M144.046,28.357c0-0.255-0.207-0.463-0.464-0.463c-0.256,0-0.463,0.208-0.463,0.463
		c0,0.256,0.207,0.464,0.463,0.464C143.839,28.821,144.046,28.613,144.046,28.357"/>
	<path fill="#2f3e9e" d="M144.046,36.738c0-0.256-0.207-0.464-0.464-0.464c-0.256,0-0.463,0.208-0.463,0.464
		c0,0.255,0.207,0.464,0.463,0.464C143.839,37.202,144.046,36.994,144.046,36.738"/>
	<path fill="#3f51b5" d="M144.046,45.119c0-0.255-0.207-0.464-0.464-0.464c-0.256,0-0.463,0.209-0.463,0.464
		c0,0.256,0.207,0.465,0.463,0.465C143.839,45.584,144.046,45.375,144.046,45.119"/>
	<path fill="#3f51b5" d="M144.046,53.5c0-0.255-0.207-0.464-0.464-0.464c-0.256,0-0.463,0.209-0.463,0.464
		c0,0.257,0.207,0.465,0.463,0.465C143.839,53.965,144.046,53.757,144.046,53.5"/>
	<path fill="#3f51b5" d="M144.046,61.882c0-0.257-0.207-0.464-0.464-0.464c-0.256,0-0.463,0.207-0.463,0.464
		c0,0.256,0.207,0.464,0.463,0.464C143.839,62.346,144.046,62.138,144.046,61.882"/>
	<path fill="#3f51b5" d="M144.046,70.263c0-0.256-0.207-0.464-0.464-0.464c-0.256,0-0.463,0.208-0.463,0.464
		c0,0.257,0.207,0.464,0.463,0.464C143.839,70.727,144.046,70.52,144.046,70.263"/>
	<path fill="#3f51b5" d="M144.046,78.645c0-0.257-0.207-0.465-0.464-0.465c-0.256,0-0.463,0.208-0.463,0.465
		c0,0.255,0.207,0.464,0.463,0.464C143.839,79.108,144.046,78.899,144.046,78.645"/>
	<path fill="#3f51b5" d="M144.046,87.024c0-0.255-0.207-0.464-0.464-0.464c-0.256,0-0.463,0.209-0.463,0.464
		c0,0.257,0.207,0.465,0.463,0.465C143.839,87.489,144.046,87.281,144.046,87.024"/>
	<path fill="#3f51b5" d="M135.755,87.024c0-0.255-0.208-0.464-0.464-0.464c-0.256,0-0.464,0.209-0.464,0.464
		c0,0.257,0.208,0.465,0.464,0.465C135.547,87.489,135.755,87.281,135.755,87.024"/>
	<path fill="#2f3e9e" d="M144.046,11.569c0-0.256-0.207-0.464-0.464-0.464c-0.256,0-0.463,0.208-0.463,0.464
		c0,0.255,0.207,0.464,0.463,0.464C143.839,12.033,144.046,11.825,144.046,11.569"/>
	<path fill="#3f51b5" d="M137.548,11.569c0-0.256-0.206-0.464-0.463-0.464c-0.256,0-0.463,0.208-0.463,0.464
		c0,0.255,0.207,0.464,0.463,0.464C137.342,12.033,137.548,11.825,137.548,11.569"/>
	<path fill="#2f3e9e" d="M138.715,48.271h-1.972c-0.14,0-0.253-0.112-0.253-0.253c0-0.139,0.113-0.253,0.253-0.253h1.972
		c0.14,0,0.253,0.114,0.253,0.253C138.968,48.159,138.854,48.271,138.715,48.271"/>
	<path fill="#2f3e9e" d="M138.715,49.205h-1.972c-0.14,0-0.253-0.113-0.253-0.253c0-0.14,0.113-0.254,0.253-0.254h1.972
		c0.14,0,0.253,0.114,0.253,0.254C138.968,49.092,138.854,49.205,138.715,49.205"/>
	<path fill="#2f3e9e" d="M138.715,50.137h-1.972c-0.14,0-0.253-0.112-0.253-0.252c0-0.14,0.113-0.254,0.253-0.254h1.972
		c0.14,0,0.253,0.114,0.253,0.254C138.968,50.024,138.854,50.137,138.715,50.137"/>
	<path fill="#2f3e9e" d="M138.715,51.07h-1.972c-0.14,0-0.253-0.113-0.253-0.253c0-0.139,0.113-0.253,0.253-0.253h1.972
		c0.14,0,0.253,0.114,0.253,0.253C138.968,50.957,138.854,51.07,138.715,51.07"/>
	<path fill="#2f3e9e" d="M138.715,52.003h-1.972c-0.14,0-0.253-0.112-0.253-0.252c0-0.141,0.113-0.254,0.253-0.254h1.972
		c0.14,0,0.253,0.113,0.253,0.254C138.968,51.891,138.854,52.003,138.715,52.003"/>
	<path fill="#2f3e9e" d="M138.715,52.935h-1.972c-0.14,0-0.253-0.111-0.253-0.252c0-0.14,0.113-0.254,0.253-0.254h1.972
		c0.14,0,0.253,0.114,0.253,0.254C138.968,52.824,138.854,52.935,138.715,52.935"/>
	<path fill="#2f3e9e" d="M138.715,53.869h-1.972c-0.14,0-0.253-0.113-0.253-0.253c0-0.14,0.113-0.253,0.253-0.253h1.972
		c0.14,0,0.253,0.113,0.253,0.253C138.968,53.756,138.854,53.869,138.715,53.869"/>
	<path fill="#2f3e9e" d="M138.715,54.802h-1.972c-0.14,0-0.253-0.112-0.253-0.253c0-0.14,0.113-0.253,0.253-0.253h1.972
		c0.14,0,0.253,0.113,0.253,0.253C138.968,54.689,138.854,54.802,138.715,54.802"/>
	<path fill="#2f3e9e" d="M138.715,55.735h-1.972c-0.14,0-0.253-0.113-0.253-0.253c0-0.14,0.113-0.254,0.253-0.254h1.972
		c0.14,0,0.253,0.114,0.253,0.254C138.968,55.622,138.854,55.735,138.715,55.735"/>
	<path fill="#2f3e9e" d="M138.715,56.667h-1.972c-0.14,0-0.253-0.112-0.253-0.251c0-0.141,0.113-0.254,0.253-0.254h1.972
		c0.14,0,0.253,0.113,0.253,0.254C138.968,56.555,138.854,56.667,138.715,56.667"/>
	<path fill="#2f3e9e" d="M138.715,57.6h-1.972c-0.14,0-0.253-0.113-0.253-0.253c0-0.139,0.113-0.254,0.253-0.254h1.972
		c0.14,0,0.253,0.115,0.253,0.254C138.968,57.487,138.854,57.6,138.715,57.6"/>
	<path fill="#2f3e9e" d="M138.715,58.534h-1.972c-0.14,0-0.253-0.113-0.253-0.253c0-0.14,0.113-0.254,0.253-0.254h1.972
		c0.14,0,0.253,0.114,0.253,0.254C138.968,58.421,138.854,58.534,138.715,58.534"/>
	<path fill="#2f3e9e" d="M138.715,59.466h-1.972c-0.14,0-0.253-0.113-0.253-0.252c0-0.14,0.113-0.254,0.253-0.254h1.972
		c0.14,0,0.253,0.114,0.253,0.254C138.968,59.352,138.854,59.466,138.715,59.466"/>
	<path fill="#2f3e9e" d="M138.715,60.399h-1.972c-0.14,0-0.253-0.113-0.253-0.253c0-0.139,0.113-0.253,0.253-0.253h1.972
		c0.14,0,0.253,0.114,0.253,0.253C138.968,60.286,138.854,60.399,138.715,60.399"/>
	<path fill="#2f3e9e" d="M138.715,61.332h-1.972c-0.14,0-0.253-0.112-0.253-0.253c0-0.14,0.113-0.254,0.253-0.254h1.972
		c0.14,0,0.253,0.114,0.253,0.254C138.968,61.22,138.854,61.332,138.715,61.332"/>
	<path fill="#2f3e9e" d="M130.534,3.57h-1.33c-0.14,0-0.254-0.112-0.254-0.253c0-0.139,0.114-0.253,0.254-0.253h1.33
		c0.139,0,0.252,0.114,0.252,0.253C130.786,3.458,130.673,3.57,130.534,3.57"/>
	<path fill="#2f3e9e" d="M130.534,4.503h-1.33c-0.14,0-0.254-0.113-0.254-0.253c0-0.139,0.114-0.253,0.254-0.253h1.33
		c0.139,0,0.252,0.114,0.252,0.253C130.786,4.391,130.673,4.503,130.534,4.503"/>
	<path fill="#2f3e9e" d="M130.534,5.436h-1.33c-0.14,0-0.254-0.113-0.254-0.252c0-0.14,0.114-0.254,0.254-0.254h1.33
		c0.139,0,0.252,0.114,0.252,0.254C130.786,5.323,130.673,5.436,130.534,5.436"/>
	<path fill="#2f3e9e" d="M130.534,6.37h-1.33c-0.14,0-0.254-0.113-0.254-0.253c0-0.14,0.114-0.253,0.254-0.253h1.33
		c0.139,0,0.252,0.114,0.252,0.253C130.786,6.256,130.673,6.37,130.534,6.37"/>
	<path fill="#2f3e9e" d="M130.534,7.302h-1.33c-0.14,0-0.254-0.113-0.254-0.252c0-0.14,0.114-0.254,0.254-0.254h1.33
		c0.139,0,0.252,0.114,0.252,0.254C130.786,7.189,130.673,7.302,130.534,7.302"/>
	<path fill="#2f3e9e" d="M130.534,8.235h-1.33c-0.14,0-0.254-0.113-0.254-0.252c0-0.139,0.114-0.253,0.254-0.253h1.33
		c0.139,0,0.252,0.114,0.252,0.253C130.786,8.122,130.673,8.235,130.534,8.235"/>
	<path fill="#2f3e9e" d="M130.534,9.168h-1.33c-0.14,0-0.254-0.113-0.254-0.253c0-0.139,0.114-0.253,0.254-0.253h1.33
		c0.139,0,0.252,0.114,0.252,0.253C130.786,9.055,130.673,9.168,130.534,9.168"/>
	<path fill="#2f3e9e" d="M130.534,10.101h-1.33c-0.14,0-0.254-0.113-0.254-0.252c0-0.14,0.114-0.254,0.254-0.254h1.33
		c0.139,0,0.252,0.114,0.252,0.254C130.786,9.988,130.673,10.101,130.534,10.101"/>
	<path fill="#2f3e9e" d="M130.534,11.034h-1.33c-0.14,0-0.254-0.113-0.254-0.253c0-0.14,0.114-0.253,0.254-0.253h1.33
		c0.139,0,0.252,0.114,0.252,0.253C130.786,10.92,130.673,11.034,130.534,11.034"/>
	<path fill="#2f3e9e" d="M130.534,11.967h-1.33c-0.14,0-0.254-0.113-0.254-0.253c0-0.14,0.114-0.253,0.254-0.253h1.33
		c0.139,0,0.252,0.114,0.252,0.253C130.786,11.853,130.673,11.967,130.534,11.967"/>
	<path fill="#2f3e9e" d="M132.808,3.57h-1.33c-0.14,0-0.254-0.112-0.254-0.253c0-0.139,0.114-0.253,0.254-0.253h1.33
		c0.141,0,0.253,0.114,0.253,0.253C133.061,3.458,132.948,3.57,132.808,3.57"/>
	<path fill="#2f3e9e" d="M132.808,4.503h-1.33c-0.14,0-0.254-0.113-0.254-0.253c0-0.139,0.114-0.253,0.254-0.253h1.33
		c0.141,0,0.253,0.114,0.253,0.253C133.061,4.391,132.948,4.503,132.808,4.503"/>
	<path fill="#2f3e9e" d="M132.808,5.436h-1.33c-0.14,0-0.254-0.113-0.254-0.252c0-0.14,0.114-0.254,0.254-0.254h1.33
		c0.141,0,0.253,0.114,0.253,0.254C133.061,5.323,132.948,5.436,132.808,5.436"/>
	<path fill="#2f3e9e" d="M132.808,6.37h-1.33c-0.14,0-0.254-0.113-0.254-0.253c0-0.14,0.114-0.253,0.254-0.253h1.33
		c0.141,0,0.253,0.114,0.253,0.253C133.061,6.256,132.948,6.37,132.808,6.37"/>
	<path fill="#2f3e9e" d="M132.808,7.302h-1.33c-0.14,0-0.254-0.113-0.254-0.252c0-0.14,0.114-0.254,0.254-0.254h1.33
		c0.141,0,0.253,0.114,0.253,0.254C133.061,7.189,132.948,7.302,132.808,7.302"/>
	<path fill="#2f3e9e" d="M132.808,8.235h-1.33c-0.14,0-0.254-0.113-0.254-0.252c0-0.139,0.114-0.253,0.254-0.253h1.33
		c0.141,0,0.253,0.114,0.253,0.253C133.061,8.122,132.948,8.235,132.808,8.235"/>
	<path fill="#2f3e9e" d="M132.808,9.168h-1.33c-0.14,0-0.254-0.113-0.254-0.253c0-0.139,0.114-0.253,0.254-0.253h1.33
		c0.141,0,0.253,0.114,0.253,0.253C133.061,9.055,132.948,9.168,132.808,9.168"/>
	<path fill="#2f3e9e" d="M132.808,10.101h-1.33c-0.14,0-0.254-0.113-0.254-0.252c0-0.14,0.114-0.254,0.254-0.254h1.33
		c0.141,0,0.253,0.114,0.253,0.254C133.061,9.988,132.948,10.101,132.808,10.101"/>
	<path fill="#2f3e9e" d="M132.808,11.034h-1.33c-0.14,0-0.254-0.113-0.254-0.253c0-0.14,0.114-0.253,0.254-0.253h1.33
		c0.141,0,0.253,0.114,0.253,0.253C133.061,10.92,132.948,11.034,132.808,11.034"/>
	<path fill="#2f3e9e" d="M132.808,11.967h-1.33c-0.14,0-0.254-0.113-0.254-0.253c0-0.14,0.114-0.253,0.254-0.253h1.33
		c0.141,0,0.253,0.114,0.253,0.253C133.061,11.853,132.948,11.967,132.808,11.967"/>
	<path fill="#2f3e9e" d="M138.715,62.265h-1.972c-0.14,0-0.253-0.113-0.253-0.252c0-0.14,0.113-0.254,0.253-0.254h1.972
		c0.14,0,0.253,0.114,0.253,0.254C138.968,62.151,138.854,62.265,138.715,62.265"/>
	<path fill="#2f3e9e" d="M138.715,63.197h-1.972c-0.14,0-0.253-0.112-0.253-0.252c0-0.14,0.113-0.253,0.253-0.253h1.972
		c0.14,0,0.253,0.113,0.253,0.253C138.968,63.085,138.854,63.197,138.715,63.197"/>
	<path fill="#2f3e9e" d="M138.715,64.131h-1.972c-0.14,0-0.253-0.112-0.253-0.253c0-0.14,0.113-0.254,0.253-0.254h1.972
		c0.14,0,0.253,0.114,0.253,0.254C138.968,64.019,138.854,64.131,138.715,64.131"/>
	<path fill="#2f3e9e" d="M138.715,65.063h-1.972c-0.14,0-0.253-0.113-0.253-0.252c0-0.141,0.113-0.254,0.253-0.254h1.972
		c0.14,0,0.253,0.113,0.253,0.254C138.968,64.95,138.854,65.063,138.715,65.063"/>
	<path fill="#2f3e9e" d="M138.715,65.996h-1.972c-0.14,0-0.253-0.112-0.253-0.253c0-0.139,0.113-0.252,0.253-0.252h1.972
		c0.14,0,0.253,0.113,0.253,0.252C138.968,65.884,138.854,65.996,138.715,65.996"/>
	<path fill="#2f3e9e" d="M138.715,66.93h-1.972c-0.14,0-0.253-0.113-0.253-0.253c0-0.14,0.113-0.254,0.253-0.254h1.972
		c0.14,0,0.253,0.114,0.253,0.254C138.968,66.816,138.854,66.93,138.715,66.93"/>
	<path fill="#2f3e9e" d="M138.715,67.862h-1.972c-0.14,0-0.253-0.113-0.253-0.252c0-0.141,0.113-0.254,0.253-0.254h1.972
		c0.14,0,0.253,0.113,0.253,0.254C138.968,67.749,138.854,67.862,138.715,67.862"/>
	<path fill="#2f3e9e" d="M141.528,48.271h-1.973c-0.139,0-0.252-0.112-0.252-0.253c0-0.139,0.113-0.253,0.252-0.253h1.973
		c0.14,0,0.252,0.114,0.252,0.253C141.78,48.159,141.668,48.271,141.528,48.271"/>
	<path fill="#2f3e9e" d="M141.528,49.205h-1.973c-0.139,0-0.252-0.113-0.252-0.253c0-0.14,0.113-0.254,0.252-0.254h1.973
		c0.14,0,0.252,0.114,0.252,0.254C141.78,49.092,141.668,49.205,141.528,49.205"/>
	<path fill="#2f3e9e" d="M141.528,50.137h-1.973c-0.139,0-0.252-0.112-0.252-0.252c0-0.14,0.113-0.254,0.252-0.254h1.973
		c0.14,0,0.252,0.114,0.252,0.254C141.78,50.024,141.668,50.137,141.528,50.137"/>
	<path fill="#2f3e9e" d="M141.528,51.07h-1.973c-0.139,0-0.252-0.113-0.252-0.253c0-0.139,0.113-0.253,0.252-0.253h1.973
		c0.14,0,0.252,0.114,0.252,0.253C141.78,50.957,141.668,51.07,141.528,51.07"/>
	<path fill="#2f3e9e" d="M141.528,52.003h-1.973c-0.139,0-0.252-0.112-0.252-0.252c0-0.141,0.113-0.254,0.252-0.254h1.973
		c0.14,0,0.252,0.113,0.252,0.254C141.78,51.891,141.668,52.003,141.528,52.003"/>
	<path fill="#2f3e9e" d="M141.528,52.935h-1.973c-0.139,0-0.252-0.111-0.252-0.252c0-0.14,0.113-0.254,0.252-0.254h1.973
		c0.14,0,0.252,0.114,0.252,0.254C141.78,52.824,141.668,52.935,141.528,52.935"/>
	<path fill="#2f3e9e" d="M141.528,53.869h-1.973c-0.139,0-0.252-0.113-0.252-0.253c0-0.14,0.113-0.253,0.252-0.253h1.973
		c0.14,0,0.252,0.113,0.252,0.253C141.78,53.756,141.668,53.869,141.528,53.869"/>
	<path fill="#2f3e9e" d="M141.528,54.802h-1.973c-0.139,0-0.252-0.112-0.252-0.253c0-0.14,0.113-0.253,0.252-0.253h1.973
		c0.14,0,0.252,0.113,0.252,0.253C141.78,54.689,141.668,54.802,141.528,54.802"/>
	<path fill="#2f3e9e" d="M141.528,55.735h-1.973c-0.139,0-0.252-0.113-0.252-0.253c0-0.14,0.113-0.254,0.252-0.254h1.973
		c0.14,0,0.252,0.114,0.252,0.254C141.78,55.622,141.668,55.735,141.528,55.735"/>
	<path fill="#2f3e9e" d="M141.528,56.667h-1.973c-0.139,0-0.252-0.112-0.252-0.251c0-0.141,0.113-0.254,0.252-0.254h1.973
		c0.14,0,0.252,0.113,0.252,0.254C141.78,56.555,141.668,56.667,141.528,56.667"/>
	<path fill="#2f3e9e" d="M141.528,57.6h-1.973c-0.139,0-0.252-0.113-0.252-0.253c0-0.139,0.113-0.254,0.252-0.254h1.973
		c0.14,0,0.252,0.115,0.252,0.254C141.78,57.487,141.668,57.6,141.528,57.6"/>
	<path fill="#2f3e9e" d="M141.528,58.534h-1.973c-0.139,0-0.252-0.113-0.252-0.253c0-0.14,0.113-0.254,0.252-0.254h1.973
		c0.14,0,0.252,0.114,0.252,0.254C141.78,58.421,141.668,58.534,141.528,58.534"/>
	<path fill="#2f3e9e" d="M141.528,59.466h-1.973c-0.139,0-0.252-0.113-0.252-0.252c0-0.14,0.113-0.254,0.252-0.254h1.973
		c0.14,0,0.252,0.114,0.252,0.254C141.78,59.352,141.668,59.466,141.528,59.466"/>
	<path fill="#2f3e9e" d="M141.528,60.399h-1.973c-0.139,0-0.252-0.113-0.252-0.253c0-0.139,0.113-0.253,0.252-0.253h1.973
		c0.14,0,0.252,0.114,0.252,0.253C141.78,60.286,141.668,60.399,141.528,60.399"/>
	<path fill="#2f3e9e" d="M141.528,61.332h-1.973c-0.139,0-0.252-0.112-0.252-0.253c0-0.14,0.113-0.254,0.252-0.254h1.973
		c0.14,0,0.252,0.114,0.252,0.254C141.78,61.22,141.668,61.332,141.528,61.332"/>
	<path fill="#2f3e9e" d="M141.528,62.265h-1.973c-0.139,0-0.252-0.113-0.252-0.252c0-0.14,0.113-0.254,0.252-0.254h1.973
		c0.14,0,0.252,0.114,0.252,0.254C141.78,62.151,141.668,62.265,141.528,62.265"/>
	<path fill="#2f3e9e" d="M141.528,63.197h-1.973c-0.139,0-0.252-0.112-0.252-0.252c0-0.14,0.113-0.253,0.252-0.253h1.973
		c0.14,0,0.252,0.113,0.252,0.253C141.78,63.085,141.668,63.197,141.528,63.197"/>
	<path fill="#2f3e9e" d="M141.528,64.131h-1.973c-0.139,0-0.252-0.112-0.252-0.253c0-0.14,0.113-0.254,0.252-0.254h1.973
		c0.14,0,0.252,0.114,0.252,0.254C141.78,64.019,141.668,64.131,141.528,64.131"/>
	<path fill="#2f3e9e" d="M141.528,65.063h-1.973c-0.139,0-0.252-0.113-0.252-0.252c0-0.141,0.113-0.254,0.252-0.254h1.973
		c0.14,0,0.252,0.113,0.252,0.254C141.78,64.95,141.668,65.063,141.528,65.063"/>
	<path fill="#2f3e9e" d="M141.528,65.996h-1.973c-0.139,0-0.252-0.112-0.252-0.253c0-0.139,0.113-0.252,0.252-0.252h1.973
		c0.14,0,0.252,0.113,0.252,0.252C141.78,65.884,141.668,65.996,141.528,65.996"/>
	<path fill="#2f3e9e" d="M141.528,66.93h-1.973c-0.139,0-0.252-0.113-0.252-0.253c0-0.14,0.113-0.254,0.252-0.254h1.973
		c0.14,0,0.252,0.114,0.252,0.254C141.78,66.816,141.668,66.93,141.528,66.93"/>
	<path fill="#2f3e9e" d="M141.528,67.862h-1.973c-0.139,0-0.252-0.113-0.252-0.252c0-0.141,0.113-0.254,0.252-0.254h1.973
		c0.14,0,0.252,0.113,0.252,0.254C141.78,67.749,141.668,67.862,141.528,67.862"/>
</g>
<polygon fill="#3f51b5" points="18.205,91.925 18.205,63.878 20.004,63.878 20.004,0 120.919,0 120.919,1.321 119.041,1.321 
	119.041,88.413 119.041,91.925 106.985,91.925 106.985,83.609 116.648,83.609 116.648,76.418 105.523,76.418 105.523,59.215 
	116.536,59.215 116.536,27.893 105.636,27.893 105.636,9.848 116.536,9.848 116.536,6.116 22.812,6.116 22.812,76.643 20.79,76.643 
	20.79,91.925 "/>
<rect x="81.024" y="83.722" fill="#3f51b5" width="13.486" height="8.203"/>
<rect x="56.751" y="83.722" fill="#3f51b5" width="13.485" height="8.203"/>
<rect x="32.046" y="83.722" fill="#3f51b5" width="13.486" height="8.203"/>
<path fill="#3f51b5" d="M22.981,26.129h79.228V9.496h-9.554V6.285H43.884v3.211H22.981V26.129z M102.546,26.466H22.644V9.159h20.903
	V5.947h49.446v3.212h9.553V26.466z"/>
<rect x="80.294" y="6.116" fill="#3f51b5" width="0.338" height="20.181"/>
<rect x="56.134" y="6.116" fill="#3f51b5" width="0.336" height="20.181"/>
<rect x="43.528" y="9.328" fill="#3f51b5" width="0.336" height="16.969"/>
<path fill="#3f51b5" d="M31.747,74.901h73.607V59.045h2.36V36.443H31.747V74.901z M105.691,75.238h-74.28V36.106h76.641v23.277
	h-2.36V75.238z"/>
<rect x="31.578" y="55.313" fill="#3f51b5" width="76.306" height="0.337"/>
<rect x="92.993" y="55.482" fill="#3f51b5" width="0.338" height="19.587"/>
<rect x="80.294" y="36.275" fill="#3f51b5" width="0.338" height="19.46"/>
<rect x="68.045" y="55.482" fill="#3f51b5" width="0.337" height="19.587"/>
<rect x="56.134" y="36.275" fill="#3f51b5" width="0.336" height="19.208"/>
<rect x="109.279" y="36.535" fill="#3f51b5" width="5.956" height="21.999"/>
<rect x="121.312" y="41.883" fill="#3f51b5" width="12.192" height="27.192"/>
<rect x="121.755" y="72.44" fill="#3f51b5" width="18.18" height="11.237"/>
<polygon fill="#3f51b5" points="140.805,37.202 132.365,34.202 132.365,14.251 136.805,14.251 "/>
<polygon fill="#3f51b5" points="120.738,17.512 129.684,21.512 129.684,33.254 120.738,30.254 "/>
</svg>
