<?xml version="1.0" encoding="utf-8"?>
<!-- Generator: Adobe Illustrator 17.0.2, SVG Export Plug-In . SVG Version: 6.00 Build 0)  -->
<!DOCTYPE svg PUBLIC "-//W3C//DTD SVG 1.1//EN" "http://www.w3.org/Graphics/SVG/1.1/DTD/svg11.dtd">
<svg version="1.1" id="Layer_1" xmlns="http://www.w3.org/2000/svg" xmlns:xlink="http://www.w3.org/1999/xlink" x="0px" y="0px"
	 width="148.129px" height="96.645px" viewBox="0 0 148.129 96.645" enable-background="new 0 0 148.129 96.645"
	 xml:space="preserve">
<g>
	<path fill="#2f3e9e" d="M11.8,0h109.12v1.32h14.834c0,0,11.463,53.184,12.361,81.278c0,0,0.448,4.832-3.822,6.068l-26.071,7.191
		V92.15h-11.237l-13.71,4.495v-4.608h-10.9l-13.822,4.608V92.15h-10.9l-13.599,4.495V92.15H33.151l-14.047,4.495v-4.72H0V22.026
		h11.8V0z"/>
</g>
<polyline fill="#5b6abf" points="119.042,88.414 119.042,1.32 135.753,1.32 137.697,10.311 145.002,10.311 145.002,88.414 "/>
<rect x="120.737" y="2.578" fill="#3f51b5" width="6.171" height="9.745"/>
<rect x="128.481" y="2.513" fill="#3f51b5" width="5.056" height="9.984"/>
<rect x="136.011" y="47.284" fill="#3f51b5" width="6.294" height="21.169"/>
<g>
	<path fill="#3f51b5" d="M144.047,19.976c0-0.256-0.208-0.464-0.465-0.464c-0.255,0-0.463,0.208-0.463,0.464
		c0,0.255,0.208,0.463,0.463,0.463C143.839,20.439,144.047,20.231,144.047,19.976"/>
	<path fill="#3f51b5" d="M144.047,28.356c0-0.255-0.208-0.463-0.465-0.463c-0.255,0-0.463,0.208-0.463,0.463
		c0,0.256,0.208,0.464,0.463,0.464C143.839,28.821,144.047,28.612,144.047,28.356"/>
	<path fill="#3f51b5" d="M144.047,36.738c0-0.256-0.208-0.464-0.465-0.464c-0.255,0-0.463,0.208-0.463,0.464
		c0,0.255,0.208,0.463,0.463,0.463C143.839,37.202,144.047,36.994,144.047,36.738"/>
	<path fill="#3f51b5" d="M144.047,45.119c0-0.255-0.208-0.463-0.465-0.463c-0.255,0-0.463,0.208-0.463,0.463
		c0,0.256,0.208,0.464,0.463,0.464C143.839,45.583,144.047,45.375,144.047,45.119"/>
	<path fill="#3f51b5" d="M144.047,53.5c0-0.256-0.208-0.464-0.465-0.464c-0.255,0-0.463,0.208-0.463,0.464
		c0,0.256,0.208,0.464,0.463,0.464C143.839,53.964,144.047,53.756,144.047,53.5"/>
	<path fill="#3f51b5" d="M144.047,61.881c0-0.256-0.208-0.464-0.465-0.464c-0.255,0-0.463,0.208-0.463,0.464
		c0,0.256,0.208,0.464,0.463,0.464C143.839,62.345,144.047,62.137,144.047,61.881"/>
	<path fill="#3f51b5" d="M144.047,70.262c0-0.256-0.208-0.464-0.465-0.464c-0.255,0-0.463,0.208-0.463,0.464
		c0,0.256,0.208,0.464,0.463,0.464C143.839,70.727,144.047,70.519,144.047,70.262"/>
	<path fill="#3f51b5" d="M144.047,78.644c0-0.256-0.208-0.464-0.465-0.464c-0.255,0-0.463,0.208-0.463,0.464
		c0,0.256,0.208,0.464,0.463,0.464C143.839,79.107,144.047,78.899,144.047,78.644"/>
	<path fill="#3f51b5" d="M144.047,87.024c0-0.256-0.208-0.464-0.465-0.464c-0.255,0-0.463,0.208-0.463,0.464
		c0,0.257,0.208,0.464,0.463,0.464C143.839,87.489,144.047,87.281,144.047,87.024"/>
	<path fill="#3f51b5" d="M135.755,87.024c0-0.256-0.207-0.464-0.464-0.464c-0.256,0-0.463,0.208-0.463,0.464
		c0,0.257,0.207,0.464,0.463,0.464C135.548,87.489,135.755,87.281,135.755,87.024"/>
	<path fill="#3f51b5" d="M144.047,11.569c0-0.256-0.208-0.464-0.465-0.464c-0.255,0-0.463,0.208-0.463,0.464
		c0,0.255,0.208,0.464,0.463,0.464C143.839,12.033,144.047,11.824,144.047,11.569"/>
	<path fill="#3f51b5" d="M137.549,11.569c0-0.256-0.207-0.464-0.464-0.464c-0.255,0-0.463,0.208-0.463,0.464
		c0,0.255,0.208,0.464,0.463,0.464C137.342,12.033,137.549,11.824,137.549,11.569"/>
	<path fill="#2f3e9e" d="M138.716,48.271h-1.973c-0.139,0-0.252-0.113-0.252-0.252c0-0.14,0.113-0.254,0.252-0.254h1.973
		c0.139,0,0.252,0.114,0.252,0.254C138.968,48.158,138.854,48.271,138.716,48.271"/>
	<path fill="#2f3e9e" d="M138.716,49.204h-1.973c-0.139,0-0.252-0.113-0.252-0.253c0-0.14,0.113-0.253,0.252-0.253h1.973
		c0.139,0,0.252,0.114,0.252,0.253C138.968,49.091,138.854,49.204,138.716,49.204"/>
	<path fill="#2f3e9e" d="M138.716,50.137h-1.973c-0.139,0-0.252-0.113-0.252-0.253c0-0.14,0.113-0.254,0.252-0.254h1.973
		c0.139,0,0.252,0.114,0.252,0.254C138.968,50.024,138.854,50.137,138.716,50.137"/>
	<path fill="#2f3e9e" d="M138.716,51.07h-1.973c-0.139,0-0.252-0.113-0.252-0.252c0-0.14,0.113-0.253,0.252-0.253h1.973
		c0.139,0,0.252,0.113,0.252,0.253C138.968,50.957,138.854,51.07,138.716,51.07"/>
	<path fill="#2f3e9e" d="M138.716,52.003h-1.973c-0.139,0-0.252-0.113-0.252-0.253c0-0.139,0.113-0.253,0.252-0.253h1.973
		c0.139,0,0.252,0.114,0.252,0.253C138.968,51.89,138.854,52.003,138.716,52.003"/>
	<path fill="#2f3e9e" d="M138.716,52.936h-1.973c-0.139,0-0.252-0.113-0.252-0.252c0-0.14,0.113-0.254,0.252-0.254h1.973
		c0.139,0,0.252,0.114,0.252,0.254C138.968,52.823,138.854,52.936,138.716,52.936"/>
	<path fill="#2f3e9e" d="M138.716,53.868h-1.973c-0.139,0-0.252-0.113-0.252-0.252c0-0.14,0.113-0.253,0.252-0.253h1.973
		c0.139,0,0.252,0.114,0.252,0.253C138.968,53.755,138.854,53.868,138.716,53.868"/>
	<path fill="#2f3e9e" d="M138.716,54.802h-1.973c-0.139,0-0.252-0.113-0.252-0.253c0-0.139,0.113-0.253,0.252-0.253h1.973
		c0.139,0,0.252,0.114,0.252,0.253C138.968,54.689,138.854,54.802,138.716,54.802"/>
	<path fill="#2f3e9e" d="M138.716,55.734h-1.973c-0.139,0-0.252-0.113-0.252-0.252c0-0.14,0.113-0.254,0.252-0.254h1.973
		c0.139,0,0.252,0.114,0.252,0.254C138.968,55.622,138.854,55.734,138.716,55.734"/>
	<path fill="#2f3e9e" d="M138.716,56.667h-1.973c-0.139,0-0.252-0.112-0.252-0.253c0-0.139,0.113-0.253,0.252-0.253h1.973
		c0.139,0,0.252,0.114,0.252,0.253C138.968,56.555,138.854,56.667,138.716,56.667"/>
	<path fill="#2f3e9e" d="M138.716,57.6h-1.973c-0.139,0-0.252-0.113-0.252-0.253c0-0.139,0.113-0.253,0.252-0.253h1.973
		c0.139,0,0.252,0.114,0.252,0.253C138.968,57.487,138.854,57.6,138.716,57.6"/>
	<path fill="#2f3e9e" d="M138.716,58.533h-1.973c-0.139,0-0.252-0.113-0.252-0.253c0-0.14,0.113-0.254,0.252-0.254h1.973
		c0.139,0,0.252,0.114,0.252,0.254C138.968,58.42,138.854,58.533,138.716,58.533"/>
	<path fill="#2f3e9e" d="M138.716,59.466h-1.973c-0.139,0-0.252-0.113-0.252-0.253c0-0.14,0.113-0.253,0.252-0.253h1.973
		c0.139,0,0.252,0.114,0.252,0.253C138.968,59.353,138.854,59.466,138.716,59.466"/>
	<path fill="#2f3e9e" d="M138.716,60.399h-1.973c-0.139,0-0.252-0.113-0.252-0.252c0-0.14,0.113-0.254,0.252-0.254h1.973
		c0.139,0,0.252,0.114,0.252,0.254C138.968,60.286,138.854,60.399,138.716,60.399"/>
	<path fill="#2f3e9e" d="M138.716,61.331h-1.973c-0.139,0-0.252-0.113-0.252-0.252c0-0.14,0.113-0.254,0.252-0.254h1.973
		c0.139,0,0.252,0.114,0.252,0.254C138.968,61.218,138.854,61.331,138.716,61.331"/>
	<path fill="#2f3e9e" d="M130.534,3.57h-1.33c-0.14,0-0.254-0.113-0.254-0.252c0-0.14,0.114-0.253,0.254-0.253h1.33
		c0.14,0,0.253,0.114,0.253,0.253C130.787,3.457,130.674,3.57,130.534,3.57"/>
	<path fill="#2f3e9e" d="M130.534,4.503h-1.33c-0.14,0-0.254-0.113-0.254-0.252c0-0.14,0.114-0.254,0.254-0.254h1.33
		c0.14,0,0.253,0.114,0.253,0.254C130.787,4.39,130.674,4.503,130.534,4.503"/>
	<path fill="#2f3e9e" d="M130.534,5.436h-1.33c-0.14,0-0.254-0.113-0.254-0.252c0-0.14,0.114-0.254,0.254-0.254h1.33
		c0.14,0,0.253,0.114,0.253,0.254C130.787,5.323,130.674,5.436,130.534,5.436"/>
	<path fill="#2f3e9e" d="M130.534,6.369h-1.33c-0.14,0-0.254-0.113-0.254-0.253c0-0.14,0.114-0.253,0.254-0.253h1.33
		c0.14,0,0.253,0.114,0.253,0.253C130.787,6.256,130.674,6.369,130.534,6.369"/>
	<path fill="#2f3e9e" d="M130.534,7.302h-1.33c-0.14,0-0.254-0.113-0.254-0.252c0-0.14,0.114-0.254,0.254-0.254h1.33
		c0.14,0,0.253,0.114,0.253,0.254C130.787,7.189,130.674,7.302,130.534,7.302"/>
	<path fill="#2f3e9e" d="M130.534,8.234h-1.33c-0.14,0-0.254-0.113-0.254-0.253c0-0.139,0.114-0.253,0.254-0.253h1.33
		c0.14,0,0.253,0.114,0.253,0.253C130.787,8.122,130.674,8.234,130.534,8.234"/>
	<path fill="#2f3e9e" d="M130.534,9.167h-1.33c-0.14,0-0.254-0.113-0.254-0.252c0-0.14,0.114-0.253,0.254-0.253h1.33
		c0.14,0,0.253,0.114,0.253,0.253C130.787,9.055,130.674,9.167,130.534,9.167"/>
	<path fill="#2f3e9e" d="M130.534,10.1h-1.33c-0.14,0-0.254-0.113-0.254-0.252c0-0.14,0.114-0.254,0.254-0.254h1.33
		c0.14,0,0.253,0.114,0.253,0.254C130.787,9.987,130.674,10.1,130.534,10.1"/>
	<path fill="#2f3e9e" d="M130.534,11.033h-1.33c-0.14,0-0.254-0.113-0.254-0.252c0-0.14,0.114-0.253,0.254-0.253h1.33
		c0.14,0,0.253,0.114,0.253,0.253C130.787,10.92,130.674,11.033,130.534,11.033"/>
	<path fill="#2f3e9e" d="M130.534,11.966h-1.33c-0.14,0-0.254-0.113-0.254-0.253c0-0.14,0.114-0.254,0.254-0.254h1.33
		c0.14,0,0.253,0.114,0.253,0.254C130.787,11.853,130.674,11.966,130.534,11.966"/>
	<path fill="#2f3e9e" d="M132.808,3.57h-1.33c-0.14,0-0.254-0.113-0.254-0.252c0-0.14,0.114-0.253,0.254-0.253h1.33
		c0.141,0,0.253,0.114,0.253,0.253C133.061,3.457,132.948,3.57,132.808,3.57"/>
	<path fill="#2f3e9e" d="M132.808,4.503h-1.33c-0.14,0-0.254-0.113-0.254-0.252c0-0.14,0.114-0.254,0.254-0.254h1.33
		c0.141,0,0.253,0.114,0.253,0.254C133.061,4.39,132.948,4.503,132.808,4.503"/>
	<path fill="#2f3e9e" d="M132.808,5.436h-1.33c-0.14,0-0.254-0.113-0.254-0.252c0-0.14,0.114-0.254,0.254-0.254h1.33
		c0.141,0,0.253,0.114,0.253,0.254C133.061,5.323,132.948,5.436,132.808,5.436"/>
	<path fill="#2f3e9e" d="M132.808,6.369h-1.33c-0.14,0-0.254-0.113-0.254-0.253c0-0.14,0.114-0.253,0.254-0.253h1.33
		c0.141,0,0.253,0.114,0.253,0.253C133.061,6.256,132.948,6.369,132.808,6.369"/>
	<path fill="#2f3e9e" d="M132.808,7.302h-1.33c-0.14,0-0.254-0.113-0.254-0.252c0-0.14,0.114-0.254,0.254-0.254h1.33
		c0.141,0,0.253,0.114,0.253,0.254C133.061,7.189,132.948,7.302,132.808,7.302"/>
	<path fill="#2f3e9e" d="M132.808,8.234h-1.33c-0.14,0-0.254-0.113-0.254-0.253c0-0.139,0.114-0.253,0.254-0.253h1.33
		c0.141,0,0.253,0.114,0.253,0.253C133.061,8.122,132.948,8.234,132.808,8.234"/>
	<path fill="#2f3e9e" d="M132.808,9.167h-1.33c-0.14,0-0.254-0.113-0.254-0.252c0-0.14,0.114-0.253,0.254-0.253h1.33
		c0.141,0,0.253,0.114,0.253,0.253C133.061,9.055,132.948,9.167,132.808,9.167"/>
	<path fill="#2f3e9e" d="M132.808,10.1h-1.33c-0.14,0-0.254-0.113-0.254-0.252c0-0.14,0.114-0.254,0.254-0.254h1.33
		c0.141,0,0.253,0.114,0.253,0.254C133.061,9.987,132.948,10.1,132.808,10.1"/>
	<path fill="#2f3e9e" d="M132.808,11.033h-1.33c-0.14,0-0.254-0.113-0.254-0.252c0-0.14,0.114-0.253,0.254-0.253h1.33
		c0.141,0,0.253,0.114,0.253,0.253C133.061,10.92,132.948,11.033,132.808,11.033"/>
	<path fill="#2f3e9e" d="M132.808,11.966h-1.33c-0.14,0-0.254-0.113-0.254-0.253c0-0.14,0.114-0.254,0.254-0.254h1.33
		c0.141,0,0.253,0.114,0.253,0.254C133.061,11.853,132.948,11.966,132.808,11.966"/>
	<path fill="#2f3e9e" d="M138.716,62.265h-1.973c-0.139,0-0.252-0.113-0.252-0.252c0-0.14,0.113-0.253,0.252-0.253h1.973
		c0.139,0,0.252,0.114,0.252,0.253C138.968,62.152,138.854,62.265,138.716,62.265"/>
	<path fill="#2f3e9e" d="M138.716,63.197h-1.973c-0.139,0-0.252-0.113-0.252-0.252c0-0.14,0.113-0.253,0.252-0.253h1.973
		c0.139,0,0.252,0.114,0.252,0.253C138.968,63.084,138.854,63.197,138.716,63.197"/>
	<path fill="#2f3e9e" d="M138.716,64.13h-1.973c-0.139,0-0.252-0.113-0.252-0.253c0-0.14,0.113-0.253,0.252-0.253h1.973
		c0.139,0,0.252,0.114,0.252,0.253C138.968,64.017,138.854,64.13,138.716,64.13"/>
	<path fill="#2f3e9e" d="M138.716,65.063h-1.973c-0.139,0-0.252-0.113-0.252-0.252c0-0.14,0.113-0.253,0.252-0.253h1.973
		c0.139,0,0.252,0.114,0.252,0.253C138.968,64.95,138.854,65.063,138.716,65.063"/>
	<path fill="#2f3e9e" d="M138.716,65.996h-1.973c-0.139,0-0.252-0.113-0.252-0.253c0-0.14,0.113-0.254,0.252-0.254h1.973
		c0.139,0,0.252,0.114,0.252,0.254C138.968,65.883,138.854,65.996,138.716,65.996"/>
	<path fill="#2f3e9e" d="M138.716,66.929h-1.973c-0.139,0-0.252-0.112-0.252-0.252c0-0.139,0.113-0.254,0.252-0.254h1.973
		c0.139,0,0.252,0.114,0.252,0.254C138.968,66.816,138.854,66.929,138.716,66.929"/>
	<path fill="#2f3e9e" d="M138.716,67.862h-1.973c-0.139,0-0.252-0.113-0.252-0.252c0-0.14,0.113-0.254,0.252-0.254h1.973
		c0.139,0,0.252,0.114,0.252,0.254C138.968,67.749,138.854,67.862,138.716,67.862"/>
	<path fill="#2f3e9e" d="M141.528,48.271h-1.972c-0.14,0-0.253-0.113-0.253-0.252c0-0.14,0.113-0.254,0.253-0.254h1.972
		c0.14,0,0.253,0.114,0.253,0.254C141.781,48.158,141.668,48.271,141.528,48.271"/>
	<path fill="#2f3e9e" d="M141.528,49.204h-1.972c-0.14,0-0.253-0.113-0.253-0.253c0-0.14,0.113-0.253,0.253-0.253h1.972
		c0.14,0,0.253,0.114,0.253,0.253C141.781,49.091,141.668,49.204,141.528,49.204"/>
	<path fill="#2f3e9e" d="M141.528,50.137h-1.972c-0.14,0-0.253-0.113-0.253-0.253c0-0.14,0.113-0.254,0.253-0.254h1.972
		c0.14,0,0.253,0.114,0.253,0.254C141.781,50.024,141.668,50.137,141.528,50.137"/>
	<path fill="#2f3e9e" d="M141.528,51.07h-1.972c-0.14,0-0.253-0.113-0.253-0.252c0-0.14,0.113-0.253,0.253-0.253h1.972
		c0.14,0,0.253,0.113,0.253,0.253C141.781,50.957,141.668,51.07,141.528,51.07"/>
	<path fill="#2f3e9e" d="M141.528,52.003h-1.972c-0.14,0-0.253-0.113-0.253-0.253c0-0.139,0.113-0.253,0.253-0.253h1.972
		c0.14,0,0.253,0.114,0.253,0.253C141.781,51.89,141.668,52.003,141.528,52.003"/>
	<path fill="#2f3e9e" d="M141.528,52.936h-1.972c-0.14,0-0.253-0.113-0.253-0.252c0-0.14,0.113-0.254,0.253-0.254h1.972
		c0.14,0,0.253,0.114,0.253,0.254C141.781,52.823,141.668,52.936,141.528,52.936"/>
	<path fill="#2f3e9e" d="M141.528,53.868h-1.972c-0.14,0-0.253-0.113-0.253-0.252c0-0.14,0.113-0.253,0.253-0.253h1.972
		c0.14,0,0.253,0.114,0.253,0.253C141.781,53.755,141.668,53.868,141.528,53.868"/>
	<path fill="#2f3e9e" d="M141.528,54.802h-1.972c-0.14,0-0.253-0.113-0.253-0.253c0-0.139,0.113-0.253,0.253-0.253h1.972
		c0.14,0,0.253,0.114,0.253,0.253C141.781,54.689,141.668,54.802,141.528,54.802"/>
	<path fill="#2f3e9e" d="M141.528,55.734h-1.972c-0.14,0-0.253-0.113-0.253-0.252c0-0.14,0.113-0.254,0.253-0.254h1.972
		c0.14,0,0.253,0.114,0.253,0.254C141.781,55.622,141.668,55.734,141.528,55.734"/>
	<path fill="#2f3e9e" d="M141.528,56.667h-1.972c-0.14,0-0.253-0.112-0.253-0.253c0-0.139,0.113-0.253,0.253-0.253h1.972
		c0.14,0,0.253,0.114,0.253,0.253C141.781,56.555,141.668,56.667,141.528,56.667"/>
	<path fill="#2f3e9e" d="M141.528,57.6h-1.972c-0.14,0-0.253-0.113-0.253-0.253c0-0.139,0.113-0.253,0.253-0.253h1.972
		c0.14,0,0.253,0.114,0.253,0.253C141.781,57.487,141.668,57.6,141.528,57.6"/>
	<path fill="#2f3e9e" d="M141.528,58.533h-1.972c-0.14,0-0.253-0.113-0.253-0.253c0-0.14,0.113-0.254,0.253-0.254h1.972
		c0.14,0,0.253,0.114,0.253,0.254C141.781,58.42,141.668,58.533,141.528,58.533"/>
	<path fill="#2f3e9e" d="M141.528,59.466h-1.972c-0.14,0-0.253-0.113-0.253-0.253c0-0.14,0.113-0.253,0.253-0.253h1.972
		c0.14,0,0.253,0.114,0.253,0.253C141.781,59.353,141.668,59.466,141.528,59.466"/>
	<path fill="#2f3e9e" d="M141.528,60.399h-1.972c-0.14,0-0.253-0.113-0.253-0.252c0-0.14,0.113-0.254,0.253-0.254h1.972
		c0.14,0,0.253,0.114,0.253,0.254C141.781,60.286,141.668,60.399,141.528,60.399"/>
	<path fill="#2f3e9e" d="M141.528,61.331h-1.972c-0.14,0-0.253-0.113-0.253-0.252c0-0.14,0.113-0.254,0.253-0.254h1.972
		c0.14,0,0.253,0.114,0.253,0.254C141.781,61.218,141.668,61.331,141.528,61.331"/>
	<path fill="#2f3e9e" d="M141.528,62.265h-1.972c-0.14,0-0.253-0.113-0.253-0.252c0-0.14,0.113-0.253,0.253-0.253h1.972
		c0.14,0,0.253,0.114,0.253,0.253C141.781,62.152,141.668,62.265,141.528,62.265"/>
	<path fill="#2f3e9e" d="M141.528,63.197h-1.972c-0.14,0-0.253-0.113-0.253-0.252c0-0.14,0.113-0.253,0.253-0.253h1.972
		c0.14,0,0.253,0.114,0.253,0.253C141.781,63.084,141.668,63.197,141.528,63.197"/>
	<path fill="#2f3e9e" d="M141.528,64.13h-1.972c-0.14,0-0.253-0.113-0.253-0.253c0-0.14,0.113-0.253,0.253-0.253h1.972
		c0.14,0,0.253,0.114,0.253,0.253C141.781,64.017,141.668,64.13,141.528,64.13"/>
	<path fill="#2f3e9e" d="M141.528,65.063h-1.972c-0.14,0-0.253-0.113-0.253-0.252c0-0.14,0.113-0.253,0.253-0.253h1.972
		c0.14,0,0.253,0.114,0.253,0.253C141.781,64.95,141.668,65.063,141.528,65.063"/>
	<path fill="#2f3e9e" d="M141.528,65.996h-1.972c-0.14,0-0.253-0.113-0.253-0.253c0-0.14,0.113-0.254,0.253-0.254h1.972
		c0.14,0,0.253,0.114,0.253,0.254C141.781,65.883,141.668,65.996,141.528,65.996"/>
	<path fill="#2f3e9e" d="M141.528,66.929h-1.972c-0.14,0-0.253-0.112-0.253-0.252c0-0.139,0.113-0.254,0.253-0.254h1.972
		c0.14,0,0.253,0.114,0.253,0.254C141.781,66.816,141.668,66.929,141.528,66.929"/>
	<path fill="#2f3e9e" d="M141.528,67.862h-1.972c-0.14,0-0.253-0.113-0.253-0.252c0-0.14,0.113-0.254,0.253-0.254h1.972
		c0.14,0,0.253,0.114,0.253,0.254C141.781,67.749,141.668,67.862,141.528,67.862"/>
</g>
<polygon fill="#5b6abf" points="18.296,6.49 105.39,6.49 105.39,20.649 117.076,20.649 117.076,60.882 105.39,60.882 105.39,77.056 
	117.076,77.056 117.076,84.136 18.296,84.136 "/>
<polygon fill="#3f51b5" points="95.5,6.49 95.5,13.12 105.276,21.886 107.749,21.886 107.749,55.487 95.5,55.487 95.5,72.224 
	103.929,76.157 103.929,79.866 18.296,79.866 18.296,84.136 117.076,84.136 117.076,77.056 105.39,77.056 105.39,60.882 
	117.076,60.882 117.076,20.649 105.39,20.649 105.39,6.49 "/>
<g>
	<path fill="#3f51b5" d="M44.172,36.748c0-0.558-0.453-1.011-1.012-1.011s-1.013,0.453-1.013,1.011c0,0.559,0.454,1.011,1.013,1.011
		S44.172,37.307,44.172,36.748"/>
	<path fill="#3f51b5" d="M69.333,36.748c0-0.558-0.453-1.011-1.012-1.011c-0.559,0-1.012,0.453-1.012,1.011
		c0,0.559,0.453,1.011,1.012,1.011C68.88,37.759,69.333,37.307,69.333,36.748"/>
	<path fill="#3f51b5" d="M94.593,36.748c0-0.558-0.452-1.011-1.011-1.011c-0.559,0-1.012,0.453-1.012,1.011
		c0,0.559,0.453,1.011,1.012,1.011C94.141,37.759,94.593,37.307,94.593,36.748"/>
	<path fill="#3f51b5" d="M44.172,61.882c0-0.558-0.453-1.011-1.012-1.011s-1.013,0.453-1.013,1.011c0,0.559,0.454,1.012,1.013,1.012
		S44.172,62.44,44.172,61.882"/>
	<path fill="#3f51b5" d="M69.333,61.882c0-0.558-0.453-1.011-1.012-1.011c-0.559,0-1.012,0.453-1.012,1.011
		c0,0.559,0.453,1.012,1.012,1.012C68.88,62.893,69.333,62.44,69.333,61.882"/>
	<path fill="#3f51b5" d="M94.593,61.882c0-0.558-0.452-1.011-1.011-1.011c-0.559,0-1.012,0.453-1.012,1.011
		c0,0.559,0.453,1.012,1.012,1.012C94.141,62.893,94.593,62.44,94.593,61.882"/>
	<path fill="#3f51b5" d="M107.108,36.748c0-0.558-0.452-1.011-1.011-1.011c-0.558,0-1.012,0.453-1.012,1.011
		c0,0.559,0.454,1.011,1.012,1.011C106.656,37.759,107.108,37.307,107.108,36.748"/>
	<path fill="#3f51b5" d="M107.108,28.356c0-0.558-0.452-1.011-1.011-1.011c-0.558,0-1.012,0.453-1.012,1.011
		c0,0.559,0.454,1.012,1.012,1.012C106.656,29.368,107.108,28.915,107.108,28.356"/>
	<path fill="#3f51b5" d="M107.108,45.097c0-0.558-0.452-1.011-1.011-1.011c-0.558,0-1.012,0.453-1.012,1.011
		c0,0.559,0.454,1.011,1.012,1.011C106.656,46.108,107.108,45.655,107.108,45.097"/>
	<path fill="#3f51b5" d="M107.108,53.521c0-0.559-0.452-1.011-1.011-1.011c-0.558,0-1.012,0.453-1.012,1.011
		c0,0.559,0.454,1.011,1.012,1.011C106.656,54.532,107.108,54.079,107.108,53.521"/>
	<path fill="#3f51b5" d="M134.674,78.179c0-1.688,1.368-3.056,3.056-3.056c1.688,0,3.057,1.368,3.057,3.056
		c0,1.688-1.368,3.056-3.057,3.056C136.042,81.235,134.674,79.868,134.674,78.179"/>
	<path fill="#3f51b5" d="M128.167,19.213c0-1.688,1.368-3.056,3.056-3.056c1.689,0,3.057,1.368,3.057,3.056
		c0,1.688-1.368,3.056-3.057,3.056C129.535,22.269,128.167,20.901,128.167,19.213"/>
	<path fill="#3f51b5" d="M128.167,26.089c0-1.688,1.368-3.056,3.056-3.056c1.689,0,3.057,1.368,3.057,3.056
		c0,1.688-1.368,3.056-3.057,3.056C129.535,29.146,128.167,27.778,128.167,26.089"/>
	<path fill="#3f51b5" d="M123.424,31.832c0-1.688,1.368-3.056,3.056-3.056c1.689,0,3.057,1.368,3.057,3.056
		c0,1.689-1.368,3.056-3.057,3.056C124.792,34.889,123.424,33.521,123.424,31.832"/>
</g>
<path fill="#3f51b5" d="M132.211,66.521c0,1.929-1.565,3.493-3.493,3.493l0,0c-1.929,0-3.493-1.564-3.493-3.493V49.747
	c0-1.929,1.564-3.493,3.493-3.493l0,0c1.929,0,3.493,1.564,3.493,3.493V66.521z"/>
</svg>
