<?xml version="1.0" encoding="utf-8"?>
<!-- Generator: Adobe Illustrator 19.2.1, SVG Export Plug-In . SVG Version: 6.00 Build 0)  -->
<svg version="1.1" id="Layer_1" xmlns="http://www.w3.org/2000/svg" xmlns:xlink="http://www.w3.org/1999/xlink" x="0px" y="0px"
	 viewBox="4.4 1695 1238.8 1888.7" enable-background="new 4.4 1695 1238.8 1888.7" xml:space="preserve">
<path fill="#455A64" d="M519.2,3581.6l5.9-2.9l-6-10.6h90.4l-33.1-10.3c0,8.6,5.8,16.2,14.2,18.4c4.1,1,8.2,1.6,12.4,1.7l46.8-5.4
	l132.4-13.1l87.8-6.4l65.2-4.6l112.3-4l72.1-4.6l8.3-1.2c11.3-1.7,22.6-2.6,34-2.9c12.4-0.3,24.9-0.9,37.3-1.7
	c22.4-1.4,40.6-18.4,43.7-40.6l-22.4-422.9l-3.1-75.7l3.9-194.9l2.4-69.6c-5.1-19-17.3-34.6-33.1-44.4v-33.5l6.5,3.6
	c5.7,0,11.3-0.2,17-0.5c8.1-0.5,14.8-6.5,16.4-14.5c2.5-13,4-26.3,4.5-39.5l2.2-63.8l-1.6-143.8l-16.9-225l-11.1-123.4l-5.3-177.5
	c-0.5-6.4-4.6-12-10.6-14.3l-24.2,0.6v-43.6l0.7,0.3l3.7,1.2l2.9,0.8l2.2,0.5l1.7,0.3l1.3,0.2l1.1,0.1l1.1,0.1l1,0.1h1h1h1l1-0.1
	l1-0.1l1-0.2l1-0.2l1-0.3l1-0.4l1-0.4l0.9-0.5l0.9-0.6l0.8-0.6l0.7-0.7l0.7-0.8l0.6-0.9l0.5-0.9l0.4-1.1l0.3-1.2l0.3-1.3l0.2-1.4
	l0.2-1.6l0.1-1.7l0.1-1.9v-2.1v-2.4v-2.6v-2.9v-3.2v-3.5v-3.9v-4.2v-4.4v-4.6v-4.7v-4.7v-4.7v-4.7v-4.6v-4.4l-0.1-4.2l-0.1-4
	l-0.1-3.7l-0.1-3.4l-0.2-3l-0.2-2.7l-0.2-2.3l-0.3-1.9l-0.3-1.6l-0.4-1.3l-0.5-1.1l-0.5-0.9l-0.6-0.8l-0.7-0.7l-0.7-0.7l-0.8-0.7
	l-0.9-0.7l-1.5-0.4l-1-0.7l-1-0.7l-1.1-0.6l-1.1-0.6l-1.2-0.6l-1.5-0.6l-2.2-0.5l-3.2-0.5l-4.6-0.4l-6.3-0.4l-8.3-0.3l-10.6-0.3
	l-13.1-0.2l-15-0.2h-16.4l-17,0.1l-16.9,0.3l-16.1,0.5l-14.7,0.7l-12.6,1l-10,1.2l-7.8,1.4l-6.2,1.6l-5.2,1.6l-4.9,1.5l-5.1,1.4
	l-6,1.2l-7.5,0.9l-9.5,0.6l-11,0.3l-12.1,0.2l-12.6,0.2l-12.5,0.3l-11.9,0.6l-10.8,0.9l-9.1,1.4l-7,2l-5.1,2.5l-3.5,2.8l-2.2,3
	l-1.2,3.1l-0.6,3.1l-0.2,3l-0.2,2.7l-0.4,2.4l-0.6,2l-0.8,1.7l-1,1.5l-1.2,1.4l-1.3,1.3l-1.5,1.2l-1.6,1.2l-1.7,1.3l-1.7,1.4
	l-1.8,1.4l-1.8,1.5l-1.8,1.5l-1.8,1.5l-1.8,1.6l-1.8,1.6l-1.8,1.6l-1.7,1.6l-1.7,1.6l-1.7,1.6l-1.6,1.6l-1.6,1.6l-1.6,1.6l-1.6,1.6
	l-1.6,1.7l-1.6,1.7l-1.6,1.7l-1.6,1.7l-1.5,1.7l-1.5,1.7l-1.4,1.7l-1.4,1.7l-1.3,1.6l-1.2,1.6l-1.2,1.6l-1.1,1.6l-1.1,1.7l-1.1,1.7
	l-1.1,1.8l-1.1,1.9l-1.2,2l-1.2,2.1l-1.2,2.2l-1.2,2.2l-1.2,2.3l-1.2,2.3l-1.2,2.4l-1.2,2.4l-1.2,2.4l-1.1,2.5l-1.1,2.5l-0.5,1.1
	l-3.3,2.9l-3.4,2.4l-6,2l-8.7,1.4l-14.1,1l-16.3,1l-19.1,1l-91.7,1v-9.2h-19.4l-60.9-90.4l-5-7.9l-6.5-5l-11.9-1.1l-17.2,0.7
	l-40.9-1.4l-42.3-4.3l-79.6-0.8l-144.1-0.7l-126.2,0.7l-34.4,0.5c-21.9,0.3-39.4,18.1-39.4,40v813.2l0.6,0.5l7.2,8.6l5.7,25.1
	l15.8,38l30.1,77.5l34.4,81.8l27.2,69.6l20.8,67.4l20.1,87.5l33.8,115l19.4,62.4l7.2,41.6v46.6l-4.3,40.9l1.4,38l22.9,49.5
	l45.9,62.4l43.7,57.4l19.4,14.3l39.4,12.9l25.1,4.3l27.2,2.9l33.7,2.9l27.2,3.6L519.2,3581.6z M9.6,2104.8l9.5-21.6l4-10.2v37
	L9.6,2104.8z"/>
<path fill="#37474F" d="M206.5,2432.9l-3.6-14.4c-0.3-3.9,2.1-7.5,5.8-8.8l54.1-11.1c-27-118.5,18.4-282.1,225.8-310.4
	c0.4-7-3.8-32.5-3.8-32.5l-2.5,0.4l-1.6-10.1l-6.3,1.1l-2-11l15.1-3.2l-23.9-112.2c-49.6-7.5-100.2-5.5-149.1,6
	c-23.9,5.6-47.3,13.1-69.9,22.5c-20.3,8.4-39.9,18.2-58.8,29.5c-46.5,27.1-84.5,66.7-109.5,114.4c-23.1,54.3-32.3,113.5-26.7,172.2
	c1.2,58.3,15,115.6,40.5,168.1l10.3-5l11,20.6L206.5,2432.9z"/>
<g>
	<g id="LWPOLYLINE_58_">
		<path fill="#37474F" d="M353.7,2430.8c-17.8-4.2-35.9-6.8-54.1-7.9l11.5,32.1l6.8,7L353.7,2430.8z"/>
	</g>
	<path fill="#37474F" d="M519.2,3581.6l5.9-2.9l-11-57.9c-1.3-6.7-2.5-13.4-3.6-20.1c-3.1-18.6-4.1-37.6-2.8-56.4
		c1.2-17.4,1.9-34.9,1.9-52.3c0.1-21.6-2-43.2-6.2-64.4c-0.3-1.4-0.9-2.7-1.8-3.7l-8.8-19.7l-13.3-38.6l-13.8-51.9l-31.2-110.7
		l-44.2-157l-45.4-162.1c-1.3-4.8-2.3-9.7-2.7-14.6l-2-3l-2.9-4.1l-3.9-5.7l-5.2-3.4l-11.7-7.5l2.7-10.5l-5.1-16.5l-10.1-4.3
		l2.8-7.3l-29-14.5l-3.2-1.4l-9.8,13l-70.8-55.3l6.1-9.3l-43.5-34.7l-26.8-34.1l-28.5-65.5l-10.6-51.5c-32.8-58.9-50.6-125-52-192.4
		c-4.2-44.8-0.1-89.9,12.2-133.2l0.4-0.4c4.2-14.7,9.2-29.1,15.2-43.2c25.7-48.8,64.5-89.4,112.2-117.2
		c19.3-11.5,39.4-21.6,60.2-30.2c23.2-9.6,47.2-17.3,71.6-23.1c43.4-10.2,88.2-13.1,132.5-8.6c18.6-26.6,47.9-43.7,80.2-46.8
		c32.5-3.2,65.2,4.5,92.9,21.9l37.1,23.3l24.3,17.6l23.4-0.3v-51.5h86.6l-0.1,4.7l-0.2,10.3l-0.1,12.2l-0.1,13.6v14.5v14.9l0.1,14.7
		l0.2,13.9l0.3,12.6l0.4,10.8l0.5,8.5l0.7,6.4l0.8,4.5l0.9,3l1,1.7l1.1,0.7h1.2l1.3-0.4l1.3-0.5l1.4-0.6l1.4-0.7l1.4-0.7l1.3-0.7
		l1.2-0.7l1.1-0.7l0.9-0.6l0.7-0.5l0.6-0.5l0.4-0.6l0.3-0.9l0.2-1.3l0.1-1.8v-2.4v-3.2v-4v-4.9v-5.8v-6.6v-7.4v-8.3v-9.1v-9.9
		l0.1-10.6l0.3-11.3l0.6-11.9l1.1-12.4l1.8-12.8l2.6-13.1l3.6-13.3l4.7-13.5l6-13.5l7.3-13.2l8.4-12.8l9.5-12.1l10.6-11.2l11.5-10.4
		l12.5-8.7l13.4-7.1l14.1-5.3l14.7-3.7l14.9-2.3l14.9-1l14.7,0.1l14.1,1l13.3,1.7l12.3,2.2l11,2.5l9.9,2.8l9.1,3.1l8.5,3.4l8.2,3.6
		l8.1,3.8l8.2,4l8.6,4.2l9.2,4.3l9.6,4.4l9.8,4.4l9.7,4.2l9.4,4l8.8,3.7l8,3.3l7,2.8l5.8,2.2l4.7,1.7l3.7,1.2l2.9,0.8l2.2,0.5
		l1.7,0.3l1.3,0.2l1.1,0.1l1.1,0.1l1,0.1h1h1h1l1-0.1l1-0.1l1-0.2l1-0.2l1-0.3l1-0.4l1-0.4l0.9-0.5l0.9-0.6l0.8-0.6l0.7-0.7l0.7-0.8
		l0.6-0.9l0.5-0.9l0.4-1.1l0.3-1.2l0.3-1.3l0.2-1.4l0.2-1.6l0.1-1.7l0.1-1.9v-2.1v-2.4v-2.6v-2.9v-3.2v-3.5v-3.9v-4.2v-4.4v-4.6
		v-4.7v-4.7v-4.7v-4.7v-4.6v-4.4l-0.1-4.2l-0.1-4l-0.1-3.7l-0.1-3.4l-0.2-3l-0.2-2.7l-0.2-2.3l-0.3-1.9l-0.3-1.6l-0.4-1.3l-0.5-1.1
		l-0.5-0.9l-0.6-0.8l-0.7-0.7l-0.7-0.7l-0.8-0.7l-0.9-0.7l-1.7-0.4l-1-0.7l-1-0.7l-1.1-0.6l-1.1-0.6l-1.2-0.6l-1.5-0.6l-2.2-0.5
		l-3.2-0.5l-4.6-0.4l-6.3-0.4l-8.3-0.3l-10.6-0.3l-13.1-0.2l-15-0.2h-16.4l-17,0.1l-16.9,0.3l-16.1,0.5l-14.7,0.7l-12.6,1l-10,1.2
		l-7.8,1.4l-6.2,1.6l-5.2,1.6l-4.9,1.5l-5.1,1.4l-6,1.2l-7.5,0.9l-9.5,0.6l-11,0.3l-12.1,0.2l-12.6,0.2l-12.5,0.3l-11.9,0.6
		l-10.8,0.9l-9.1,1.4l-7,2l-5.1,2.5l-3.5,2.8l-2.2,3l-1.2,3.1l-0.6,3.1l-0.2,3l-0.2,2.7l-0.4,2.4l-0.6,2l-0.8,1.7l-1,1.5l-1.2,1.4
		l-1.3,1.3l-1.5,1.2l-1.6,1.2l-1.7,1.3l-1.7,1.4l-1.8,1.4l-1.8,1.5l-1.8,1.5l-1.8,1.5l-1.8,1.6l-1.8,1.6l-1.8,1.6l-1.7,1.6l-1.7,1.6
		l-1.7,1.6l-1.6,1.6l-1.6,1.6l-1.6,1.6l-1.6,1.6l-1.6,1.7l-1.6,1.7l-1.6,1.7l-1.6,1.7l-1.5,1.7l-1.5,1.7l-1.4,1.7l-1.4,1.7l-1.3,1.6
		l-1.2,1.6l-1.2,1.6l-1.1,1.6l-1.1,1.7l-1.1,1.7l-1.1,1.8l-1.1,1.9l-1.2,2l-1.2,2.1l-1.2,2.2l-1.2,2.2l-1.2,2.3l-1.2,2.3l-1.2,2.4
		l-1.2,2.4l-1.2,2.4l-1.1,2.5l-1.1,2.5l-0.5,1.1l-3.3,2.9l-3.4,2.4l-6,2l-8.7,1.4l-14.1,1l-16.3,1l-19.1,1l-91.7,1v-9.2h-19.4
		l-60.9-90.4l-5-7.9l-6.5-5l-11.9-1.1l-17.2,0.7l-40.9-1.4l-42.3-4.3l-79.6-0.8l-144.1-0.7l-126.2,0.7l-44.2,0.7
		c-16.4,0.2-29.5,13.6-29.5,30V2573l0.6,0.5l7.2,8.6l5.7,25.1l15.8,38l30.1,77.5l34.4,81.8l27.2,69.6l20.8,67.4l20.1,87.5l33.8,115
		l19.4,62.4l7.2,41.6v46.6l-4.3,40.9l1.4,38l22.9,49.5l45.9,62.4l43.7,57.4l19.4,14.3l39.4,12.9l25.1,4.3l27.2,2.9l33.7,2.9
		l27.2,3.6L519.2,3581.6z"/>
	<path fill="#37474F" d="M810.8,2195.1v-65.6l-1.1-49.3c0-0.5-0.4-0.8-0.9-0.8c-0.2,0-0.4,0.1-0.5,0.2l-46.2,36.5l-65.2,57.5
		c0.9,1,1.7,2.1,2.6,3.1l14.9,22.7l6,10.1l10.8,11.8l11.4,7.9l15.7,9.3l16.8,7.9l14.7,3.9l13.6,0.7l8.9-0.4l4.3-0.8
		C812.8,2231.8,810.8,2213.3,810.8,2195.1z"/>
	<path fill="#37474F" d="M890.2,2650.2l7.4,5.4l12.2,7.4l15.5,7.1l23.7,10.9l27.6,11.8l76.7,35.6l13.3,5.5l1.7,0.9l21.2,10.7
		c4.3,2.2,7.4,6.2,8.4,11l0.8,62.1l1.2,72.7l0.9,72.3l1,48.5l0.7,23c0.1,2-0.4,4-1.4,5.7l-12.9,1c-1.1,0.1-1.9,1-1.9,2.1l6.9,62.8
		l6.4,53.6l5.1,47.1l4.1,38.3l3.9,34.8l6.1,49l10.2,84.4l3.6,33.5c0,0.3,0,0.6,0,0.9c-0.1,3.6-3.1,6.5-6.7,6.4l-79.7,3.2l-100.6,3.8
		l-46,1.7c-15.5,0.6-31.1,1.7-46.6,3.2l-61.3,8.8l-59.9,6.4l-83.7,11.1c-2.2,0.3-4.3-1.1-4.9-3.2l-2.3-43.3l-21.3-162l-8.4-75.5
		l-12.5-107c-0.2-2.1-1-4.1-2.2-5.8c-1.6-2.3-4-3.8-6.7-4.2c-4.5-0.6-9-1-13.5-1.3l-9.3,4l-12.8,10.7l-4.3,4.7
		c-7.9,8.8-11.1,20.7-8.9,32.3l12.3,68.9l6.9,48.7l6.8,70.8l5.3,60.1l2.4,42.9c1.8,32.6,2.4,65.3,1.8,98l0.1,26
		c0,8.7,5.9,16.3,14.4,18.4c4,1,8.1,1.6,12.3,1.7l46.8-5.4l132.4-13.1l87.8-6.4l65.2-4.6l112.3-4l72.1-4.6l8.3-1.3
		c11-1.7,22.1-2.6,33.3-2.9c12.7-0.3,25.4-0.9,38-1.7c22.4-1.4,40.6-18.4,43.7-40.6l-22.7-422.8l-3.1-75.7l3.9-194.9l2.4-69.6
		c-9.5-35.3-43-58.6-79.4-55.3l-126.2-7.7c-31.9-1.9-62.7-11.7-89.9-28.4l-24.8-14.7c-6.9-4.1-15.9-1.8-20,5.1
		c-4.1,6.9-1.8,15.9,5.1,20C889,2649.8,889.6,2650.1,890.2,2650.2z"/>
	<path fill="#37474F" d="M867.9,2676.2l0.3,27.7l1.2,85.7v58l2.8,127.6l0.3,62.8c0,2.4-0.9,4.8-2.5,6.6l-14.3,0.1l-52.2,2.2
		c-0.2,0-0.5,0-0.7,0c-2.1-0.3-3.7-2.2-3.4-4.4c0.3-2.1,2.2-3.7,4.4-3.4H818V3005l-2.9-143.6l-2.6-169.8l-14.1-0.6
		c-1.5-0.1-2.7-1.2-2.9-2.7c-0.2-1.5,0.3-3.1,1.3-4.2l37-20.4c1.2-0.6,2.5-0.9,3.8-0.8l7.3,4.4c4.7,2.8,9.8,4.8,15.1,6l4.9,0.8
		C866.4,2674.2,867.4,2675.1,867.9,2676.2z"/>
	<path fill="#37474F" d="M506.2,2694.1l4.4-0.3l10.7-0.6c0.2,0,0.3,0,0.5,0c1.3,0.2,2.2,1.4,2,2.8c-0.2,1.3-1.4,2.2-2.8,2l-10.5,2.3
		c-1.2,0.3-2,1.3-2,2.6v6.3l-1.4,9.5v33.5l1.7,54.1l-0.3,58.7h3.4v4.8l1.7,118.2v63l12.3,0.3c2.8,0.9,4.7,3.5,4.9,6.4
		c0.1,3.9-2.9,7.1-6.8,7.3c-1.9-0.5-3.7-1-5.6-1.6c-6.3-2-11.6-6.5-14.6-12.4c-1-2-1.6-4.2-1.7-6.4l-9.7-45.5l-4-17.4
		c-4.2-18.4-10.6-36.2-19.1-53.1c-6.7-13.4-13.6-26.8-20.6-40.2c-7.3-14.1-14.4-28.2-21.3-42.6c-12.2-25.5-13.4-54.8-3.4-81.2
		c5.5-18.6,16.6-35,31.7-47.2C469.7,2704.6,487.4,2696.4,506.2,2694.1z"/>
	<path fill="#37474F" d="M865,3073.3l-52,1.9c-2.5,0.1-4.5,2.2-4.4,4.8c0.1,2.4,2,4.3,4.4,4.4l16.2-1.6l20.3,173l2.5,22.2
		l12.2,109.3l4.5,34c0.3,2.3-0.3,4.7-1.7,6.5l-13.1,1.1h-2l1.9,17.1l55.6-6.5c2.7-0.3,4.6-2.7,4.3-5.4c0-0.2-0.1-0.4-0.1-0.6
		l-23-188.4L877,3127.2l-4.9-47.3C871.6,3076.4,868.7,3073.6,865,3073.3z"/>
	<path fill="#37474F" d="M1060.6,2647.2l-36.1-3.2c-12.9-1.2-25.7-3.6-38.1-7.3c-21.8-6.5-42.7-15.8-62.2-27.7
		c-4.6-2.8-8.4-6.6-11.3-11.1c-1.6-2.5-1.8-5.6-0.7-8.4c2.7-6.5,9-10.6,16-10.4c4.4,0.1,8.6,1.8,12,4.6c4.9,4.2,10.4,7.7,16.2,10.5
		c7.1,3.4,14.6,6.2,22.3,8.1c11.2,2.8,22.7,3.9,34.2,3.3c16.7-0.9,33.2-4.9,48.5-11.7c14.6-6.6,29.7-12.2,45-16.9
		c3.1-0.9,5.1-4,4.5-7.3l-0.7-70.4l-0.5-52.4l-1.1-57.5l-1.3-63l-0.2-65.5l-1.7-114.9l-1.7-122.5l-1.7-103c-0.1-7.4-3-14.4-8.1-19.7
		l-42.1-25l-89.6-57.7c-7.9-5.1-17.5-6.9-26.7-4.9c-10.4,2.2-20.6,5.3-30.5,9.3c-2.7,1.1-5.2,2.5-7.5,4.2c-6.3,4.7-12,10.1-17,16.2
		c-6.3,7.6-11.5,16-15.6,25c-2.8,6.1-4.7,12.5-5.9,19c-1.7,9.7-2.5,19.6-2.4,29.4l-2.4,75.2l-0.2,159.3l-1.2,97.4
		c0,2.6-2.1,4.8-4.7,4.9c-2.7,0.1-5.1-2-5.2-4.7l-3.5-41.9l-0.7-51.1l-0.5-78l-0.9-69.2l-0.9-64.3l-0.5-30.5
		c-0.4-24.3,4.3-48.4,13.8-70.7c11.7-27.4,34.4-48.6,62.6-58.2c33.5-11.4,69.7-12.1,103.5-1.8l65.5,26.8l110.4,44.1
		c6,2.4,10.1,7.9,10.6,14.3l5.3,177.5l11.2,123.4l16.9,225l1.5,143.8l-2.4,63.9c-0.5,13.3-2,26.5-4.5,39.5
		c-1.5,8-8.3,13.9-16.4,14.5c-5.6,0.4-11.3,0.5-16.9,0.5L1060.6,2647.2z"/>
	<path fill="#37474F" d="M355.7,2728.1l4,1.6c3.2,2.2,5.8,5.1,7.5,8.6l20.2,41.5c1.3,1.9,2.1,4.1,2.1,6.4l0.1,4.9
		c-0.9,13.1,0,26.3,2.8,39.2l26.9,68l15,30.4c22.6,45.8,37.7,94.8,44.9,145.4l24.3,114.7c6.3,29.6,10.4,59.5,12.4,89.7l8.4,91.1
		l4.9,70.1c2.9,41.5,3.6,83.1,2,124.6c0.1,3.1-0.2,6.2-1.1,9.2l-10.2-53.8c-1.3-6.7-2.5-13.5-3.6-20.2c-3-18.1-3.9-36.4-2.7-54.7
		c1.2-17.6,1.9-35.1,1.9-52.7c0.1-22-2-44-6.4-65.6c-0.4-2-1.3-4-2.5-5.7l-8.4-18.8l-13.1-38.1l-13.7-51.8l-31.3-110.7l-44.2-157
		l-45.4-162.1c-3.2-11.3-3.7-23.2-1.6-34.7C350.3,2740.8,352.6,2734.1,355.7,2728.1z"/>
	<path fill="#37474F" d="M758,2086.1l50.5-42.6c0.2-0.2,0.3-0.4,0.3-0.7l-0.3-14.8c0-0.5-0.4-0.8-0.9-0.8c-0.1,0-0.3,0-0.4,0.1
		l-127.6,75.4l-18.9,8.7l-4,6.4l3.8,17.6c5.8,5.8,11.9,11.5,18.1,17L758,2086.1z"/>
	<path fill="#37474F" d="M601.6,1889.2l-19-8.2l-23.3-6.1l-21.8-2.1l-21.8,2.1l-15,5l-12.9,7.5l-7.5,6.4l-7.5,7.9l-4.2,7.2
		l142.9,16.8c4.4,0.6,7.5,4.7,6.8,9.1l-4,37.6l9.9,6l11.4,6.8c-4.7-2.8-7.6-7.8-7.7-13.3l3-41.8c0-0.7,0.1-1.3,0.3-2
		c1.7-8.2,9.7-13.4,17.9-11.7l-25.3-14.7L601.6,1889.2z"/>
	<path fill="#37474F" d="M939.1,2541.9l3.7-5.7c1.7-2.6,2.7-5.6,2.9-8.7c0.8-12.1,0.9-24.2,0.3-36.3c-0.3-6.3-1.1-12.6-2.3-18.9
		v-51.2h-12.9l-8-127.5h14.1c1.7,0,3-1.3,3-3v-4.5c0-1.7-1.3-3-3-3l-66.8-0.1c-3.4,0.7-5.5,4-4.8,7.4v0.1l29.8,75l24.3,62.5
		c0,0.1,0,0.2,0,0.3c0,1.5,0.5,2.9,1.3,4.1l1.6,4.2c5.1,13.1,8.2,26.8,9.2,40.8c1.4,18.9,0.4,37.8-3,56.4c-0.7,4.1,1.9,7.9,6,8.7
		C936.2,2542.8,937.7,2542.6,939.1,2541.9z"/>
	<g id="LWPOLYLINE_57_">
		<path fill="#37474F" d="M365.3,2453.4l36.2,48l-29.7,51.6l-29.4,45.4c-3.1,4.8-8.4,7.7-14.1,7.8c-3.7,0.1-7.4-0.7-10.8-2.2
			l-12.4-10.2l4.4-7.3l-2.7-2c-10.6-8.1-18.2-19.5-21.6-32.4c-1.1-4-1.1-8.3,0-12.3l46.6-60.3L365.3,2453.4z"/>
	</g>
	<g id="LWPOLYLINE_56_">
		<path fill="#37474F" d="M588.7,2086.5l30-47.9l13.3,9l7.9-11.6l49.9,33.2l-7.7,7.4l-29.5,16.4l-32,20.2l-31.5-20.3
			c-0.3-0.2-0.6-0.5-0.9-0.8C586.8,2090.5,587,2088,588.7,2086.5"/>
	</g>
	<g id="LWPOLYLINE_55_">
		<path fill="#37474F" d="M498.2,2597.1l0.8,42.9v11.1c-2.5,0.5-5,1-7.4,1.5c-10.3,2.3-20.5,4.7-30.8,7.1
			c-30.8,7.4-59.3,22-83.2,42.7L348,2642c-3.3-6.7-2.9-14.7,1.2-21l63.2-106.9c0.1-0.2,0.3-0.4,0.4-0.6c1.6-1.9,4.4-2.2,6.3-0.6
			l2.3,1.9c19.9,16.8,43,29.3,68,36.6c5.1,1.5,8.5,6.2,8.3,11.5L498.2,2597.1L498.2,2597.1z"/>
	</g>
	<path fill="#37474F" d="M515.9,2534.6c12.3-1.9,24.3-5.2,35.8-9.6c15.7-6,31-12.8,46.1-20.2l47.1-38.3l5.2-7.1l24.7-40.1l0.2-0.7
		c9.5-18.2,14-42.1,17.3-63.9l9.5-59.2l2.7-36.2c0.4-4.9-0.9-9.8-3.7-14l-21.4-35.2l-10.1-12.5l-10.6,9.3l-5.1,5.6
		c-4.4,4.9-7.2,11.1-7.7,17.7l-1.2,6l-1.8,6.8l-1.4,8.2l-2.5,7.5l-1.8,6.1l-0.8,12.3l1,49c3.5,19.8,0.9,40.1-7.4,58.4l-3.3,8.9
		l-0.1-0.1l-1.4,2.1c-28.4,43.6-74.7,72.2-126.4,78l-8.6,0.7l-100.9-70.3l-7.5,0.4l2.5,9.7l2.9,9.7l3.2,10l4.1,9l0.2,0.5l4,10.6
		c5.4,14.3,13.3,27.5,23.3,39.1c7.4,8.6,16.1,16.1,25.7,22.1c10.2,6.4,20.6,12.4,31.2,18.1c4.6,2.4,9.7,3.6,14.9,3.5
		C501.1,2536.4,508.5,2535.8,515.9,2534.6z"/>
	<path fill="#37474F" d="M653.1,2177.8l-2.9-3.6l-38.7-34.3l-26.5,4.4l-43.9-32.9c-2.3-1.7-5.3-1.9-7.8-0.5l-15,15.9
		c7.4,13.6,22.9,36.6,31.9,49.2c4.9,6.4,10,12.7,15.3,18.8c12.4,11.2,25.6,21.5,39.6,30.7L653.1,2177.8z"/>
</g>
<path fill="#26C6DA" d="M350.6,2339.9c0-84.1,64.9-153.1,147.4-159.6l-6.6-63.7c-114.7,9.8-204.8,106-204.8,223.2
	c0,22.2,3.2,43.6,9.3,63.9l61.8-16.6C353.1,2372.2,350.6,2356.4,350.6,2339.9z"/>
<path fill="#26C6DA" d="M506.3,2266.8l-5.6-60.3c-69.2,5.1-123.8,62.9-123.8,133.5c0,14.1,2.2,27.7,6.2,40.5l53.3-15.3L506.3,2266.8
	z"/>
<g id="LWPOLYLINE_52_">
	<polygon fill="#607D8B" points="624.3,2509.6 657.6,2532.3 679.9,2500.2 687.8,2505.3 693.2,2501.6 736.7,2506.6 747.2,2491.8 
		725.7,2450.3 728.5,2446.1 719.4,2439.8 742.2,2407.6 708.7,2385.2 	"/>
</g>
<polygon fill="#607D8B" points="556,2445.8 630.5,2338.3 536.3,2270.9 569.5,2223.4 549.8,2207.3 521.5,2209.8 524,2243.8 
	530.5,2248.1 472.4,2328.4 432,2384.3 427.3,2380.8 404.7,2384.8 406.2,2405.8 443.4,2432.8 473.5,2389.3 "/>
<polygon fill="#FFFFFF" fill-opacity="0.35" stroke="#FFFFFF" stroke-miterlimit="10" points="482.3,2068.4 482,2073.5 
	481.6,2078.9 481.2,2084.5 480.7,2090.3 480.2,2096.1 479.6,2102.1 478.9,2108 478.2,2113.9 477.4,2119.8 476.6,2125.6 
	475.7,2131.4 474.7,2137.1 473.7,2142.8 472.6,2148.3 471.4,2153.9 470.1,2159.4 468.7,2164.9 467.2,2170.4 465.6,2175.8 
	464,2181.1 462.2,2186.4 460.4,2191.8 458.5,2196.9 456.5,2202.1 454.5,2207.2 452.3,2212.2 450.2,2217.1 448,2222.1 445.7,2226.8 
	443.5,2231.2 441.3,2235.6 439.1,2239.8 437,2243.8 434.9,2247.6 432.8,2251.1 430.8,2254.6 428.8,2257.9 426.8,2261.1 
	424.9,2264.2 422.9,2267.3 421,2270.2 419.1,2273.1 417.2,2276.1 415.3,2278.8 413.4,2281.8 411.5,2284.6 409.5,2287.3 
	407.4,2290.1 405.3,2292.9 403.1,2295.8 400.9,2298.6 398.6,2301.6 396.3,2304.4 394,2307.3 391.6,2310.2 389.2,2313.1 
	386.7,2315.9 384.3,2318.8 381.7,2321.8 379.2,2324.6 376.5,2327.4 373.7,2330.3 370.9,2333.2 367.9,2336.1 364.8,2339.1 
	361.5,2341.9 358.1,2344.9 354.6,2347.8 351,2350.8 347.2,2353.8 343.3,2356.8 339.3,2359.8 335.2,2362.8 330.9,2365.9 
	326.6,2368.9 322.3,2371.9 317.9,2374.8 313.4,2377.8 309,2380.6 304.6,2383.4 300.3,2386.1 296,2388.8 291.8,2391.2 287.6,2393.8 
	283.4,2396.1 279.3,2398.4 275.3,2400.6 271.3,2402.8 267.3,2404.9 263.4,2406.9 259.5,2408.9 255.8,2410.8 252.1,2412.6 
	248.5,2414.2 245,2415.8 241.7,2417.2 238.5,2418.6 235.5,2419.6 232.9,2420.8 230.6,2421.6 228.9,2422.4 227.8,2423.1 
	227.3,2423.6 227.6,2423.9 228.8,2424.1 230.7,2424.2 233.3,2424.2 236.5,2424.1 240.1,2423.9 244.2,2423.8 248.5,2423.6 
	252.9,2423.3 257.5,2423.1 262.1,2423.1 266.8,2422.8 271.5,2422.8 276.3,2422.8 281,2422.8 285.7,2422.9 290.4,2423.1 
	295.1,2423.3 299.7,2423.6 304.3,2423.9 308.8,2424.4 313.3,2424.9 317.7,2425.4 322.1,2426.1 326.5,2426.6 330.8,2427.2 
	335.1,2427.9 339.3,2428.6 343.6,2429.4 347.8,2430.2 352,2431.1 356.3,2432.1 360.6,2433.1 364.9,2434.1 369.3,2435.3 
	373.6,2436.6 378,2438.1 382.4,2439.4 386.7,2441.1 391,2442.8 395.3,2444.6 399.6,2446.4 403.8,2448.4 407.9,2450.6 411.9,2452.8 
	415.9,2454.9 419.7,2457.1 423.4,2459.4 426.9,2461.6 430.3,2463.9 433.5,2466.1 436.6,2468.4 439.6,2470.8 442.6,2473.1 
	445.6,2475.4 448.5,2477.8 451.4,2480.4 454.4,2483.1 457.4,2485.8 460.5,2488.6 463.5,2491.3 466.5,2494.1 469.4,2496.8 
	472.3,2499.6 475.2,2502.1 477.9,2504.6 480.6,2506.9 483.2,2509.2 485.6,2511.4 488.1,2513.4 490.4,2515.4 492.6,2517.3 
	494.8,2519.1 496.8,2520.8 498.8,2522.4 500.6,2523.9 502.2,2525.1 503.6,2526.1 504.7,2526.9 505.6,2527.3 506.1,2527.3 
	506.3,2526.9 506.2,2526.2 505.9,2525.1 505.3,2523.8 504.7,2522.2 503.9,2520.6 503.1,2518.6 502.4,2516.6 501.7,2514.6 
	501,2512.6 500.5,2510.4 500,2508.1 499.5,2505.8 499.2,2503.1 498.9,2500.3 498.6,2497.4 498.5,2494.2 498.4,2490.9 498.3,2487.4 
	498.4,2483.8 498.5,2480.1 498.6,2476.2 498.8,2472.4 499.1,2468.6 499.5,2464.8 499.9,2461.1 500.4,2457.2 500.9,2453.6 
	501.6,2449.8 502.4,2446.1 503.2,2442.2 504.2,2438.6 505.3,2434.8 506.5,2430.9 507.8,2427.1 509.2,2423.3 510.7,2419.4 
	512.4,2415.6 514.1,2411.6 516,2407.8 517.9,2403.8 520,2399.8 522.2,2395.6 524.4,2391.6 526.7,2387.6 529.1,2383.6 531.5,2379.6 
	534,2375.6 536.5,2371.6 539.1,2367.8 541.6,2363.9 544.2,2360.1 546.8,2356.6 549.3,2352.9 551.7,2349.4 554.1,2346.1 
	556.5,2342.9 558.7,2339.9 560.9,2337.1 563.1,2334.2 565.2,2331.4 567.3,2328.8 569.4,2326.3 571.6,2323.8 573.7,2321.6 
	575.8,2319.1 578,2316.9 580.2,2314.8 582.4,2312.6 584.7,2310.4 587.1,2308.4 589.5,2306.4 592,2304.6 594.5,2302.8 597.2,2300.8 
	599.9,2299.1 602.7,2297.3 605.5,2295.6 608.5,2293.8 611.5,2292.1 614.6,2290.4 617.7,2288.8 620.9,2287.1 624.1,2285.4 
	627.3,2283.8 630.5,2282.1 633.6,2280.6 636.7,2279.1 639.7,2277.6 642.7,2276.1 645.5,2274.8 648.4,2273.4 651.2,2272.1 
	653.9,2271.1 656.6,2269.9 659.4,2268.9 662.1,2267.9 664.7,2267.1 667.4,2266.3 670,2265.6 672.6,2264.9 675.1,2264.3 
	677.5,2263.8 679.8,2263.2 682,2262.6 684.2,2262.1 686.2,2261.6 688.1,2261.2 690,2260.8 691.7,2260.4 693.4,2260.1 694.9,2259.8 
	696.4,2259.4 697.7,2259.1 698.8,2258.9 699.5,2258.6 699.9,2258.6 699.9,2258.3 699.4,2258.1 698.4,2258.1 696.7,2257.8 
	694.5,2257.8 691.9,2257.6 689,2257.4 685.8,2257.2 682.6,2257.1 679.4,2256.9 676.2,2256.6 673.3,2256.3 670.5,2256.1 
	667.8,2255.6 665.3,2255.2 662.8,2254.8 660.3,2254.1 657.8,2253.4 655.2,2252.6 652.5,2251.8 649.8,2250.8 646.9,2249.6 
	644.1,2248.4 641.2,2247.1 638.3,2245.8 635.5,2244.6 632.7,2243.1 629.9,2241.8 627.2,2240.2 624.5,2238.8 621.7,2237.2 
	619,2235.6 616.2,2234.1 613.3,2232.2 610.4,2230.4 607.4,2228.4 604.2,2226.4 601,2224.2 597.6,2222.1 594.2,2219.6 590.7,2217.1 
	587.2,2214.3 583.6,2211.4 579.9,2208.4 576.2,2205.3 572.5,2202.1 568.9,2198.8 565.3,2195.4 561.9,2192.1 558.6,2188.8 
	555.4,2185.8 552.5,2182.6 549.8,2179.6 547.2,2176.6 544.8,2173.8 542.4,2170.9 540.2,2168.1 538,2165.1 535.8,2162.1 
	533.7,2158.9 531.5,2155.8 529.4,2152.5 527.2,2149.2 525.1,2145.9 523,2142.5 521,2139.1 519,2135.8 517.1,2132.3 515.2,2128.9 
	513.4,2125.6 511.6,2122.4 510,2119.2 508.4,2116.1 506.9,2113.1 505.6,2110.2 504.3,2107.5 503.1,2104.9 502.1,2102.3 501,2099.8 
	500.1,2097.4 499.1,2094.9 498.2,2092.4 497.2,2089.8 496.2,2087.1 495.2,2084.2 494.2,2081.3 493.2,2078.3 492.2,2075.1 
	491.2,2071.9 490.3,2068.5 489.4,2065 488.5,2061.5 487.7,2057.8 487,2054.3 486.3,2050.8 485.7,2047.5 485.1,2044.5 484.7,2041.9 
	484.3,2039.6 484,2037.9 483.8,2036.6 483.6,2035.9 483.5,2035.6 483.4,2035.9 483.4,2036.6 483.3,2037.8 483.3,2039.5 
	483.3,2041.7 483.2,2044.3 483.1,2047.4 483.1,2050.9 482.9,2054.8 482.8,2059 482.6,2063.5 "/>
<g>
	<circle fill="#FF5252" cx="775" cy="2738.8" r="36.3"/>
	<circle fill="#FF5252" cx="704" cy="3158.8" r="36.3"/>
	<circle fill="#FF5252" cx="1031.4" cy="2806.6" r="36.3"/>
	<circle fill="#FF5252" cx="1008.9" cy="3344.6" r="36.3"/>
</g>
<g>
	<path fill="#26C6DA" d="M764.4,3301.6v-86.2c0-1.7,1.3-3,3-3h65.8c1.7,0,3,1.3,3,3v86.2c0,1.7-1.3,3-3,3h-65.8
		C765.7,3304.6,764.4,3303.1,764.4,3301.6z"/>
	<path fill="#26C6DA" d="M538.9,3033.6v-155.3c0-1.7,1.3-3,3-3h120.2c1.7,0,3,1.3,3,3v155.3c0,1.7-1.3,3-3,3H541.9
		C540.3,3036.6,538.9,3035.2,538.9,3033.6z"/>
	<path fill="#26C6DA" d="M1008.6,3211.8v-86.7c0-1.7,1.3-3,3-3h51.8c1.7,0,3,1.3,3,3v86.7c0,1.7-1.3,3-3,3h-51.8
		C1009.9,3214.8,1008.6,3213.4,1008.6,3211.8z"/>
</g>
<g id="LWPOLYLINE_51_">
	<rect x="751.5" y="2379.8" fill="#2A8EA2" width="14.1" height="13.1"/>
</g>
<g id="LWPOLYLINE_50_">
	<rect x="645" y="2552.3" fill="#2A8EA2" width="14.1" height="13.1"/>
</g>
<path fill="#2A8EA2" d="M958.8,3144.6v-35.6c0-1.7,1.3-3,3-3h13.6c1.7,0,3,1.3,3,3v35.6c0,1.7-1.3,3-3,3h-13.6
	C960.1,3147.6,958.8,3146.1,958.8,3144.6z"/>
<path fill="#B0BEC5" d="M671.7,3418.7l-9.9-9.9c-0.5-0.5-0.5-1.2,0-1.7l3.8-3.8c0.5-0.5,1.2-0.5,1.7,0l9.9,9.9
	c0.5,0.5,0.5,1.2,0,1.7l-3.8,3.8C672.9,3419.2,672.2,3419.1,671.7,3418.7z"/>
<path fill="#B0BEC5" d="M513.5,2711.6l9.9-9.9c0.5-0.5,1.2-0.5,1.7,0l3.8,3.8c0.5,0.5,0.5,1.2,0,1.7l-9.9,9.9
	c-0.5,0.5-1.2,0.5-1.7,0l-3.8-3.8C513,2712.8,513,2712.1,513.5,2711.6z"/>
<path fill="#2A8EA2" d="M973,2984.1v-35.6c0-1.7,1.3-3,3-3h13.6c1.7,0,3,1.3,3,3v35.6c0,1.7-1.3,3-3,3H976
	C974.3,2987.1,973,2985.6,973,2984.1z"/>
<g>
	<path fill="#7CB342" d="M739,2961.4L739,2961.4c-5.8-0.6-11,3.5-11.8,9.2c-5.8-0.6-11,3.5-11.8,9.2c1-3.8,0.2-7.8-2.2-10.9
		c-2.4-3.1-6.1-4.9-10.1-4.8c1-3.8,0.2-7.8-2.2-10.9c-2.4-3.1-6.1-4.9-10.1-4.8c5.8,0.6,11-3.5,11.8-9.2c5.8,0.6,11-3.5,11.8-9.2
		c-1,3.8-0.2,7.8,2.2,10.9c2.4,3.1,6.1,4.9,10.1,4.8c-1,3.8-0.2,7.8,2.2,10.9C731.3,2959.8,735,2961.6,739,2961.4"/>
	<path fill="#7CB342" d="M961.9,2828.1L961.9,2828.1c-0.7-5.8-5.8-9.9-11.5-9.5c-0.7-5.7-5.8-9.9-11.5-9.5c3.9,0.2,7.7-1.5,10.2-4.5
		s3.4-7.1,2.5-10.9c3.9,0.2,7.7-1.5,10.2-4.5s3.4-7.1,2.5-10.9c0.7,5.7,5.8,9.9,11.5,9.5c0.7,5.7,5.8,9.9,11.5,9.5
		c-3.9-0.2-7.7,1.5-10.2,4.5s-3.4,7.1-2.5,10.9c-3.9-0.2-7.7,1.5-10.2,4.5C961.9,2820.3,961,2824.3,961.9,2828.1"/>
	<path fill="#7CB342" d="M937.7,3130.2L937.7,3130.2c-5.7-1.1-11.2,2.4-12.6,8c-5.7-1.1-11.2,2.4-12.6,8c1.4-3.7,1-7.8-1.1-11.1
		c-2.1-3.3-5.6-5.5-9.6-5.8c1.4-3.7,1-7.8-1.1-11.1c-2.1-3.3-5.6-5.5-9.6-5.8c5.7,1.1,11.2-2.4,12.6-8c5.7,1.1,11.2-2.4,12.6-8
		c-1.4,3.7-1,7.8,1.1,11.1c2.1,3.3,5.6,5.5,9.6,5.8c-1.4,3.7-1,7.8,1.1,11.1C930.3,3127.8,933.8,3129.9,937.7,3130.2"/>
</g>
<g>
	<path fill="#B0BEC5" d="M354.3,2438.2l11.1,11.2c1.2,1.2,1.1,3.1,0,4.2l-74.1,73.1c-1.2,1.2-3.1,1.1-4.2,0l-11.1-11.2
		c-1.2-1.2-1.1-3.1,0-4.2l74.1-73.1C351.3,2437.1,353.2,2437.1,354.3,2438.2z"/>
	<path fill="#B0BEC5" d="M341.9,2587.1l-16.8,16.2c-1.2,1.2-3.1,1.1-4.2-0.1l-45.7-47.2c-1.2-1.2-1.1-3.1,0.1-4.2l16.8-16.2
		c1.2-1.2,3.1-1.1,4.2,0.1l45.7,47.2C343.1,2583.9,343.1,2585.8,341.9,2587.1z"/>
	<path fill="#5C6BC0" d="M552.1,2829.1v-53.9c0-1.7,1.3-3,3-3H609c1.7,0,3,1.3,3,3v53.9c0,1.7-1.3,3-3,3h-53.9
		C553.4,2832.1,552.1,2830.8,552.1,2829.1z"/>
	<rect x="754.1" y="2801.9" fill="#5C6BC0" width="59.9" height="59.9"/>
	<path fill="#5C6BC0" d="M896.8,2910.6v-53.9c0-1.7,1.3-3,3-3h53.9c1.7,0,3,1.3,3,3v53.9c0,1.7-1.3,3-3,3h-53.9
		C898.1,2913.6,896.8,2912.1,896.8,2910.6z"/>
	<path fill="#5C6BC0" d="M1007.1,3032.1v-53.9c0-1.7,1.3-3,3-3h53.9c1.7,0,3,1.3,3,3v53.9c0,1.7-1.3,3-3,3h-53.9
		C1008.4,3035.1,1007.1,3033.8,1007.1,3032.1z"/>
	<path fill="#5C6BC0" d="M900.1,3302.1v-53.9c0-1.7,1.3-3,3-3H957c1.7,0,3,1.3,3,3v53.9c0,1.7-1.3,3-3,3h-53.9
		C901.4,3305.1,900.1,3303.8,900.1,3302.1z"/>
	<rect x="776.4" y="2907.8" fill="#5C6BC0" width="39" height="30"/>
	<path fill="#5C6BC0" d="M877.4,2966.1h24c1.7,0,3,1.3,3,3v33c0,1.7-1.3,3-3,3h-24c-1.7,0-3-1.3-3-3v-33
		C874.4,2967.3,875.7,2966.1,877.4,2966.1z"/>
</g>
<g>
	<path fill="#B0BEC5" d="M115,2017.5l-28.7-32c0,0-59.6,53.6-76.6,119.3l31,12l-2.2,7.5l11.8,3.3
		C50.2,2127.5,62.6,2070.4,115,2017.5z"/>
	<g id="LWPOLYLINE_53_">
		<polygon fill="#B0BEC5" points="770.2,2573.1 790.7,2572.6 812.1,2589.8 842.3,2552.6 821.5,2500.2 802.1,2505.9 782.2,2492.6 
			772.2,2506.8 768,2503.9 761,2503.9 753.3,2513.8 755.7,2520.8 759.2,2523.9 747.6,2539.9 770,2555.6 		"/>
	</g>
	<path fill="#B0BEC5" d="M688.5,2587.6l4.7,18.5c0.4,1.6-0.6,3.2-2.2,3.6l-108.5,27.7c-1.6,0.4-3.2-0.6-3.6-2.2l-4.7-18.5
		c-0.4-1.6,0.6-3.2,2.2-3.6l108.6-27.7C686.5,2584.9,688.1,2585.9,688.5,2587.6z"/>
	<path fill="#B0BEC5" d="M824.2,2413.2l-21,3.3c-1.6,0.3-3.2-0.9-3.4-2.5l-20-127.8c-0.3-1.6,0.9-3.2,2.5-3.4l21-3.3
		c1.6-0.3,3.2,0.9,3.4,2.5l20,127.8C827,2411.4,825.9,2413.1,824.2,2413.2z"/>
	<path fill="#B0BEC5" d="M710.7,2376.6l7.3,0.5c1.6,0.1,3-1.6,3.2-3.8l7.8-20.5l-0.9-78.2c0.2-2.2-1-4.1-2.6-4.2l-7.3-0.5
		c-1.6-0.1-3,1.6-3.2,3.8l-6.9,98.7C707.9,2374.6,709.1,2376.6,710.7,2376.6z"/>
	<path fill="#B0BEC5" d="M620.5,2517.2l2.3,7c0.5,1.5-0.8,3.3-2.9,4l-18,12.5l-76.1,18c-2.1,0.7-4.2,0-4.7-1.5l-2.3-7
		c-0.5-1.5,0.8-3.3,2.9-4l94.1-30.5C617.9,2515.1,620,2515.8,620.5,2517.2z"/>
	<polygon fill="#CFD8DC" points="1095.5,3420 1095.5,3316.9 1095.5,3316.9 1095.5,3310.1 1055.2,3310.1 1055.2,3331.9 
		1073.7,3331.9 1073.7,3420 	"/>
	<path fill="#B0BEC5" d="M685.6,3413.8v-15.8c0-1.7,1.3-3,3-3h130c1.7,0,3,1.3,3,3v15.8c0,1.7-1.3,3-3,3h-130
		C687,3416.8,685.6,3415.4,685.6,3413.8z"/>
	<path fill="#5C6BC0" d="M889.3,3178.3l12.6-1.4c1.6-0.2,3.1,1,3.3,2.7l4.2,38.9c0.2,1.6-1,3.1-2.7,3.3l-12.6,1.4
		c-1.6,0.2-3.1-1-3.3-2.7l-4.2-38.9C886.5,3179.9,887.7,3178.6,889.3,3178.3z"/>
	<path fill="#B0BEC5" d="M812.6,2894.2v-10c0-1.7,1.3-3,3-3h54.8c1.7,0,3,1.3,3,3v10c0,1.7-1.3,3-3,3h-54.8
		C814,2897.2,812.6,2895.9,812.6,2894.2z"/>
	<path fill="#B0BEC5" d="M832.6,3136.6v-10c0-1.7,1.3-3,3-3h41.8c1.7,0,3,1.3,3,3v10c0,1.7-1.3,3-3,3h-41.8
		C834,3139.6,832.6,3138.2,832.6,3136.6z"/>
	<path fill="#B0BEC5" d="M879.7,2716.2l4.9-11.5c0.6-1.5,2.4-2.2,3.9-1.6l119.6,50.9c1.5,0.6,2.2,2.4,1.6,3.9l-4.9,11.5
		c-0.6,1.5-2.4,2.2-3.9,1.6l-119.6-50.9C879.8,2719.6,879.1,2717.8,879.7,2716.2z"/>
	<path fill="#B0BEC5" d="M513.4,2720.6h15.8c1.7,0,3,1.3,3,3v128.8c0,1.7-1.3,3-3,3h-15.8c-1.7,0-3-1.3-3-3v-128.8
		C510.4,2721.8,511.8,2720.6,513.4,2720.6z"/>
</g>
<g>
	<polygon fill="#FFCA28" points="772.1,3144.2 772.1,3134.1 782.3,3134.1 782.3,3127.1 772.1,3127.1 772.1,3116.9 765.1,3116.9 
		765.1,3127.1 755,3127.1 755,3134.1 765.1,3134.1 765.1,3144.2 	"/>
	<polygon fill="#FFCA28" points="705,2889.2 710.9,2885.5 705.5,2876.8 714,2871.5 710.3,2865.6 701.7,2870.9 696.4,2862.4 
		690.4,2866.1 695.8,2874.6 687.2,2880.1 690.9,2886 699.5,2880.6 	"/>
	<g>
		<path fill="#FFCA28" d="M724.9,3236.3v11.5c0,2.2,1.8,4,4,4c2.2,0,4-1.8,4-4v-11.5c0-2.2-1.8-4-4-4
			C726.7,3232.3,724.9,3234.1,724.9,3236.3z"/>
		<path fill="#FFCA28" d="M714.6,3247.8v-11.5c0-2.2-1.8-4-4-4c-2.2,0-4,1.8-4,4v11.5c0,2.2,1.8,4,4,4
			C712.8,3251.8,714.6,3250,714.6,3247.8z"/>
		<path fill="#FFCA28" d="M696.6,3247.8v-11.5c0-2.2-1.8-4-4-4c-2.2,0-4,1.8-4,4v11.5c0,2.2,1.8,4,4,4
			C694.8,3251.8,696.6,3250,696.6,3247.8z"/>
		<path fill="#FFCA28" d="M678.2,3247.8v-11.5c0-2.2-1.8-4-4-4s-4,1.8-4,4v11.5c0,2.2,1.8,4,4,4S678.2,3250,678.2,3247.8z"/>
	</g>
	<polygon fill="#FFCA28" points="915.6,2782.7 915.6,2772.6 925.8,2772.6 925.8,2765.6 915.6,2765.6 915.6,2755.4 908.6,2755.4 
		908.6,2765.6 898.5,2765.6 898.5,2772.6 908.6,2772.6 908.6,2782.7 	"/>
	<polygon fill="#FFCA28" points="959.6,3229.2 959.6,3219.1 969.8,3219.1 969.8,3212.1 959.6,3212.1 959.6,3201.9 952.6,3201.9 
		952.6,3212.1 942.5,3212.1 942.5,3219.1 952.6,3219.1 952.6,3229.2 	"/>
</g>
<path fill="#5C6BC0" d="M369.9,2612.3h24c1.7,0,3,1.3,3,3v33c0,1.7-1.3,3-3,3h-24c-1.7,0-3-1.3-3-3v-33
	C366.9,2613.6,368.2,2612.3,369.9,2612.3z"/>
<g>
	<g>
		<path fill="#FFFFFF" d="M660.4,3224.8c0-9.9-8.1-18-18-18c-9.9,0-18,8.1-18,18c0,9.9,8.1,18,18,18
			C652.3,3242.8,660.4,3234.7,660.4,3224.8z M626.8,3224.8c0-8.6,7-15.6,15.6-15.6s15.6,7,15.6,15.6c0,8.6-7,15.6-15.6,15.6
			S626.8,3233.4,626.8,3224.8z"/>
		<path fill="#E53935" d="M656.4,3224.8c0-7.7-6.3-14-14-14c-7.7,0-14,6.3-14,14c0,7.7,6.3,14,14,14
			C650.1,3238.8,656.4,3232.5,656.4,3224.8z M639.9,3234.3v-7h-7v-5.1h7v-7h5.1v7h7v5.1h-7v7H639.9z"/>
	</g>
	<g enable-background="new    ">
		<g>
			<defs>
				<rect id="SVGID_1_" x="632.4" y="3214.8" width="20" height="20"/>
			</defs>
			<clipPath id="SVGID_2_">
				<use xlink:href="#SVGID_1_"  overflow="visible"/>
			</clipPath>
			<g clip-path="url(#SVGID_2_)">
				<defs>
					<polygon id="SVGID_3_" points="639.9,3234.6 639.9,3227.3 632.6,3227.3 632.6,3222 639.9,3222 639.9,3214.8 645.2,3214.8 
						645.2,3222 652.4,3222 652.4,3227.3 645.2,3227.3 645.2,3234.6 					"/>
				</defs>
				<clipPath id="SVGID_4_">
					<use xlink:href="#SVGID_3_"  overflow="visible"/>
				</clipPath>
				<g clip-path="url(#SVGID_4_)">
					<defs>
						<rect id="SVGID_5_" x="632.4" y="3214.8" width="20" height="20"/>
					</defs>
					<clipPath id="SVGID_6_">
						<use xlink:href="#SVGID_5_"  overflow="visible"/>
					</clipPath>
					<rect x="626.4" y="3208.5" clip-path="url(#SVGID_6_)" fill="#FFFFFF" width="32.3" height="32.3"/>
				</g>
			</g>
		</g>
	</g>
</g>
</svg>
